<?xml version="1.0" encoding="UTF-8"?>
<!DOCTYPE svg PUBLIC "-//W3C//DTD SVG 1.1//EN" "http://www.w3.org/Graphics/SVG/1.1/DTD/svg11.dtd">
<!-- Creator: CorelDRAW X7 -->
<svg xmlns="http://www.w3.org/2000/svg" xml:space="preserve" width="594mm" height="841mm" version="1.1" style="shape-rendering:geometricPrecision; text-rendering:geometricPrecision; image-rendering:optimizeQuality; fill-rule:evenodd; clip-rule:evenodd"
viewBox="0 0 594000 841000"
 xmlns:xlink="http://www.w3.org/1999/xlink">
 <defs>
  <style type="text/css">
   <![CDATA[
    .fil0 {fill:#2B2A29}
   ]]>
  </style>
 </defs>
 <g id="Слой_x0020_1">
  <metadata id="CorelCorpID_0Corel-Layer"/>
  <path class="fil0" d="M298967 143944c6090,266 12636,-657 18362,975 4833,1378 8238,4679 10012,8946 3868,9298 3384,24471 -2902,30300 -5725,5307 -15385,5074 -23206,2957 -2392,-648 -3272,-3600 -3204,-6073 337,-12356 684,-24749 938,-37105zm-58376 144992c1435,5745 10720,4011 9195,-2437 -1395,-5899 -10762,-3838 -9195,2437zm10122 -12226c-5774,2387 -2365,11161 3672,8731 5450,-2194 2309,-11202 -3672,-8731zm-7213 -7193c-5612,2194 -2502,10995 3470,8821 5687,-2071 2762,-11256 -3470,-8821zm-7059 6579c-5978,2167 -2743,10930 3203,8907 5684,-1934 2902,-11120 -3203,-8907zm96448 -177327c-5775,2386 -2366,11161 3672,8730 5450,-2194 2309,-11202 -3672,-8730zm-14272 -614c-5978,2167 -2743,10930 3203,8907 5684,-1934 2902,-11121 -3203,-8907zm7059 -6579c-5612,2193 -2502,10994 3470,8820 5687,-2070 2762,-11256 -3470,-8820zm-2909 19419c1435,5745 10719,4011 9194,-2438 -1394,-5898 -10761,-3837 -9194,2438zm-36696 -21782c2171,-5508 8875,-17837 12965,-19376 4382,-1650 5728,-4076 7729,-8447 2117,-4623 3306,-11655 -2019,-4814 -11696,15029 -14746,7844 -20545,11792 -8120,5528 -4673,16824 1870,20845zm93547 -10083c2229,1531 10597,19243 12444,23386 1893,4247 3536,8459 5150,12883 1344,3682 3665,9751 4359,13627 1596,2356 5936,24138 6708,28761 8578,51392 2674,105308 -19208,151953 -7753,16528 -20252,35048 -33043,47180l-4755 4263c-10638,8734 -19450,14933 -33676,19808 -20804,7127 -40951,5430 -60207,-2635 -12675,-5309 -22696,-13121 -31950,-21845l-8599 -9118c-10616,-12714 -18980,-26079 -27101,-44112 -30984,-68797 -25947,-167849 15926,-230117 15595,-23190 45970,-55321 89869,-52730 21897,1292 38196,10503 51230,20416 3394,2581 13394,11774 16156,15244 5192,6524 8358,9752 13534,17559l2548 3991c638,1036 490,499 615,1486zm-7437 -17299c-897,-444 -3067,-3378 -3825,-4330 -654,-821 -1222,-1371 -1855,-2189 -1752,-2263 -3903,-4191 -5907,-6215 -7199,-7265 -13341,-12547 -22330,-18094 -14438,-8911 -30436,-14403 -51155,-13900 -21385,1584 -36935,8571 -50529,18569 -6331,4658 -13265,10579 -18212,16309 -3059,3543 -4736,5066 -8061,9345 -47992,61771 -55563,162036 -26903,234923 13854,35234 34048,62245 60331,78657 14372,8974 34171,15382 55111,13450 50922,-4697 88330,-54506 103912,-104419 20294,-65004 16515,-140385 -16929,-200995 -3604,-6530 -6150,-10157 -10151,-15970 -1045,-1519 -3208,-3778 -3497,-5141zm-94162 123207c-6811,2257 -17524,2485 -23443,-1005 -5928,-3496 -8727,-9581 -8508,-19172 209,-9103 2932,-15769 8367,-19297 7313,-4748 14980,-3067 24125,-3366l-541 42840zm-68 -74470c378,1270 952,6191 692,8174 -11450,334 -23030,370 -34452,-315 -6017,-362 -16855,-1227 -22342,-3662 -2620,-1163 -2489,-2532 -4394,-3911 -1622,373 -1505,544 -1976,2298 -860,3209 -1639,5936 -3271,8849 -9484,16933 -26936,20248 -25161,23901 3235,3018 18113,-2981 21629,-4424 3326,-1366 6495,-2879 9397,-4599 5606,-3323 6626,-5653 7915,-6387 7311,-4160 42315,-2805 52645,-2203l37 5376c-12233,472 -21208,1111 -31604,5471 -8117,3403 -15714,9947 -16855,20447 -1106,10182 2697,20976 9764,27238 9012,7985 19264,7341 29673,7546 -927,1618 -2165,2476 -3543,3909 -4415,4592 -6300,7003 -11624,11706 -833,735 -976,914 -1874,1849l-6144 5365c-2925,2341 -5556,4551 -8764,6783 -5736,3991 -12459,7937 -20709,10067 -8572,2212 -16222,1308 -24726,1934 -1558,114 -2370,-8 -3005,1029 379,1482 1972,900 6673,2556 7375,2597 12836,5362 19766,8219 5984,2466 9153,2156 14559,-769 15339,-8296 22815,-19321 34020,-31912l13473 -14704c354,3329 -606,72299 -627,78276 -69,19017 -911,33629 -8478,50875 -1561,3559 -5344,10842 -7889,11943 800,-8401 -2243,-9248 -8009,-12289 -3109,-1639 -4878,-1634 -8191,205 -2213,1229 -4359,3057 -5480,5085 -5156,9325 12706,17874 23833,13265 8736,-3618 15468,-13111 19887,-22084 6653,-13508 5135,-16769 7943,-23781 473,-1183 1155,-2586 1736,-3548 923,-1529 1020,-2040 1784,-3567 1272,313 5439,2641 10124,3924 10726,2936 19533,1474 28707,-3894 1511,-884 3692,-1297 3761,-3386 -1364,-1608 -4650,-874 -7149,-938 -10003,-256 -22936,-4070 -28523,-12510 -2357,-3562 -3410,-7562 -3705,-12776 -1190,-21051 -103,-43595 149,-64775 3406,163 1014,-198 5035,3311 3243,2830 21960,25065 24964,28828 1368,1714 2641,3421 4106,4910 3256,3313 4772,5481 9348,8382 7754,4916 17979,8069 27486,8198 1154,16 14954,-469 14485,-3292 -215,-1295 -4087,-1151 -6363,-1639 -12785,-2739 -32026,-17060 -41517,-25035 -8630,-7251 -23712,-20165 -30208,-28295 8197,234 16669,1784 25531,-2772 6707,-3449 10880,-7868 13621,-15912 6766,-19856 -2603,-32442 -17709,-37588 -8673,-2955 -17274,-4025 -27188,-3928l224 -6588c3551,-591 13392,66 17521,197 5608,178 11214,444 16793,880 4538,354 19209,1436 22344,4666 865,891 1075,1375 2111,2243l2293 2206 9165 5926c2909,1785 6477,3882 9739,5497 3206,1587 18416,10016 21389,9153 285,-1669 -800,-1968 -3640,-3577 -8937,-5066 -13648,-9543 -19812,-17505 -1134,-1465 -5290,-7533 -5509,-9362 -2842,-2327 -5309,-14872 -8855,-14883 -1895,-6 -1822,1612 -3364,2595 -8910,5673 -50313,2627 -59895,2109 -102,-6380 363,-13341 567,-19777l354 -19003c-685,-1777 1415,560 -336,-502 -154,1058 -2588,4210 -3348,5299l-11153 15818c-2784,-1106 -8689,-4044 -11866,-3079 -821,3388 2781,2143 4015,12663z"/>
 </g>
</svg>
