<?xml version="1.0" encoding="UTF-8"?>
<!DOCTYPE svg PUBLIC "-//W3C//DTD SVG 1.1//EN" "http://www.w3.org/Graphics/SVG/1.1/DTD/svg11.dtd">
<!-- Creator: CorelDRAW X7 -->
<svg xmlns="http://www.w3.org/2000/svg" xml:space="preserve" width="594mm" height="841mm" version="1.1" style="shape-rendering:geometricPrecision; text-rendering:geometricPrecision; image-rendering:optimizeQuality; fill-rule:evenodd; clip-rule:evenodd"
viewBox="0 0 594000 841000"
 xmlns:xlink="http://www.w3.org/1999/xlink">
 <defs>
  <style type="text/css">
   <![CDATA[
    .fil0 {fill:#2B2A29}
   ]]>
  </style>
 </defs>
 <g id="Слой_x0020_1">
  <metadata id="CorelCorpID_0Corel-Layer"/>
  <g>
   <path class="fil0" d="M379692 75956c5413,4887 9270,8900 13581,13318 3839,3935 9076,10092 11887,14452 1671,2237 2650,3281 3735,6049 3239,1433 11594,21306 13403,26807 2718,8263 7715,25848 4873,34554 -2048,-2830 -4322,-19394 -5468,-23940 -2014,-7987 -4587,-15083 -8550,-20974 2852,9981 4597,9076 6774,24787l3295 26442c-3457,-8613 -5979,-31622 -14360,-40097l2247 5185c2302,3515 9666,41488 9024,42817 -3576,-6732 -3727,-22895 -11100,-33106 3324,7236 8698,36677 7565,38542 -3201,-4724 -3950,-15584 -6936,-23925 -958,-2675 -2562,-4587 -3454,-6571 3227,9390 4686,22513 6294,33024l-1782 -2763c-2511,-5772 -2772,-14313 -7975,-24665l-119 1852c1891,2241 2598,11318 3092,15021 940,7041 2175,9971 3918,15665 -6266,-3598 -7019,-19805 -9961,-28575 -884,-2639 -3052,-5989 -3659,-7679l2924 9817c420,5653 1088,13072 2141,18395 2070,10473 4370,9987 6280,13413 -1221,3902 -2562,5108 -2658,10609 -61,3510 256,9512 2364,11697 -79,5277 4463,13992 6559,18870 2218,5162 7002,12612 6688,19138 -4205,1182 -7452,4244 -11492,6340 -2670,-650 -4985,-2298 -8054,-3480 -8693,-3348 -15607,-4281 -24674,-9819 -2335,-1223 -3407,-1991 -5071,-3869 111,-156 281,-345 359,-448l1288 -1750c3270,-5444 553,-9401 8540,-10100 -3191,61 -4073,-462 -6239,2434 -2060,2754 -1822,5091 -4324,7745 -5590,-673 -8910,-6254 -11678,-7412 5189,-3854 7469,-3727 14506,-10198 4412,1251 10293,6071 14745,642 -2237,-4547 -2205,-2477 -6727,-3075 -6922,-916 -21255,-17506 -30235,-23483 -15282,-10171 -40986,-7470 -52003,-1037 -11246,6566 -11838,22248 -17519,25538 1092,-7024 9944,-23971 13575,-28040 3712,-4160 7975,-4806 14527,-5968 24515,-4346 38093,46 54086,15911l10305 10187c2587,2448 3592,2197 6836,3076 1691,-9802 -10496,-22298 -15085,-26820 -17057,-15722 -42103,-19847 -65556,-13900 -14226,3608 -16043,8069 -18850,9304 -10628,-9331 7307,-28584 13500,-35833 2902,-3396 8295,-7075 8782,-8925 -9709,1719 -26113,22534 -31281,33816 -2470,5391 -1803,11449 -5724,15270 -8759,556 -7837,-13919 -8186,-21179 -455,-9440 354,-17730 449,-27000 -2981,3512 -3984,19597 -4135,23454 -358,9133 1408,18199 1077,26242 -2608,1308 -4063,2611 -7708,2842 -4591,-9069 -7815,-38083 -8457,-50120l-761 -17155c-4051,9652 -142,40964 3221,53408 1466,5425 3566,9594 4997,14654 -6441,104 -6189,838 -8607,-3954 -2391,-4740 -6620,-9578 -9677,-13683 -1801,-2420 -3931,-4161 -4760,-6927 -1959,-1090 -2507,-2327 -3598,-3782l-9919 -11999c-2033,-2641 -12543,-14087 -12922,-15295 581,1833 3903,6756 5212,8881l17020 27510c3383,5443 20130,33021 18869,40095 -2854,-378 -7393,-4929 -9331,-6898l-15531 -16612c-2022,-2299 -12218,-14894 -16015,-15274l2545 6102c-3158,32 -9745,-1593 -13616,-2031 -4900,-555 -9816,-843 -15019,-804 -15034,112 -16268,2668 -23853,7497 -196,-15302 7475,-22774 12866,-32233l5069 -9772c1280,-2478 9128,-19901 9431,-20225 2834,-3032 17126,-6706 23069,-6776 3577,194 6774,563 10014,1101 53,-1 107,-3 161,-4l0 31c1939,326 3897,712 5965,1159 3869,836 4259,20 7209,431 2113,294 4593,1220 6942,1647 6603,1200 25387,2798 31724,-1868 -17987,679 -19201,423 -35867,-440 -6442,-333 -3440,1372 -9546,-986 -23993,-9267 -32034,1465 -38738,3287l8110 -20418c1376,-3313 1590,-3099 5157,-3978 22643,-5579 23136,-1243 32840,-1859 -7170,-939 -7691,-7039 -34704,-90 1293,-4505 3734,-7773 6883,-10139 -4123,2509 -5927,7126 -7952,9792 -2078,2736 -6704,2483 -10908,6509l8246 -2528c-3386,9462 -7322,16609 -11142,24721l-225 496c-409,913 -571,1459 -1024,2469l-7989 15072c70,-12699 7155,-32206 11435,-42078 5718,-13189 13265,-23622 20923,-32093 23690,-26204 73218,-49870 113833,-39762 25148,6259 51575,19873 69764,36297zm-167648 140827c835,1398 1249,2134 563,4263 -2035,1384 -873,1068 -3701,950 -2345,-2820 -2529,-6731 3138,-5213zm-12234 -4150c-2166,8975 -3969,14079 4038,19389 2952,1957 7082,2668 11754,1869 6507,-1113 3859,-4301 8722,-4696 821,1388 1411,1940 1466,4298 -3279,3032 -12431,3916 -17801,4896 -8994,1643 -13395,4222 -16976,-591 -9212,-12381 -496,-26522 2283,-28361 811,-537 730,-611 1996,-485 2239,222 255,-657 1707,782 2519,-285 1171,-102 3882,739l-1071 2160zm-17198 4604c-2586,14471 -462,14818 5185,24028 -10373,187 -23791,-162 -26284,-9542l-828 -2299c-8,-156 -14,-311 -19,-465 5,154 11,309 19,465l28 77c-6,-501 -35,-1213 -29,-2376l-15 1c-5,128 -9,257 -12,387 211,-9343 5590,-16037 13747,-17572 2090,-1604 8706,-2350 12814,-2185 -450,1401 -1610,2905 -2433,4604 -747,1540 -1496,3641 -2173,4877zm-21948 11676c-4,-146 -8,-291 -10,-435l0 -15c-3,-158 -3,-316 -3,-474l0 -13c1,-151 3,-300 6,-450 -3,150 -5,299 -6,450l13 937zm-5493 4955c23502,21647 62813,1929 71748,3974 3569,817 5788,4198 9598,2270 3026,-3145 -10744,-12987 -15793,-17875 -5331,-5160 -11595,-12222 -19342,-15236 -10242,-3983 -34594,-3918 -40715,6719 -1767,3071 -3846,9705 -3821,13634 -1969,-84 -1234,438 -2944,-931 131,-9425 1881,-16838 7907,-20751 8610,-5591 37367,-7789 46176,338 4966,4581 9806,8634 14286,13715 4422,3510 17658,15863 17123,20065 -262,2052 -2631,3864 -5762,3616 -7732,-612 -2196,-7131 -21028,-345 -11026,3974 -19206,6258 -32837,5553 -8681,-448 -22948,-3230 -24667,-13704l71 -1042zm138558 -5316l1803 -2921c5518,832 3983,2818 6543,6360 1271,-1565 -480,365 504,-2002 713,-1718 -790,161 1770,-1392 -3181,-1238 -4101,-2784 -6725,-4207 734,-2347 -200,-470 1278,-2665 -1562,415 -762,-169 -2065,919 -582,487 -625,858 -1185,1618 -1147,1556 -764,1494 -2804,2037 -717,-4061 2515,-8599 4289,-11178 2077,-3017 5039,-4685 9939,-6157 4854,-1474 11292,-2768 17458,-2770 -2093,7142 -7502,15914 73,28116l971 2980c-6181,1399 -13869,858 -20416,13 -7312,-944 -9367,-2306 -11433,-8751zm61700 -8365c-2637,1118 -3456,1611 -6073,-832l1280 -3256c1767,-923 2860,-411 4578,255l215 3833zm-11453 -10864c-824,759 -391,192 -1121,1288 -94,142 -206,319 -294,471 -1297,2243 -1984,7034 -2026,9680 -129,8295 1084,5861 3302,10610 -1573,2745 -430,140 -2646,2417 -4898,-226 -4220,2041 -10132,1904 -6823,-7582 -6844,-19658 -67,-29080 4877,-397 9058,882 12984,2710zm29756 -34734c1210,1353 4169,5543 5321,7356 1794,2821 3439,5463 5047,8413 6789,12454 4370,13365 6766,19749 2985,-16411 -7331,-30710 -14163,-40461 -3572,-5439 -8446,-10715 -12036,-15004 -9314,-11128 -5725,-7909 -11566,-16609 -697,11351 15983,28277 20631,36556zm-103986 -43248c29102,-534 61691,-12557 83394,5274 -5218,-10506 -26598,-12810 -38341,-12295 -12850,564 -21979,2524 -34010,4445l-9197 1580c-1351,536 -1059,410 -1846,996zm-74703 -34509c5759,-4157 13773,-5419 21477,-5749 6256,-268 7911,1080 9776,1243 2232,194 1040,521 2334,-575 -3025,-319 -6694,-2636 -10838,-2914 -12073,-812 -22216,5033 -32125,7971 2304,77 2774,-104 4784,-459 3717,-656 3473,-339 4592,483zm47653 14073c12173,536 16884,-204 27851,-2474 -153,-128 -325,-587 -445,-401 -140,218 -1723,-186 -1956,-213 -12677,2494 -30055,-592 -43054,-94 4427,2565 12085,2641 17604,3182zm33069 -1369c27338,1058 64682,-913 82636,14727 -6021,-8661 -20053,-13494 -34513,-15122 -8711,-981 -41446,-2220 -48123,395zm87437 9005c-1438,-3477 -9281,-10475 -12864,-13228 -18694,-14365 -33086,-13300 -54626,-13236 -4222,13 -9663,-759 -13257,-430 20891,7005 36378,-4073 66000,14866 2761,1764 14076,10743 14747,12028zm-3451 128647c5226,4177 14922,7581 15142,10937 5004,2143 9616,5258 15214,7514 5545,2234 10161,4586 15023,6885 -877,1143 -8023,6483 -9740,7543 -801,-503 -563,492 -1378,-2034 -1305,-709 -2518,-2915 -4305,-4235 -1185,-874 -1364,-762 -2569,-1682 -787,-600 -1294,-1151 -2097,-1872l929 -4069 -2661 3194 -7451 -4172 1138 -3474c-854,795 -1565,1630 -3190,2332 -2595,-2965 -15689,-11861 -20284,-18417 3322,-1151 4207,-66 6229,1550zm6350 14199c1888,1607 5061,3290 6640,5507 -8018,8680 -20507,15772 -31676,19322 5686,705 8595,-2269 12944,-814l8150 5338c12,51 11,271 17,311 5,38 -36,200 -12,296 4384,-1174 10509,5324 12589,8597 -936,2028 -1871,2833 -3198,5137 -980,1702 -1706,3902 -3028,5589 -164,-78 -402,-410 -470,-276 -87,170 -3311,-3113 -8162,-5328 -8145,-3720 -23172,-9615 -27974,-15592 2019,3231 6226,6429 10044,8995 6615,3963 21836,10427 24012,16321 -5461,10470 -20397,10991 -22010,20648 -1616,9674 -2444,35792 -42,39805 145,-9789 1601,-28501 3827,-38116 1886,-8146 11082,-4378 23995,-18406 3062,-3327 3207,-6522 12034,-16445 7475,-6334 20961,-18318 29824,-21244 -2654,5818 -10955,6263 -9515,16668 1443,10430 11009,4623 9028,17210 -232,-206 -10065,-10029 -10247,-10376 -1607,5717 -1607,24965 -5668,40986 -2336,9214 -4666,8116 -11079,12305 -30351,19823 -16033,40676 -43660,48228 -4590,1255 -13820,5245 -17767,4867 -1866,-3554 -1149,-5504 -4239,-7762 -2560,-1871 -6594,-1632 -10161,-1897 1090,-2240 4144,-4346 5859,-6664 1833,-2478 3490,-5144 5324,-8068 3820,-6093 6445,-12066 5403,-20858 -5323,-44889 -22625,-50959 -34163,-70509 -5171,-8762 -5492,-13656 -7885,-18223 -3200,-6110 -8487,-10880 -16578,-7828 4743,1235 5917,-1119 10129,3590 5472,6117 4237,15653 12714,29001 6268,9873 18740,20295 23323,33586 3784,1710 9453,25285 10107,32672 878,9914 -9602,22766 -15287,28230 -3298,3171 -3877,4646 -10426,3848 -5069,-619 -8139,-1447 -10755,-3975 -1225,-6456 3839,-11006 6703,-13648 1377,-1270 3991,-3635 5590,-5010 1927,-1657 4426,-2682 4378,-5803 -6147,3432 -11893,9219 -17380,13283 -8132,6022 -12711,9443 -20997,7315 -10996,-2824 -18536,178 -27728,-1257 -6244,-975 -15839,-8200 -13947,-15735 2943,-762 2942,111 5899,-345 1806,-278 3245,-1176 5163,-1403 5085,-600 6157,1954 8966,3640 6155,3694 11539,-2648 17829,-4328 7799,-2084 15866,1015 23939,-42 4390,-575 17539,-4954 19779,-3629 3702,2746 7002,7811 10647,11240l-5743 -11943c3773,1103 5513,4405 8978,5573 -860,-4320 -10799,-17009 -14467,-18853 688,2825 1993,2956 2471,5919 -3206,-626 -11844,-7746 -15417,-10503 -44,128 -27,341 -17,408l102 805c985,2740 7673,5841 10366,10523 -14609,-4210 -26431,-22853 -43639,-14444 -3755,1834 -6491,4599 -11012,2820 -14377,-5659 -10269,-10434 -23476,4480 -1459,1647 -1845,2647 -3636,4218 772,-6274 8187,-13101 10622,-16888 -5014,281 -9771,10817 -16850,10317 -4084,-8252 -778,-23268 1602,-32092 4062,-15060 6018,-15431 10279,-25773 5261,5474 16723,28769 21989,30354 2444,-1348 2258,-2533 4136,-6398l2188 -4120c2457,-3915 4379,-6036 7439,-8834 2169,-1984 6400,-5116 9753,-6484 6418,-2619 6777,1779 7232,3458 313,1154 164,690 518,1619l546 958c3681,-2785 5549,-7839 3391,-13852 -1857,-5174 -3920,-7369 -9493,-8985l-1452 -4209c-4189,-1059 -10154,2249 -13775,4419 -4030,2415 -6914,7430 -10789,8207 -6108,1226 -11774,-5461 -17490,-10050 -1674,-1343 -3466,-2278 -5243,-3669 356,-4784 2525,-7710 5020,-10256 6527,-6659 5951,-3518 6204,-10017l-942 1792c-95,183 -167,368 -263,547 -1386,2592 -1952,2552 -5433,4467 -8134,4476 -10737,9454 -18802,18628 -10266,11678 -23716,16163 -25610,23664 7427,-8724 8314,-7032 18208,-13423 8348,-5393 12918,-12325 17374,-14379 1599,13334 2836,9417 4119,14530 -4116,5822 -7684,13485 -11200,20777 -1598,3314 -3510,7433 -4630,10935 -6424,20094 -14782,9868 -27035,2477 -2916,-1759 -6701,-3676 -10128,-5384 -5165,-2575 -6001,-2793 -8943,-6242 -2233,-2441 -6782,-5422 975,-14116l1936 994c2205,1148 4349,2231 6956,2294 -2894,-1355 -5942,-3939 -7990,-5435 1331,-3029 2910,-5922 4656,-9253 3267,-6233 6399,-143 19808,-8447 6529,-4043 3822,-5487 8340,-5255 -4914,4982 -14053,14528 -15187,25213 793,-1356 1863,-4277 2940,-6201 1196,-2132 2526,-3565 3851,-5316 15328,-20257 30642,-10768 44048,-40065 1681,-3674 -298,-927 2209,-2791 12330,-9161 7691,-31681 8508,-33362 1461,-1597 6280,-3376 8603,-4648 3045,-1667 5671,-4610 8552,-4298 9261,1003 3175,13023 2239,18656 -1396,8409 2959,14647 398,24464 -2118,8122 -6520,9486 -7318,19825l589 -998c4613,-8568 10318,-14435 11127,-18702 1385,-7303 -2088,-23907 1068,-28583 2049,777 2384,1542 3632,4094 8161,16687 -5981,3017 15884,39277 7738,12831 14428,21403 27485,27643 1364,652 4235,1759 5315,2679 2037,-960 3727,448 -4862,-3882 -7841,-3954 -12414,-8102 -17295,-15183 -4169,-6049 -13625,-20850 -15358,-28631 7778,2260 10643,29498 36212,32641 -3832,-3314 -8417,-3624 -14851,-11438 -1766,-2144 -9506,-14134 -7178,-17187 5716,8965 10104,14535 16975,20110 8380,6798 12112,9945 26602,10244 -626,-2202 -1217,-1565 -2617,-3191 2936,-249 6508,-19 9085,-1388l-1871 -1570c-863,-493 -1865,-819 -2830,-1402 -1762,-1067 -3024,-2231 -4081,-3818 4260,250 6852,3613 10099,4475 -2346,-6319 -4921,-5753 -13403,-9437 -2387,-1037 -6600,-2711 -7985,-4168 -1657,-1744 -2773,-6081 -1697,-8457 7521,1948 719,6480 15143,12083 12297,4776 11154,9080 18773,9449 -285,-2314 -545,-2327 -2442,-3872 -13848,-11273 -18063,-9795 -22013,-13357 -1307,-1178 -5493,-6119 -6215,-8197 4803,1638 22834,14260 26890,12718 -1500,-1547 -4740,-2628 -6710,-4344 -1732,-1509 -3958,-4493 -4804,-7798 5581,-857 4669,-168 7657,2819l12298 11061zm1719 13919l6972 4002c-1150,2929 -7407,7509 -9800,8646l-9730 -3997c-130,-60 -361,-172 -534,-272l13092 -8379zm-28895 140006c5685,-2542 11935,-3316 17387,-6667 11251,-6914 11438,-17285 18662,-28739 10246,-16247 21279,-17026 25579,-22489 7764,-9864 7198,-23711 10064,-37252 3543,107 3049,1750 7136,-1 5804,-2486 2987,-375 8076,-196 6065,213 7369,-5935 11270,-7698 4949,5064 10821,9427 19999,4155 9814,-5638 19130,-21727 23865,-32062 2076,-4535 2462,-5706 5117,-8970 2372,-2915 3467,-4703 4448,-8938 2196,-9477 5740,-40821 5335,-50666 -900,-21894 -18147,-23835 -27185,-28115 -4854,-210 -8685,-374 -13555,189 -4021,465 -8055,1680 -11661,1691l-6750 -19374 -882 -4197c3058,1011 4906,1713 6813,3209 705,6646 -372,15532 7195,15309 -3160,-1086 -3639,-375 -4498,-4449 -538,-2554 -767,-6700 584,-8421 -1387,-6546 -2284,-6230 -7323,-8932 -4904,-2630 -3569,-5343 -4677,-11527 -1788,-9971 -4980,-16729 -7281,-25301 5621,2828 3293,12429 9731,25705 865,-1566 -1343,-5581 -2133,-12056 -523,-4277 -640,-10171 -2569,-13692 -3849,-7026 -5240,-1089 -11145,-12179 -1150,-2160 -1697,-4011 -3141,-4580 -1720,-4961 -16008,-23168 -18763,-25122 2828,-254 5599,1061 8254,2339 9498,4572 4093,17617 17454,16840 -5006,-1719 -6286,-1074 -8454,-6710 -4086,-10617 -1787,-12175 -20765,-18220 -3652,-1164 -3140,-1761 -6081,-3214 -189,-2092 -8373,-7974 -10567,-9808l-10931 -8173c-744,-660 -544,-484 -1116,-1174 12379,1766 17457,12846 29162,13745 -2731,-1906 -4660,-1499 -6173,-3506 -2118,-804 -2737,-1282 -4319,-2546 -1500,-1200 -2329,-1833 -3494,-2865 -1968,-1743 -5104,-3679 -6407,-5746 -5868,-842 447,-1947 -14449,-3098 -9095,-703 -44292,-31977 -97287,-18843 -18820,4663 -35513,12156 -49402,21312 -12541,8267 -14501,11193 -24052,20483 -1642,1598 -2361,2843 -3856,4646 -2874,3467 -5182,5923 -7193,9833 -10624,995 -6044,200 -11415,7651 -2829,3924 -4328,7017 -10489,8216 6583,1210 11089,-4577 14228,-8787 1633,-2190 1567,-2700 4553,-3098l-8323 16945c-8940,1430 -8885,-484 -10843,8307 -1336,5996 -5779,13383 -6402,12193 -68,-130 -302,223 -445,345 3916,-883 5964,-4522 7801,-8022 1167,-2222 1463,-3257 2236,-5551 1226,-3637 1339,-2871 5475,-2858 -3408,14716 -4507,13163 -11471,18062 -7842,5516 -6075,9459 -9873,19110 -13775,35003 -19148,7589 -20443,36165 357,-6869 1309,-13420 7515,-15159 5222,-1463 8263,-6371 11002,-10926 2669,-4437 5530,-10083 7242,-15385 2690,-8326 2935,-8014 9803,-11843 -129,1451 -3457,22191 -3711,22908 -1113,3135 -8791,4254 -13774,13144 3867,-2546 7141,-7544 13260,-8540 -255,1770 -6770,12888 -8289,14849 -4454,5749 -10431,4638 -16797,2216 3984,3332 7055,4314 13763,2846l-4348 10930c-12984,1030 -19062,12676 -15645,22502 1919,5516 3981,3113 1945,10415 -3595,12892 -1374,10305 -194,22489 456,4709 -315,7692 1601,11847 2077,4506 4074,4716 5795,8160 3266,858 4494,3972 3431,7703 -1500,5270 -3427,3517 -7182,5480 -836,7913 2512,11471 5352,16673 -796,-4335 -5031,-8805 -3642,-15593 5525,-1166 2670,-84 6552,-2505 948,8642 3158,20929 8930,24750 321,1835 -441,27 931,2315 548,914 873,1180 1532,2029 1569,2020 1715,2539 2871,2741 5691,11065 39681,37653 45461,52804 4091,10724 4126,21782 12471,36318 6672,11621 21868,15683 20961,27805 2140,2201 3748,13161 19460,14323 11133,824 18696,-4193 29619,-3821 9668,330 18918,6637 27845,2203 7490,-3719 13039,-13302 18397,-15953 431,-1614 354,-1360 2717,-3207 3484,-2725 6008,-5110 10515,-7126zm36089 -148090l6952 4416c-1335,1980 -2943,4406 -4952,5787l-7484 -3637c1117,-1987 3419,-4497 5484,-6566zm-7431 22118l10134 -7685c3034,2051 4087,4061 6474,5689 647,4098 -2799,4666 -5485,8288l-2438 2708c-2033,-1674 -853,-2204 -7098,-7522l-1191 -1092 -396 -386zm-54197 -48598c9984,0 20380,-1339 29653,-3741 4028,-1043 8699,-2604 12074,-4144 3994,-1822 7633,-4912 10586,-5980 1883,1208 2852,2258 4028,3788 -7431,9816 -26265,14645 -41467,15717 -9571,676 -17801,-266 -26968,-1536 -10275,-1424 -17939,3395 -20792,-6405l3927 -2108c1170,-536 2239,-1316 3012,-1812 6213,4757 16083,6221 25947,6221zm96998 -34541c7379,-538 7664,787 14850,-2951 7714,-4013 37526,-11714 47478,-6178 3051,894 6150,2729 8266,4608 -156,102 -385,198 -502,249l-3691 1284c-1755,635 -1830,774 -3188,1737 -7432,5267 -12918,5367 -23476,8351 -26448,7474 -19436,15916 -23277,18398 -2428,1568 -16485,-1830 -17214,-20125l754 -5373zm40368 24464c2450,-2654 8782,-2985 12738,-5438 7614,-4721 1104,-8474 2025,-11328 1525,-4725 10579,608 11867,2651 1916,3041 1458,12439 1286,16237 -640,14141 -3623,15509 -9054,26169 -3156,6193 -2408,6258 -7949,9728 -8065,5051 -3573,3936 -1776,10390 -2328,1325 -7876,8791 -9367,10955 -2280,3312 -6502,8819 -12716,8022 -3413,-3155 -9214,-14629 -15080,-5449 -7440,11645 -14623,8722 -15080,5221 2907,-3261 7225,-346 10955,-5781 2365,-3445 2087,-7270 5434,-11513 11267,-14282 30690,-23146 36704,-31162 8812,-11745 -8627,-17724 -9987,-18702zm-290088 -1752c-4,-146 -8,-291 -10,-435l10 435zm229826 49077c1564,1321 120,598 2351,1629l-199 2767 -7070 4549c-1561,-3737 -3470,-5728 -6138,-7739 1367,-1524 2594,-3591 3938,-6008 2908,695 4649,2718 7118,4802zm-62314 -14725c3751,3594 6303,4872 10585,8191 -9521,-1446 -17063,-10518 -20173,-17390 3867,3334 6227,5980 9588,9199zm-15924 -10374c10092,14511 7841,14040 21717,22239 -10719,180 -19572,-12740 -21717,-22239zm-21704 104540l12553 6844c-2756,2327 -4633,1934 -9071,262 -2731,-1028 -5397,-2248 -8021,-3342 -4409,-1839 -11374,-5228 -16105,-6528 -7731,-2123 -10979,4684 -15330,6691 -5480,2526 -10577,-4546 -15416,-5025 -4243,2671 -3635,6201 -12179,7826 -11116,2115 -2977,-5207 -754,-7914 13243,-16128 7002,-7964 23301,-3732 4802,1248 9630,-3357 14066,-4809 9605,-3145 17245,3881 26956,9727zm-1184 46497c2165,-421 25490,2654 28483,3367 3046,6407 -1086,2977 5379,9294 -1139,1577 -1335,1318 -2479,2393 -8160,7664 -12924,16599 -21555,14643 -10937,-2479 -14236,-5891 -20371,-11441 -2367,-2141 -3365,-2347 -5686,-5196 -1936,-294 46,161 -2447,-788 -2321,-884 627,-311 -2424,-860 4008,2490 12314,11022 14794,14706 -21267,-3834 -14315,-1129 -30810,3016l-322 -13194 -1405 2427c-622,1544 -769,6575 -2078,10365 -8184,813 -16454,-14310 -8104,-25512 4057,-5444 23078,-8184 33167,-5070 10392,3207 9899,5784 16238,10765 3919,2723 9128,4949 15292,5228l-862 -645c-699,-453 -490,-352 -1387,-855 -5285,-2964 -11750,-6224 -13423,-12643zm-88834 -152547c8431,-1942 19181,-7626 27064,-6824 -2473,7446 -21132,25789 -29608,27895 2312,-4151 9988,-15575 10454,-20974 -878,2393 -15966,22442 -21003,20257 -1941,-3271 -304,-4422 1425,-6530 9140,-11149 2791,-11779 11668,-13824zm-24959 27429c2412,-445 6684,1137 9659,2165 -3413,2081 -9873,3641 -14652,3428 -7202,-321 -9782,-2406 -11043,-8823l6810 30c2479,2134 4502,4071 9226,3200zm-16523 4762l10763 4355 -6295 8763c-2509,-1429 -5461,-5702 -6656,-8763 1064,-1817 1391,-2642 2188,-4355zm-4016 7491c3866,3998 2442,4639 7168,7365l-3583 10515c-1834,-1243 -7338,-8560 -8403,-11120 1022,-2173 2814,-5346 4818,-6760zm23339 -37231l16749 -932c-5061,5844 -11275,15172 -21103,17359 1666,-3579 5787,-4878 7958,-11453 -2852,2326 -11367,13457 -17053,8619 3048,-2445 5604,-3074 8404,-5725 2702,-2558 2822,-5453 5045,-7868zm232728 38233c-1877,-1927 -387,-6889 5417,-5265 248,3524 -3346,7391 -5417,5265zm5213 23124c1702,-9875 17146,-14844 18520,-14605 3395,590 3391,3170 6552,4250 -2197,1477 -4595,1386 -7171,2829 -2530,1417 -3185,3542 -5184,4811 -4808,3054 -2520,-1384 -7348,-631 -1770,275 -4466,2300 -5369,3346zm-258452 -66035c2306,453 2167,642 3504,2018l-5374 3321c-314,-2826 349,-3454 1870,-5339zm5384 2479l5732 1123c-1345,2356 -6215,7392 -10641,7593 157,-4394 3487,-5725 4909,-8716zm68440 -4325c2657,4031 -14243,26245 -24124,23652 987,-1718 9709,-8090 13075,-12173 1266,-1534 1462,-1960 2917,-3416 4263,-4267 6246,-10926 8132,-8063zm248043 -1610c5427,-16502 1022,-19157 8383,-24560 -644,10989 -2146,22236 -3383,33192 -2028,17963 -3031,12694 -7226,20273 -5346,9658 -6361,16172 -15647,28916 -1925,2643 -5768,7470 -8692,9002 -5532,2899 -8241,-2494 -10259,-5507 1152,-748 3256,-6 5942,-2404 12775,-11406 25501,-42549 30882,-58912zm-335650 -40164c173,500 2118,14799 2116,14825 -3840,-4712 -21716,-7692 -13354,-16783 3643,-3961 9417,-3288 11238,1958zm7633 23564c3425,5030 1273,10464 2961,12399 -149,3134 -164,2515 -839,4895 -420,1485 -661,1689 -697,3389 -87,4234 1437,2133 236,6147 -1625,5434 1876,3391 1237,15964 -2072,916 -2200,897 -4159,2982 -1608,-437 -2246,-1719 -2664,-2088 518,2960 1669,3126 -1151,6021l-398 392 -1301 1195c-1047,-12075 3049,-24648 3763,-36165l3012 -15131zm-15121 -5774c-4640,10010 -3663,8802 3077,14214 5278,4237 2146,12153 624,18573l-2224 5650c-3495,-1152 -4836,-5218 -4993,-9157 -665,-16662 -4003,-11253 -304,-24395 895,-3180 1015,-9158 2469,-11493 1933,1857 2121,3832 1351,6608zm18566 49637c527,3610 2248,6538 3217,9310 -1726,2006 -1278,1937 -3665,3204l-3494 -7417 3942 -5097zm-4979 6806c595,3371 1958,5250 3109,8160 -801,1637 -1257,2132 -2158,3841 -934,1771 -1044,2842 -2719,4369 -1659,-8239 -6443,-11198 1768,-16370zm26745 -26353c-1868,4292 -8347,9308 -14973,9844 2212,-2749 6516,-5398 8111,-10447l6862 603z"/>
  </g>
 </g>
</svg>
