<?xml version="1.0" encoding="UTF-8"?>
<!DOCTYPE svg PUBLIC "-//W3C//DTD SVG 1.1//EN" "http://www.w3.org/Graphics/SVG/1.1/DTD/svg11.dtd">
<!-- Creator: CorelDRAW X7 -->
<svg xmlns="http://www.w3.org/2000/svg" xml:space="preserve" width="594mm" height="841mm" version="1.1" style="shape-rendering:geometricPrecision; text-rendering:geometricPrecision; image-rendering:optimizeQuality; fill-rule:evenodd; clip-rule:evenodd"
viewBox="0 0 594000 841000"
 xmlns:xlink="http://www.w3.org/1999/xlink">
 <defs>
  <style type="text/css">
   <![CDATA[
    .fil0 {fill:#2B2A29}
   ]]>
  </style>
 </defs>
 <g id="Слой_x0020_1">
  <metadata id="CorelCorpID_0Corel-Layer"/>
  <g id="_53533554096">
   <path class="fil0" d="M166630 336870c-39,-1838 985,-5397 1219,-8694l3447 3664c2674,-1052 3591,-2349 6829,-2991 3651,5437 14014,13111 16953,18084 1939,3281 2837,26823 3090,32540 -3579,1501 -7476,5286 -11032,7520l-2776 -2970c-7212,-10254 -9818,-11050 -12352,-22631 -1199,-5476 -2410,-10827 -3635,-16361 -453,-2051 -1709,-6573 -1743,-8161zm12077 15818c2328,-1022 401,-32 2862,-388 110,-16 375,-70 463,-84 86,-14 386,52 447,-114 61,-164 312,-49 443,-129 -1536,-2408 -2275,-4177 -4683,-5991 -2156,12193 -1708,6303 164,20468 795,6010 2012,4968 3225,8765 1161,3636 1126,7194 5030,6134 1908,-3753 -1188,-2838 827,-6899 1715,-3459 1165,-2989 363,-7472 -1380,-7716 216,-8643 -4379,-13491 1472,2556 1976,6281 2584,9634 947,5216 -123,5776 -1415,9827 -6444,-3163 -6421,-17916 -5931,-20260zm12714 24392c49,-230 1461,-224 1329,-2261l-545 -2682c-1910,1696 -2567,1916 -784,4943zm-2587 -18356c-1191,2557 469,11011 1735,13066 2696,-3199 1994,-2172 1744,-7674 -135,-2984 -159,-6260 -808,-8701 -1415,1028 48,-656 -1613,1474 -466,597 -816,1315 -1058,1835zm29271 -2021c2108,1551 4242,6185 4338,6916 170,1292 -2148,5503 -2945,6695 -3627,-6676 -3680,-6660 -1393,-13611zm7693 18738c-757,-2151 -2352,-5424 -2020,-7590 212,-1381 2871,-5889 3759,-6899l6587 -860c-401,2371 -6656,13465 -8326,15349zm-8238 -21632l-2292 6003c-1659,-825 -3145,-1798 -4840,-2560 -1047,-471 -751,-910 -1364,-1747 2829,-580 5664,-1133 8496,-1696zm-2935 19226c-2405,-2954 -8953,-14165 -10214,-17669 615,187 5426,1624 5579,1735 322,234 3406,4456 3868,5168 2278,3507 1760,5508 1017,9446 -82,441 -167,880 -250,1320zm6112 -18958c2902,872 6823,3084 8975,4511l-6070 2732 -2905 -7243zm-20578 -3026l14064 24269c1329,-520 4394,-2932 5484,-3746 3483,3435 2404,4684 8693,5208l11940 -23025c-6323,-710 -13846,-522 -20354,-1029 -6668,-520 -12824,-1344 -19827,-1677zm50501 25691l-5238 -1014c-2199,-1002 -806,-394 -1666,-1190l6224 -2403c3088,3131 911,5511 5772,5519 -1040,-2305 -3100,-4825 -3778,-6945 -863,-2696 948,-4276 -566,-7764 -4163,5390 -734,7965 -7009,9843 -1360,408 -3097,865 -4593,1101l6872 -16163 -5750 9479c-2083,4025 -4463,7409 -3997,10239l11621 427c3702,-424 1122,-31 2108,-1129zm-73607 -8870c-801,-11008 -2323,-14733 -6838,-22867 14,3325 1599,8660 2384,12229 1314,5979 835,7253 4454,10638zm-3274 -19681l3019 -12176c2211,1730 7992,11158 9643,13779 1571,2493 1610,3326 3662,4615 -391,-1920 -8039,-19598 -14274,-20123 -1502,3200 -4033,10729 -2050,13905zm-4451 -9144l1573 3472 1447 -5113 -3020 1641zm-10464 26711c-2523,-926 -893,876 -2643,-2911 -3913,-8468 -4068,-15720 -1567,-24808 6115,-22219 3162,-15557 214,-28466l4333 438c6102,14631 1784,11025 -713,25410 -1426,8217 -3088,22852 376,30337zm20452 -59853c-813,997 294,243 -1613,1693 -2940,2233 -11395,3531 -15231,2592l16844 -4285zm89454 3626c615,-2073 3637,-6510 4991,-8776 1848,-3093 3525,-6762 6350,-8013 -958,4869 -4289,10636 -7637,13858 -1290,1241 -2464,1700 -3704,2931zm-119483 -8259c-2436,-831 -5286,-4267 -6511,-6722l8135 1128 -1624 5594zm-16252 -1966c-93,-630 -237,-2079 -240,-2359l129 -1949c-15,-1765 -514,628 -62,-760 4483,-290 5040,1887 7588,4443 9147,9181 5942,4301 3889,14084l-4511 26354c23,11257 3213,21548 3211,34278 -1,13015 5084,17427 -2322,17720 -1980,-4439 -1388,-6670 3,-10088 -1139,-475 -2213,-672 -2905,-1858 -1569,-2687 -456,-98 152,-3235 1593,-8208 3405,-4153 1250,-8528 -44,-90 -142,-275 -187,-359l-2937 -5340c-748,-1127 -369,-531 -897,-1951l-1708 -3406c-294,-603 -298,-246 -539,-1585 -75,-419 -194,-4069 -220,-4778 -212,-5804 -3462,-9624 -3908,-18725 -320,-6567 -1301,-2978 -1277,-6272 17,-2360 1299,375 68,-2800 -1194,-3082 -3477,-3371 -687,-6102 -2338,-1619 -3212,978 -1878,-2482 1429,-3707 2940,-1878 4280,-7204 906,-3602 3600,1613 -550,-7277 1251,-609 1969,-107 4258,179zm132965 4509c-544,-6738 -490,-7111 2290,-12086 2772,-4962 1728,-5151 8608,-5951 159,6231 411,7642 -2373,12196 -2927,4790 -1915,5053 -8525,5841zm-109662 -12102c5678,2581 4030,5775 10967,4260l-879 3916c-1881,694 -1743,355 -3444,-834 -1243,-868 -1766,-1186 -3009,-2040 -5359,-3683 -4110,-2583 -3635,-5302zm-4490 -100c-3144,709 -11376,249 -4124,-7261 988,755 2339,1796 3564,2785 2147,1730 2744,633 1124,4269 -183,80 -423,176 -564,207zm13505 -6905c1343,1918 768,1182 2747,2020l-960 4587c-2613,980 -2766,898 -4280,41 -4650,-2634 -3714,-3566 -3656,-4333 202,-2669 3435,-2297 6149,-2315zm92656 10807c0,-7471 -857,-6152 2835,-11225 3321,-4562 1690,-4378 8600,-5251 156,6978 1530,6622 -1881,11948 -2797,4370 -2279,4834 -9554,4528zm-85715 -9956c-1612,-1279 -3393,-2866 -4892,-4024 2636,-1951 6046,1163 8629,3786 943,957 483,1728 241,3160l-4035 1281 57 -4203zm89517 -13260c688,7393 1410,6497 -2445,11207 -1228,1500 -1501,2934 -3787,3465 -1584,367 -5032,-6 -5656,-635 -2964,-2979 596,-8764 2121,-10845 3050,-4162 2733,-3760 9767,-3192zm-75881 27988c170,-4369 1753,-11628 2259,-16972 594,-6273 801,-12189 1309,-18444 3791,8623 -1291,27145 -3568,35416zm98101 -14596c642,-6692 2102,-8048 5988,-10757 -710,10847 -2973,9190 -5848,14106l-1113 -2896c-704,2653 -2794,4693 -5008,6382 204,-6844 697,-9337 6212,-11299 -592,2165 -951,2278 -231,4464zm-5171 -11741c-305,2395 -427,6156 -1685,8122 -866,1350 -4020,2920 -6160,3480l1198 -8456 6647 -3146zm-144843 11881c-1046,-702 -5177,-5079 -6001,-6274 -2816,-4079 3047,-3286 6411,-3288 -1822,4223 -1834,2700 914,6787 1282,1907 3230,4543 3763,6762l-1603 2186 -4197 -4210 713 -1963zm40060 -8128c1349,-1294 8779,-5755 10742,-6385 -488,5880 -2094,24607 -5065,28277 -3781,4668 -18854,7213 -26420,7164l1885 -8124c2497,1490 4807,3309 7477,4998 3444,2181 5224,-39 8574,-1740l549 -7854c7587,-1676 9284,-1758 9955,-10175l-6250 -4551c-112,-103 -287,-267 -386,-363l-1061 -1247zm-16397 -2546c1232,-3123 1286,-2255 4237,-5268 4701,1121 4217,1567 5014,6911l-3361 1952c-2745,-1415 -3313,-2444 -5890,-3595zm128502 -4553c-1286,6771 -1154,8783 -7309,11022l1256 -8032 6053 -2990zm-61506 27053c-4315,-18497 -6054,-17379 -13797,-27095 3549,851 7685,3250 10119,5414 5100,4530 4169,12024 3678,21681zm15482 -19862c-247,-7852 -1158,-5905 2688,-11505 2779,-4048 3758,-3149 8966,-3988 3476,6326 1558,8277 -3885,15233l-7769 260zm-30971 13435c-1861,-3527 -2604,-8124 -3909,-12415 -1797,-5903 -4418,-5237 -6584,-9550 6244,2318 7892,3957 8461,7727 599,3968 2347,10765 2032,14238zm62568 -16293c932,-8004 34,-8990 8064,-11052 -1848,8211 -400,8925 -8064,11052zm467 -8685l-1722 9190 -6406 2789 659 -9076 7469 -2903zm-126082 -2613l11204 4250 -6292 6958c1980,2033 5812,4369 8230,5841 -1773,1445 -3018,3079 -4461,4109 -1284,-1577 -6167,-5615 -7900,-6338 -1393,2241 -2769,4450 -4997,6599l-5668 -8779 11565 -47 -1681 -12593zm21581 1344c1407,-121 9884,3759 11375,4736l-8747 4731c-335,-2265 -421,-5065 -2074,-6498 -978,-848 -5517,-2542 -554,-2969zm126399 8761c831,-5905 2377,-6507 5796,-8703 -1265,2779 -3700,6887 -5796,8703zm-27236 37380c-4115,-5498 -6838,-8251 -11623,-12298l-23173 -25347c-5183,-6267 -5607,-5228 -13913,-9013 14720,1701 17281,12341 26452,21436 2101,2082 3442,4101 5851,6301 2434,2222 3959,3017 6301,5828 2562,3076 7938,6269 10105,13093zm20540 -35872c-307,-3025 -214,-7563 1201,-9625 881,-1282 4134,-4145 5415,-4889 -604,9832 -1499,9352 -6616,14514zm-7856 -3571c-84,-5146 1353,-7471 4543,-9109 1563,-803 1628,-874 3276,-1479 -1540,8172 -1676,7314 -7819,10588zm-51019 -9689c1099,-2244 4472,-3928 6396,-5067 3454,-2043 4361,-843 8922,-249 362,3553 1180,3076 -668,5652 -3750,5229 -7767,4905 -14648,5026l-2 -5362zm35492 -3348c-269,2741 -702,6390 -1819,8681l-7109 2290 1420 -8933 7508 -2038zm-99018 492c-1267,2255 -2422,3636 -5024,5315 -8632,-3183 -9649,-4968 -14019,-2008 -2731,-10348 3439,-4280 12764,-1705 -63,-1049 -178,-1929 -51,-2941 219,-1745 83,-813 611,-1632l5719 2971zm98970 8839c1070,-6422 780,-6770 3007,-8233 860,-565 5107,-2689 6551,-3253l-1634 8179 -7924 3307zm9460 -3613c1597,-7749 1293,-7910 8961,-9686l-2398 7437 -6563 2249zm-164567 -17818l9809 -261 1273 9240c-8435,-423 -11230,787 -11082,-8979zm32719 24906c-140,-8393 -3199,-17285 -4954,-24950 2965,928 5663,2364 8705,3679 2611,1130 7024,1915 8143,4751l-8497 -3421c-3147,2423 -4478,4157 -3570,8986 769,4080 1525,8156 2102,12205 -17236,11 -15828,-1684 -20889,4028 -3499,-4167 -4740,-3441 -6481,-7017 9525,1208 15308,2049 25441,1739zm-28417 -7101c5825,255 10000,1778 20160,1566 595,-3036 -2219,-13315 -3235,-17590 -1699,-7148 -737,-3992 -108,-5016 1861,1550 1574,2700 2263,5727l3498 18318c-6872,-2 -19492,-559 -25136,-2412 898,-509 -1197,-757 2558,-593zm-9992 -22024c2520,-671 14964,-1135 16731,-158l-15436 738 -20 4573c2948,14795 53,11383 21010,12847 -282,-3388 -1097,-6540 -1747,-9985 -1711,-9056 -2220,-7631 558,-8630 1485,2635 3657,17066 3714,20142 -4131,-331 -9002,-494 -13227,-878 -14188,-1286 -10726,-2804 -10541,-6082l-1042 -12567zm-20509 1243c-1274,-2862 -2323,-2879 -3509,-6004l7979 3867c1747,-1081 1356,-1071 3073,-1943 815,1849 1233,3697 885,5877l-5035 -3450c-1862,549 -1067,364 -1832,730l-1561 923zm-2590 -10855c1942,-1735 3285,-1211 8403,-1277l851 4347 -2908 1780c-7173,-2748 -6208,-2650 -6346,-4850zm47268 -1168c1916,2017 2306,1652 773,4120 -1890,-833 -781,-18 -2685,-1584l1912 -2536zm-42055 -5687c1695,-1906 285,-435 2236,-1363l511 3408 -3852 129c405,-900 130,-1078 1105,-2174zm6843 1859c-504,-2907 -2864,-8080 201,-9261 2942,-1135 4365,1935 6350,5701l-1764 3438 -4787 122zm65703 2189c-7175,2148 -7232,-2007 -8908,-3996 -2064,-2450 -6215,-3989 -1930,-8287 2696,-2324 5297,-2685 8395,-849 559,380 959,767 1379,1292 1261,1641 1852,9753 1064,11840zm-55179 -7359l-3295 -5374c3669,-392 3760,759 5390,2923 1313,1745 2275,2785 2977,4780l-1617 2495 -4403 -83 948 -4741zm9717 1596c-1511,-2814 -4910,-5065 -5071,-8217 2547,-132 2552,639 3983,2628l7816 11174c-3962,1387 -8185,2448 -9510,5525 5366,-1209 6881,-6695 12453,-1966 -3914,6004 -11846,5214 -20084,6928 -1386,3811 743,9760 44,14420 -5425,252 -14780,-6046 -17105,-9166 2740,1406 3709,2463 6522,3798 1733,-945 3241,-1944 4849,-3226l-3211 -14737c14849,-562 16163,1339 19314,-7161zm-39350 8570c1059,-2899 5315,-7574 7275,-9709 1424,-1554 2602,-2686 4345,-4202 3772,-3280 1918,-2958 4958,-3747 -1763,2025 -2448,2940 -3947,4763 -1404,1705 -2754,2669 -4160,4383 -8270,10089 -2558,3603 -6132,11020 -744,-909 -1351,-1300 -2339,-2508zm4438 -14278c-3891,-277 -6589,-2104 -8766,-4086l2730 -31c3705,-53 5075,1039 6036,4117zm124205 -9244c1273,-4146 1706,-6474 6873,-6474 11579,0 50247,6849 60519,10763 -22123,-421 -41368,-998 -63720,980 -10769,952 -17912,2977 -27460,4681 1208,-2987 6358,-8277 9142,-10082 6228,-4036 9618,-2001 14646,132zm-121764 10581c-657,2162 -4363,5614 -6334,7365 -9488,-4237 -10620,-6131 -15816,-12936 -1113,-1457 -993,-307 -1397,-2198 4886,-4895 13302,9818 23547,7769zm-15655 -18060c3449,-66 4170,2141 5705,3732 993,-949 1714,-1507 2789,-2565l1544 10286c-17680,-2753 -15615,-11346 -10038,-11453zm230748 6546c-9581,-31 -20729,-3429 -29194,-6069l30982 125c-1176,1857 -1539,2932 -1788,5944zm17937 -6122c17967,-1296 40326,-681 58429,-669 48431,32 97882,-975 146399,-1795 8845,-150 19426,-1273 27765,-1059 -12712,6610 -36167,13888 -51392,17637 -40491,9971 -86266,9343 -127775,5927 -10349,-852 -20861,-1874 -31076,-3440 -10298,-1580 -20921,-1810 -30915,-3429 6388,-2676 12746,-4736 8565,-13172zm-169206 -8838c11132,-3722 6545,5723 4394,11116 -1677,4107 -2449,5018 -2615,9664 -95,2681 -720,6713 -3542,7853 -2577,833 -4045,-2504 -4507,-4459 -620,-2625 -503,-5479 -187,-8136 1128,-9009 -1752,-13293 6457,-16038zm-58423 8533c-587,-5061 135,-8139 4074,-9789 2391,-1002 6807,-1060 6828,4964l-10902 4825zm-29895 -5947c-2400,1742 -1787,2700 -5008,4026 -995,-1947 -3630,-5702 -3784,-8322l8792 4296zm484270 -2314c-56389,1011 -113289,48 -169745,48 -13665,0 -28269,-1267 -41396,677 -14229,2107 -86997,2128 -102298,-666 -3427,-626 -15774,-2892 -17251,-2517 102149,-109 207973,-1009 310272,1229 3383,74 17519,-350 20418,1229zm-415323 21202c-4626,-1588 -4339,333 -6606,-4812 -3793,-8611 2150,-18971 10897,-21347 -139,4509 -2666,6669 -2608,14103 36,4587 788,11158 -426,14871 -3174,642 -1889,744 -3800,-937 -76,-2648 1556,-382 1977,-1678 78,-241 388,-109 566,-200zm-26423 -21388c2226,-1824 3705,-2925 6739,-2404 -955,365 -1961,485 -2957,836 1297,216 473,201 1557,737 1319,651 1849,621 3262,725 1322,98 1734,947 2310,2002 317,579 599,1171 882,1769 2845,-1991 3294,-3662 5538,-5182 -1696,3388 -3786,4197 -3840,8850 -4661,-16 -5236,1558 -8576,2611 -1417,-2362 -4729,-7525 -4915,-9944zm-18030 26388c-559,-4943 -2550,-5008 -3792,-9578 -1641,-6040 -2582,-15344 2561,-19547 1631,-1272 2877,-1893 4719,-786 1177,708 517,70 880,166 260,68 976,626 1073,933 382,1207 -919,5457 -1315,6793 -1546,5230 -1755,8882 1670,13530 179,244 362,476 550,714l614 -960c1735,-2579 1767,-2358 4700,-3899 2569,-1350 4229,-2035 7857,-1613 -1692,1841 -3025,2591 -4765,4009 -3666,2990 -2153,1078 -5936,2575 -2816,1116 -4309,4773 -7885,7178l-931 485zm28464 -31240c553,-295 1108,-506 1691,-732 -329,1289 -598,2756 -1859,3434 -278,118 -1021,506 -1283,440 99,-860 437,-2312 1104,-2896l347 -246zm213930 -6792l4222 4709 -4612 -67 390 -4642zm-180174 981c2966,-1462 1316,905 3440,3708 1363,1800 2416,984 3395,3841 -4614,103 -1424,-3503 -5879,-2421 -3280,795 -1195,2668 -3138,5325 -2000,-2606 2001,-5596 -3034,-8524 -1401,3700 92,2053 -12,5209 -88,2642 -837,1735 -1102,4382 -263,2630 729,7570 526,11280 -198,3633 -1169,7886 -841,11523 533,5901 2925,2928 -266,7861 -2499,-897 -521,-1516 -3085,-3191l-576 2915c-18,-105 -59,376 -137,547 -6193,-492 -3838,-5867 -3776,-10924 43,-3514 -787,-9644 132,-14510 693,-3670 2486,-8187 4078,-11580 1695,-3613 6316,-5037 10275,-5441zm220186 5900c-1110,-857 -385,-172 -1313,-1217 -2690,-3030 -661,-2041 -7942,-3604 4244,-1988 4355,-2456 8579,-657l676 5478zm-251559 -4450c468,-2013 66,-981 1079,-1483 524,-260 140,-29 625,-166 597,-168 927,-281 629,605 -619,1835 -1845,3189 -3019,4664 254,-1208 389,-2408 686,-3620zm61591 -2119c5093,1078 11817,12591 20575,15530 -1859,-1800 -6167,-4422 -6919,-6563 4921,1717 11125,1536 16766,1864 11193,649 35299,5869 46718,8887 10068,2661 19209,5771 29872,7952 8772,1802 17136,3565 25780,4 2469,-1018 2548,-1938 2798,-4414 -2269,-1016 -4299,-1636 -6613,-277 -865,509 -346,1010 183,1634 388,458 857,875 1220,1313 -128,228 -2482,543 -2856,-789 -159,-565 -245,-2411 304,-2778 573,-383 2164,-910 2878,-1110 1265,-300 2341,-273 3602,27 1137,312 1954,866 2611,1845 1548,2467 -829,4633 -2934,5640 -3729,1638 -7368,1861 -11376,1906 -16663,11 -33386,-4931 -49711,-8138 -7873,-1547 -15437,-3247 -23481,-4376 -4302,-604 -8158,-968 -12492,-1177 -10853,-526 -7894,-62 -11438,2621 -15040,-2452 -27295,12226 -27309,26775 -10,8874 2026,11864 3745,19554 -10078,-6963 -21130,-37100 10527,-51872l-12450 -14058zm11745 78470c-3512,123 -9277,-6346 -11951,-9247 -4917,-5333 -10787,-15089 -11817,-23773 -3043,-25637 10134,-25848 8228,-46252 3014,1288 11627,10701 12772,13799 -11479,5211 -20722,16131 -18523,34088 1328,10849 11347,24640 18373,28082 2665,1306 2202,-559 2918,3303zm-31426 -69943c0,-3162 -1818,-914 -3928,-3727 -1152,-1535 -973,-2868 -2456,-4798 3051,-455 6248,198 8217,2246 1161,1208 -1327,200 1201,1454 8219,198 11002,6768 7102,14064 -1278,2392 -2935,5146 -4333,7782 -1231,2320 -2084,6224 -4738,7214 645,-1758 1186,-2117 -4,-3863 -280,-356 -666,-234 -1051,-114 -319,99 -213,472 -335,868 -137,448 -660,1887 -1184,1922 -391,26 -1399,-370 -1936,-431 96,377 216,687 409,1025 339,592 -2232,577 -2662,-2151 -255,-1621 694,-3781 1317,-5263 2351,-5652 4335,-9878 4381,-16228zm-42432 2616c1543,-5441 4761,-9601 9944,-11991l-9944 11991zm-8720 -14177c-3436,8682 -6410,-376 -8884,8398 -1157,4104 115,1671 -1916,2582 -576,-1528 652,-4567 1507,-6561l9293 -4419zm-6697 7990c1975,-3141 4515,-1135 6798,-3360 1887,-1838 1347,-4151 3713,-4971l-1143 5375c-1878,731 -3080,1246 -5047,2117 -5876,2600 -3523,1200 -4321,839zm107068 -7375c-2017,-651 -1129,-86 -1856,-1856 1677,816 590,-900 1856,1856zm-95780 5626c1278,-5861 486,-5601 4792,-8482 -1563,2855 -372,1580 -1048,3839 -331,1102 -797,2071 -1138,3224 -1004,3393 -1476,2849 -3606,5198 -217,245 -399,163 -793,204 -2075,215 -3233,196 -5146,1218 -1412,810 -2732,2561 -4305,-72l11244 -5129zm6339 -5698c1109,-1641 3818,-3302 5653,-4447 2632,-1640 4832,-1363 8374,-1680 -2074,3544 -9533,5659 -14027,6127zm1831 -18489c2184,-643 3817,-1299 5891,-2126 3019,-1166 5787,-780 8915,-425 1056,121 850,-115 831,707 -32,1362 -64,2723 -95,4084 -7144,3673 -7203,3073 -15746,2276l204 -4516zm35772 3071c-1560,-555 -516,30 -1541,-718l3574 -1865 -2623 -628c1955,-859 3486,-1527 5365,-2583 748,-420 556,-24 -211,-544 -731,-494 -3060,-2247 -1823,-3196 802,-614 2478,-1103 3498,-1054 399,20 800,74 1195,125 3186,563 6474,2795 9153,4556 8067,5285 13107,5819 24059,6096 2391,537 449,-303 426,678l-180 447c-3,31 -66,200 -65,231l1471 1812c-1040,2367 -634,2154 -3170,3125 3570,1923 1653,1600 2299,3630l3059 -1802c126,1616 -294,4704 -22,5557 1299,4071 -1637,-4052 1095,1623 696,1447 123,744 546,1784l306 619c292,448 1094,633 1576,2388 488,1771 303,3222 963,5175 -9700,425 -12501,-1 -17927,-4385 -3520,-2844 -8449,-7316 -14849,-7666l595 4151c-6676,-9139 -10360,-4663 -16607,-7745 -2007,-989 -4008,-1944 -6221,-2360 -5271,-991 -13928,5122 -17250,7867 -2103,1738 -2374,2745 -4826,4159 4201,-6540 6153,-7345 12234,-12087l-7947 567c-975,-2844 -1314,-1612 -2680,-4289 3311,-1272 4650,-3085 8321,-2685 6224,676 4380,1325 6007,4609 6582,-1539 8214,-243 12854,-939 2367,-746 -126,-28 592,-2831l702 -1364c-315,-90 -1440,-276 -1948,-458zm-16681 -10456c-722,1272 -1443,2544 -2166,3814 -1251,55 -2938,250 -4138,110 -99,-652 -329,-2614 309,-3026 526,-339 2164,-1539 2559,-1668 715,-233 1995,168 2756,365 258,66 443,130 689,233l-9 172zm112074 -1671l-3174 1609c-132,84 -301,211 -429,297 -1022,686 -2053,1364 -2988,2069 1100,-3405 934,-2292 714,-6379l-6376 -2240c-2689,-1199 -3559,-33 -6025,-2272l15663 -1076c1301,2625 2677,4986 2615,7992zm-100475 -6646c-1392,686 -918,1124 -2475,346 -488,-244 -322,-130 -594,-644 -811,-1539 -199,-2205 761,-3428 264,-335 122,-231 681,-248 2471,-75 4006,1145 5674,2764 -1291,556 -2612,622 -4047,1210zm12877 -7842c2202,865 1200,622 3101,2133 3955,3142 5031,2420 10468,2200 4177,4753 6893,9011 16428,8051 -1952,4945 -9862,6232 -16102,3230 -6878,-3308 -8329,-4492 -17110,-5053l2434 -3029c336,-2836 769,-1265 36,-2823l-5284 1522c1298,-3302 2888,-4754 6029,-6231zm30168 967c868,-2873 3426,-3273 6509,-4722l-1370 6573 -5139 -1851zm-19774 981c-3388,800 -5407,-672 -6950,-2438 3418,346 4454,552 6950,2438zm69786 -3368c1284,-1646 1776,-2508 4088,-3502 1730,1325 1486,721 2089,3574l-6177 -72zm84265 -44c413,-3255 -601,580 3356,-4071 1646,-1935 1536,-2923 2731,-4488 446,5691 -2022,7113 -6087,8559zm-148288 4884c1665,-3758 2711,-11562 3746,-13308 1834,-3091 9708,-1928 11826,-153 4221,3538 -3433,6866 -5012,8409 -1251,1222 -2494,3417 -1094,5429 1377,1978 4344,1201 6872,1052 -4707,7186 -11853,753 -16338,-1429zm52878 -14883c1859,3249 -1332,6306 1238,9098 -3231,-578 -3997,-2323 -4435,-4052l1386 -848c52,-26 325,-27 365,-182 42,-169 266,-129 492,-178l954 -3838zm42455 13138c604,-1422 887,-3636 1619,-5414 3015,-7314 -450,-8692 11865,-7352l759 1025c1314,1696 697,-401 550,1213 -2,23 -1208,4434 -1219,4460 1600,1423 1998,358 3215,1027 -1047,1556 -1197,1661 -2454,2857l2777 1921c3655,3601 5602,2653 7481,5653 2087,3333 97,323 -708,2735 2811,833 4281,-35 6607,-805 -737,1459 -851,1582 -1743,2370 1283,225 1493,490 1922,679l4079 1036c3071,504 4056,1097 7124,245 -1349,2590 -2322,2055 -4354,3244l2298 2024c129,137 327,293 429,367l2885 1586c2210,1153 1129,216 2402,2010l-4014 947c1894,1005 8437,4494 8965,6395 711,2559 924,1127 3505,2443 -611,1619 -980,3059 -1233,4715 -459,3002 -135,2174 -2403,3633 1262,4477 1443,210 847,5715 -313,2901 -606,2215 755,4458l-107833 91c82,-3556 2490,-4964 5089,-6563 137,-1753 -4688,899 377,-2959 2060,-1569 3646,-1750 6229,-2128 -234,-1623 -497,-1573 -174,-2267l4280 -655c1229,-2978 -3237,-1931 4285,-3731 1304,-2822 -898,-1721 1358,-3380 1046,-770 2550,-972 3660,-1243 7384,-1802 3337,-821 4176,-3365l8193 -2948c5724,-2353 2562,-1193 5250,-4419 1695,-2036 1675,-521 4142,-1914 -1215,-2518 -863,-1131 -2543,-3080 5193,-1622 3313,-659 3618,-4979 339,-4771 1741,1778 2360,-6595l1788 2290c346,-2968 1009,-4774 3352,-5445 -1781,1892 -2340,2710 437,4103zm45077 -19466c4375,1092 8314,4011 9809,7284 -721,3395 -2522,4589 -3998,6609 -3075,-947 -4094,-1984 -4919,-5535 -661,-2840 -1173,-5412 -892,-8358zm-93977 -2232c-3794,1131 -4923,-626 -6164,-2706 2123,-1510 1818,1282 4335,1467 4429,328 -374,-1707 4264,-895 -530,790 -261,1487 -2435,2134zm-3492 22552c486,-17270 -12231,-3936 -10985,-27768 2483,400 2395,1174 5851,1474l-1698 4688c1786,-1032 2793,-1913 4808,-656 4110,2565 -311,183 771,2554 4097,675 6950,211 10043,-1007 -98,8586 -111,5576 -3256,11589 -2018,3858 -1445,7284 -5534,9126zm57975 -19553c439,-4864 464,-2378 2297,-5527 1289,-2215 990,-3816 2034,-5902 348,510 1187,1107 1270,3752 130,4077 -2437,5117 -5601,7677zm-28520 -6249c3145,-2278 -889,-1333 2531,-1906 81,4369 -6087,3771 -7193,2183 -1553,-2230 -11,-1070 82,-1423 2461,-33 1276,1257 4580,1146zm70975 3757c-5550,-1725 -2813,-2776 -6624,-6771 -1466,-1537 -4518,-4192 -4772,-6722 11973,-6 6935,838 8755,8502l2641 4991zm-123346 675c662,2579 2128,3078 3098,5702 -4339,-2367 -4578,-4887 -4852,-10933 -509,-11224 -5109,-4794 -3543,-11211 4985,332 2416,1311 4267,4634 1174,2106 3036,2081 2264,5341 -565,2381 -1998,3489 -1234,6467zm21662 -35894c2693,1804 6493,6709 11522,6891 5162,-268 6358,-2953 9571,-6310 1505,-1572 -68,-501 1633,53 1029,335 2254,-263 2860,-1105 96,-155 187,-325 276,-484 593,-1174 2263,-1103 3385,-1137 5925,-103 9179,-3505 15232,-1732 4781,1400 6859,4332 11837,6008 8102,2729 5220,3398 9253,8612 6654,8601 5685,4517 8869,8984 2499,3508 3661,8678 7958,9006 -8565,596 -8260,-9024 -15632,-10566 -4481,-937 -7700,362 -11120,-2516 -4009,-3374 -4853,-2873 -10161,-3613 -210,7107 1894,7862 2608,13287 857,6519 -759,7615 -1223,13125 -765,9092 -1155,5037 -4524,11641 -79,156 -169,338 -248,498l-5450 4522c358,1790 612,1238 -15,2930 -4,12 -1402,2121 -1550,2380 -1519,-1930 -2615,-6794 -4760,-9430 -2318,-2851 -3897,-4651 -8003,-5789 1458,2790 1251,-1098 1922,3257 -11880,15093 -8345,-15699 -7813,-17207 2308,739 1255,884 3848,1931 7905,3195 3333,4189 10919,3565l-4680 -1233c145,-97 370,-170 481,-205l1644 -468c646,-124 1864,-211 2600,-306 1869,-239 2707,-439 5094,-583l-3215 -1252c3845,-1103 3578,-1164 2632,-5089 3998,-811 5887,-1381 7013,-4682 -884,107 -1889,-65 -3272,-333 -8600,-1672 -5895,-43 -11270,1293 -1996,497 -7851,473 -9936,2171l-1990 3038 -3026 -1812 -1841 2694c-3947,-408 -5460,-3094 -10033,-3740 -2175,-308 -10339,-652 -11837,-185 -2723,-6307 47,-11712 616,-18278 637,-7346 1483,-6732 3066,-7633 2157,-1228 2282,304 5049,205l1711 -403zm-11028 -6608c-5982,-4468 -4590,-311 -6906,-4279 3112,909 6728,747 8293,2632 2699,3253 659,3216 6483,3846 -188,127 -424,281 -570,372 -140,88 -388,253 -555,356l-3266 1428c-1952,-113 -2445,-1093 -3679,-2663 -2699,-1599 -8496,1836 -10897,-2215 4566,1004 6194,-764 11097,523zm12951 -8889c981,1481 3145,3704 4269,4996 4746,5460 2790,6077 4377,13879 -5052,-4288 -612,-9162 -5512,-13468 -5427,-4770 -4361,-2390 -6138,-12710 2418,2429 390,3360 3004,7303zm-1923 15497c-1553,-3191 -4132,-5467 -3503,-10674 581,-4803 286,-6837 -5329,-7222 2895,5378 839,-609 2409,6292 -1836,-1282 -1586,-1661 -3514,-3484l-3425 -2590c-76,-257 -291,-266 -430,-406 2055,-1541 3920,-2468 7899,-1141 7885,2630 805,10932 7944,17476 196,-4150 -1221,-4291 -1870,-7229 1024,845 2393,2301 3470,3336l-1288 -3603c3299,1360 3561,6442 3332,10624l-2896 892 -2799 -2271zm27803 -18660c5658,-3628 11614,120 17015,-5495 611,4998 -1844,2292 -5132,5095 6428,1574 8299,4282 13744,534 -693,6444 -12860,-740 -17000,6474 -2670,4653 2017,1814 5497,2290l-9306 4631 93 -6920c-2679,1468 -3153,4172 -7578,9017 -543,-787 -162,-395 -489,-1649l-452 -1742c-1339,1640 -2245,2546 -4181,3482 17,-3061 2278,-8517 3790,-11223 1028,-1730 2302,-3376 3999,-4494zm-125667 94298c-6718,1836 -5349,-278 -10620,15 -6017,336 -13202,2938 -16414,7923l-2033 4387c-4436,6496 563,3213 -5713,12141 -5279,7507 -1198,2176 -5606,6541 -1660,1644 -1896,3502 -4706,7303 -4521,-1213 -12212,-3731 -14746,-3342 -5487,843 -12831,-8406 -13640,-1384 -302,2628 3727,7850 4730,9990 -3353,4147 -9364,11154 -6746,19193 2014,-326 4310,-3038 11965,-5985 2894,1952 5581,5011 8683,7388 2885,2213 6347,4515 9037,6407 -2706,6189 -177,5813 3887,9231 2320,1951 4567,5921 6581,8424 4429,5502 16770,9338 18878,11810 1414,1659 1432,2622 3233,4647l11566 11277c5040,5041 10530,10079 15073,15284l-3939 -884 604 4080 -4779 91c585,1604 -627,934 665,4439 716,1940 1469,3196 2137,5525l-9574 4393 6859 1443c-1399,3606 -2464,3180 -2079,7017 106,1049 1980,1121 -4250,3344 1184,1837 -199,-188 1170,1187l1446 1899c3513,7274 4129,-315 5597,11696 234,1917 249,3398 244,4641 -20,4572 -294,1323 894,3617 2533,4888 472,4441 -812,7507l3688 1580c140,4945 -403,2785 -2165,6431l2517 2009c3185,3218 2919,4888 4243,7988l-2598 5464c-638,1034 -1065,127 -1325,958 6339,10803 5682,4290 5307,10837 -215,3745 3652,7638 6071,9878 -2798,6940 -7080,15701 -7771,24459 1654,-1558 1892,-2638 2764,-4755 9002,-21845 15471,-20089 19201,-25777 5647,10194 332,13417 -1117,23951 -2028,14742 308,16354 1028,25953l13967 -41646c4250,8337 3436,11772 6300,20128 2238,6536 5878,10265 8490,17679l2614 -11965c2042,1065 12746,14584 15711,16515 347,-2427 613,-6280 2636,-8012 4611,3654 3220,10458 9148,15038 4454,3442 9970,6646 17248,6954 8656,366 14497,-838 23204,1156 19158,4386 10022,3712 17794,7094 -1729,-9876 -6390,-13535 -5892,-25399 4212,-1258 4531,-1327 5559,-5738 2368,-10164 3846,-3112 3689,-18528 -40,-3919 782,-5617 1466,-9251 958,-580 293,-72 1617,-390 3786,-909 -1848,1500 1241,-324l-16730 -21089 -19781 379c-10093,-57 -24505,-1643 -34831,-3075 -10145,-1407 -8200,-372 -8019,-4066 1517,-890 2857,-332 4778,-224 -3669,-8721 -6627,-11921 -6070,-26740 6292,434 12877,1362 19187,1873 3859,313 16616,2443 19243,-131 -4522,-3718 -8766,293 -7632,-14857 -6195,-2959 -8264,-8358 -9866,-17052 192,-94 455,-146 612,-190 158,-44 420,-128 615,-181l4489 -1436c2892,-1207 1841,-804 5354,-695 2942,-568 2160,-4723 8215,-3570 -1348,3146 -848,-1027 -1653,2188 4506,1554 6041,3859 10760,5665l-25 3104 7740 1411c-1597,2697 -3394,2695 -6915,4102 5723,2349 7132,573 12323,493 -890,1921 -1231,2627 -2887,3975l6679 -762c-991,3230 -2220,2835 -4331,4920l14993 659 -5756 1738c3284,2202 5528,2087 7058,5791l-6791 148c1032,2508 3367,3250 5804,4776 -630,509 372,-7 -1474,904 -440,216 -592,261 -981,412 -38,15 -1339,348 -1694,468 852,906 1461,1597 2520,2475 665,551 1038,783 1645,1289 1129,940 432,260 1231,1124l12076 2611c-1364,1222 -1190,1110 -3036,1917 -961,421 -1174,413 -2049,842 -1637,801 -618,217 -1411,862 4626,1638 14991,9561 16494,11561l-8369 619c3131,2159 4856,2104 7720,4860 3148,3031 4147,2663 9238,2775 -786,2083 -148,1448 -1785,2812 2629,-53 3841,-1185 6159,-2050 -1090,5034 -4247,9808 -6927,12078l5097 -1458c-986,4002 -2757,3860 -4735,6908l9246 1661c613,-749 858,-1234 1495,-2010l1451 -1540c2918,1291 9366,6002 9546,8234 137,-4690 -6365,-16313 -7406,-22989l21550 10496c6923,2859 14458,9997 21654,11017 -3578,-17464 -24090,-20924 -27449,-30663 4636,1347 6908,3867 12637,4603 -1078,-4662 -5846,-8497 -9067,-12005 -3058,-3332 -8948,-7694 -10332,-9996 -2818,-1039 -6833,-4868 -8487,-6901 -2120,-2605 -3578,-6223 -4976,-10005 -1786,-4831 -4411,-6016 -5577,-9484 -1474,-4380 1086,-6981 -1243,-12229 -5483,-12345 3282,-11342 4545,-20816 657,-4922 -2031,-8207 170,-13503 2388,-5749 3197,-2522 3584,-10486 -1414,892 -1814,1164 -2612,623 770,-1094 1688,-2533 2177,-4232 1440,-4990 -17,965 -498,-2772 1046,-4898 284,-5867 5002,-7636 9246,-3467 12783,-3024 13368,-12478 151,-2436 243,-4144 -414,-5991 -1253,-3525 -2684,-3432 -6174,-4851l-1118 2654c-2584,-2603 -2928,-3425 -6044,-5832l-7922 1149c2427,7528 17555,9730 20663,15485 -3119,-2646 -5527,-2342 -9443,-4486 -5829,-3193 -10359,-6735 -16072,-9653 -3320,-1697 -6290,-2887 -10058,-3668 -924,1971 257,951 -66,2610l-5913 -1806c1571,3529 1548,4728 1674,8880l-7066 3481 -53 7945c-1492,-783 -3300,-1481 -5001,-2363 -1592,833 -37,6 -1171,960 -108,90 -266,243 -379,336l-5905 3342c-1070,-671 233,407 -724,-745 -95,-114 -613,-579 -678,-900 -60,-301 -245,-371 -382,-545 -659,3757 -4033,4546 -7541,5584 -216,-3431 456,-1397 -1073,-2498 -875,385 -939,715 -1070,790l-958 402c-2469,551 -3143,1322 -4466,1020 -197,-44 -1586,-840 -2567,-1098 -2844,4403 -4204,3896 -9240,3739l1051 -3249c-2304,-1323 -2045,-345 -4015,-2296 -2291,-2269 1017,-1496 -3730,-2480 -3183,774 1939,-134 -2559,1547 -1871,699 -2560,227 -3699,1464 -1198,1300 2664,1861 -7308,2303 -1140,2820 -88,-7 -551,2022l-127 721c-7,-69 -8,211 -39,312 -3328,559 -6862,-1487 -9081,538 -28,26 -156,315 -175,237 -18,-76 -73,201 -162,231 -2247,-1410 -746,382 -2013,-2408 -1853,2011 -1172,1118 -3152,1362l-5852 -339 -6 -2231c-1393,1298 -2701,1838 -4869,1618 -3193,-325 -2435,33 -5817,394l-158 -3438c-1266,848 -1010,516 -2055,1917 -1255,-1364 -1719,-2610 -3571,-2636 -97,-2 -1335,234 -1476,269 1053,-5033 -1804,-1251 -2616,-4039 -290,-993 434,-949 616,-1125l-3530 -594c1330,-6893 370,-5578 465,-6846 101,-1339 -298,58 766,-1274l-4447 -1698c2116,-1616 3221,-834 5161,-2073 2709,-1728 777,-1198 -1391,-2889l5472 -1508c-1211,-1928 -1440,-1364 -3439,-3036l4014 -1159c-1135,-1603 -1056,-1016 -1937,-3056l4653 1885 -535 -4576 2512 1908 1165 -2459 3069 1517 687 -2907c12,-34 97,-182 110,-217 517,-1390 -97,-1528 497,-2400 413,-604 690,-469 1832,-810 -2082,-718 -1303,-193 -2543,-1697 9595,-2271 32497,-2375 43517,-2370 28613,11 57306,1038 85697,4397l30494 3826c5018,532 4045,1554 8016,2807l-3266 1694c-85,-152 -355,192 -510,320 6808,2059 11624,5462 7611,12556 2953,-1147 5450,-4114 4576,-8800 -767,-4115 -4887,-4751 -7052,-7655 61145,4067 102073,4171 158825,-15224 4758,-1627 36844,-13367 40759,-18016 -2742,0 -37681,-191 -40039,-1697 -6614,1457 -31592,-24 -40162,-87l-120153 -897c701,-13397 -6238,-7706 -13304,-8879 -2080,-3656 -1902,-7164 -5046,-10616 -2447,-2686 -5817,-4484 -8115,-6887 -6925,-7247 821,-14854 -12585,-18246l-1972 -6168c4021,-3039 8626,-4712 5247,-12685 -2128,-5024 -6277,-6318 -10466,-8736 -406,-4773 1758,-9667 -2559,-12521 -2303,-1522 -6852,-2974 -9923,-4349 -4813,-2155 -4753,-4240 -8119,-6159 -2985,-1702 -7079,-2289 -10537,-3754 -9725,-4118 -6506,-13212 -10669,-17917 -3716,-4198 -2655,7 -6589,-7731 -1139,-2243 -8993,-7131 -14476,-7553 -5906,-456 -1806,-820 -5303,-1834 -2201,-637 -2900,364 -5620,-216l-18303 -3336c-6176,-499 -7069,1812 -10900,3715 -3256,1617 -7363,1949 -10784,3480 -5136,2299 -3639,4383 -9637,11801 -7916,9788 117,4074 -7585,10252 -1165,935 -1174,1118 -1650,1754 4094,5893 15249,8401 16271,8942l-2296 362 2323 2305 -6213 -1569c2733,4188 5532,2162 1338,3981 3176,830 1473,-201 2596,1690 -6006,947 -6523,-2171 -8381,-6523 -1342,-3145 -1253,-2234 -4099,-3788 -3147,-1719 -1715,-1446 -3857,-3302 -4401,12954 1300,13404 1004,16470 -1171,2449 -2667,3056 -2982,5164 -456,3036 1159,3571 2318,5211 3535,4999 -1936,4985 1758,11585 -15272,-3104 -8876,10534 -14910,15711 -5022,-1969 -4302,-2347 -10732,-3486 -4180,-741 -1571,-722 -4546,-2560 -1997,-1234 -3066,-902 -4888,-289l3175 1253c1649,943 730,371 1974,1690 -320,324 -447,427 -1156,1018l-798 631c-3145,2598 -2601,3302 -5209,5088 -1707,-596 -2660,-1414 -4158,-2106 -2057,-950 -2816,449 -3420,2294 -349,1070 -524,2082 -793,3156 -448,1787 -3307,2720 -4841,3369 -3379,1454 -6088,2612 -8470,5548 -838,1033 -855,841 -2171,1155 -2428,581 -2243,1102 -4195,2126l-377 197c-974,472 -1988,786 -3026,1078z"/>
   <path class="fil0" d="M375472 165402l1414 -1560 0 0 463 -526 -1877 -2079 -464 526 0 0 -938 1040 -6 0 -470 513 1414 1559 0 0 464 527zm-4213 18165l0 -3112 2811 0 0 -12461 -4225 -4678 4225 -4665 0 -12461 -8438 0 0 6231 -5626 0 0 -3119 2810 0 0 -3112 -2810 0 0 -3126 30944 0 0 3126 -2816 0 0 3112 2816 0 0 3119 -5627 0 0 -6231 -8437 0 0 12461 4219 4665 -4219 4678 0 12461 2810 0 0 3112 -8437 0zm41729 -18165l476 -527 0 0 1402 -1559 -463 -513 0 0 -939 -1040 0 0 -476 -526 -1402 1566 -6 0 -469 513 1877 2086zm-15466 18165l0 -3112 2811 0 0 -28034 -2811 0 0 -3119 2811 0 0 -3112 -2811 0 0 -3126 5627 0 0 18699 5627 0 4212 -4678 4225 4678 5627 0 0 -18699 5627 0 0 3126 -2817 0 0 3112 2817 0 0 3119 -2817 0 0 28034 2817 0 0 3112 -5627 0 0 -18692 -5627 0 -4225 4678 -4212 -4678 -5627 0 0 18692 -5627 0zm52983 -18165l1877 -2086 -463 -513 0 0 -1414 -1566 -463 526 0 0 -1415 1553 470 526 6 0 939 1033 0 0 463 527zm0 4151l-5627 -6237 5627 -6231 5633 6231 -5633 6237zm3286 10902l6565 -7270 0 -19725 -6565 -7270 -6559 0 -6566 7270 0 19725 6566 7270 6559 0zm-7499 3112l-8443 -9343 0 -9349 -2810 0 0 -3112 2810 0 0 -9342 5627 -6231 -2810 0 0 -3126 14064 0 8437 9357 0 9342 2816 0 0 3112 -2816 0 0 9349 -5627 6231 2816 0 0 3112 -14064 0zm38920 -18165l1871 -2086 -464 -513 0 0 -1407 -1566 -463 526 0 0 -1415 1553 463 526 12 0 940 1033 0 0 463 527zm-4219 -3639l4219 -4678 3749 4152 475 -513 0 0 5621 -6231 0 -4151 -3750 -4152 -13125 0 0 15573 2811 0zm-8438 21804l0 -3112 2811 0 0 -28034 -2811 0 0 -3119 2811 0 0 -3112 -2811 0 0 -3126 19691 0 5627 6238 0 6230 -6566 7271 0 0 -463 513 7029 7790 0 9349 2810 0 0 3112 -5626 0 0 -11422 -5621 -6231 0 0 -475 -512 -3749 4151 -4219 -4678 -2811 0 0 15580 2811 0 0 3112 -8438 0zm41723 -18165l469 -527 0 0 1403 -1559 -463 -513 0 0 -940 -1040 0 0 -469 -526 -1402 1566 -12 0 -463 513 1877 2086zm-4218 18165l0 -3112 2816 0 0 -12461 -4224 -4678 4224 -4665 0 -6230 -2816 0 0 -3119 2816 0 0 -3112 -2816 0 0 -3126 8442 0 0 3126 -2815 0 0 3112 2815 0 0 3119 -2815 0 0 6230 4218 4665 -4218 4678 0 12461 2815 0 0 3112 -8442 0zm32346 -18165l1878 -2086 -463 -513 0 0 -939 -1040 0 0 -476 -526 -1402 1566 -5 0 -470 513 1414 1559 0 0 463 527zm-15466 18165l0 -3112 2811 0 0 -28034 -2811 0 0 -3119 2811 0 0 -3112 -2811 0 0 -3126 5627 0 0 3126 15473 17126 -3286 3638 0 0 -470 527 7974 8816 0 -33233 5627 0 0 3126 -2817 0 0 3112 2817 0 0 3119 -2817 0 0 28034 2817 0 0 3112 -5627 0 0 -3112 -15478 -17139 3286 -3632 0 0 463 -520 -7962 -8822 0 33225 -5627 0z"/>
  </g>
 </g>
</svg>
