<?xml version="1.0" encoding="UTF-8"?>
<!DOCTYPE svg PUBLIC "-//W3C//DTD SVG 1.1//EN" "http://www.w3.org/Graphics/SVG/1.1/DTD/svg11.dtd">
<!-- Creator: CorelDRAW X7 -->
<svg xmlns="http://www.w3.org/2000/svg" xml:space="preserve" width="594mm" height="841mm" version="1.1" style="shape-rendering:geometricPrecision; text-rendering:geometricPrecision; image-rendering:optimizeQuality; fill-rule:evenodd; clip-rule:evenodd"
viewBox="0 0 594000 841000"
 xmlns:xlink="http://www.w3.org/1999/xlink">
 <defs>
  <style type="text/css">
   <![CDATA[
    .fil0 {fill:#2B2A29}
   ]]>
  </style>
 </defs>
 <g id="Слой_x0020_1">
  <metadata id="CorelCorpID_0Corel-Layer"/>
  <path class="fil0" d="M239066 267996l-1492 1665c-2353,-4270 -387,-5853 2951,-5356 2565,382 3490,744 3375,3114l-4834 577zm10868 51651c-1528,2239 -1307,5082 -624,7667l4163 179c-393,-1720 -789,-2915 -1440,-4573 -243,-620 -513,-1285 -851,-1836l-1248 -1437zm-34689 -46813c342,-7964 -1150,-15749 -1036,-23944 69,-4987 740,-13569 -2538,-18189 -1340,-1888 -207,-869 -2088,-1620 4162,9078 3808,9529 3219,21845 -432,9042 586,11188 566,17009 -6,1772 -446,3099 1877,4899zm-6149 -36988c-674,-858 -1190,-1250 -3170,-638 -2497,772 -14255,7526 -20852,2411 -3833,-2973 -3055,-3978 -4696,-6396 523,11543 11834,17453 20879,9773 1503,-1277 2154,-1913 3555,-2982 2038,-1555 2378,-849 4284,-2168zm19094 -27057c2079,76 3512,-545 4902,-1195 -1003,-811 -1712,-764 -2495,-1872 -531,-753 -904,-2213 -1191,-2978 -1286,1401 -1991,4135 -1216,6045zm-52184 20138c-959,-1416 -1039,-2667 -1432,-4651l4480 2643c-1281,1252 -1417,1163 -3048,2008zm206249 -5040c911,-1513 858,-1848 1364,-3822 1298,785 2851,1814 3744,3279 -735,1796 -1368,2160 -2666,3053l-2442 -2510zm-116302 -1161l4759 169c-326,923 -120,373 -569,1074 -2556,3986 -2658,3880 -8375,5182 -2046,466 -4333,864 -6458,1049 -3910,340 -6039,-578 -7674,1098 3437,2414 13388,3153 18590,2454 8555,-1150 28148,-15411 20334,11037 -1716,5808 -2411,13472 -1814,19867l-2028 272c341,8323 -2652,14996 -11326,13535 -7059,-1189 -10081,-8361 -13669,-11277 -5652,-4594 -8116,-4955 -13106,-11859 -3825,-5293 -5351,-12486 -3901,-20676l4661 298c-4192,-4052 -3070,-306 -4484,-7059l8994 -318c-845,-1539 -2052,-1407 -3593,-2127 -62,-2351 1504,-5671 2540,-7032 1134,-1490 4191,-2966 6226,-3671 247,4180 -1035,5608 1822,8174 2336,2098 6455,2406 9071,-190zm0 0c-3237,546 -4342,1014 -6219,-476 -2065,-1638 -3787,-4682 -3895,-7985 2073,-473 4255,-564 5314,1195 295,489 499,1229 260,2022l-953 1667c-31,-82 -169,207 -220,329 1347,438 2847,1171 4304,36 1211,-944 1025,-2176 1871,-3131l3585 2068c-634,3108 -1015,3150 -4047,4275zm-114409 -5824c-3762,-1746 -550,-6127 892,-7295l-892 7295zm231039 -9446c-1495,-815 -899,-1564 -13,-3163 512,861 478,-1900 487,1611 3,1247 -155,883 -474,1552zm-2731 -11041c3386,845 3972,1136 7979,1475 -1685,1635 -7607,1234 -9623,-174l1644 -1301zm-214152 3472c-1295,-1961 -3614,-11866 -4703,-15035 2784,375 1731,896 2485,3904l3716 -619c3548,4783 230,7807 -1498,11750zm-123 -18943c1135,-991 2013,-2363 3362,-3203 1466,1450 1651,3795 1921,6223 -2641,-274 -3810,-1635 -5283,-3020zm10161 13315l20 -7599 4219 -1262c-877,-593 50,-213 -1244,-468 -129,-25 -287,-48 -422,-64 -135,-16 -291,-9 -427,-15 -271,-13 -1451,153 -2124,136 -1015,-5167 -2856,-10834 -9670,-10088 1128,-999 2343,-1752 3294,-2764 1836,-1953 580,-2087 2715,-2357 1655,3099 514,4224 3485,7240 2250,2283 5866,2266 6844,4005 2855,5076 -4456,11956 -6690,13236zm-19759 -26201l458 -1404c483,891 480,-581 241,975 -155,1009 -107,147 -699,429zm-1502 -7984c-72,-2084 952,-1729 2561,-1468 -650,700 -89,383 -1291,1039 -32,18 -1152,389 -1270,429zm75888 -7761c2548,3959 2560,12639 13010,12399 4967,11635 1456,7388 3901,16664 -3656,1365 -6626,3135 -10998,3795 -3662,553 -9460,124 -11468,-2527 -2269,-3895 9520,-11672 4288,-20517l-3471 -5567c2316,-2253 -49,1224 4738,-4247zm-30706 81462c-3886,-521 -6857,-399 -8665,-3138 -2228,-3374 -1668,-5912 776,-7762 2038,654 1475,71 2714,1556 -522,1281 -1523,1412 -1920,3887 4065,4732 6412,24 7361,-4300 1644,1296 3630,5625 4013,7531 1476,1012 2515,385 4391,56 -406,-1500 -994,-2103 -1775,-2826 114,-73 330,-240 383,-134 14,28 2670,-607 1401,-3246l-8932 -8995c-3042,408 -2573,1576 -4999,1887 -3844,493 -19791,-1807 -23442,-6734 -3503,-4727 -1149,-7615 974,-10245 2408,-2982 1939,-4426 3713,-4934 3499,-1003 3832,-128 7677,-3196 1865,-1487 4067,-4529 5039,-7530 1787,-5519 -329,-12617 -2820,-14264 -1411,-932 -2661,-865 -4195,-2403 3470,-1714 5120,-3043 4507,-8162 -583,-4862 -5430,-4346 -3490,-7480 7207,7885 2892,11827 23533,8047 4637,6704 1512,3525 9414,5786 1692,5409 -5395,9604 -4906,15237 1378,15872 23742,11524 34828,3087 1737,-1322 4057,-4230 6050,-4283l124 1355c-2180,1657 -1576,-525 -3121,1172 -1540,1691 388,929 2130,1436 -442,6187 -12109,18201 -13663,21393 7215,-1723 15596,-8589 18853,-13213 -1754,679 -3030,1833 -4660,1273 -1679,-3166 1189,-6914 3331,-8362 2576,1494 8307,7465 10676,10437l-1970 3771c-6113,-300 -6230,1015 -10332,3298 -3130,1743 -5883,3234 -8725,4851 -5177,2947 -11841,8902 -18755,6461 482,4824 1331,1964 3245,4369 -3080,1097 -4278,307 -6868,-549 722,3130 1875,3003 2488,6300 487,2614 812,5480 1187,8123 1414,9966 4978,38061 -153,47288 -439,788 -380,635 -725,1049 -7845,2125 -7247,-2393 -10988,-4137 1962,3472 2353,4838 6834,6019 3455,911 6480,1785 9837,2639 336,1034 800,2534 1257,3596 828,1927 1047,2402 2335,3177 838,-1873 24,-4895 516,-7650l2705 -1700c3780,1532 4045,5141 8101,4867 1617,-2882 1434,-7283 3663,-9377 2967,-2789 566,827 6759,-6304 9673,705 13090,11182 6033,17448 -2923,2595 -13118,3027 -17039,4142 -3399,967 -4625,3106 -6618,3769 -2291,762 -6140,-762 -8987,-930 -3792,-224 -6930,-184 -10451,422 1172,2394 1426,1391 4303,1114 1768,-171 3899,-185 5793,-53 4725,328 7768,1726 11522,2162 1972,229 3121,-1331 9537,-2944 4118,-1035 6688,-1934 10824,-865 -557,1242 -161,505 -923,1483l-4178 3402c-2149,1539 -4546,2447 -5693,4449 5358,-1318 7353,-2381 11866,-4452 -3443,5530 -18996,8312 -27691,7394 5047,3948 8356,1150 13830,7043 7979,-527 248,-6522 19860,-7545 6945,-363 4809,5248 9036,-351 4338,-5746 13057,2031 2952,9497 -1573,1162 -1960,1768 -3425,3072l-7175 6417c-1446,932 -2869,1665 -4922,2105 -11176,2393 -7876,-732 -11172,104 -1713,435 -5191,7326 -15533,-1657 -4255,-3696 -6772,-7176 -10646,-12161 -3473,-4469 -6121,-9175 -9811,-13031 -6826,-7134 -4093,-3538 -10511,-12328 -3345,-4581 -6717,-7967 -9890,-12919 -5921,-9242 -259,-4410 -9414,-13439 -5182,-5112 -8087,-15880 -10485,-23728 -1296,-4241 43,-5673 -547,-10332 5835,735 7306,-4558 12556,-5792 -829,5489 918,9903 6164,10514l3957 -400c1398,-541 729,-359 1167,-634zm-23729 -84850c-1027,-2493 69,-1478 226,-1722 2559,-1027 1854,1835 937,3078 -403,-364 -912,-744 -1163,-1356zm13666 -5999l1184 1411c2044,3600 1667,3804 446,5271 -1184,-1642 -2621,-4009 -1630,-6682zm-5618 -1051l2087 215c-121,965 -900,2437 -1597,3287l-490 -3502zm-18214 -39842c548,-1517 4706,-5683 6661,-6365 1554,1456 1328,353 2110,2650 -2583,1683 -1167,-587 -8771,3715zm181209 -7315c-2876,-529 -1882,250 -1990,-748l579 -42c79,2 250,10 344,16l2864 53c1913,-244 1305,-783 3512,-209 1209,2579 504,3113 -4522,6695 -871,-2612 -1056,-2406 -787,-5765zm-45286 -32127c-1806,-914 -2712,-3315 -3563,-5249 904,630 904,231 2278,2432 540,866 903,1579 1285,2817zm-10880 -9012c3895,2329 9270,3854 5595,11800 -376,-648 -1438,-1482 -2324,-1891 638,2629 1130,2134 430,3215 -1661,-796 -1664,-1999 -2241,-4172 -1018,1534 -196,1956 -1445,2675 -162,-5949 1379,-4921 -15,-11627zm-9274 -1038c-1545,-817 -2875,-1314 -3780,-2059 226,-983 1137,-1200 2275,-786 997,364 4471,3419 5231,5951 -102,-105 -228,-254 -293,-328 -64,-74 -209,-237 -287,-326 -77,-87 -188,-231 -273,-325l-2873 -2127zm315 -5320c934,-373 1953,-1143 2717,2509 -476,-397 -716,-612 -1232,-1074l-1485 -1435zm-11534 1980c4710,-3681 5257,-3445 8832,-2102 -1725,1253 -2012,-624 -4860,500 -2580,1018 -752,1770 -3972,1602zm10121 -3127c-2511,-39 -364,1 -1250,-484 1205,-1290 1451,-1063 2862,0 -312,176 1307,528 -1612,484zm-18687 239c1325,1070 2220,1342 3257,2325 -3072,-1196 -6290,-847 -6177,-4955 1324,904 1724,1664 2920,2630zm15336 -1263c197,-787 699,-1346 1206,-1381 2002,-134 669,304 1221,1183l-2427 198zm73834 28167c-3000,281 -4333,2043 -6399,3183 -1773,-2256 -5291,-8438 -9089,-6204 959,2760 3311,1834 4836,5713 1434,3647 97,6503 -1659,8184 -2851,176 -4850,-1420 -5690,-3492 -1436,-3544 -74,-3984 201,-7336 425,-5184 -1833,-11714 -4599,-13850 -5903,-4559 -8172,219 -14467,212 -6157,-7 -4344,-5549 -6806,-7130l-3212 -1546c726,2193 1368,2060 169,4288 -668,1242 -1279,2606 -2084,3758 -980,-910 -1045,-1400 -2160,-2549 -687,-708 -1708,-1858 -2462,-2434 -2023,-1545 -4463,-1997 -6819,-2913l129 2478c-1372,-599 -224,-674 -1190,165 978,2518 136,5549 -1004,7933 -686,-1500 228,-5687 -1117,-9587 -2258,-6551 -2717,-5035 -3916,-7555 3453,1233 4849,2639 7308,3868 -3765,-7943 -10457,-4304 -11736,-7454l-10192 4048c-2344,-875 -3120,-2794 -5025,-4126 605,3355 1423,2772 2275,5113 -2818,-61 -2181,-1099 -3515,-1376 -547,-114 -200,216 -1007,-398 -3272,-2493 -3998,-11681 -7648,5078 -33,154 -83,313 -117,447 -583,2272 -3757,717 -4715,-152 -2140,-1942 -984,-3054 -3079,-3941 -1761,833 -1092,167 -1791,2543 -1527,5181 -728,5596 709,10272l-3027 -3326c-7106,-7173 6190,-14452 -495,-14197 -11317,432 -17466,16309 -17096,18698 133,857 1523,3532 2456,4157 1138,762 1433,471 2469,778 779,230 459,31 1206,444 3200,1769 -2192,6788 -5375,3825 -1196,-1114 159,-1389 -1833,-2653 -1619,-1026 -1437,-401 -2996,-2393 -2231,-2852 -1771,-5065 -1266,-9253 -3296,961 -4185,2711 -6002,4791l-1502 1738c-1051,1221 -2260,2999 -2148,5200 199,3903 1825,898 2925,4329 -1038,1860 -1360,1712 -3717,2173 -3005,588 -2431,934 -4454,-443 -4564,-3104 -4723,331 -9327,-399 -2773,-1700 -1637,-3617 -3029,-6147 -8457,12878 1516,12025 4044,14253 -1101,4714 -3268,1913 -7133,3884 -821,-2491 1072,-1192 -1326,-2768 -2680,823 -2312,1930 -4348,3524 -1317,-939 -2401,-1740 -3632,-3094 714,-2290 1559,-2038 3696,-3373 -666,-590 -1110,-1022 -3208,-979 -1148,24 -2962,347 -4200,640 -2352,555 -5208,1889 -6813,3019 -1656,1167 -3071,3436 -2765,6523 339,3427 2412,4304 3520,6740 -2005,1084 -3236,2222 -4835,3866 -1828,1879 -2189,3631 -4866,4331 -4279,1120 -2953,496 -5209,3553 -1357,1839 -3426,2682 -4378,4874 -2880,6636 4267,10094 -3424,12287 -7951,2267 -8928,-1759 -13448,-3639 848,2795 3148,5337 5398,6780 2809,1802 6511,2128 10251,2160 -696,2866 -852,6666 -2230,8828 -2479,3893 -2415,4216 -1304,9546 -6673,-2455 -5090,291 -8832,512 -2743,162 -730,226 -2110,-1076l-617 -677c-931,8623 5692,4126 7083,4358 130,216 740,-613 529,1715 -214,2380 -4129,1729 -5697,1419 -3199,-632 -4431,-2377 -6749,-3199 2931,8110 9081,6029 13839,8235 -29,124 -104,318 -111,364l-2909 6194c-3953,5640 -6276,6748 -2934,17172 1108,3455 3678,3776 6207,5722 -6690,3612 -7046,1292 -12822,696 759,1531 3093,3050 5136,3786 3538,1274 15193,-1594 5748,6527 -2221,1909 -4781,1794 -6599,3100 2737,775 5816,673 8585,-490 3979,-1671 5234,-6155 8484,-2630l-726 2198c-4226,1280 -6250,488 -9699,3333 -4509,3719 -7928,14192 -3772,19107 3152,3727 5136,3243 10079,2359 2028,3337 1874,6967 5121,9620 2154,1759 4220,3466 3069,6751 -2144,6118 -9378,-256 -8259,-4600 399,-1548 463,-599 789,-1795 32,-119 86,-273 107,-395 20,-122 38,-288 46,-408 143,-2185 114,-496 -186,-1268 -5773,-112 -3576,12659 -722,16622 2584,3590 8434,8496 15527,5715 156,1553 -272,2253 -952,3350 -798,1290 -1495,2057 -2175,3518 1684,-523 3490,-1086 5007,-1739 2290,-988 2487,-1890 4315,-2618 1887,6002 572,9144 5718,14373 1501,1525 2301,1616 2984,4030 -1093,2547 -5249,5708 -9527,5166 -4366,-553 -8335,-2696 -13436,-2359 2694,1387 5911,1981 8967,3689 5549,3101 10482,7262 17289,7719 4776,321 7521,-947 11198,-1057 460,9814 -3084,8070 -5413,13024 2415,-138 3465,-443 5279,-1547 1964,-1195 2015,-1944 3634,-3249 1004,805 4371,6159 5319,8014 3244,6352 5094,14987 2517,21939 -1591,4294 -2968,5182 -6625,7218 8809,2309 15192,-7760 18145,-10377 7424,-6581 14830,670 16306,7966 1278,6319 -1865,19424 -4014,25015 -1489,3872 -3553,6319 -5875,8756 -2299,2414 -6530,3760 -7392,7386 1346,1983 3212,2003 5585,3261 1958,1038 3686,2503 5744,3438 2304,1047 4558,790 6416,2297 1906,1547 2444,3402 4484,4376 -1193,-3430 -2259,-10115 -3443,-12767 7664,1451 14275,12023 25123,4598l6292 -5671c6807,-6402 6292,-4883 5740,-16404 -285,-5938 -3885,-14558 -3382,-19788 12542,-7450 26795,6742 35134,10073 -869,3028 -1990,5748 -2928,9106 -863,3093 -1376,6506 -2303,9647 -1301,4411 -7556,10464 -9257,14922 130,-85 311,-389 372,-281l24696 -25500c2232,-2138 4206,-3935 6522,-6004 2302,-2058 3954,-4188 6269,-6202l45624 -42971c1363,-1126 2264,-1831 3566,-3003 3155,-2841 6165,-6696 9992,-8985 5912,-3536 4710,-1671 8894,-2570 985,-212 1125,-1902 1167,-2874 205,-4862 -2998,-14963 -4901,-18862 4894,-1127 7013,-821 11490,-3055 8429,-4206 18677,-14396 19766,-24266 -2685,622 -2454,1942 -3930,3666 -11273,13165 -32054,15045 -31036,5350 3462,464 16497,4441 21785,-786 -3066,-1388 -7444,-239 -11164,-847 -3356,-549 -6774,-2662 -7739,-4787 11279,-2907 16795,-8482 21702,-17947 785,-1513 1436,-3043 600,-4499 -1909,1443 -1369,1812 -2747,3498 -739,903 -2117,2200 -2955,2975 -2082,1927 -5638,3023 -7541,4292 -958,-11348 -853,-9953 -8261,-15420 2055,-3611 2314,-7662 1700,-12614 2477,-891 3699,-1837 4843,-4319 -1806,601 -3251,1668 -5420,2519 -1552,-2961 2453,-3739 -938,-6080 -2267,571 -252,-306 -968,1870 -1385,-344 -964,-698 -2286,-676 -897,15 -521,91 -934,273 -81,36 -206,146 -289,187l-3734 762c2059,-6002 4810,-11540 523,-17607 -1728,-2445 -2847,-1143 -5221,-2335 5000,-1260 13411,-5040 14041,-8655 -1972,620 -3436,2013 -6196,2846 -2547,769 -5599,1215 -8478,1051 1255,-2423 4558,-5541 5009,-7311 2073,-8132 2226,-16903 -3061,-23544 -1306,-1640 -2502,-2259 -3452,-1222 -1202,1879 2898,3251 3241,7989 297,4093 -1424,7791 -4927,7975 -521,-1431 -252,-2643 -1108,-4618 -1978,-4564 -3282,-3092 -1208,-7856 2160,-4962 1278,-11304 419,-16426l-2233 -6992c-1133,-2009 -38,-959 -1882,-1563l56 3403 -3692 -75c3337,-2513 7455,-19860 692,-20307 -846,3196 3553,5364 -829,9997 -776,-1470 -586,-1961 -1763,-3598 -699,-974 -544,-661 -1270,-1469l-1358 -1610c2675,-2037 3032,-3175 4137,-7162 3565,-12873 -7118,-10692 -10485,-12910 -3829,-2522 -1285,-5391 -1887,-8634z"/>
 </g>
</svg>
