<?xml version="1.0" encoding="UTF-8"?>
<!DOCTYPE svg PUBLIC "-//W3C//DTD SVG 1.1//EN" "http://www.w3.org/Graphics/SVG/1.1/DTD/svg11.dtd">
<!-- Creator: CorelDRAW X7 -->
<svg xmlns="http://www.w3.org/2000/svg" xml:space="preserve" width="594mm" height="841mm" version="1.1" style="shape-rendering:geometricPrecision; text-rendering:geometricPrecision; image-rendering:optimizeQuality; fill-rule:evenodd; clip-rule:evenodd"
viewBox="0 0 594000 841000"
 xmlns:xlink="http://www.w3.org/1999/xlink">
 <defs>
  <style type="text/css">
   <![CDATA[
    .fil0 {fill:#2B2A29}
   ]]>
  </style>
 </defs>
 <g id="Слой_x0020_1">
  <metadata id="CorelCorpID_0Corel-Layer"/>
  <g id="_51687303664">
   <path class="fil0" d="M193637 64543c4257,-848 16395,2135 18404,4275 3093,1067 7886,5685 9683,7853 1736,2093 2167,1791 3725,4896 1128,2250 2032,3441 2820,6029 1183,1797 3374,5908 3104,8430l1270 2341c974,2543 1552,10035 1939,12813 322,2311 -856,2213 49,4824 -85,2571 -723,3332 -868,4716 -161,1530 531,2000 222,4120 -319,2188 -4536,11878 -6097,14162 -7436,10879 -19749,15448 -35205,12921 -5169,-1007 -5353,718 -9076,-3108 -1551,-1594 -2030,-1420 -3622,-2607 -2144,-1599 -1765,-837 -4060,-1617 -1744,-6151 -911,-1191 -5649,-8796 -1041,-1671 -4617,-7335 -4777,-8834 -78,-119 -122,-295 -157,-398l-700 -2386c-374,-996 -868,-1306 -1227,-2155 -552,-1303 -138,-2589 -691,-4580 -291,-1048 -1309,-4253 -1470,-5251 -410,-2526 743,-2063 -337,-4896 -1311,-3442 -771,-1813 -249,-5169 309,-1986 -431,-2678 28,-5325l2653 -10381c804,-2521 5835,-10975 7400,-12233 3038,-2444 1626,-1976 3275,-2936 7022,-4086 9668,-5951 19613,-6708zm85367 9044c202,-2517 -375,-5159 531,-7189 2479,-836 8866,-460 11408,72 3139,657 6008,2353 7810,4123 2549,2505 7517,12488 7687,17271 -518,3441 -984,7586 -1925,10830 -4125,14213 -24616,11768 -25554,10905l-622 -1467c-1197,-4216 -142,-8307 -535,-10958 583,-4008 986,-5534 41,-9695l1159 -13892zm116119 -3209c2010,44 3550,1459 5249,2630 1201,829 1207,836 2075,1774l1359 1745c19,-63 99,155 135,238 3610,2222 6602,10103 7338,11229 1172,1791 720,1191 1426,3345l1487 2884c3343,6605 873,2964 1867,6218 3932,466 10940,-1129 13849,955 -1402,1394 -2042,1130 -3253,1143 -16465,180 -10300,2327 -10755,7361 -207,2283 150,3290 -13,5548 -622,8605 -3025,18180 -8645,25037l-7452 5989c-3682,2260 -12944,3686 -16786,3559 -3924,-131 -8479,-872 -12424,-1255 -5183,-502 -9635,294 -11715,-1838 1040,-2397 2069,-1977 4721,-3114 22,-1214 -1368,-12004 -945,-18453 466,-7124 1,-21611 -197,-29716 -74,-3036 390,-7071 231,-9422l-182 -14028c51,-1098 211,-3533 859,-4046 4809,-1491 11496,-1931 16800,-1635 8024,450 6693,418 11942,2287l3029 1565zm-125537 -12031l-3690 195c-2152,1417 -12110,286 -15880,1544l266 2477c4264,2142 8664,-577 9750,8523 366,3065 1110,4195 1388,7696 281,3526 -425,4773 -252,8248 179,3596 1561,4496 603,7657 -1491,4922 -755,2832 -363,7341 651,7495 -1683,10240 1485,15668 -2081,4974 -1805,4876 -1556,11039 181,4493 162,18237 -2492,21565 -2096,2628 -4056,3990 -8460,4075 -1522,5225 2632,3664 7014,3628l2452 125c2096,-1263 7573,-671 10493,-762l8634 595 10542 -24c916,-360 763,-401 1477,-932l-34 -1868 -2358 -1165c-2420,278 -4977,-1071 -6612,-2370 -309,-246 -2027,-2131 -2244,-2568 -688,-1382 -459,-2213 -477,-4017 -2869,-8503 -1033,-14173 -1573,-21100 -153,-1967 -1176,-4892 201,-6374 1660,-984 5727,-16 8263,-357 2087,-280 4434,-846 6484,-125l651 409c1279,568 1679,2419 2269,3777 568,1308 1362,2664 1497,3953l4727 8059c2103,4209 6441,11658 9336,15092 1562,1853 4860,4349 5898,6355l493 377 7675 3123c732,167 1097,121 1693,259l1613 572c3260,-786 11813,-415 15686,-179 5438,331 11007,-376 16789,-252 5321,115 11004,441 16761,469 4090,19 13682,-1354 16102,-1017l2287 -771c1147,-193 1859,-202 2955,-454 1798,-414 3439,-949 5108,-1443 1182,-866 2009,-704 3530,-1481 15083,-7703 16538,-16215 18865,-18192 780,-2663 2820,-6316 3947,-9841l2922 -10771c-720,-2889 737,-6524 497,-9397l-774 -8655c-1132,-3178 -1346,-6837 -2670,-10082 -1509,-3697 -2050,-5747 -4068,-8912 -1796,-1606 -4326,-5169 -6193,-7189 -1010,-1093 -2207,-2080 -3532,-3175 -1254,-1036 -2852,-1701 -3851,-2993 -2307,-327 -5989,-2687 -8643,-3670 -3165,-1172 -6296,-1320 -9226,-2253 -2638,-376 -4343,-987 -7169,-1043 -2406,-48 -4778,38 -7211,-19 -5262,-123 -9695,183 -14845,315 -685,75 -1923,57 -2768,311 -1569,470 -903,621 -1926,1004 -1529,571 -1961,-448 -4561,-426l-1316 478c-1523,1279 -607,877 -1910,2652 -2049,-887 -1578,-2100 -4778,-2413 -2689,-263 -3850,-83 -6245,560 -3519,943 1060,-790 -5269,-397 -2902,180 -3506,-141 -3823,2762 4064,2257 10536,-1592 12225,14427 1068,923 810,426 829,2335 8,765 -306,1865 -431,2634 -295,1815 -205,3911 -155,5844 772,953 519,6741 585,9222 -412,3091 -344,7312 250,10121l-556 9236c-388,3770 538,5856 148,9457 -246,2268 -89,3091 -12,5297 21,595 38,1843 -46,2403 -283,1894 384,1361 -654,1590 -239,2638 1613,9395 -444,11649 -970,10497 -10233,5533 -13408,2292 -960,-980 -1555,-1620 -2377,-2420 -5165,-5024 -17886,-27313 -17883,-29810l-1544 -2072c-1645,-3583 -60,-3219 3099,-6393 1271,-1277 2132,-2480 3342,-3862 2446,-2794 2628,-2663 4326,-6184 301,-623 341,-774 672,-1304 427,-684 232,-439 697,-891 0,-4592 2307,-9581 1589,-15070 -389,-2965 -1095,-4365 -1958,-6800 -736,-2073 -2194,-4064 -2432,-5542 -1079,-690 -1084,-662 -1941,-1684 -6015,-5085 -8561,-6799 -18501,-8579 -5342,-480 -8476,-997 -14341,-727 -4941,228 -9756,248 -14663,615zm-134398 153485c1700,-1483 8258,-1552 10520,-1527 2553,27 7599,280 9738,1951 4020,-651 10471,4367 12100,6320 1790,2146 6666,8835 6298,12209l857 1805c131,414 242,1021 322,1504 226,1363 300,2520 233,3904 -159,3282 -1465,4938 1667,6275 -1567,2053 -1908,4940 -2267,7686 -426,3256 -2202,6787 -2094,8600 -1127,1478 -2413,2798 -3680,4494 -1093,1464 -2288,3470 -3876,3982 -628,707 -127,388 -1208,1006 -520,297 -895,358 -1435,525l-7171 2847c-1868,680 -11271,872 -12803,-77 -3685,339 -6281,31 -9446,-1269 -2483,-7169 234,-17117 -956,-23195 -400,-2043 -20,-5288 367,-7351 791,-4218 293,-3811 -339,-7537l949 -14913c612,-3213 -588,-4626 190,-7061l2034 -178zm-18895 -9057c-5583,911 -14604,37 -19221,2551l-2 2121c2697,2118 2134,1079 5867,1870 6521,1383 9317,4188 9840,12702l949 9119 -272 10244 228 8728 -248 10449 188 8634 47 29719 -158 6717c-347,6106 -825,10857 -4019,14606 -3768,4422 -6037,4640 -12525,5842l-88 646c-24,2942 -604,3622 2734,3447 2062,-108 3673,-252 5815,-218 4764,77 6943,-522 11447,-896l9139 334c1774,23 3535,113 5306,170 704,22 1767,16 2427,72l2368 604 7188 334 3250 -127c860,-1359 875,-2057 910,-4140l-1767 -515c-5339,-712 -4007,-1263 -11373,-1510 -48,-2 -1623,-89 -1647,-94l-2026 -977 3564 -1759c110,-2349 -646,-7418 -1406,-9656 -705,-2077 -416,-26597 -667,-30818l13100 -87 9295 126c1439,43 2637,-76 3824,468 91,42 2008,1639 2075,1731 846,1166 1811,4844 1936,6591 661,1145 1369,2736 1737,3916 6067,595 16538,-5077 15104,3232 -3242,-288 -259,-1576 -3018,-628 -45,2328 1429,680 1637,2645 278,2622 -99,970 -492,1515l-3238 -4055c-1805,493 -1288,694 -2994,1352 -1886,-874 -223,-1203 -2961,-1338 -227,3063 234,4746 1834,6468l3209 4752c2386,1488 425,1476 1816,3660 1188,1864 1878,69 2607,3353 1063,4792 5607,10110 6012,11048 3041,7035 4547,6905 6317,11136 2525,2022 3296,4206 4491,5374 1935,1893 2222,435 4596,3545 962,1261 1215,2054 3243,2471l1916 -30c750,-1585 -684,1637 206,-674l5812 88c14,1352 -354,976 -99,2892 3666,1741 4382,368 7745,839 4173,584 9409,-947 13835,-2259l207 -334 379 -3342c-1662,-659 -924,-155 -2205,-416 -268,-54 -163,689 -2078,-671 -1875,-47 -6064,-3242 -7810,-4376 -4713,-3062 -5309,-4692 -7878,-4507l-1208 2439c-39,68 -115,219 -195,311 -995,-971 -1692,-1219 -1503,-2822 249,-2106 596,-732 2041,-2434 -2382,-5087 -4738,-5002 -6478,-8447 -1970,-3902 -8640,-12055 -9194,-15998 -831,-580 -227,137 -1089,-1038l-2098 -3657c-1331,-1726 -2006,-2492 -2964,-4717 -1415,-3286 -3986,-6651 -5308,-10209 -801,-1411 -1323,-2235 -2132,-3440 -986,-1468 -1097,-2405 -1975,-3762 -1372,-2121 -3663,-4731 -4184,-7221 1652,-2489 3320,-2776 5778,-4656 3173,-2427 2553,-3261 4701,-5846 8160,-9821 4953,-9605 7551,-13225 1393,-5575 2579,-9553 1897,-15884 -395,-1527 -545,-1256 -267,-2901l-905 -2281c-214,-799 -335,-1610 -476,-2422 -265,-1525 -519,-2908 -744,-4521 -3422,-295 -2074,-1424 -5052,-892 137,2553 1694,1591 -131,3928 -1600,-869 -1140,-1170 -2397,-2486 -5118,101 -4146,2510 -7653,913 1043,-3704 11447,-4828 10664,-8695 -1228,-2172 -2135,-1259 -3284,-3669 -2042,-570 -3650,-2777 -5961,-4025 -1628,-880 -5116,-2271 -7278,-2827 -2639,-678 -5635,-1038 -8316,-1647 -1236,-280 -2787,-810 -3814,-965 -1668,-251 -2701,150 -4084,-247 -2217,-328 -5251,187 -8148,-17 -2392,-168 -4793,-343 -7191,-259 -4949,173 -9435,697 -14445,375l-10166 560zm87804 116273l18305 -83c1902,-632 5094,-328 7031,195 453,-261 -235,-153 1173,-445 696,-144 645,-130 1362,-162l9884 382 3718 -12 291 -3227 -4762 -840c-3723,-862 -6577,-2544 -6499,-6508 -2824,-3116 -1602,-23804 -1300,-29000l-159 -9741 162 -9495 101 -7224c162,-6049 792,-17286 7683,-18716 4228,-877 4624,188 5095,-4073l-34951 268c3269,2051 6821,917 7191,11520 109,3137 98,6421 92,9569l-509 7604c-287,930 -197,701 -550,1212 28,-7139 252,-13649 -1170,-20528 -877,-4239 -1402,-4195 -4319,-6140 -2161,-1441 -4569,-3507 -7407,-3697l-987 2913c6456,2531 8306,2155 11750,12764 1017,3130 1575,12896 1391,16914 -150,3302 784,2298 588,5715 -200,3499 -645,7512 -913,10435 -225,2450 1428,6505 507,10919 -429,2053 -241,2987 -775,4994 -1829,6868 2799,1500 1690,15594l-3657 -302c-929,3567 -864,3791 -4779,4822 -3600,948 -6322,-343 -5277,4373zm66321 -98883c-1852,1172 -7394,714 -10047,737 -2331,18 -5635,349 -7506,-535 -2613,-50 -6098,-556 -8327,403 -507,1974 -417,1527 -3,3541 7046,-752 11833,2580 15203,5522 -395,2601 -778,2259 -404,5337 202,1665 630,3308 501,4779l381 16775 -172 807c1306,1718 397,10302 568,13096l-490 6216c1177,1246 929,1123 1035,3834 80,2056 14,2568 -133,4512 -640,8454 1885,6346 -361,16489 -506,2285 498,4526 -1536,6787 -182,1854 -1344,3038 -2914,4109 -1176,802 -3821,2038 -4904,2028l-1319 858c-711,528 -261,37 -808,677 -843,984 -710,1034 -721,2312l-166 553c3812,289 8016,-376 11869,-718 876,-156 9231,-139 10102,-11 2558,792 10382,659 13232,267l-113 -451c147,-4526 -1466,-2505 -4933,-3818 -835,-317 -4283,-2870 -4760,-3380 -2196,-2352 -2541,-10112 -2577,-13928l276 -7415c-1110,-1934 -802,-7665 -845,-10289l396 -9011c-1546,-2553 -148,-6820 -597,-12561 -673,-1751 -341,-1638 -17,-3354 757,-3999 -1588,-8860 -472,-12021 2751,-77 1656,368 2807,2554 2423,4601 5866,5818 7350,8432 945,1665 685,1816 2056,3212 3224,3282 4266,5708 6721,8619 5428,6439 8607,9024 14066,17091 2858,4224 3796,3784 4202,5711 4538,3666 4707,4720 7378,8129 1258,1606 2471,2002 3734,3915 2436,3688 1463,1857 3699,3991l6999 8334c2745,3126 3193,6005 8594,6668 2424,499 4197,-136 6055,-885 -211,-9265 292,-18674 -506,-27793l-234 -27331c235,-4779 -816,-9520 -487,-13898l989 -12902c652,-2652 2500,-8043 4353,-9531 6056,-4860 8349,9 7923,-5905l-2752 -587c-2015,-97 -18839,999 -19406,-282 -68,-155 -250,-94 -365,-160l-5159 133 -6427 466 123 3351c12321,1850 9207,10399 10547,20740 286,2209 -334,1898 -357,3753 -20,1611 635,2317 660,3698 102,5721 -197,13922 727,19697 447,2796 -107,3880 -159,6753l314 2993c-374,3745 915,8168 205,10777 -3115,50 -3475,-5033 -7624,-5952 -3452,-765 -457,-3420 -4157,-7405 -1705,-1836 -4267,-3218 -5269,-4812 -5808,-9239 -6568,-2521 -8561,-5342 -842,-1192 -301,-3161 -413,-4589 -196,-2527 -13635,-17358 -16489,-23527 -940,-502 -7529,-9993 -8813,-11832 -1531,-2194 -2779,-4002 -4338,-6209 -2935,-4157 -2998,-1433 -7424,-2222zm115671 23l-3106 1159c-2633,723 -1399,108 -2962,94 -1918,-16 -780,137 -2433,1062 -1555,870 -1864,322 -3199,1153 -1514,943 -2170,3516 -7131,6772 -91,59 -205,138 -297,196 -94,59 -216,136 -309,193 -735,445 -197,166 -999,555 423,3863 -2291,2940 -4806,2799l-4516 6146c-48,-89 -204,172 -311,252l174 -141c-2052,5150 -1615,78 -4703,10676 -2747,9430 -3495,15818 -2340,26041 566,5012 1608,4917 3298,11906l5361 9647c1111,1642 2049,3084 3176,4503 1014,1276 3368,2801 3807,3854 1816,679 1006,348 1537,1145 2121,267 2189,1552 4052,2859 3782,2653 10170,4911 14479,6880 3161,604 5221,1520 8299,1903l3533 725c1948,-658 5246,-112 7391,266l10084 -811 8666 -1278 5128 -1745c2232,-659 3518,-1115 5507,-1707l-228 -8225c-732,-1895 -514,-10783 -533,-13426 -22,-2992 381,-4600 522,-7187 185,-3379 644,-4478 932,-6997 739,-3539 2109,-3685 1991,-7770 -10152,-779 -9859,-186 -17764,382 -1956,141 -3893,-433 -5784,-638 -15127,-1639 -14208,3530 -9515,3777 1860,98 4884,-651 5972,524 3949,443 4242,1685 5079,3515 736,1610 375,805 1138,1777 1787,2277 2144,6354 1780,9701 -533,4904 -315,5699 286,10280 287,2191 -769,2043 -207,4916 511,2615 833,1756 2793,3061l115 3836c-4513,2790 -10794,1661 -16208,315 -3537,-807 -7178,-1428 -10672,-2243 -1750,-408 -2906,-1470 -4653,-2141 -2554,-981 -2756,-631 -4305,-2478 -2277,-2065 -5934,-4043 -6682,-7442 -2472,-1443 -1316,-1925 -2900,-4007 -1194,-1568 -1745,-1422 -3180,-3996 -648,-1162 -2776,-9928 -2988,-11590 -631,-2215 -1582,-5341 -1270,-7650 117,-2872 -582,-3834 -346,-6600 204,-2388 455,-4842 444,-7299 -224,-1334 1097,-5973 1731,-6899 455,-2471 3158,-8550 4225,-10062 966,-1369 1438,-3116 2569,-4143 811,-736 2963,-1829 4036,-2682 3122,-2483 4122,-3613 8844,-5023 3350,-1001 7958,-2287 11574,-2211 15092,317 21984,1271 29373,12193 2577,3808 221,8877 2056,11635l1037 -153c2125,-528 3380,-485 3138,-3008 -657,-6872 1080,-1733 247,-5768 -237,-1144 -753,-879 -573,-2398 152,-1287 532,-958 626,-2553 60,-1014 171,-4336 67,-5775l1428 -8634c-194,-2197 554,-1685 -1784,-2187 -44,-9 -3473,-192 -3489,-192l-9205 -733c-1878,-99 -3782,-179 -5661,-234 -1484,-44 -3712,68 -4994,-581 -1664,580 -2730,283 -4654,263l-13271 133c-1448,770 -6163,1905 -8517,1513zm75895 -139c-3136,3861 -8808,3617 -10039,9368 -2457,-406 151,-636 -2727,-456 -1043,1822 -2773,2797 -3645,4982 -794,1992 -1393,4744 -2234,6920 -518,1341 303,5735 330,7514 39,2619 20,948 767,2993 1246,3410 -723,2798 1500,5245 2201,2422 -650,943 6366,8003 1658,1668 9905,6409 10185,6734 2199,380 2082,1306 4265,2341 2577,1222 12883,5295 13580,6452 1351,427 5544,2814 6176,3478 3550,3722 6548,4866 7559,11150 859,5339 -280,3927 -1506,7631 -595,1798 -1857,4680 -2887,6327 -1619,2587 -3304,2073 -6763,2868 -3479,800 -4059,2783 -6274,2535 -1262,-142 -2169,-653 -3999,-737 -3315,-154 -3042,248 -4189,-804 -3181,308 -12607,-2025 -15558,-4399 -535,-431 -433,-372 -594,-602 -2898,-903 -3103,-1469 -4630,-3815 -1131,-1738 -2751,-3401 -3298,-5699 -769,-1449 -1121,-6953 -755,-8925l-1015 -2770 -2538 131c-121,934 -862,2672 -980,4245 -137,1837 111,3827 87,5759 -57,4552 355,7332 593,11571 815,3223 557,6949 3228,8043 2677,1097 6162,1661 9136,2783 3225,644 4991,2176 8211,1235 -313,-1637 8,-428 -797,-1354 -970,-1116 -133,733 -1288,-1206l3157 -186c951,140 3035,421 3644,1172 598,737 284,228 313,1255l-89 1846c3697,1400 9532,-148 13640,400 1110,-749 1057,-529 2738,-786 995,-153 1919,-260 2976,-419 2566,-385 3760,-934 5915,-1431 2013,-1399 12832,-5501 16309,-13687 1117,-2629 2003,-4442 2586,-7160 1169,-4723 797,-4644 389,-9763 -1501,-7785 -1951,-9981 -6704,-14629 -2004,-1960 -3208,-3055 -5767,-4771 -1170,-784 -5773,-3352 -6484,-4168 -6965,-2345 -15540,-6688 -21597,-10414 -5694,-3503 -8366,-7087 -9294,-14202 -336,-2571 941,-5067 1036,-5195 697,-937 -207,-127 870,-806 352,-784 295,-585 1028,-1545 3879,-5085 9759,-6839 16255,-6322 2583,-2185 11910,1384 13818,2907 3496,2789 6321,6788 7102,11696 420,2765 -179,7479 3535,6096 2036,-758 1235,-7010 1226,-9450 -19,-5238 2043,-17921 689,-19458 -1326,-1340 -8194,137 -10846,63 -13171,-369 -8021,-2227 -22090,-918 -1935,180 -3973,258 -5780,608 -2608,505 -2675,1567 -4842,1726zm-363570 -190533c3397,317 6196,113 7987,2339 6193,7694 1791,5801 2819,9198 606,2005 1194,435 822,3584 -551,4658 1544,14116 1169,17876 -1224,12270 1197,10569 1928,15412 377,2498 -97,7260 -93,10045l173 9039 269 14452 -662 4785c-764,3314 -320,2070 139,4971 308,1944 -337,2571 -199,4975 1502,2956 -211,5750 -448,9046 25,4136 -856,6527 -579,10261 3255,10009 -2857,10098 -1641,13395 1387,1993 1321,-566 2961,2908 -738,1500 -3258,3095 -3264,3086 -684,-1226 879,5836 580,6633 -1379,3678 -6736,8993 -12637,8721l-876 3611c882,586 270,-108 256,808 8857,1497 31675,649 34698,1151 1907,318 974,-298 1562,673 3614,-512 17514,-1452 19933,-80l1169 -314c5315,-6 22236,1015 26085,42 3130,-5479 2241,-5900 3270,-9684l1332 -3185c-132,-1827 1323,-7543 2224,-8722 154,-685 489,-2047 720,-2513 1508,-3044 3936,-388 13597,-943 4021,-231 8002,-231 11585,-1211 389,-221 7102,-2120 7780,-2160 2036,-2455 7311,-3378 9917,-5552l11801 -11204c1486,-2129 1333,-2974 2500,-5182 766,-1452 1994,-3059 3047,-4606 1501,-2207 621,-3543 2209,-5396 616,-2944 827,-6572 1943,-9041 402,-3355 504,-6854 -21,-10181 -807,-1742 -699,-6291 -221,-8387 -76,-114 -150,-274 -193,-364l-499 -1111c-73,-189 -415,-1314 -470,-1490 -3106,-9926 -5631,-11891 -8078,-17774 -453,-201 -4725,-5477 -8464,-8309 -783,-593 -891,-574 -1646,-1249 -115,-102 -615,-613 -674,-680 -495,-559 -311,-353 -498,-699l-2468 -1690c-683,-546 -1045,-914 -1827,-1507 -1573,-1192 -7768,-2853 -10483,-3898 -1391,-536 -1468,-674 -2653,-1154l-2455 -1098c-1973,168 -4254,-694 -6674,-745 -2402,-51 -4805,-137 -7212,-188 -3826,-82 -11030,1291 -13386,944l-717 330c-114,40 -251,99 -381,140 -695,218 -46,33 -820,207 -2123,480 -2615,116 -4949,1561 -6497,1118 -9450,4220 -14417,6862 -5262,2798 -4527,1313 -6268,4283 -2297,3918 -4202,-307 -3844,5450 -2463,1641 -761,-1083 -2218,2389 -2345,5587 -3798,4307 -5026,9463 -1556,6538 -3119,8033 -3044,15949 68,7135 -653,10976 1557,17587 786,2353 1496,4792 2344,7229 742,2131 2537,4242 2624,6193 1875,1789 1793,3325 5410,6841 5403,5254 3519,5898 12544,11428 3813,2337 5708,1845 7615,4130 2727,-53 5677,1744 7888,2387 -619,3390 -2682,5516 -4336,7249 -9168,9606 -6860,4126 -14350,7690 -2837,1350 -5723,721 -8896,227 -6567,-508 -5062,-519 -6709,1487 -6660,-2614 -3128,-1006 -10814,-1753 -233,-23 -1362,-161 -1630,-242 -1240,-373 -731,-87 -1420,-752 -1271,-1336 -2413,-5999 -1036,-7868 2415,-3277 1438,-3625 565,-8111 -2111,-10843 13,-3464 -309,-9165 -259,-4590 -2795,568 -1337,-8980 780,-5108 342,-4110 -46,-9178l202 -31668c-32,-3917 -734,-6719 -256,-10387l47 -18626c-282,-2812 205,-2104 322,-4533 73,-1518 -195,-3640 -218,-5286 -88,-6587 544,-13396 1865,-19380 1296,-5870 5355,-9209 11186,-10488l1811 272c1561,-1065 3154,-942 5009,-1037l-122 -3975 -9091 14c-8173,943 -16439,1257 -24756,744 -4090,-253 -14465,-1132 -18438,-278 -1332,286 -2134,-601 -1695,3957z"/>
   <path class="fil0" d="M212575 179246c232,-1854 -315,-478 931,-1888 389,-440 1012,-936 1490,-1398 1298,-1254 1405,-1637 3124,-1957 1151,-1624 1740,-1649 4257,-1808 12553,-793 16447,9321 16583,20842 -320,13559 -15004,16110 -21794,9005 -1637,-1713 -3721,-1628 -4608,-8170 -2098,-1497 -1445,-3995 -1303,-7145 70,-1550 255,-2602 497,-4024 297,-1744 -22,-2473 823,-3457zm48305 23897c-348,-478 -311,-228 -541,-1146 -325,-1293 -133,-585 -194,-1824 -121,-2470 -338,-5355 983,-7896l461 -644c699,-564 10759,-1935 12483,1460 1205,2373 -289,2188 2137,2759 1439,-2728 1415,-8779 860,-12387 -2745,508 -922,585 -2682,2511 -2057,2250 -9245,1432 -13152,1390 -343,-267 -1521,76 -950,-3930 875,-6149 -255,-7135 1143,-9625l8439 -296c8134,718 4137,2446 7191,5893 1607,-593 1458,-905 1713,-2435l-13 -6840c-2515,-845 -6338,-619 -9369,-507 -2664,136 -19796,-202 -20520,326 362,3445 1797,-1350 4428,7476 531,1778 994,2876 606,4810 -1637,8155 -112,9144 -638,17461 -414,6557 -2721,4973 -4136,8293l17328 55c-883,-3108 -5844,-649 -5577,-4904zm36908 -28166c1324,-1125 5586,-834 7414,-648 122,2088 109,3399 705,5207 1061,3220 367,918 125,3661l-393 9694c-64,3145 0,7394 -608,10239 -923,4327 -3705,2762 -5225,5059 1574,957 15439,493 18150,-28 122,-1373 -208,-1326 -2074,-1651 -2668,-464 -2098,-144 -2678,-2679 -811,-3543 -1087,-5808 -517,-9465 -1785,-2453 -36,-7808 -273,-11103 -374,-4318 -1950,-9917 3731,-9266 977,-721 2947,-709 4461,-562 586,958 1039,1891 1229,3459 363,2998 199,2720 1247,3217 1889,-2631 -616,-7463 1243,-9336 -1173,-2455 -1965,-463 -4924,-1389 -122,61 -289,106 -386,135l-1225 323c-3599,737 -6531,422 -10276,256 -4333,-191 -8453,-357 -12810,-254 -559,1849 -2004,8723 -1726,11015 3292,-398 1748,-2928 3397,-5016 1282,-1623 20,-580 1413,-868zm61961 8582c470,1702 227,2028 -412,3485 -1979,171 -2444,-391 -4217,-701 -3981,-696 -12920,732 -14782,-542 -1192,-901 -480,-26 -906,-1494l373 -8659c449,-2338 983,-2345 1138,-2524 857,-2017 2513,-599 3626,-2701 -1810,-1049 -14253,-1149 -16310,8 360,3534 4103,-696 4316,8131 100,4131 477,7252 181,11033 -729,9294 1154,6124 46,11106 -1823,8192 -3335,4038 -4952,7125 2043,1056 6021,173 8658,300 2560,58 5971,862 7942,-506 -915,-1546 -3895,-447 -3993,-3998l-658 -1464c-34,-126 -200,-1421 -216,-1603 -1099,-13048 -1172,-10618 10350,-10580 4953,16 5148,-700 8964,-1270 344,3827 1818,15147 -1579,16901 -2956,1526 -1567,-27 -2489,1740 1470,1190 5348,588 7565,589l7797 -557c-128,-1581 -2729,200 -3679,-4964 -170,-413 -511,-1071 -185,-2583 -1480,-2574 -20,-15153 -140,-18227 -1004,-1421 -6,-6834 915,-7572 1272,-3650 1963,-1469 3768,-3601 -1821,-1257 -2799,-876 -5223,-681l-201 -367c-1545,814 -3660,603 -5451,512 -694,-35 -2314,-182 -2910,-154 -871,40 -533,-25 -1309,187 -3452,943 1764,1249 2849,5171 681,2462 768,5794 1124,8460zm46043 18890l437 -4280 -2285 -47c-1083,3060 -2880,6104 -6521,6541 -2070,248 -8218,498 -10166,-1104 -1004,-826 -426,-292 -1001,-1187 -9,-3 -679,417 -873,-1717 -230,-2526 1082,-3457 -12,-7214 919,-3544 1177,-2908 8682,-2664 6987,227 5048,2665 7508,3390 1070,-1195 1397,-7137 1114,-9346l-329 -1236c-31,-100 -93,-262 -161,-382 -2814,850 -455,1356 -3040,2902 -1693,1013 -3445,793 -5585,716 -3960,-143 -9400,1255 -7905,-3445 86,-1915 518,-3604 411,-5304 -179,-2821 -1105,-2471 -40,-3679 1472,-1404 6135,-478 8457,-257 10220,-869 4491,4679 8661,4901l1197 -8902c-2667,-845 -8738,-383 -11745,-208 -4159,243 -7748,-597 -11982,-450l-2219 -95c-1307,714 -2490,235 -3797,1049 366,2129 1563,977 2941,2597 1278,1501 490,3469 852,5409l376 4423c33,1722 625,3092 334,5741 -420,3832 -399,7636 -527,11568 -268,8283 -2198,4038 -4209,7657 1229,702 26145,1002 27601,646 2728,-667 2726,-3420 3826,-6023zm-185915 -174530c658,1125 1000,4553 1073,5866 106,1898 254,3953 -139,5738 -34,1716 541,8968 -941,9280 -1124,1757 325,-491 -974,1141 -783,985 -208,-271 -789,1113l3967 217 7409 104c1802,43 4113,197 5869,85 2830,-180 2231,-1074 3560,-2630 -120,-1998 543,-3124 -207,-4423 -2759,1221 -1501,4103 -6894,4432 -3422,-2 -4368,-40 -6429,-1626 -195,-2585 -147,-5488 368,-7800l6240 -19c2012,531 2723,1145 3838,2095 1059,-412 333,429 924,-505 113,-1991 820,-4902 35,-6558 -2543,672 -93,2159 -4762,2328 -982,35 -2435,1 -3419,-49 -683,-36 -1155,-54 -1810,-213 -1041,-252 -507,-54 -1104,-482 -77,-96 -134,124 -351,-679 -11,-39 26,-158 20,-282 -6,-134 45,-198 66,-297l30 -6518c1576,-328 5761,-272 7518,-197 2963,127 2413,1412 3812,3364l1128 -1765c-342,-2480 348,-2337 129,-4266 -3240,-794 -17568,-780 -19887,346 960,1703 1183,346 1720,2200zm-30171 11155c-146,2716 254,3985 221,6255 -9,613 -188,1973 -418,2530 -823,1994 -538,1151 -1620,1853l-1414 1074 10993 394c-971,-2370 -2453,-513 -3036,-4724 -1254,-9050 556,-7653 6900,-7563 3216,45 3482,-555 6158,-870 79,2137 336,5797 160,7779 -386,4326 -1754,2744 -3043,5106l10407 61 -1142 -1668c-62,-70 -199,-191 -286,-298 -498,-239 -282,1141 -1004,-1484 -238,-865 -256,-1782 -306,-2669 -107,-1857 -98,-3696 -280,-5554 203,-3707 -442,-9659 1083,-11121 344,-2241 1237,-1416 2277,-2642l-625 -348 -10107 75c673,2557 2320,250 2999,6139 380,1819 682,3121 201,5097 -1894,546 -2485,-131 -4599,-140 -2707,-2 -6383,481 -8865,-411 -199,-1472 -204,-2933 -91,-4422 214,-2804 340,-3030 1112,-3773 443,-812 -140,24 669,-702 340,-304 656,-476 790,-612 758,-775 648,95 632,-1297 -2670,-285 -8657,-513 -10852,648 703,1777 2685,462 3051,5175 182,2342 248,5840 35,8112zm-26352 -9588l-373 3156c887,-360 597,-136 1569,-455 108,-4358 2404,-4215 6612,-4151 152,2087 774,3852 692,5481 -85,1698 -237,3867 -391,5557 -41,2064 -59,4115 -86,6161 -35,2550 95,3354 -1706,4435 -1006,1116 -973,-430 -2077,1387 1338,773 4343,391 5999,287l6089 -148c-361,-1850 -1079,-930 -2543,-2219 -906,-1361 -1358,-6101 -1343,-8949 315,-3290 -965,-9071 603,-11473 858,-707 3653,-1480 5028,-769 2344,1212 -466,3253 2400,4177l108 -7029c-3981,96 -6092,658 -10026,364l-9991 -170 -564 4358zm49092 141239l-1093 1071c433,-30 1960,-282 2036,-279l1116 253c62,-117 251,81 359,153 -1935,553 -3368,1657 -5245,1719l-1526 1681c-5546,4874 -5656,15508 -3250,20796 1023,2250 1301,730 3183,6721 760,449 1147,949 1950,1590 741,592 570,356 1130,796l1014 1107c4901,1795 6743,3220 12678,3186 5049,-28 9538,224 13522,-2010 91,-567 1727,-160 -1404,-926 1496,-774 3078,-1906 4410,-2584 495,-2289 1212,-1293 2528,-3498 2939,-4927 2554,-11627 2746,-15453 -887,-1072 -2043,-11014 -11558,-14817 -3852,-1540 -7121,-1372 -11697,-1509 -4562,-138 -6301,1411 -10899,2003z"/>
  </g>
 </g>
</svg>
