<?xml version="1.0" encoding="UTF-8"?>
<!DOCTYPE svg PUBLIC "-//W3C//DTD SVG 1.1//EN" "http://www.w3.org/Graphics/SVG/1.1/DTD/svg11.dtd">
<!-- Creator: CorelDRAW X7 -->
<svg xmlns="http://www.w3.org/2000/svg" xml:space="preserve" width="594mm" height="841mm" version="1.1" style="shape-rendering:geometricPrecision; text-rendering:geometricPrecision; image-rendering:optimizeQuality; fill-rule:evenodd; clip-rule:evenodd"
viewBox="0 0 594000 841000"
 xmlns:xlink="http://www.w3.org/1999/xlink">
 <defs>
  <style type="text/css">
   <![CDATA[
    .fil0 {fill:#2B2A29}
    .fil1 {fill:#E31E24}
   ]]>
  </style>
 </defs>
 <g id="Слой_x0020_1">
  <metadata id="CorelCorpID_0Corel-Layer"/>
  <g id="_53610675248">
   <g>
    <path class="fil0" d="M291367 246717c-3018,54 -5634,-807 -8425,-1868 -786,-299 -979,-1584 -963,-2337 21,-1000 1432,-1447 2255,-1793 4129,-1738 6560,-266 7628,3986 96,382 398,1698 -11,1934l-484 78zm-61675 96537c6017,32 12034,65 18052,97 9087,44 18209,-115 27287,322 200,1225 163,2326 419,3545 860,3464 -120,1646 1834,3099 470,2482 3022,5591 4686,7466 708,797 1799,4217 2027,5270 177,819 1318,5095 1075,5780 -193,544 -1242,1150 -1714,1484 -1468,-3837 -2758,-7454 -4698,-11138 -785,-1492 -1202,-1261 -2685,-2013 -194,16636 1044,33211 1234,49839 135,13804 -375,28474 807,42160 195,2247 445,4578 956,6777 2472,2066 3635,7738 7240,9332 17,-12147 170,-24450 37,-36578 -12,-1048 -449,-7985 62,-8651 372,-485 1870,-426 2461,-463 -1807,4546 -90,36676 69,44099 140,7195 -45,14066 1308,20906 782,3953 3253,14544 6477,15239 1915,7143 1446,3898 6370,6686 -1825,11645 -584,27029 1335,38667 259,1572 549,3117 894,4672 1582,6989 5013,33739 7383,38378 1562,-4165 392,-130129 367,-145878 -11,-10137 52,-20431 318,-30561 102,-3882 -161,-7862 -115,-11809 182,-14253 -449,-28417 -204,-42626 41,-2131 105,-4256 189,-6385 65,-1589 194,-5411 654,-6845 12684,-1931 28025,-2066 40947,-2099 4584,-12 23160,-398 25852,1936 1038,899 4545,-214 6145,3446 730,1669 975,2142 2265,3514l3507 -953c3863,-5544 7578,-15194 1624,-20607 -1150,-1046 -380,-603 -1030,-2126 -992,-2323 -2981,-2839 -5286,-3034 -800,4733 -3656,5496 -7557,7214 -2309,1017 -2124,897 -4619,1105 -11551,966 -22689,1209 -34271,805 -7120,-248 -26529,806 -31870,-2634 -486,-340 -1337,-1443 -1335,-2030 25,-6927 -728,-12621 -1493,-19441 -482,-4325 -970,-8439 -412,-12788 488,-3801 -785,-5981 -616,-9675 272,-5972 66,-11770 480,-17733 361,-5203 38,-10403 -381,-15592 -672,-8143 3099,-9241 -921,-16309 -2470,-9387 -4581,-32635 -1908,-41603 916,-355 64,44 1268,-737 6070,-3940 14262,-5048 16097,723 2925,9202 -8928,13403 -1124,18962 1141,-2594 -1073,-878 533,-4815 640,-1568 2081,-2490 3194,-4379 2928,-4964 682,-7804 -244,-12504 16074,590 23043,23652 7096,19502 859,2552 2445,4061 6248,2989 2322,-655 3334,-2353 4554,-3834l396 -478c85,-103 255,-331 401,-480 3032,2739 4687,6199 8205,9262 3859,3359 10912,5608 11912,-2136 -1004,571 -2148,2116 -4075,2586 -1716,420 -3041,-224 -4116,-871 -9998,-6020 -7303,-24424 -30440,-30461 -5020,-1310 -16143,-1643 -19274,2060 -1538,-1054 -2268,1848 -699,-2821 136,-77 337,-391 382,-272 1,3 4667,-4581 8747,-6482 10939,-5095 32463,-785 40804,4805 6628,4442 10929,10123 17654,15163 2724,2042 8289,4817 9234,7271 698,1811 981,6010 -22,7553 -1725,2657 -3587,1384 -5837,755 645,3804 11565,4667 10174,-8741 7593,-27 9260,-561 15123,-2957 5407,-2209 9468,-3203 13061,1401 -484,3572 -881,2371 -2574,4902 2969,-86 4105,-1044 5777,-2234 346,-2900 -357,-5290 -715,-7167l-4794 -1635c577,-3302 3262,-5438 470,-9559l-1572 2789c-3618,7852 -9339,10125 -19784,10345 2636,-4444 8241,-4305 8021,-12991 -436,-17140 -1660,-3543 2263,-17895 962,-2442 779,-1102 -461,-1537 -5286,3885 -4505,8346 -7359,12593 -3903,-808 -4348,-1669 -7558,1033 2067,1565 5069,245 7362,2663 4818,5077 -1075,15678 -13914,12121 -7780,-2156 -12420,-8874 -17490,-13577 -1691,-1569 -3545,-2631 -5759,-4493 3706,-2923 16738,-2990 26207,-11126 1714,-1472 4384,-5341 6247,-6127 5258,-11701 4458,-5212 7429,-20231l1775 -4825c1003,-1230 463,-576 1151,-923 1787,-3416 4771,-4927 8426,-6512l-2372 -251c-4704,1795 -9207,5165 -11516,9795l-5453 16715c-1826,-1993 -2298,-5376 -4120,-8781 -1574,-2941 -3076,-5286 -4326,-8094 -2343,-5258 -4271,-15432 5861,-12980 -548,-1672 -487,-1241 -769,-1835 -73,-153 -435,-534 -479,-858 -26,-191 -164,-231 -232,-355 -4410,-509 -3750,94 -7352,1234 -510,2750 -1677,3180 -1995,6718 -329,3645 454,5097 783,8145 -3602,-177 -6762,-460 -9516,2024 -2632,2374 -2993,5153 -317,7809 661,-893 1642,-5621 3128,-6508 18345,-2865 20095,27408 -7148,30231 857,-3237 2683,-3893 1273,-8559 -656,-2173 -3169,-4727 -4301,-6337 -4746,-6749 -1363,-9977 -348,-16854 -6086,2676 -6028,7900 -6011,15486 -2544,1892 -3244,1833 -3229,5763 12890,-5509 13052,7145 4339,11548 -10353,5232 -36968,-7551 -47105,4106 -3422,-744 -1204,804 -2202,-1840 -317,-839 59,-3119 136,-3966 3052,-2909 2495,-7008 13720,-11693 5590,-2333 12473,-4829 17657,-7715 8998,-5009 15910,-9890 19569,-19827 994,-2697 1672,-8281 2308,-9492 1378,-10075 6005,-11936 7873,-17569 -3120,408 -8776,8604 -10642,12539 -2255,4755 -1979,14753 -7088,16379 -3345,-6249 -9045,-10144 -7035,-18883 830,-3612 2838,-6363 2926,-10284 89,-3941 -1423,-7163 -4484,-9131 243,7380 2990,9403 -897,16225l-3146 -396c-13009,-2799 -14866,7424 -12006,10177 2019,-3834 618,-7060 6661,-7540 6149,-487 6287,2458 6866,7744 767,7012 10832,13934 5539,20891 -3351,4405 -12960,8467 -18585,10861l-20520 8807 1081 -9985c2356,-7303 3982,-12713 9226,-16286 2844,-1938 7160,-2551 8971,584 2436,4219 -300,7323 -1311,9755 7132,-1053 9123,-14662 -2018,-15802 -10576,-1083 -12376,7294 -17007,11699 -384,-16267 9318,-25471 18640,-35122 1933,-2001 6441,-7904 8301,-9331 1208,-4106 2023,-5248 2166,-10350 54,-1898 188,-4930 112,-6727 -125,-2972 773,-3787 -1807,-3705 114,1617 1275,465 -426,1360 -1131,5893 -1408,14001 -4246,17993 -3326,-851 -204,4 -3036,-1835 -3691,-2395 -6169,-1559 -9793,794 2685,1926 5712,-559 7461,2232 1246,6093 -3442,8405 -7069,11914 -2102,2033 -7723,8861 -10463,9885 -611,-9881 -1130,-23625 4926,-29492 1343,-4086 2196,-4163 3967,-7485 1480,-2774 1505,-6136 1982,-9266 -2057,1363 -13868,22991 -15902,24945l-11479 -18018c-1428,-2358 -1907,-4447 -3306,-6417 -1681,2553 60,6187 703,9408 3375,2449 6182,9749 7847,13891 2567,6385 1371,14752 1419,22047 -3320,-857 -777,509 -3439,-1969l-7290 -7482c-3099,-2840 -8157,-5930 -7012,-11862 3888,-2557 2175,-2642 6974,-422 -1015,-9261 -10641,-1316 -12344,-941 -1782,-2533 -1738,-1976 -1446,-4551 -2528,-3718 -53,-12238 -4858,-14856 -407,9866 -177,12299 2113,20894l16359 17705c5128,6328 10420,14032 10357,25624 -4701,-3269 -6607,-12259 -17616,-10438 -8925,1476 -9237,12123 -1565,15845 -585,-2975 -3534,-6599 -614,-10390 3615,-4692 11518,-155 15332,8768 773,1807 2713,9335 3044,9868l415 7512c-3530,-828 -13042,-5733 -17320,-7550 -13080,-5556 -27923,-10177 -21084,-22598 1485,-2697 3802,-5458 4530,-7747 1415,-4443 -806,-5602 2496,-9301 2189,-1207 5847,-1624 8499,-19 2879,1743 1686,3985 3000,6459 2904,-2676 238,-8116 -3064,-9770 -5781,-2897 -12139,2431 -12368,-1788 -1216,-1267 -988,-183 -1575,-2951 -626,-2958 765,-8260 1036,-11096 -14061,7474 9180,17393 -8076,36503l-1416 1268c-4681,-4469 -3548,-10692 -6580,-16782 -2218,-4456 -7152,-10852 -9862,-12163 354,2711 627,2158 1488,4547 590,382 384,120 1166,966 92,100 264,289 357,403 4478,5482 4921,16680 6727,21318 5926,15226 21236,21130 35513,26819 14702,5858 13212,11287 16078,14041l359 4103c-938,902 1614,1091 -2087,526 -89,-112 -257,-419 -297,-308l-1597 -1176c-1208,-679 -2427,-1127 -3468,-1559 -18155,-7532 -30832,3326 -41733,-1079 -3081,-1245 -9970,-6878 -5693,-11686 3008,-4427 6048,-1037 9311,-492 -174,-3341 -838,-3925 -3460,-5077 404,-7375 617,-12677 -5740,-15522 1210,6926 3795,9929 -599,16398 -5333,7852 -5838,4176 -3119,14916 -24255,-2860 -24312,-24666 -14308,-29843 6879,-3559 8571,1376 9596,4315 640,1832 -100,655 699,1747 4857,-4648 -401,-7430 -3290,-9686l-6502 -141c991,-9450 798,-19869 -10324,-14673 530,2979 9,710 1504,1727 4343,-3133 9255,3076 4362,13516 -3000,6403 -6303,9499 -6978,16754 -4362,-4216 -4052,-11951 -6679,-17214 -2432,-4872 -7863,-9513 -13896,-9821 5628,4570 9570,3640 11519,12968 1779,8510 2539,12605 6903,18523 6154,8346 11553,12046 21873,15033 1890,546 3296,853 5260,1380l4884 2116 -2692 2671c-1200,1006 -1547,1196 -2662,2254 -4968,4716 -9347,10945 -17105,13150 -12188,3462 -18343,-6384 -14287,-11725 1657,-2182 3834,-1720 5823,-2418l1488 -688c217,-99 523,-229 730,-417 -3443,-1450 -3689,-1535 -7859,-523 -4865,-7662 931,-5002 -9856,-14983l-492 1997c3455,7 6006,10186 5110,16836 -1638,12150 4705,10447 7719,15941 -19517,-645 -18732,-10067 -21373,-13185 -2314,3465 -852,6019 533,9161 -4139,3027 -6599,1031 -5494,9245 1575,1227 2800,2127 5693,2254 -1674,-2780 -2033,-1438 -2563,-4928 6255,-8319 11408,1664 28193,1533 -892,7387 761,11322 9195,10845l-2454 -1239c-1208,-554 -1185,-310 -2611,-1209 -1530,-11951 4646,-11165 11719,-17009 5081,-4198 9352,-9444 15838,-13668 7556,-4921 27236,-8713 37292,-5665 4611,1397 6167,3419 9458,5021l966 3981c-3427,-441 -5428,-1151 -8838,-1335 -7933,-431 -7062,444 -8199,1492 -6383,-1686 -16947,6899 -21321,14862 -2247,4090 -3904,8069 -6902,11957 -6717,8710 -10684,1584 -11221,1139 -2607,5892 6361,6359 10608,3193 4156,-3098 5604,-6729 9105,-9965l4243 4530c53,52 222,205 320,319 4560,201 5870,569 7004,-3083 -15425,4414 -9561,-18847 7187,-19565 -767,3686 -2645,6180 -1039,10953 1348,4008 4942,4198 4341,9484 1154,1268 -270,443 2078,670l265 -1197c1302,-8521 -3161,-5891 -3707,-12657 -701,-8689 3609,-7688 10674,-8541 1728,1502 390,384 2679,1595 1113,589 1982,984 2711,1406 1308,10946 -913,22616 -1107,33592 -14,789 220,2186 -117,2857 -1078,2143 -1108,2920 -1789,5395 -636,2314 -2397,7744 -547,9746 708,767 558,292 530,1829 -52,2943 -499,5901 -372,8843 57,-2 243,-531 -304,201 -42,55 -63,254 -108,272 -12,-100 -41,232 -56,348 341,6247 813,12692 1039,18917 169,4646 -71,9449 41,14182 56,2384 555,12687 -108,14267l-192 343 -239 227c-706,327 -258,2522 -198,3149 160,1676 775,7658 -500,8560 -435,309 -341,199 -552,758 -185,704 -333,4027 -211,4756 314,2376 -43,5058 -436,7419 -116,703 -379,796 -1099,1096 -3845,1601 -16412,2315 -21112,2493 -8428,306 -17047,379 -25498,553 -10775,203 -19655,-124 -29974,-3747 -768,-269 -753,-936 -1208,-1818 -1091,-2112 -1786,-2802 -3772,-4082 -8105,4189 -10044,15641 -4439,22739 1315,1665 2788,3195 4372,4605 967,-291 2818,-964 3041,-2073 336,-1662 548,-692 1904,-2130 3864,-3924 7670,-4106 12907,-4424 5082,-309 10230,-94 15322,-51zm-13904 -2300c-905,-882 -857,-522 -2398,-729 -1641,-220 -10059,-249 -11468,154 -1258,360 -1564,190 -2680,431 -2711,585 1006,-1132 1731,-1330 2320,-635 14064,-1642 15104,812 112,264 260,716 62,936l-351 -274zm-20929 -6776c-147,134 -158,136 0,0l0 0zm3846 5432c-382,367 -443,389 0,0l0 0zm3361 -4101c-553,-458 -2395,-2403 -1344,-3095 2546,2793 4928,3565 8133,5283 -1621,-126 -5474,-1253 -6789,-2188zm83263 -23792c-383,-184 -3134,-4033 -2101,-4989 1903,-1417 6047,-1524 8317,-956 783,196 593,1513 553,2276 -80,1517 -1168,1659 -2525,2264 -990,441 -3193,1497 -4244,1405zm6236 9369c-3338,2086 -3421,1774 -7001,2556 -1236,270 -1408,64 -1449,-1345 -139,-4818 -508,-4561 4753,-4599 844,-6 1691,-10 2533,60 786,108 1290,258 2035,509 97,1159 117,2137 -871,2819zm11443 185019c33,384 57,673 0,0zm-44 -583c33,481 58,849 0,0zm-45 -708c56,967 28,479 0,0zm-42 -785c31,604 54,1073 0,0zm-1326 -11499c-104,-209 -185,-374 -224,-612 -207,-273 -316,-597 -328,-923 -69,-185 -104,-379 -104,-573l0 0 0 -23c-187,-332 -211,-681 -210,-1063 -23,-63 -42,-127 -57,-192 -167,-349 -144,-650 -144,-1019 -140,-360 -103,-781 -103,-1163 -188,-258 -303,-577 -307,-935 -42,-3365 -83,-6729 -124,-10094 -271,-22077 -650,-44203 -815,-66275 -20,-2657 255,-5934 338,-8678 166,-5571 576,-23288 -2268,-27466 -1760,-2586 -2760,-1821 -4134,-5837 -249,-728 -447,-1421 -634,-2166 1743,-147 3414,-252 5164,-296 5638,8434 2655,19410 4302,28868 354,2033 -115,11509 -186,14245 -70,2665 -122,5323 -134,7990 -40,13114 155,26229 292,39343 136,13141 344,26280 690,39418 -241,-712 -855,-1906 -1014,-2549zm-7206 -148209c810,-2584 244,-1864 -170,-4662 -481,-3247 1065,-2815 1300,-791 383,3284 97,9821 -1438,12805 -343,667 -699,1178 -1132,1784 -75,-1852 -165,-3703 -233,-5556 28,547 52,1079 98,1626 621,-470 1313,-2853 1151,-3029 -246,-269 311,-1798 424,-2177zm-20352 -4693c-1655,1977 -905,-387 1272,-1553 1682,-900 4692,-1914 6631,-1948 1190,-17 10075,-179 10131,808 -522,297 -6783,17 -7952,13 -3273,72 -7575,315 -10082,2680zm116343 -6803c-2154,3494 -3053,4366 -7259,4483 -2807,78 -5064,109 -7898,455 -48,-466 2920,-3316 529,-784 1226,-458 2170,-672 3320,-1077 1027,-361 3992,71 5991,-553 1316,-411 2490,-489 3081,-1989 623,-1585 2478,-933 2511,-983 229,-351 -257,417 -275,448zm-60846 4178c-5946,171 -26617,1792 -30889,451 -3013,-947 -2955,-3172 -2281,-5813 339,-1151 1783,-830 1969,230 282,2893 -801,3760 3452,4468 2988,498 6215,383 9244,372 -139,229 -72,-50 694,-55 879,-6 4754,87 4859,46 360,-142 564,-151 965,-146 -474,265 376,-147 1045,-156 3580,-49 2308,137 5216,-476 458,-96 4426,65 4931,67 489,1 979,4 1468,7 -638,832 -266,-47 1017,-60 4648,-41 9763,155 14322,-49 1477,-66 9890,32 10061,-25 804,-269 1269,209 1964,176 902,-42 810,-52 388,391 908,-799 3015,-494 4082,-494 2445,1 3103,130 5221,-314 6,-1 1568,-229 1584,-229 842,12 -4601,1131 -6039,1310 -10762,1344 -22400,26 -33273,299zm-30517 -46416c-1051,210 -1549,2128 -359,-151 2404,-4605 270,-2275 1787,-2091 2661,323 2059,657 3423,-1928 452,-857 724,-1929 737,-122 17,2470 -1677,3460 -3817,3880 -719,141 -855,313 -1771,412zm-993 1297c6,-110 7,-122 0,0l0 0zm9 181c-15,-89 -17,-99 0,0l0 0zm47 164c-26,-62 -29,-69 0,0l0 0zm2113 7883c1514,-1663 1086,1381 2411,-220 1618,-1957 1901,-5695 2191,-2937 487,4641 -6213,7095 -5756,5284 139,-554 849,-1647 1154,-2127zm5024 6216c60,-355 70,-411 0,0l0 0zm-37 195c33,-159 38,-184 0,0l0 0zm-215 755c281,-773 331,-890 0,0zm-205 471c204,-410 238,-474 0,0l0 0zm-6438 4930c85,-1771 960,-1359 2727,-2050 1729,-675 2438,-1251 3601,-2666 436,635 -830,2615 -1344,3064 -641,560 -4235,3064 -4890,2202l-94 -550zm712 9802c1043,-1542 2549,-1463 4270,-1211 941,138 -394,147 911,292 716,79 -930,1381 -1387,1591 -474,217 -3647,1361 -3966,1039 -316,-319 71,-1402 172,-1711zm-14524 -28736c920,-139 7033,-494 7544,-151 742,500 -144,3281 -850,3931 -1405,1295 -5932,3398 -6771,362 -164,-592 -825,-3592 -405,-3977l482 -165zm-765 -10621c-548,-1869 857,-1433 2504,-1523 907,-50 5155,-488 5552,316 1403,2838 -4776,5625 -7122,2863 -481,-566 -640,-990 -934,-1656zm-419 -11916c-512,-364 -266,-864 -420,-1734 -155,-878 1102,-446 1873,-429 882,7 7035,-186 7072,640 31,685 -705,3034 -1572,3353 -1183,436 -4250,1296 -5305,559 -473,-808 344,-1300 -1648,-2389zm14683 9339c73,-1682 1097,-1663 2533,-1128 2736,1020 2721,4512 1915,2942 -380,-742 -1692,-658 -2656,-864 -333,-71 -1532,-246 -1689,-487l-103 -463zm2129 -8315c115,-1224 253,-717 1747,-1618 575,-348 1822,-1041 2235,-239 468,909 -3687,2966 -3993,2288l11 -431zm-817 -9809c-208,-3070 2353,-819 4034,-2198 682,-559 2080,-2643 1387,-1659 -660,934 641,3822 -3701,3958 -370,12 -1433,89 -1720,-101zm-16415 -5021c3972,-940 4928,-1597 8829,203 -2030,5333 -1545,2281 -5021,2526l-653 166c-2820,1008 -2063,-255 -3003,-841 -79,46 -123,387 -288,-362 -139,-630 -69,-1095 136,-1692zm-1939 144c-106,-7 -212,-17 -319,-31l319 31z"/>
   </g>
   <path class="fil1" d="M159829 121393c9869,13339 -14786,17308 0,0zm217865 278379c2132,175 1744,328 3381,-981 -1515,-2723 -1607,-1524 -3548,-4010l-4601 2689c-1086,1196 -1688,3308 -1996,4978 4477,-519 1742,-995 3293,-154 2122,1151 -1939,541 2851,1490l620 -4012zm20001 -7949l-383 -2886 3156 -1420c-1021,-3313 -1225,-1565 -1618,-3183 -1855,-789 -1543,49 -2460,-1093 -3483,2847 -3406,293 -5467,6515 222,144 544,285 718,340 2875,914 2144,-1009 2769,1848l3285 -121zm-38961 -1174c-3190,6607 -12825,5054 -14917,10858 -3378,-723 -3266,-1280 -7918,1960l-1117 1070c-1647,-178 -1163,-359 -1810,-818 1274,-2468 1673,-3543 1255,-6887 -5111,-2690 -5793,-1625 -10599,1607 816,-9792 14767,-27597 16110,-33325 -1148,-458 342,-824 -1948,206 -215,2656 -9896,17719 -11916,21244 -7554,13180 -4559,17138 -11063,22351 -1010,-338 -1380,-142 -1500,-139 4,420 6,840 2,1259l2474 -66c5492,-674 11377,-483 16265,-2371 -757,3479 -1269,3872 -3044,6853 -843,1417 -1052,1801 -1830,3002 -1339,2066 -667,579 -1641,3055 -2590,587 -6135,2647 -6094,-2547 3122,-60 1335,758 4651,1335 2925,-7376 -6076,-4766 -7325,172 -2076,8208 10300,4388 11450,3130 4240,-1604 5641,-4853 7795,-8010 970,-2174 2136,-4233 2896,-5911 1941,-4284 1694,-2282 3993,-4954 2327,-772 3791,-2750 7990,-3908l5095 -732c-942,5162 -7606,17163 -13793,14493 598,-1993 -458,-2097 1875,-1621 115,23 345,221 463,253 121,32 385,184 500,212 2284,572 2430,-1517 1993,-3637 -2984,-267 -4536,385 -6037,1948 -2778,2890 -3509,7253 4471,6346 1475,-1832 2838,-2483 4348,-4090 1294,-1377 2264,-2703 3549,-4611 2052,-3046 4550,-7148 6261,-11224 3035,702 5659,-1931 6943,-4403 5550,291 10168,-21 10655,-5101 5966,-2408 -422,3836 10911,-3629 3034,-1998 6228,-3666 9580,-6050 5258,-3740 3809,-4872 6545,-6703 2970,-1988 2802,50 5668,-4164l3552 -4076c2999,-712 1310,197 3187,-3112 2145,-3782 -517,-649 3558,-3060 2783,-1646 3129,-4943 4922,-8037 2487,2598 4064,8099 5029,12091 1927,7975 -566,11343 721,14139l1216 -2196c237,-605 559,-2011 631,-2440 1755,-10421 -5589,-27763 -10061,-33888 -2467,4855 3469,12781 -1738,16194 -2771,1817 -6128,252 -5530,-3006 769,-4188 4201,-798 3592,-6394 -9034,-571 -3854,15543 -3869,15864 -4981,903 -5334,-1833 -10749,-2822 -3265,-7093 761,-26951 -2241,-31229 -3298,6039 1006,28812 -1017,36529 452,779 37,-413 810,1851 2264,6642 -532,7476 -3337,10360l-754 -7811c-6558,-1251 -6031,1418 -10336,3798 -653,-4127 979,-12742 -972,-15990 -2319,3775 -1847,11504 -1699,16207 108,3444 508,5149 821,8279 467,4678 641,4614 -3709,5290 -2419,-7130 390,-25748 -103,-28360 -49,-260 -128,-490 -190,-715l-646 -1287c-50,-363 -239,-425 -403,-603 -594,2017 -451,2676 -745,5065l-1048 3947 361 2606c-131,6080 -16,16898 -2041,21772 -1301,2989 -3245,3992 -7438,2464 -3177,-9248 5439,-1873 5001,-9132 -4899,-477 -7171,3924 -8001,7935 -1133,5476 -1882,5383 -7738,6868 1392,-7370 6265,-5655 -45,-18121 -1443,-85 -406,1035 -1462,-649 -4613,-1280 -11176,-1412 -12332,2918 -1326,748 -2104,536 -3575,4195 -3341,8305 -1801,2759 -5382,7726 -1703,2361 -1574,2385 -1589,5364 2134,-1083 1048,518 4647,-6257 2854,982 2525,1566 3707,2143 1692,824 1356,426 3421,-137 553,-2947 1248,-2329 -555,-4373 -167,-188 -1261,-718 -1547,-927 -1144,-835 -495,-258 -1264,-1258 829,-3065 1399,-2951 2857,-4608 813,-923 487,-535 1168,-1564 3395,-136 7439,-658 10174,1881 2553,2368 3133,6844 1555,10113zm-23123 15399c1825,724 3281,-837 545,3991 -2967,5237 -3378,7883 -7948,10051l6092 -11569 1311 -2473zm-14208 284c1866,-16710 22419,-755 0,0zm67097 -26822c82,-20517 17920,-4133 0,0zm20249 -18026l-353 4171c-3759,877 -3131,666 -4088,-3827 1148,-1268 -2048,-1242 2756,-831l-121 654 1806 -167zm45784 -47297l596 6095c3530,73 89,181 2491,-750 173,-67 399,-175 582,-243l3015 -995c-640,-10417 511,-818 717,-7166l-7401 3059zm19885 -40472l-315 220 216 -2675c2976,172 1201,641 3170,-606 -541,-3156 -944,-1595 -1259,-3446 -592,-3470 492,594 250,-3538l-5458 283c547,5928 -431,736 -480,4980 -4,267 681,2866 760,2986 2048,3094 -288,1396 3116,1796zm-42708 64886c-2871,-4998 -3344,-12106 4197,-9693 1344,4390 -1388,8274 -4197,9693zm7393 -9394l-937 -894c-9398,-12438 14517,-14791 937,894zm-1758 -85218c1433,697 -180,-687 1713,1273 650,674 782,975 1411,1848 4241,5884 10690,14070 16412,18906 3222,2723 6950,3849 5541,8288 -4737,1261 -5156,-3825 -8243,-4468 1439,5703 4418,5686 5478,10047 1505,6194 -2314,7352 -6012,4201 -294,-4307 3450,-3465 243,-7418 -7368,3467 1967,13107 2265,16321 291,3126 -2447,6654 -5508,3873 -3218,-2924 1141,-3778 607,-8787 -2258,714 -2898,-379 -3695,3295 -280,1294 100,3624 458,4930 1255,4589 2266,3529 4460,6390 -140,3567 -2657,10639 -6458,7025 -1863,-2098 -270,-6760 -1185,-11126l-1272 2127c-3969,5812 -7454,-802 -8424,-5206 -2874,-2938 -3179,-13024 -5205,-17279 -1457,2846 1713,12974 2902,16745 1808,5732 3371,12393 10011,12165 2593,10733 5497,7413 2009,12585 -1541,-2424 -1676,-6704 -6313,-5540 -3723,934 -3881,5464 -3945,9375 -4228,1020 -3952,883 -5775,4302 -92,172 -193,399 -282,565 -87,164 -218,403 -298,550 -80,145 -249,417 -315,534 -65,116 -195,363 -322,525 -6174,-10833 -7347,-30199 -9857,-34441 -1976,2756 3322,21614 4632,26321 5011,18000 7255,12945 6737,24415 2536,-1618 3677,-4252 5682,-6897 1786,-2356 3904,-4877 5399,-6936 7911,-10890 4508,-7011 8029,-15036l650 -1260c80,-160 217,-436 362,-631l520 -814c3141,-3877 3586,-2505 4679,-9833 1132,-7595 4349,-1729 3385,-13734 4473,-5028 5154,-3581 3746,-11500 2751,-1854 1518,307 4084,-4741l558 -1024c3925,2621 11473,8834 11943,14056l2005 3214c759,1624 296,1459 1658,3093 2458,-5803 -6513,-14758 -7668,-18082 -21424,-12973 -16858,-22786 -9000,-19341 389,3612 -258,2358 -480,4262 -195,1681 -286,409 -83,2008 259,2042 -211,598 803,1865 4961,-2274 2356,-13435 -6567,-12913 -707,2111 -980,76 -2006,3307l-1041 4999c-32,-111 -121,462 -242,664 -7220,-4024 -20172,-25065 -23486,-26107 571,3237 4051,4964 5300,9040zm29711 -18955c1775,421 -58,-364 1588,542l4342 3754c2258,2932 1611,6259 1530,9931 4914,-2648 6961,-10032 -2461,-16400 -2089,-1412 -4035,-2202 -5349,-3999l-4619 -3092c-241,-4697 532,-1779 612,-3826 134,-3441 1025,-1145 -1419,-2492 -1595,1233 -538,-432 -1333,1453 -66,156 -566,2914 -572,3067 -232,6127 3285,5652 7274,10496 102,124 274,376 407,566zm-12504 -2441l2661 2888c2896,5243 2912,7861 2201,13248 5168,-2733 4784,-6600 3130,-11877 -1720,-2416 -3944,-5879 -5307,-7973 -5363,-8241 -1576,-5462 -1702,-10660l-2886 46c-159,1989 -1009,5113 -355,8036 614,2744 2249,3447 2258,6292zm23306 -21487l-761 4213c-7555,-1091 6141,-5537 -4497,-5523 -615,5279 1628,8716 6624,8335 1302,-2795 734,-5664 -350,-8129 -2016,-3456 -2762,-4498 -5806,-6841 -3156,-2428 -3596,-3780 -7519,-5993 -790,-1985 -780,-3156 -1681,-5157 -739,-1644 -2514,-3749 -2774,-4648 -1379,-4760 2525,-3341 -4895,-11026 499,-2391 1422,-3440 331,-5827 -1457,-3188 -2379,-1696 -3343,-5034 -1359,-4707 1333,-3898 -6552,-8861 1469,-6047 -542,-7976 -5150,-9857 566,-4829 1100,-3985 -1337,-7380 -2557,-1188 -10555,-14345 -13562,-17869 -3079,-3608 -5437,-5171 -8374,-8079l-16321 -15693c-3930,-2944 -7611,-3059 -9715,-5866 -4675,-6239 -4477,-3689 -10401,-6152 -5178,-2153 219,-4479 -11669,-4291 -2704,-5435 -2208,-5691 -9857,-5419 -3161,-4917 -615,-2171 -5667,-4810 1502,-3039 7023,-7363 9186,-8757 9523,-6135 9922,-2032 12377,-6429l-5264 95 -4499 2390c-1420,605 -2889,1340 -4304,2197 -2868,1735 -5061,3374 -7293,5850 -2053,2278 -4247,4426 -6430,6725 -6830,7195 -14198,2664 -9884,-3324 4699,-181 4025,3720 7999,431 -3185,-6082 -10465,-1021 -13264,1410 -545,6943 2570,7437 9161,7365 -2149,5014 -7764,5696 -10188,10155 3685,-618 9780,-5895 12000,-7885 6468,-5798 5851,-8803 11011,-6826 -105,4662 -3736,4961 -5762,8047 5790,-439 9981,-6974 14229,-4184 2404,1578 2189,5436 -429,6178 -3683,1042 -2458,-3707 -6936,-1117 2630,11254 22471,-10230 19384,5671 -7687,1945 -3158,-3807 -8557,-743 399,3695 3409,3925 6982,3456 5186,-682 5284,-3789 7504,-3986 4261,985 7336,2630 6271,7600 -4323,978 -6932,-486 -11334,-555 822,2010 -668,-435 2112,2271 3672,3574 892,5704 -3616,6827 -4199,3393 -15041,2004 -19568,4100 1910,1642 6174,749 8800,382 5236,-732 11019,-1780 16071,-4136 3603,-1680 3804,-2316 4181,-6465 7980,-503 10067,-4699 12487,88 -9580,607 -8609,8760 1845,10724 1051,2110 431,2639 2209,4641 1646,1854 2619,1472 4155,2980 -7147,2968 -17438,4083 -25255,4870 -2250,227 -7220,557 -9174,1701l21250 -1207 4942 -159 12097 -3877c7805,-2829 4992,-3087 11127,292 -2750,1902 543,-222 -3667,1344 -1986,739 -2325,1184 -3474,2090 -76,5848 2772,6861 7522,8503 150,6847 1675,5015 4704,8695l-18033 1205c4217,3538 19245,1204 25207,166 3913,-681 4710,-1098 5694,2662 -6020,5629 -26146,-553 -31895,3285 2869,1624 8494,1009 12305,1037 6285,46 9763,-1057 12128,1423 3283,1332 12144,19524 13631,23284 -9875,-164 -30955,-7036 -34475,-6374l-1222 443c18449,8064 46557,7193 48561,14911 867,3338 -1252,6842 -4267,4946 -3811,-2396 1151,-4016 -3965,-6599 -2563,2813 116,5861 2091,7519 3379,2836 4649,1809 8899,2556l1953 6265c-2448,-800 -11803,-8910 -15470,654 -3050,7951 2977,14246 5078,18457 1532,116 1107,-307 1259,969l6161 839c75,-9680 -6183,2900 -9164,-8565 -1475,-5672 -802,-12396 4293,-13139 10508,-1532 7634,19591 14994,22429 -289,-3549 -2068,-2021 -2423,-8423l-863 -7891c2812,781 4134,1755 6988,4434l5103 5986zm-18225 -55503l-513 -2251 -6054 -178c-1220,-1881 -1459,-3169 -2842,-5129 -1451,-2058 -3098,-2786 -3733,-4461l-821 -294c-1846,864 -3640,-1580 -106,2573 3210,3772 3109,4027 5457,10347 1676,4509 3702,9561 8303,11522 -181,-3017 -3536,-3201 -5759,-12972l6068 843zm3710 22718c983,3999 2237,6080 6151,7628 1026,-1896 247,-1029 1056,-2734 914,-1926 380,565 1405,-2771 -2220,-1838 -743,-1246 -3853,-1392 1246,-3571 140,-3118 -250,-3745 -2784,1050 -2130,1294 -4509,3014zm-66263 -97998c-5535,574 -3749,3628 -5192,-452 -1510,-470 -872,-158 -1928,67l-604 4403c3006,1956 2696,3958 9184,2175 -487,-2064 -4639,-1295 -1460,-6193zm48434 87700c1501,119 5738,-85 6606,266 3047,1234 1312,6753 -3981,3869 -2467,-1345 -1884,-2438 -2625,-4135zm-93474 -102920c1493,17 898,860 3557,-1297l-3227 -1643c1871,-2487 829,-419 801,-3474l-1140 168 -3626 4128 1431 -1629 -4172 -2400 142 5475 4615 1523c1815,-170 668,22 1619,-851zm88665 92428c17313,531 4543,18054 0,0zm-6273 -10505c4113,185 5838,504 8548,2286 721,3467 188,7663 -4094,5094 -1457,-874 -3985,-5572 -4454,-7380zm-9096 -16496c3167,-803 3115,-1117 5594,1375 1575,1583 2375,3064 3154,4944 -5897,1014 -11033,169 -8748,-6319zm1635 -2725c-3222,139 -5477,983 -7889,-359 -2088,-1161 -3116,-4067 -1070,-5885 3488,-3100 8301,2416 8959,6244zm-13375 -14659c-2729,1022 -13429,1986 -9375,-4503 2467,-3949 8316,1839 9375,4503zm-18680 -12229c4988,-2249 8394,-163 10964,4317 -5048,1289 -12480,3799 -10964,-4317zm-96447 -32063c-615,-4547 2963,-5260 6489,-4886l3956 1481c-1664,3971 -5990,7169 -10445,3405zm8008 -19540c-570,1105 -9515,11507 -14669,12772 781,-2486 8618,-12518 14669,-12772zm-13869 38614c-909,3050 -2921,2070 -3930,6115 4091,-1699 16993,-16970 20585,-22964 2373,-3962 2347,-6574 7928,-6859 -616,-3287 -261,-1721 -3701,-2325l-14762 -1494c928,-2233 5188,-6495 7283,-8106l3281 -2782 4829 849 187 3434c-3719,-320 -1161,-31 -2373,-892l-1791 -1303c-2309,2775 -1277,1143 -1250,4457 5142,1229 9318,-1155 8714,-7162 -1975,-1184 -3451,-1847 -6829,-1152 -266,-220 -395,-1262 -3726,-955 -5374,496 -11302,8008 -14628,11642 -2798,3059 -3894,2170 -3475,6803l9267 -2142c-2031,2306 -5137,4021 -2858,8393 2933,3390 6176,1607 9892,561 -1394,3834 -5775,8874 -8461,12076l-4182 3806zm21502 -15908c27,21 84,2789 3586,0 -559,-873 81,-1675 -1802,-1585 -1365,66 -1602,112 -1784,1585zm-193758 115544l-3577 -1370c413,3516 913,3105 1034,4301 304,3013 -309,-500 -757,3907l5695 -227c1139,-4335 1948,-5635 -702,-9791 -2218,938 -1712,-1889 -1693,3180zm15908 -47099l1199 3234c-877,3286 -643,-296 -1763,3889l1960 939 3789 283c-159,-3328 -264,-708 588,-2685 1325,-3074 1234,-1971 646,-6901 -2515,945 -1428,1676 -3384,2197 -1538,-1862 523,-585 -3035,-956zm115127 -77808c5463,-2129 4156,759 8512,-5422 -2894,-1912 3138,1847 -1619,-750 -4473,-2444 701,-1454 -4328,-2556l-1511 3842c-3427,-2059 -2645,-132 -3357,368l2303 4518zm28602 13731c1227,555 -443,-693 1719,1013 1680,1325 454,472 1153,1190 -1527,3205 -1518,2486 -4463,4684 -17844,296 -11997,-15795 -6117,-15366 3922,-4606 13399,665 16542,-7474 -5930,1322 -6512,3305 -14635,1681 1012,-1844 11991,-15699 16348,-8988l-2219 298c-1996,-277 1542,-1102 -1974,-591 -2260,328 -1562,1973 -1551,3350 3996,1355 9186,-251 8545,-5985 -4527,-2215 -5219,-751 -9681,170 -357,848 417,-184 -834,1033l-2617 2167c-1257,1178 -1889,2051 -3204,3372 -2574,2583 -3389,4555 -7889,5176 -7467,1031 -5782,2991 -10711,3556 -5975,684 -5415,772 -9040,3949 -3349,-703 -1847,-1714 -5477,-847l-4064 1902c-92,-169 -390,173 -596,221 -1660,1826 1386,-195 -1619,747 -3051,956 -4771,-347 -7825,5501 -6991,-854 -6524,-1094 -10810,4004 -10765,-394 -3135,1734 -11437,4774 -6684,2446 -4726,6076 -8034,7159 -3189,-4328 4023,-22595 8971,-16957 -2343,3513 -3100,-696 -4713,3286 867,696 -1489,2189 3509,927 621,-157 2274,-2054 2313,-2116 1921,-3080 1891,-7615 -3465,-6139 -557,154 -2188,1341 -2589,1751 -3274,3349 -5371,11037 -6588,15511 -3152,11594 -9653,4986 -12799,16874 -4205,-165 -5517,907 -7632,2123 -381,1989 -695,2488 -1219,4745 -5318,2316 -3160,-1267 -7380,4826 -3396,4904 -11447,11696 -15501,18914 -1314,2339 -2218,6395 -3529,8030 -2130,2658 -3552,1373 -5361,6120 -1922,5042 423,4230 -3304,8194 -3093,3289 -2118,5401 -2028,9771 -5733,2523 -5270,4166 -4951,10678 -5321,1731 -2075,1913 -4617,5541 -6909,-5832 -11799,-12465 -13388,-21964l242 61c-924,326 -3424,-1384 -364,7591 947,2779 1663,4262 3237,6700 7794,12076 19634,16195 15930,23368 -1542,2986 -5413,3140 -6182,-50 -937,-3883 4689,-4794 -296,-7382 -3969,3360 -1402,11411 2096,13038 8509,3957 6563,-8746 6413,-10189 12056,11051 14656,21612 20236,25945 63,2113 741,2027 1784,3993 1527,-403 658,107 1709,-1082l-1068 -919c-2593,-2768 -11990,-20292 -20683,-29669 -2611,-2817 -7953,-5713 -6380,-9856 4596,-567 4763,2196 7393,5093 2934,-3737 -6305,-8467 -3954,-14064 1247,-2968 5348,-2831 6180,-77 1037,3434 -2715,2715 -1405,6839 4940,298 4290,-5157 2773,-8945 -1767,-4414 -4072,-5811 -2212,-10639l5355 -258c1860,5905 -1666,2562 -1368,9022 7397,-1882 3245,-11035 -523,-13917 336,-4592 2069,-9561 7770,-7258l-871 11298c465,-144 661,-714 744,-568 212,370 5462,-10841 9746,5154 2277,8505 1186,15247 4357,17605 -890,-6664 -1465,-12802 -3048,-19016 -1336,-5243 -2381,-11179 -8828,-11595 -839,-8479 -4905,-7104 -753,-12972 1534,3449 400,3430 3018,6355 6598,238 6934,-3264 7753,-9131 5277,-308 4887,-2989 7161,-6451 4126,11591 4638,22727 6677,35509 930,-1166 947,-669 1079,-3538l-3272 -23299c-2602,-15182 -8551,-18707 -3524,-22186 1158,530 1804,-507 3223,4598 2993,10765 5790,27940 7280,38939 1148,2790 -224,826 1504,1726 1511,-14514 -10689,-47041 -6100,-51532 2284,-2236 6224,-1281 5674,2318 -664,4354 -4013,500 -3644,6262 5824,1037 5945,-6132 5867,-11070 -149,-9492 6956,-8995 7184,-1852 -3203,1780 -4668,757 -4245,4902 4063,425 5989,-3432 6326,-7248 410,-4644 -4194,-8411 2158,-8445 1333,2382 1379,5403 1605,8756 1265,-1001 593,-55 1890,-1834 237,-6599 -6,-15280 8926,-12704l-90 4494c-3920,2439 -4631,-18 -4685,4977 3247,-41 1627,273 4799,-1989l1248 -764c304,-3080 1715,-2952 1374,-7105 -329,-3995 -2740,-4381 2805,-5297 2328,9922 -4162,44348 -2851,46871 3374,-5022 4801,-29966 6043,-38336 4767,-4539 19055,-9638 25268,-12322 -1292,10468 -11145,34623 -9954,36706 2601,-3782 7317,-18619 9013,-24358 1256,-4254 5615,-22176 8747,-23900 6178,-689 6562,-972 6332,5264 -4368,1274 -4883,-1097 -6634,3004 4666,2961 8897,-3131 9686,-5677 1171,-3777 -867,-3993 2432,-5748 1674,-891 4394,-641 5782,-75 -2269,3520 -8654,8853 -4107,16314 3026,4964 11024,6129 14689,2137 2304,-1230 853,-130 2676,-1931 1070,-1057 180,-357 1097,-1271 690,-688 855,-718 1079,-870 2196,-5178 7783,-3295 8656,-9392 -3698,1403 -2642,3029 -6879,4501 -1313,-1474 -1677,-3171 -3544,-3597 -2766,-630 -2887,1862 -2791,4227zm-159152 228117c7870,1338 4101,623 5435,-31 -1343,-1749 -496,-1666 -5445,-2424l10 2455zm27812 50465c714,2486 -89,1218 1324,2661 2722,-181 2467,38 4321,-1409 -185,-112 -404,-279 -553,-337l-5092 -915zm-40085 -110070c856,10135 5214,13153 10833,18706 2960,2926 5154,11065 5391,16226 79,1712 -301,835 343,2770l1459 2041 2131 2511c-754,3475 -2216,2300 -1041,6460 674,2387 2129,2319 2739,4707 1938,7591 -922,4904 4991,10260 -434,2326 -841,3413 -1258,6016 1585,747 456,-423 2319,1657 1448,1617 894,1173 1501,3235 1234,4196 1125,4121 4604,6140 580,6607 4979,11681 7843,16980 4733,8756 4982,2981 8558,11277 741,1717 1252,1963 1796,4013 -5940,1316 -16948,4563 -22092,426l-3003 76c2524,3838 -1750,-1040 1081,1451 16808,8321 27941,-4529 39625,-365 1582,3386 2264,3342 -127,6818 -7448,799 -1037,-3859 -8391,-4459 55,4343 2736,6237 6860,6576 6052,498 4914,-3538 9793,121 -779,970 -40,224 -1362,1145 -8155,5679 -2001,9469 5349,10581l1107 6016c-4000,34 -8534,646 -12040,-253 -2350,-603 -7365,-3518 -3780,-5754 1432,907 331,514 1174,1712 1234,1753 61,1576 2112,2258 5116,-3371 -3097,-7172 -7393,-4759 -2484,5130 4787,7506 9032,8020 6408,776 12480,-377 18727,114l359 4190 1448 -329 830 1462 6299 -179 -4397 -2047c-178,-4792 2884,-4092 6505,-6571l-8866 -6127c-423,-282 -1172,-794 -1429,-939 -1426,-801 -170,-188 -1599,-666 -2072,-3688 -7301,-7913 -10931,-9941 -8315,-4643 1186,-3092 -10047,-9433 3047,-2723 5504,-648 8747,-3285 -6001,-3987 -16901,6000 -21755,821 1127,-4423 6950,-1648 8405,-4928 -7206,-3259 -11211,4570 -15263,-4105 4193,213 8539,962 7700,-4850 -548,-3790 -3473,-3742 -5188,-6473 12500,-1050 19608,1727 30587,1733 -2326,-2218 -6086,-2193 -9983,-2778 -9950,-1496 -30968,-967 -31577,-1598 -1853,-1919 1094,-4731 1535,-6500 2288,-1310 2218,-1296 3434,-4237 9223,292 23188,6250 29574,5665 -2534,-2566 -17201,-5512 -21649,-6583 -18349,-4419 -21271,-282 -21742,-7293 7347,-873 17063,1189 23894,2508 6288,1214 18717,5157 21303,3283 -8580,-2910 -18291,-4794 -27905,-6672 -10482,-2049 -8593,2324 -16243,-18449l34650 10351c-2055,-2348 -14840,-6705 -18415,-7425l-7400 -3071c-4187,-744 -7983,-2265 -12257,-3458 -4139,-1155 -5736,-3237 -8545,-5738 599,-2574 1281,-6625 4727,-5321 4436,1680 -599,4384 3758,7223 3186,-2011 1478,-5145 -1398,-7910 -3372,-3241 -5270,-2068 -8719,-3409l-672 -7174c2332,1853 5025,6260 9913,5840 7313,-628 8874,-13608 2949,-20899 -1502,-1848 -7528,-9169 -8198,-699 2725,761 2646,-108 6095,391 5187,8787 1631,22997 -6854,16714 -7042,-5215 -1229,-16877 -8913,-22653 1284,7420 2015,8409 1550,17321 -3566,-1221 -12884,-10722 -9573,-16273 2820,236 2334,-242 1488,2065 -1097,2993 -1998,-2094 -994,3161l2791 358c1706,-2705 792,-5609 -867,-7381 -2128,-2273 -3404,-1484 -4907,-997 -131,42 -480,455 -574,278 -93,-178 -366,221 -562,304zm30914 56018c526,672 2948,7032 3424,8123 -4205,305 -6446,-1957 -8341,-3591 -861,-5379 1526,-8870 4917,-4532zm10453 34117c6236,-348 11023,2016 9121,8068 -3681,395 -4855,-13 -6581,-2496 -1009,-1453 -2099,-3454 -2540,-5572zm41571 43534l-962 -613c-13802,1862 -4548,-14176 2993,-1199l-1499 1284c-107,99 -346,362 -532,528zm3247 7000c-1378,-1610 -2385,-3243 -1011,-6042 3704,-776 8195,1741 9673,4805l-3041 1141 -5621 96zm-47583 -64622c-1134,2061 -1694,3147 -3923,4205l-1373 -4162c1205,-675 833,-780 2356,-1107 958,-207 1516,-123 2461,-138 949,1057 485,-141 479,1202zm106744 92291c-3530,-6118 4515,-6718 9017,-3626 -2091,4548 -5120,4852 -9017,3626zm-20524 -6413c-199,-2899 293,-2312 1966,-4809l6156 868c-1283,2581 -4615,5926 -8122,3941zm-17811 4887c-3337,-199 -6652,-1039 -4819,-4477 1226,240 492,-841 2242,1059l718 1158c95,145 200,451 325,664l2460 -445c-361,-5369 -5924,-4939 -9468,-2523 -1379,10271 16173,4799 20904,2762 2279,-510 7239,-494 9448,360 2060,797 1688,1522 3311,2177 1886,761 3381,519 5441,782 200,-153 377,-750 435,-617 822,1873 713,-1548 871,-1772 -11210,-95 -4546,-11195 4702,-3692l-4692 3290c3953,6230 2028,6093 12288,5264 2139,4534 2559,1727 5796,3767 -4468,11442 -17480,14991 -19242,18403 5971,-1476 8189,-3816 11672,-4704 4995,-8554 15118,-12167 14082,-22401 -2103,2390 -3173,5638 -7684,5122 -634,-6473 7231,-8624 7862,-14402 -6792,2916 -1870,8429 -20200,2137 -2943,-1010 -10462,-2658 -12454,-4686 -4804,-1954 -9004,8519 -17228,2435 -1073,-9966 5420,-1372 9277,-4081 -2006,-4388 -5435,-2731 -10339,-2844 -3734,4276 -6055,9331 2086,10578l4351 712c214,69 494,219 665,281 170,62 454,169 650,308 -1046,2501 -1851,2379 -5790,3610 -3033,948 -3919,1316 -7670,1775zm-8101 -13719c-8466,4207 -27028,1729 -30156,3405 4396,3805 17397,1620 23184,604 9792,-1720 12553,-3477 18808,-7940l-26 -3113c2452,-189 3566,-62 5621,-874 2221,-878 2115,-1682 3690,-1823 1300,-13159 -17130,-12277 -14393,-3637 4824,430 2036,-158 4768,-4039 5946,1039 7968,6836 3195,7911 -2028,458 594,134 -1542,211 -4140,148 -3514,-2008 -10743,-1414 1976,3726 505,173 3491,2455 4364,3336 -748,6868 -5897,8254zm-76333 -105943c4986,-298 5878,958 7292,5226 -5663,-1434 -8017,629 -7292,-5226zm25886 74850c449,339 -475,1855 3624,1094 2678,-497 1859,-977 2382,-1915 -5744,-2270 -5805,705 -6006,821zm-40232 -86627c-5089,308 -2195,-409 -3147,2024l3411 1846c-408,960 -543,681 -504,1614 63,1507 115,921 562,1868l4138 -2124c-390,-6060 553,-3936 -3987,-8699 -7,10 -2665,1370 -473,3471zm7857 16034c3514,4927 895,12092 8066,15508 -615,-2322 -1963,-5843 -2933,-9140 -1027,-3491 -2135,-5690 -5133,-6368zm-1274 -58600c-274,-7521 365,-8274 4154,-13186 1851,-2399 6899,-9334 1906,-13345 -2551,1703 -1600,542 -1042,3054 828,3723 1128,2179 -5045,9409 -3167,3709 -6424,10707 27,14068zm-852 -25369c-3740,4771 -8618,5392 -13639,9157 -5328,3995 -7155,10157 -758,14862 -535,-9137 2177,-10905 8359,-14660 5020,-3049 9314,-5249 8191,-11649l-685 -2132c-61,-171 -188,-436 -306,-642 -4796,834 -1754,1796 -1162,5064zm46066 -80481c-8664,5106 -7305,-7146 -549,-8104 1173,3383 1259,4585 549,8104zm50210 -42474c62,-5946 854,-9766 7174,-8797 1408,3517 1460,4003 -1560,5955 -1838,1189 -3424,2178 -5614,2842zm10308 -5447c555,-2401 3052,-12519 7934,-7794 4462,4320 -4912,7253 -7934,7794zm15772 -11566c664,4817 -1234,6672 -4996,7686l1234 -7770 3762 84z"/>
  </g>
 </g>
</svg>
