<?xml version="1.0" encoding="UTF-8"?>
<!DOCTYPE svg PUBLIC "-//W3C//DTD SVG 1.1//EN" "http://www.w3.org/Graphics/SVG/1.1/DTD/svg11.dtd">
<!-- Creator: CorelDRAW X7 -->
<svg xmlns="http://www.w3.org/2000/svg" xml:space="preserve" width="594mm" height="841mm" version="1.1" style="shape-rendering:geometricPrecision; text-rendering:geometricPrecision; image-rendering:optimizeQuality; fill-rule:evenodd; clip-rule:evenodd"
viewBox="0 0 594000 841000"
 xmlns:xlink="http://www.w3.org/1999/xlink">
 <defs>
  <style type="text/css">
   <![CDATA[
    .fil0 {fill:#2B2A29}
   ]]>
  </style>
 </defs>
 <g id="Слой_x0020_1">
  <metadata id="CorelCorpID_0Corel-Layer"/>
  <path class="fil0" d="M169364 461428c10457,7601 45785,17020 61317,20114 23958,4772 49626,6719 74613,4157 58355,-5983 112804,-35415 149540,-74174 1707,-1800 3496,-3097 5101,-4981 1836,-2154 2524,-3164 4672,-5441 5788,-6136 12177,-15037 17486,-22946 5095,-7588 10401,-16444 14817,-25589 8526,-17654 7598,-14846 7481,-33961 -147,-24220 -2861,-49267 -8693,-72514 -4786,-19077 -6395,-16957 -11586,-28840l-2528 2787c-3381,4955 -12170,9957 -17605,12671 -39080,19517 -78194,35658 -114896,60255 -7299,4891 -13785,9411 -20764,14283 -7105,4961 -13016,9793 -19538,14828 -6880,5311 -12657,10644 -19168,15861l-32224 29087 -59854 62055c-4712,5486 -27510,30127 -28171,32348zm316518 88449l3458 -3470 -853 -853 0 0 -1729 -1729 0 0 -876 -876 -2583 2605 -11 0 -864 853 2605 2594 0 0 853 876zm-28486 30215l0 -5176 5176 0 0 -46631 -5176 0 0 -5187 5176 0 0 -5177 -5176 0 0 -5198 10364 0 0 5198 28497 28486 -6052 6052 0 0 -865 876 14687 14664 0 -55276 10363 0 0 5198 -5187 0 0 5177 5187 0 0 5187 -5187 0 0 46631 5187 0 0 5176 -10363 0 0 -5176 -28509 -28509 6052 -6040 0 0 854 -865 -14664 -14675 0 55265 -10364 0zm-50953 -30215l875 -876 0 0 2583 -2594 -853 -853 0 0 -1730 -1729 0 0 -875 -876 -2583 2605 -11 0 -853 853 3447 3470zm-7759 30215l0 -5176 5176 0 0 -20727 -7759 -7782 7759 -7758 0 -10364 -5176 0 0 -5187 5176 0 0 -5177 -5176 0 0 -5198 46631 0 0 5198 -5188 0 0 5177 -5176 0 0 -5177 -25903 0 0 20728 5176 5176 10363 0 0 -5176 5188 0 0 10352 -15551 0 -5176 5188 0 20727 31079 0 0 -5188 5188 0 0 10364 -46631 0zm-23321 -30215l865 -876 0 0 2582 -2594 -853 -853 0 0 -1729 -1729 0 0 -865 -876 -2582 2605 -23 0 -853 853 3458 3470zm-7770 30215l0 -5176 5188 0 0 -20727 -7781 -7782 7781 -7758 0 -10364 -5188 0 0 -5187 5188 0 0 -5177 -5188 0 0 -5198 15551 0 0 5198 -5187 0 0 5177 5187 0 0 5187 -5187 0 0 10364 7770 7758 -7770 7782 0 20727 5187 0 0 5176 -15551 0zm-45766 -30215l3447 -3470 -854 -853 0 0 -2593 -2605 -853 876 0 0 -2605 2582 853 876 23 0 1729 1718 0 0 853 876zm-23310 30215l0 -5176 5176 0 0 -46631 -5176 0 0 -5187 5176 0 0 -5177 -5176 0 0 -5198 10364 0 0 31102 5176 0 20727 -20727 0 -10375 10364 0 0 5198 -5188 0 0 6906 -13810 13822 -23 0 -853 853 19874 19863 0 15551 5176 0 0 5176 -10364 0 0 -18998 -10352 -10364 0 0 -876 -853 -6905 6905 -7770 -7781 -5176 0 0 25915 5176 0 0 5176 -15540 0zm-50953 -30215l876 -876 0 0 2583 -2594 -853 -853 0 0 -1730 -1729 0 0 -876 -876 -2582 2605 -12 0 -853 853 3447 3470zm-7758 30215l0 -5176 5176 0 0 -20727 -7759 -7782 7759 -7758 0 -10364 -5176 0 0 -5187 5176 0 0 -5177 -5176 0 0 -5198 15540 0 0 5198 -5176 0 0 20728 7758 7758 -7758 7782 0 20727 31079 0 0 -5188 -5176 0 0 -5176 5176 0 0 -5187 5187 0 0 20727 -46630 0zm-40613 -30215l3458 -3470 -853 -853 0 0 -2605 -2605 -853 876 0 0 -2605 2582 864 876 12 0 1729 1718 0 0 853 876zm0 6905l-10364 -10375 10364 -10363 10375 10363 -10375 10375zm6052 18134l12093 -12093 0 -32809 -12093 -12093 -12081 0 -12093 12093 0 32809 12093 12093 12081 0zm-13810 5176l-15551 -15540 0 -15551 -5176 0 0 -5176 5176 0 0 -15540 10363 -10364 -5176 0 0 -5198 25903 0 15540 15562 0 15540 5188 0 0 5176 -5188 0 0 15551 -10364 10364 5188 0 0 5176 -25903 0zm-61340 -30215l2605 -2594 0 0 853 -876 -3458 -3458 -853 876 0 0 -1730 1729 -11 0 -864 853 2605 2594 0 0 853 876zm-7758 30215l0 -5176 5175 0 0 -20727 -7781 -7782 7781 -7758 0 -20728 -15539 0 0 10364 -10364 0 0 -5187 5176 0 0 -5177 -5176 0 0 -5198 56994 0 0 5198 -5187 0 0 5177 5187 0 0 5187 -10363 0 0 -10364 -15540 0 0 20728 7770 7758 -7770 7782 0 20727 5176 0 0 5176 -15539 0zm13607 -440898c-6599,25590 -26357,26793 -41275,34789 -21475,11509 -14961,31694 -2816,31879 6612,101 9224,-4652 12775,-6656 -11014,23086 -41095,5930 -30851,-19841 9142,-23001 38677,-26352 38569,-37005 -974,-863 -588,-432 -2393,-965 -4712,6719 -19879,11723 -30720,20534 -7655,6220 -16850,21740 -12251,37302 3459,11707 16524,23447 32139,16265 6043,-2780 10089,-7679 13580,-12714 3401,-4906 7374,-10677 14230,-12017 21343,-4173 39867,32002 -973,56939 -11381,6950 -24793,11090 -32035,20474 -13659,17698 3286,38694 6617,34861 1947,-2242 -3383,-4234 -5706,-10405 -2475,-6578 -1456,-8775 -171,-15095 1264,3632 -2701,9361 3406,9566 1336,-5391 -767,-10822 8720,-17458 5195,-3633 11500,-6242 17605,-9369 11835,-6062 23122,-14646 29248,-24629 19749,-32181 -5313,-65591 -33617,-57202 -7365,2183 -11335,6147 -15783,10478 -2356,2295 -9793,14257 -15558,9480 -6968,-5773 2310,-15611 4814,-17529 10993,-8418 36483,-10221 45068,-35765 6212,-18481 -2404,-41794 -7962,-40330 -1495,3507 2771,5865 5045,14973 1655,6623 1641,12654 295,19440zm-38870 189044c422,-4840 4951,-8139 7514,-10293 2625,-2207 7229,-6351 10974,-4841 915,4531 -11642,15481 -18488,15134zm373001 -149381c-1143,-1586 -2271,-2711 -3619,-4535 -8046,-10887 -14309,-28775 -20210,-41078 -5578,-11630 -6271,-29294 -10525,-42042 -2099,-6291 -3630,-6206 -6630,-10209 -6195,-8266 -7401,-13750 -15910,-19126 -6461,-4082 -17523,-6010 -25966,-8413 -9515,-2707 -16179,-7108 -24628,-10391 -5695,-2212 -23673,-2913 -31018,-3366 -13929,-859 -54835,-4914 -65196,-528 -8400,3555 -15400,9510 -19562,15453 -7077,10104 -477,11478 -9198,25157 -4614,7235 -10599,12885 -15516,19528 -10306,13925 -8422,23191 -14574,37291 -2759,6322 1577,7562 -1787,14373 -5386,10913 -3411,18694 6761,22118 -1297,4938 -8356,12957 -11110,16655 -4324,5806 -22650,31234 -10449,36426 6650,2830 18234,1683 25816,1225 -922,4958 -2316,9126 -2433,14412 -149,6774 1303,8012 4704,11452 -2445,3526 -26664,24213 -30950,28945l-50956 46880c-3333,-3647 -6343,-7517 -9634,-11184 -2074,-2311 -3182,-3456 -5073,-5676 -1647,-1936 -2112,-4237 -5707,-4260 -6821,-43 -21588,13278 -23500,17487 -2523,5557 1652,7238 6228,13089 7905,10106 21812,27722 37804,18149 4251,-2545 7656,-6399 10589,-10313l62835 -71883c1872,-2019 2361,-3331 4682,-5438 3010,7915 2142,3527 5745,7930 -12652,6018 -18569,22259 -3618,35152 9436,8137 31616,10341 46945,9637l-1722 2052c-17927,16965 -14611,17658 -28380,35609 -8541,11133 -12555,11817 -18296,22126 -4204,7548 -9428,19466 -14410,26062 -2313,3061 -3706,3942 -6019,7418 -3901,5860 -17464,27776 -19591,33615 3179,-2849 11874,-14280 15415,-18272l15496 -18172c4841,-5794 17763,-21106 23629,-26898l7758 -8408c3132,-3394 4395,-5199 8147,-8701 2784,-2598 5383,-5865 8104,-8752 11720,-12437 21962,-21382 34231,-33119l17896 -15145c39547,-32378 79981,-54230 127918,-73500 10294,-4138 42079,-14103 45300,-21483 -2736,-6318 -22952,-8641 -31084,-10027 616,-2688 2297,-5525 4397,-7132 2855,-2185 5569,-1730 8536,-3051 -695,-4210 -3084,-8579 -4626,-11911 3315,827 5089,2016 8983,917 -1554,-1781 -4435,-5071 -5022,-8407 3427,748 4797,2562 9000,2262z"/>
 </g>
</svg>
