<?xml version="1.0" encoding="UTF-8"?>
<!DOCTYPE svg PUBLIC "-//W3C//DTD SVG 1.1//EN" "http://www.w3.org/Graphics/SVG/1.1/DTD/svg11.dtd">
<!-- Creator: CorelDRAW X7 -->
<svg xmlns="http://www.w3.org/2000/svg" xml:space="preserve" width="594mm" height="841mm" version="1.1" style="shape-rendering:geometricPrecision; text-rendering:geometricPrecision; image-rendering:optimizeQuality; fill-rule:evenodd; clip-rule:evenodd"
viewBox="0 0 594000 841000"
 xmlns:xlink="http://www.w3.org/1999/xlink">
 <defs>
  <style type="text/css">
   <![CDATA[
    .fil0 {fill:#2B2A29}
   ]]>
  </style>
 </defs>
 <g id="Слой_x0020_1">
  <metadata id="CorelCorpID_0Corel-Layer"/>
  <path class="fil0" d="M390140 385310c-1701,2131 -12773,23162 -2152,33307l4644 3741c-248,262 -657,254 -809,719l-1679 1287c-5603,3464 -6037,638 -7960,11052 -2525,13678 -11572,50996 -5706,62836 5078,-6953 2551,-19648 6170,-28576 3422,-8442 6252,-16159 9584,-25112 1906,-5121 7834,-5987 14814,-19671 3974,-7788 6560,-19665 8720,-24851l3378 -10721c-7578,4145 -12775,18758 -16079,24175l-1334 1800c-274,-19881 7965,-28072 22826,-35025l-2197 -25173c-1730,-9194 -909,-27631 1895,-36636 4731,-15193 12520,-15251 19810,-18486l1752 -1013c9077,-12775 7466,-162009 3434,-183469 -1136,-26811 -9347,-85057 -26336,-97967 -3437,775 -1770,60442 -1764,66985 22,27364 1655,122067 -877,142207 -1244,9893 -3607,19691 -7566,28244 -10267,22180 -10975,12203 1079,20895 -4770,5765 -8055,2375 -13658,967 369,39378 10821,30779 826,55253 -9487,23230 -7937,19688 -7316,39686 187,5985 -1964,7981 -3499,13546zm-103043 185834c2698,-14350 7473,-47730 10886,-57665 37,234 78,483 121,745 44,-262 84,-511 121,-745 3414,9935 8189,43315 10886,57665 2002,10651 2574,11108 -4215,16911 -2376,1825 -4646,2772 -6792,2979 -2146,-207 -4415,-1154 -6791,-2979 -6789,-5803 -6218,-6260 -4216,-16911zm11007 -70417c-3164,6285 -15293,63117 -14730,69589l-4470 830c-1686,-2600 -3270,-4371 -3844,-8087 -531,-3431 -42,-7169 -1732,-10540 2511,-10145 -3087,3097 4468,-15652 2197,-5449 3225,-11225 4228,-17321 1910,-11603 3327,-26135 3466,-38077 901,-34737 34,-65081 -2190,-99677l4647 -2645c7606,-4524 5314,-17806 5370,-30663 147,-33885 -7073,-24758 -5919,-36715 -4145,-7336 275,-20036 2578,-27908l-8159 14400c-2559,-1770 -507,-21 -2320,-2068 -6342,-7161 -11431,-35089 -14541,-46530 7156,288 9178,4663 17835,685l2187 -16625c1851,-31139 4117,-62004 6702,-93266 1186,-14358 5179,-78804 6199,-92624 85,-406 119,-752 201,-1048 141,293 151,603 249,1048 1020,13820 5013,78266 6200,92624 2585,31262 4851,62127 6701,93266l2188 16625c8657,3978 10678,-397 17835,-685 -3110,11441 -8199,39369 -14542,46530 -1813,2047 240,298 -2320,2068l-8158 -14400c2302,7872 6723,20572 2578,27908 1154,11957 -6066,2830 -5919,36715 56,12857 -2237,26139 5370,30663l4646 2645c-2224,34596 -3090,64940 -2189,99677 138,11942 1555,26474 3465,38077 1004,6096 2032,11872 4228,17321 7556,18749 1957,5507 4468,15652 -1689,3371 -1200,7109 -1731,10540 -575,3716 -2158,5487 -3844,8087l-4470 -830c562,-6472 -11566,-63304 -14731,-69589zm-53968 -90359c-1009,2595 2522,6406 -6512,1321 -1519,-855 -3442,-3259 -5486,-4534 -5199,10505 15584,45650 14763,61712 -938,18368 -484,54245 -8099,70139 -4271,-4039 -2658,-8904 -5653,-13090 2369,-16113 2594,-59151 -6892,-77067 -7229,-13655 -4652,-58365 -16793,-68144 -2762,-20318 93,-15713 -1197,-25855 -1693,-13310 -14671,-33865 -10494,-44630 4278,-11028 2527,-12540 4268,-23705 15198,7009 11880,46715 19862,63405l15885 26520c2791,8722 -2451,22463 6348,33928zm-26502 -239596c291,20199 371,47712 4425,66295 2246,3083 3533,7926 5442,11508 15291,28698 43977,42652 45978,78463 -4313,3225 -6707,1250 -7130,7681 -502,7618 9333,22844 10049,33864 -23894,6405 -14396,55604 -11910,77316 6607,42284 -4672,57568 -9165,95479 -264,2231 -360,4526 -561,6759l-1603 8322 -3015 -4207c-1437,-2494 -672,-2433 -2696,-4802 3427,-18014 4154,-44061 6107,-63198 1131,-11083 1252,-19339 -2044,-30174 -4023,-13225 -3203,-16903 -1070,-30543 288,-13486 -5130,-16806 -7132,-29750 -900,-5821 1105,-13393 -927,-18291 -851,-2052 -2779,-3410 -3518,-5394 -2554,-6863 722,547 -183,-6138 -5487,-3829 -9611,-6781 -10688,-15484 7589,1721 19555,9841 30368,6827 121,-9274 -6093,-20435 -10502,-24215 -5688,-4877 -14213,-7522 -23878,-10226 -3388,-7740 -4071,-17286 -8192,-26589 -5328,-12028 -11348,-17291 -12320,-20798 -3216,-11617 -5797,-113989 -5763,-131814 29,-14755 -1670,-53965 909,-66002 4493,3300 7836,15190 9048,20090 7146,28868 6459,47001 9971,75021zm-11565 214538c1701,2131 12773,23162 2151,33307l-4643 3741c247,262 656,254 809,719l1679 1287c5603,3464 6037,638 7959,11052 2525,13678 11573,50996 5707,62836 -5079,-6953 -2552,-19648 -6170,-28576 -3422,-8442 -6252,-16159 -9585,-25112 -1906,-5121 -7833,-5987 -14814,-19671 -3973,-7788 -6560,-19665 -8719,-24851l-3378 -10721c7577,4145 12774,18758 16078,24175l1335 1800c274,-19881 -7966,-28072 -22826,-35025l2196 -25173c1730,-9194 910,-27631 -1894,-36636 -4731,-15193 -12520,-15251 -19811,-18486l-1751 -1013c-9077,-12775 -7466,-162009 -3435,-183469 1136,-26811 9348,-85057 26337,-97967 3437,775 1769,60442 1764,66985 -23,27364 -1656,122067 877,142207 1244,9893 3607,19691 7566,28244 10266,22180 10974,12203 -1080,20895 4770,5765 8055,2375 13658,967 -368,39378 -10820,30779 -825,55253 9487,23230 7937,19688 7315,39686 -186,5985 1965,7981 3500,13546zm146004 25058c1009,2595 -2522,6406 6512,1321 1519,-855 3442,-3259 5485,-4534 5200,10505 -15584,45650 -14763,61712 939,18368 485,54245 8100,70139 4271,-4039 2657,-8904 5652,-13090 -2369,-16113 -2593,-59151 6893,-77067 7229,-13655 4651,-58365 16793,-68144 2762,-20318 -93,-15713 1197,-25855 1692,-13310 14671,-33865 10494,-44630 -4279,-11028 -2527,-12540 -4269,-23705 -15197,7009 -11879,46715 -19861,63405l-15886 26520c-2791,8722 2452,22463 -6347,33928zm26502 -239596c-291,20199 -372,47712 -4426,66295 -2245,3083 -3533,7926 -5441,11508 -15291,28698 -43977,42652 -45979,78463 4313,3225 6708,1250 7131,7681 502,7618 -9334,22844 -10049,33864 23893,6405 14395,55604 11909,77316 -6606,42284 4672,57568 9165,95479 265,2231 360,4526 561,6759l1604 8322 3015 -4207c1436,-2494 671,-2433 2696,-4802 -3427,-18014 -4154,-44061 -6108,-63198 -1130,-11083 -1251,-19339 2045,-30174 4023,-13225 3202,-16903 1070,-30543 -289,-13486 5129,-16806 7132,-29750 900,-5821 -1105,-13393 926,-18291 851,-2052 2780,-3410 3518,-5394 2554,-6863 -722,547 184,-6138 5486,-3829 9611,-6781 10688,-15484 -7589,1721 -19555,9841 -30369,6827 -120,-9274 6093,-20435 10503,-24215 5688,-4877 14213,-7522 23878,-10226 3388,-7740 4070,-17286 8191,-26589 5329,-12028 11348,-17291 12320,-20798 3217,-11617 5798,-113989 5763,-131814 -28,-14755 1671,-53965 -909,-66002 -4492,3300 -7835,15190 -9048,20090 -7145,28868 -6458,47001 -9970,75021z"/>
 </g>
</svg>
