<?xml version="1.0" encoding="UTF-8"?>
<!DOCTYPE svg PUBLIC "-//W3C//DTD SVG 1.1//EN" "http://www.w3.org/Graphics/SVG/1.1/DTD/svg11.dtd">
<!-- Creator: CorelDRAW X7 -->
<svg xmlns="http://www.w3.org/2000/svg" xml:space="preserve" width="594mm" height="841mm" version="1.1" style="shape-rendering:geometricPrecision; text-rendering:geometricPrecision; image-rendering:optimizeQuality; fill-rule:evenodd; clip-rule:evenodd"
viewBox="0 0 594000 841000"
 xmlns:xlink="http://www.w3.org/1999/xlink">
 <defs>
  <style type="text/css">
   <![CDATA[
    .fil0 {fill:#2B2A29}
   ]]>
  </style>
 </defs>
 <g id="Слой_x0020_1">
  <metadata id="CorelCorpID_0Corel-Layer"/>
  <path class="fil0" d="M377627 15835c-524,1331 -19457,22083 -22477,25379 -13048,14247 -31328,38163 -44357,52525 -3776,4163 -7265,9274 -10966,13236 -2176,2329 -3887,5095 -5815,6849 -1377,1253 -2147,1414 -3362,2817 -1666,1924 2,1268 -2882,3396 -6451,-1675 -6286,-7317 -10430,-11139 -741,1402 -2595,-2132 -319,3738l8657 10547c-1159,3999 -13973,20084 -17952,24322 -2997,3189 -5550,4172 -8119,6583l-9 5425c7139,1007 6067,-2212 8440,-6414 2139,-3786 18961,-22738 22778,-24960 3256,1038 4629,2592 7728,4269 4073,2204 5633,3026 8399,1340 -4637,-3479 -10554,-1693 -12823,-8496 1601,-3202 499,-740 2327,-2701 2323,-2491 703,-956 2502,-3819l62772 -75133c7317,-9281 14148,-19595 21549,-28793l1173 -3101c-3618,924 -2957,2170 -6814,4130zm-339016 566676l-1210 4142c-1257,-571 -2329,-935 -3233,-1105 -712,-131 -1844,-201 -3389,-213l0 14442c0,3760 282,6647 845,8642l-5478 0c574,-1801 862,-4732 862,-8793l0 -14291c-1796,119 -3125,238 -3994,358 -1442,213 -2736,533 -3873,960l1335 -4142 18135 0zm375352 64861c-336,1088 -541,2038 -614,2855 -49,506 -73,1497 -73,2973 0,1522 102,2769 302,3734 -2456,838 -4785,1257 -6992,1257 -3118,0 -5628,-915 -7518,-2738 -1969,-1895 -2953,-4465 -2953,-7708 0,-3341 1033,-6058 3094,-8158 2032,-2063 4639,-3095 7825,-3095 1559,0 3260,281 5102,847l0 3627c-1769,-1267 -3674,-1900 -5716,-1900 -2177,0 -3912,838 -5203,2518 -1199,1563 -1799,3510 -1799,5849 0,2345 546,4255 1643,5737 1213,1629 2909,2446 5087,2446 1106,0 2460,-296 4059,-894l0 -2712c0,-1691 -235,-3238 -702,-4638l4458 0zm-20855 10512l-3990 0c-360,-878 -1160,-2206 -2402,-3979l-7362 -10517 0 7774c0,2779 234,5021 701,6722l-4136 0c458,-1859 686,-4097 686,-6717l0 -11365 -2441 -3004 4692 0c531,991 1350,2289 2446,3898l8372 12162 0 -8975c0,-2876 -234,-5236 -702,-7085l4136 0c-467,2145 -701,4531 -701,7157l15 7907c0,2350 229,4357 686,6022zm-21360 0l-4459 0c458,-1859 688,-3662 688,-5419l0 -9435c0,-2370 -230,-4444 -688,-6232l4459 0c-468,1788 -702,3862 -702,6232l0 9281c0,1860 234,3714 702,5573zm-5799 0l-3625 0c-2392,-2268 -4965,-5465 -7718,-9593l0 2938c0,2390 234,4607 702,6655l-4459 0c458,-1527 688,-3616 688,-6262l0 -8878c0,-1788 -230,-3770 -688,-5946l2213 0c2816,0 4916,296 6304,884 2169,924 3250,2651 3250,5179 0,2422 -1305,4225 -3917,5400 1905,3197 4322,6405 7250,9623zm-6607 -14849c0,-2538 -1578,-3933 -4736,-4183l0 8520c1350,-148 2437,-541 3260,-1180 984,-766 1476,-1819 1476,-3157zm-18852 10712l-1666 4137 -10671 0c468,-1578 702,-3923 702,-7039l0 -7365c0,-2319 -234,-4546 -702,-6682l11081 0 -1550 3372c-1365,-726 -2807,-1088 -4327,-1088 -190,0 -667,15 -1433,45l0 6835 6608 0 -1872 3371c-1242,-628 -2820,-986 -4736,-1072l0 7325c2408,-179 3884,-317 4425,-414 1462,-240 2841,-715 4141,-1425zm-16289 4137l-4458 0c458,-1675 687,-3065 687,-4173l0 -5266 -8653 0 0 2692c0,2344 234,4592 702,6747l-4459 0c458,-1655 687,-3713 687,-6170l0 -8311c0,-2518 -229,-4720 -687,-6605l4459 0c-468,1921 -702,3637 -702,5139l0 3903 8653 0 0 -2749c0,-2115 -229,-4209 -687,-6293l4458 0c-467,1808 -701,3836 -701,6079l0 7836c0,2855 234,5245 701,7171zm-18252 -21086l-984 3372c-1023,-465 -1896,-761 -2631,-900 -580,-107 -1501,-163 -2758,-173l0 11754c0,3059 229,5409 687,7033l-4458 0c468,-1466 702,-3851 702,-7156l0 -11631c-1462,97 -2544,194 -3250,291 -1175,174 -2227,434 -3153,782l1086 -3372 14759 0zm-25278 0l-1550 3372c-1355,-726 -2797,-1088 -4332,-1088 -204,0 -686,15 -1457,45l0 6835 6637 0 -1842 3371c-892,-413 -1667,-694 -2324,-842 -512,-103 -1335,-184 -2471,-230l0 3575c0,2289 235,4301 702,6048l-4458 0c458,-1798 687,-3887 687,-6272l0 -9047c0,-2298 -229,-4219 -687,-5767l11095 0zm-14053 10574c0,3070 -970,5644 -2913,7713 -1940,2069 -4376,3106 -7304,3106 -3045,0 -5536,-1032 -7465,-3091 -1935,-2058 -2899,-4689 -2899,-7892 0,-3115 1028,-5690 3084,-7723 2027,-1997 4532,-2993 7519,-2993 2942,0 5350,1047 7225,3141 1838,2059 2753,4633 2753,7739zm-3303 613c0,-2299 -634,-4316 -1901,-6059 -1393,-1904 -3157,-2860 -5296,-2860 -2032,0 -3684,730 -4961,2192 -1232,1409 -1846,3187 -1846,5322 0,2386 638,4449 1915,6186 1394,1900 3206,2850 5438,2850 1992,0 3620,-766 4877,-2298 1184,-1451 1774,-3228 1774,-5333zm-27150 -4939c0,2457 -843,4172 -2529,5153 -1135,649 -3021,1068 -5657,1257l0 2932c0,1492 234,3320 701,5496l-4458 0c459,-1869 687,-3540 687,-5016l0 -9286c0,-2324 -228,-4587 -687,-6784l4897 0c4697,0 7046,2084 7046,6248zm-3274 444c0,-1282 -302,-2350 -907,-3208 -677,-955 -1622,-1430 -2826,-1430l-1179 0 0 8949c1608,-97 2782,-414 3518,-940 931,-664 1394,-1788 1394,-3371zm-11611 14394l-4459 0c458,-1859 687,-3662 687,-5419l0 -9435c0,-2370 -229,-4444 -687,-6232l4459 0c-468,1788 -702,3862 -702,6232l0 9281c0,1860 234,3714 702,5573zm-8279 0l-4458 0c458,-1675 687,-3065 687,-4173l0 -5266 -8654 0 0 2692c0,2344 234,4592 702,6747l-4459 0c459,-1655 688,-3713 688,-6170l0 -8311c0,-2518 -229,-4720 -688,-6605l4459 0c-468,1921 -702,3637 -702,5139l0 3903 8654 0 0 -2749c0,-2115 -229,-4209 -687,-6293l4458 0c-468,1808 -701,3836 -701,6079l0 7836c0,2855 233,5245 701,7171zm-19466 -5818c0,1962 -721,3505 -2168,4628 -1306,996 -2923,1497 -4853,1497 -1247,0 -2500,-327 -3766,-981l0 -4092c628,838 1198,1436 1705,1793 668,471 1428,705 2285,705 945,0 1759,-301 2436,-899 726,-623 1087,-1420 1087,-2390 0,-1001 -638,-2023 -1920,-3060l-3586 -2810c-1281,-1256 -1920,-2650 -1920,-4183 0,-1803 643,-3239 1930,-4301 1184,-986 2655,-1481 4419,-1481 1184,0 2368,255 3562,766l0 3800c-795,-761 -1350,-1241 -1666,-1440 -595,-368 -1287,-552 -2081,-552 -823,0 -1506,251 -2042,746 -564,521 -848,1195 -848,2033 0,955 639,1946 1920,2973l3587 2855c1281,1303 1919,2769 1919,4393zm-12575 -15268c-770,1808 -1491,4015 -2164,6620l-3713 14466 -2485 0 -3805 -12269 -3781 12269 -2500 0 -3674 -14752c-555,-2227 -1296,-4337 -2231,-6334l4731 0c-93,557 -141,1252 -141,2084 0,904 180,2141 540,3698l2183 9358 4922 -15446 4736 15385c599,-2120 1193,-4234 1783,-6339 790,-2988 1184,-5241 1184,-6763 0,-199 -78,-858 -229,-1977l4644 0zm-25747 10574c0,3070 -970,5644 -2914,7713 -1939,2069 -4375,3106 -7303,3106 -3046,0 -5536,-1032 -7465,-3091 -1934,-2058 -2900,-4689 -2900,-7892 0,-3115 1029,-5690 3085,-7723 2027,-1997 4532,-2993 7518,-2993 2943,0 5350,1047 7226,3141 1837,2059 2753,4633 2753,7739zm-3304 613c0,-2299 -633,-4316 -1900,-6059 -1393,-1904 -3157,-2860 -5296,-2860 -2032,0 -3684,730 -4960,2192 -1233,1409 -1847,3187 -1847,5322 0,2386 638,4449 1915,6186 1394,1900 3206,2850 5438,2850 1993,0 3620,-766 4877,-2298 1184,-1451 1773,-3228 1773,-5333zm-18807 5762l-1667 4137 -10247 0c458,-1609 688,-3719 688,-6334l0 -9015c0,-2330 -230,-4240 -688,-5737l4459 0c-468,1747 -702,3632 -702,5660l0 13128c2865,-210 5584,-823 8157,-1839zm-14131 0l-1666 4137 -10247 0c458,-1609 687,-3719 687,-6334l0 -9015c0,-2330 -229,-4240 -687,-5737l4459 0c-468,1747 -702,3632 -702,5660l0 13128c2865,-210 5584,-823 8156,-1839zm-13945 0l-1666 4137 -10671 0c468,-1578 702,-3923 702,-7039l0 -7365c0,-2319 -234,-4546 -702,-6682l11080 0 -1549 3372c-1365,-726 -2807,-1088 -4327,-1088 -190,0 -668,15 -1433,45l0 6835 6608 0 -1872 3371c-1242,-628 -2820,-986 -4736,-1072l0 7325c2408,-179 3884,-317 4425,-414 1462,-240 2840,-715 4141,-1425zm-15197 -16949l-1549 3372c-1355,-726 -2797,-1088 -4332,-1088 -205,0 -687,15 -1457,45l0 6835 6636 0 -1842 3371c-891,-413 -1666,-694 -2323,-842 -512,-103 -1336,-184 -2471,-230l0 3575c0,2289 234,4301 702,6048l-4458 0c457,-1798 686,-3887 686,-6272l0 -9047c0,-2298 -229,-4219 -686,-5767l11094 0zm-21161 16949l-1667 4137 -10670 0c468,-1578 701,-3923 701,-7039l0 -7365c0,-2319 -233,-4546 -701,-6682l11080 0 -1550 3372c-1364,-726 -2806,-1088 -4326,-1088 -190,0 -668,15 -1433,45l0 6835 6607 0 -1871 3371c-1242,-628 -2821,-986 -4736,-1072l0 7325c2407,-179 3883,-317 4424,-414 1462,-240 2841,-715 4142,-1425zm-16289 4137l-4458 0c458,-1675 686,-3065 686,-4173l0 -5266 -8653 0 0 2692c0,2344 234,4592 702,6747l-4459 0c458,-1655 687,-3713 687,-6170l0 -8311c0,-2518 -229,-4720 -687,-6605l4459 0c-468,1921 -702,3637 -702,5139l0 3903 8653 0 0 -2749c0,-2115 -228,-4209 -686,-6293l4458 0c-468,1808 -702,3836 -702,6079l0 7836c0,2855 234,5245 702,7171zm-18252 -21086l-985 3372c-1023,-465 -1895,-761 -2631,-900 -579,-107 -1501,-163 -2757,-173l0 11754c0,3059 229,5409 686,7033l-4458 0c468,-1466 702,-3851 702,-7156l0 -11631c-1462,97 -2544,194 -3250,291 -1175,174 -2227,434 -3153,782l1087 -3372 14759 0zm-15661 -11810l395507 0 0 -2862 -395507 0 0 2862zm396084 -23717c0,2410 -887,4305 -2664,5686 -1605,1224 -3592,1839 -5963,1839 -1533,0 -3072,-401 -4628,-1205l0 -5027c772,1029 1473,1763 2095,2202 821,578 1754,867 2808,867 1162,0 2161,-371 2993,-1105 892,-765 1335,-1745 1335,-2937 0,-1230 -784,-2486 -2358,-3760l-4407 -3452c-1574,-1544 -2358,-3257 -2358,-5140 0,-2216 790,-3979 2370,-5285 1455,-1211 3263,-1820 5431,-1820 1454,0 2909,314 4376,941l0 4670c-976,-935 -1658,-1525 -2048,-1770 -730,-452 -1580,-678 -2556,-678 -1012,0 -1850,308 -2509,917 -694,640 -1041,1469 -1041,2498 0,1174 784,2391 2358,3653l4407 3508c1574,1600 2359,3402 2359,5398zm-17015 -5768c-413,1337 -664,2504 -755,3508 -59,621 -89,1839 -89,3653 0,1870 125,3402 371,4588 -3017,1030 -5879,1544 -8591,1544 -3832,0 -6915,-1123 -9238,-3364 -2419,-2329 -3628,-5486 -3628,-9471 0,-4105 1269,-7444 3801,-10023 2497,-2536 5700,-3804 9616,-3804 1915,0 4005,345 6268,1042l0 4456c-2173,-1556 -4515,-2335 -7023,-2335 -2676,0 -4807,1030 -6394,3094 -1472,1921 -2209,4313 -2209,7187 0,2881 671,5228 2018,7048 1490,2003 3574,3007 6250,3007 1359,0 3023,-364 4987,-1099l0 -3332c0,-2078 -287,-3979 -862,-5699l5478 0zm-25624 12916l-4904 0c-443,-1079 -1424,-2711 -2951,-4889l-9047 -12923 0 9553c0,3414 288,6169 863,8259l-5083 0c563,-2284 844,-5033 844,-8253l0 -13965 -2999 -3690 5765 0c653,1217 1658,2812 3006,4789l10285 14944 0 -11028c0,-3533 -287,-6433 -862,-8705l5083 0c-575,2636 -862,5567 -862,8793l18 9716c0,2887 281,5353 844,7399zm-26247 0l-5478 0c562,-2284 844,-4500 844,-6659l0 -11592c0,-2912 -282,-5461 -844,-7657l5478 0c-575,2196 -862,4745 -862,7657l0 11404c0,2284 287,4563 862,6847zm-7125 0l-4454 0c-2939,-2786 -6100,-6715 -9483,-11787l0 3609c0,2938 287,5661 862,8178l-5478 0c563,-1876 844,-4443 844,-7694l0 -10908c0,-2197 -281,-4633 -844,-7306l2718 0c3460,0 6041,364 7747,1085 2664,1136 3993,3258 3993,6365 0,2975 -1604,5190 -4813,6634 2341,3929 5310,7870 8908,11824zm-8118 -18245c0,-3119 -1940,-4833 -5819,-5140l0 10469c1658,-182 2993,-666 4005,-1450 1209,-942 1814,-2234 1814,-3879zm-23164 13162l-2047 5083 -13112 0c575,-1939 862,-4820 862,-8648l0 -9051c0,-2849 -287,-5586 -862,-8209l13615 0 -1904 4142c-1677,-891 -3449,-1337 -5316,-1337 -234,0 -821,19 -1761,57l0 8398 8119 0 -2299 4142c-1527,-772 -3466,-1212 -5820,-1318l0 9000c2958,-220 4772,-389 5436,-508 1796,-295 3491,-879 5089,-1751zm-20014 5083l-5478 0c563,-2058 844,-3765 844,-5127l0 -6471 -10633 0 0 3307c0,2881 288,5643 862,8291l-5478 0c563,-2033 844,-4563 844,-7581l0 -10212c0,-3094 -281,-5799 -844,-8115l5478 0c-574,2360 -862,4468 -862,6314l0 4795 10633 0 0 -3377c0,-2598 -281,-5172 -844,-7732l5478 0c-575,2221 -862,4713 -862,7468l0 9628c0,3509 287,6446 862,8812zm-22427 -25908l-1210 4142c-1257,-571 -2329,-935 -3233,-1105 -712,-131 -1844,-201 -3389,-213l0 14442c0,3760 282,6647 845,8642l-5478 0c575,-1801 862,-4732 862,-8793l0 -14291c-1796,119 -3125,238 -3993,358 -1443,213 -2736,533 -3874,960l1335 -4142 18135 0zm-31061 0l-1903 4142c-1665,-891 -3437,-1337 -5323,-1337 -251,0 -844,19 -1790,57l0 8398 8154 0 -2263 4142c-1095,-508 -2047,-854 -2856,-1036 -628,-125 -1640,-226 -3035,-282l0 4393c0,2812 288,5285 862,7431l-5478 0c563,-2209 845,-4776 845,-7707l0 -11115c0,-2825 -282,-5185 -845,-7086l13632 0zm-17266 12992c0,3772 -1192,6935 -3580,9477 -2383,2542 -5376,3816 -8975,3816 -3741,0 -6801,-1268 -9172,-3797 -2376,-2529 -3562,-5762 -3562,-9697 0,-3829 1263,-6992 3790,-9490 2491,-2454 5568,-3678 9238,-3678 3616,0 6574,1287 8878,3860 2257,2530 3383,5693 3383,9509zm-4059 753c0,-2824 -779,-5303 -2335,-7444 -1712,-2341 -3880,-3515 -6508,-3515 -2497,0 -4526,898 -6094,2693 -1515,1732 -2270,3917 -2270,6540 0,2931 785,5467 2353,7601 1713,2334 3940,3502 6682,3502 2449,0 4448,-942 5993,-2824 1454,-1783 2179,-3967 2179,-6553zm-34240 -578c0,3854 -1185,6942 -3562,9258 -2305,2247 -5304,3395 -8998,3446l-6370 37c574,-2001 862,-4656 862,-7964l0 -9352c0,-3019 -288,-5881 -862,-8592l2527 0c10938,0 16403,4387 16403,13167zm-4023 -50c0,-3207 -957,-5742 -2873,-7588 -1844,-1776 -4311,-2680 -7400,-2705l0 20260c6849,-577 10273,-3897 10273,-9967zm-16320 12791l-4454 0c-2940,-2786 -6101,-6715 -9484,-11787l0 3609c0,2938 288,5661 862,8178l-5477 0c562,-1876 843,-4443 843,-7694l0 -10908c0,-2197 -281,-4633 -843,-7306l2717 0c3461,0 6041,364 7747,1085 2665,1136 3994,3258 3994,6365 0,2975 -1605,5190 -4813,6634 2340,3929 5309,7870 8908,11824zm-8118 -18245c0,-3119 -1940,-4833 -5820,-5140l0 10469c1659,-182 2994,-666 4006,-1450 1209,-942 1814,-2234 1814,-3879zm-14429 5329c0,3772 -1192,6935 -3580,9477 -2383,2542 -5377,3816 -8975,3816 -3741,0 -6801,-1268 -9172,-3797 -2376,-2529 -3562,-5762 -3562,-9697 0,-3829 1263,-6992 3790,-9490 2490,-2454 5567,-3678 9238,-3678 3616,0 6573,1287 8878,3860 2257,2530 3383,5693 3383,9509zm-4059 753c0,-2824 -779,-5303 -2335,-7444 -1712,-2341 -3880,-3515 -6508,-3515 -2496,0 -4526,898 -6094,2693 -1516,1732 -2270,3917 -2270,6540 0,2931 785,5467 2353,7601 1712,2334 3939,3502 6681,3502 2449,0 4449,-942 5993,-2824 1455,-1783 2180,-3967 2180,-6553zm-23110 7080l-2047 5083 -12591 0c563,-1977 844,-4569 844,-7782l0 -11078c0,-2862 -281,-5209 -844,-7048l5478 0c-574,2146 -862,4462 -862,6954l0 16130c3521,-257 6861,-1010 10022,-2259zm-27079 0l-2047 5083 -13112 0c575,-1939 862,-4820 862,-8648l0 -9051c0,-2849 -287,-5586 -862,-8209l13615 0 -1904 4142c-1677,-891 -3449,-1337 -5316,-1337 -234,0 -821,19 -1761,57l0 8398 8119 0 -2300 4142c-1526,-772 -3466,-1212 -5819,-1318l0 9000c2957,-220 4772,-389 5436,-508 1796,-295 3491,-879 5089,-1751zm-20014 5083l-5478 0c562,-2058 844,-3765 844,-5127l0 -6471 -10633 0 0 3307c0,2881 287,5643 862,8291l-5478 0c563,-2033 844,-4563 844,-7581l0 -10212c0,-3094 -281,-5799 -844,-8115l5478 0c-575,2360 -862,4468 -862,6314l0 4795 10633 0 0 -3377c0,-2598 -282,-5172 -844,-7732l5478 0c-575,2221 -862,4713 -862,7468l0 9628c0,3509 287,6446 862,8812zm261168 -419583c669,-6327 2854,-4979 3449,-9982 -4347,2747 -5765,8041 -6981,13302 -10805,4112 -22738,4146 -33569,5228 -1127,4313 -1205,3813 871,7547 1527,0 10878,-3268 15270,-3921 6041,-899 12073,-2245 18163,-2680 2814,3589 6594,9012 11048,10790 539,-5511 -4342,-1513 -5991,-8937 19527,-4604 102285,-18584 113187,-25791 -24667,-2394 -90537,14160 -115447,14444zm-182052 -57142l-516 5839 6638 -570 19232 23581c4060,-895 2714,146 4710,-3566l-16823 -20522c-3739,-4488 -2324,-4102 -1542,-9268 -8230,-513 -4230,-452 -8339,-4986 -11745,-12959 -38401,-49105 -50749,-52900 4955,17806 30587,41555 41125,55067 3369,4319 1989,3304 6264,7325zm-30238 68053l1788 5246 2967 -5138c15424,30 26315,6413 28957,3389 3434,-7953 -6221,-5449 -10742,-6173 -5080,-816 -11336,-2592 -16503,-3733 -1124,-4025 56,-3895 -2421,-7114l-1447 5138c-18308,-2302 -68847,-12399 -82840,-10177l18501 5822c6804,1648 13764,3150 20620,4596 12793,2701 28456,6534 41120,8144zm93734 -92690l7340 2002c372,5588 295,11070 734,16534 507,6304 -1151,12374 -556,16262l5980 789 624 -33561 6583 -1684 -5909 -2079c-5126,-16644 5382,-59462 -4204,-79815 -3758,11990 -4204,30968 -3871,44056 188,7406 725,14657 918,22112 322,12451 2153,11903 -7639,15384zm5434 71846c-48437,8670 -33316,78144 11437,69799 46192,-8613 33275,-77801 -11437,-69799zm-228 12566c28638,-8206 40571,36611 11661,44643 -28740,7985 -42810,-35719 -11661,-44643zm123194 250789c831,-8786 1570,-15608 741,-24530 -3300,-25031 -18184,-63032 -35615,-79720 -9465,-9063 -20590,-17935 -31876,-26067 -23728,-17097 -11590,-23282 -27005,-30614 2787,10916 5810,19504 9750,30142l64410 176645c2456,6721 7860,23289 11999,28798 5006,-10613 -4288,-21293 7,-37922 3277,-12685 4954,-24165 7589,-36732zm-14804 39186c-1496,5166 696,11473 971,16921l-5668 -12661c-1508,-4158 -2938,-8231 -4527,-12316 -7681,-19752 -62974,-170999 -63625,-176342 2712,2962 4894,7883 7302,11682 4526,7143 16151,8092 31798,24024 8497,8651 9748,11414 17161,19668 9069,10099 5660,17622 11627,25190 6851,8692 4404,18965 9581,27370 5649,9178 3553,19623 4361,29893 1664,21120 -4987,32772 -8981,46571zm54233 -173185c-4178,3008 -1725,-1303 -5550,2800 -1569,1681 -719,2365 -3496,4581l-11122 -5179c970,10104 28274,25608 36751,21341l-3807 -3924c5723,-9031 1441,-5521 2779,-11512 4218,800 3325,2523 7639,2384 1031,-6071 -1630,-2006 -4853,-7042 4292,-3504 2277,644 5603,-2818 654,-681 2078,-3483 3332,-4956l4735 1736c146,-5224 1621,-1513 -5300,-8669 -8339,-8622 -18994,-13364 -31102,-14183 2614,5400 5665,3725 9531,8270 -248,3678 -1324,2623 -2152,5384 -1595,5320 930,641 256,6500 -4568,-554 -61876,-34751 -73673,-41551 -3904,-2251 -8117,-4477 -12077,-6818 -1971,-1166 -3998,-2290 -5926,-3495 -4101,-2562 -3437,-3661 -7332,-1882 -430,4158 18447,12965 22386,15210 8166,4654 16694,9344 24745,14171l43408 25079c3038,1695 4602,1996 5225,4573zm9713 -11234c2078,3443 1982,2705 -1901,2608l1901 -2608zm5178 8054c-735,-260 -1791,-473 -2602,-1048 -2450,-1739 -11,595 -1561,-1959 3158,115 3407,-1329 4163,3007zm1773 -1789c2782,-1855 1654,-1131 3522,63 -1827,3481 -1368,3645 -3522,-63zm-15450 13479l-2720 -70c407,-3570 -266,-1649 2103,-2841l617 2911zm5793 3366c1742,-1082 447,-1947 3555,11 -599,853 -465,761 -1295,1445 -85,70 -546,460 -613,285 -71,-185 -451,143 -759,260l-888 -2001zm-195674 -25262l-8605 22045c-13932,-666 -15322,-10647 -17080,-2043 1323,641 11151,3187 14611,4480 -2026,15488 -55815,144644 -55686,163984 2579,-1888 3343,-4698 5259,-8408 8971,-17360 47886,-129013 57159,-152533 7533,595 9043,3655 14320,5682 2008,-2249 1894,-879 1168,-3693 -3789,-1357 -4007,289 -7029,-2640 -3556,-30 -4627,-701 -7648,-2664 690,-7057 4070,-12342 5593,-19620 2808,-9286 1821,-7866 8467,-12876 -1015,-4816 -925,-5883 -5991,-6008l-3580 2820c1009,4010 1930,9078 -958,11474zm7283 -10348c-2907,-434 -1539,643 -2050,-1911 2467,749 934,-914 2050,1911zm-67921 -21709c-3646,-2820 -2253,-3410 -7137,-3941l1773 3672c-11144,11565 -61783,36400 -66234,46035 20894,-3881 51343,-28891 72826,-34495l2261 3748c542,-11700 -1305,-8294 13877,-18430 11865,-7922 14601,-1786 12902,-10503l-5430 -1011c-3269,3610 393,3117 -10493,8460 -5139,2523 -8648,4904 -14345,6465z"/>
 </g>
</svg>
