<?xml version="1.0" encoding="UTF-8"?>
<!DOCTYPE svg PUBLIC "-//W3C//DTD SVG 1.1//EN" "http://www.w3.org/Graphics/SVG/1.1/DTD/svg11.dtd">
<!-- Creator: CorelDRAW X7 -->
<svg xmlns="http://www.w3.org/2000/svg" xml:space="preserve" width="594mm" height="841mm" version="1.1" style="shape-rendering:geometricPrecision; text-rendering:geometricPrecision; image-rendering:optimizeQuality; fill-rule:evenodd; clip-rule:evenodd"
viewBox="0 0 594000 841000"
 xmlns:xlink="http://www.w3.org/1999/xlink">
 <defs>
  <style type="text/css">
   <![CDATA[
    .fil0 {fill:#2B2A29}
    .fil1 {fill:#E31E24}
   ]]>
  </style>
 </defs>
 <g id="Слой_x0020_1">
  <metadata id="CorelCorpID_0Corel-Layer"/>
  <path class="fil0" d="M114864 196245c-2375,-6649 -3300,-10839 4863,-16345 -6843,8780 -2514,13535 -4863,16345zm-4415 -17436l92 -1030c3078,-436 6434,-1262 8749,605 -1942,1564 -3328,2796 -4835,4148 -5110,4579 -6960,13581 2272,16808l2083 370c4999,659 8046,-1187 10399,-3952l-69 -1820c-2106,1412 -1823,1750 -3652,3242 -1523,1454 -5855,71 -6664,-3031 -759,-2906 4,-6609 362,-9691 2106,-3415 2502,-6510 7516,-5324l6397 -932c-67,3170 1339,5448 1375,9244 32,3364 -964,6877 -172,10258 2296,-1140 1554,-5103 4540,-7361 2000,1552 1868,4177 1275,6396 1966,-464 2576,-1285 2901,-3179 90,-7985 -6215,-3334 -6222,-3331 -422,-2699 1248,-4334 647,-7977 -312,-1891 -706,-1778 -586,-4492l975 -3700c32,-2298 1343,-2691 94,-4971 -1858,-3389 -4400,1210 1027,-11348 -784,-1002 116,-65 -923,-1011l-2903 -1739c-689,1802 -549,1342 -1542,2750 1272,1236 2234,1704 2152,3564 -78,1782 -1470,2964 -2539,3804 94,6502 864,3049 2231,6471 831,2082 -444,4180 -2043,4994 -2140,1090 -11588,-323 -13712,-976 -3467,3 -7399,-263 -9133,2181l-1386 504c733,1328 -646,474 1294,526zm119317 82471c0,1 -1422,-304 -119,1758 527,833 1047,569 1814,570 569,-2115 394,-2659 -1695,-2328zm-1714 9945c2033,1097 1655,1965 4378,809 220,-1237 -397,-606 -1047,-2205 -511,-1256 -436,-2852 -658,-4023 -3071,1080 -1955,2147 -2673,5419 -1770,-1517 43,-1258 -2506,-5841l-5106 184c1424,1583 489,220 2795,1459 -349,358 -9167,4349 -1485,6764l1076 -973 1606 -720c176,139 393,108 484,329 145,348 723,377 979,470 1192,432 406,211 1591,420l566 -2092zm-74041 -45429c2510,799 2854,2484 1643,4522 -1869,-811 -2984,-2351 -1643,-4522zm-2103 5333l902 633c4908,-17 5346,-1782 6226,-5844 -1932,-475 -3231,-1975 -5504,-740 -2256,1226 -2543,3328 -1624,5951zm-8282 -37569c456,2822 -159,2076 2505,3274 2291,-478 2832,-1072 3584,-3055 -2808,1305 -1418,972 -2532,391 408,-3810 -330,-126 1169,-2643 1272,-2138 860,-425 842,-2921 -2808,-772 -5781,1317 -5568,4954zm15879 32608c695,1884 1049,3843 2409,5042 4158,-1609 875,-4112 5725,-5044l475 2426c597,3095 265,1265 1281,2189l1788 -3218c-1335,-2118 -1405,-1831 -3198,-2903 -1965,495 -3639,1407 -4857,2099 -1305,-1599 -629,-1359 -3251,-1685l-372 1094zm27170 43830c-441,-2157 -119,-1832 739,-2942 2105,780 2854,2722 1822,4945 -1584,-167 -2038,564 -2561,-2003zm4043 1830c1022,-1354 1725,-1917 1409,-4004 -369,-2437 -726,-2040 -2888,-2497 -2521,-96 -5342,2720 -5314,6030 1804,2144 3902,3395 6793,471zm-14884 -42444c1067,-2046 3296,-2552 2797,-5251l-4761 -389c-1628,2670 -2678,3644 -1611,7286 3146,555 3563,806 6622,-432l-1687 -680c-1261,-472 -45,265 -1360,-534zm29147 43389c1054,-2990 704,-3016 2469,-4855 2365,2127 1491,3150 1178,5807 2457,-1083 3376,-3345 2940,-5302l-816 -1655c-56,-95 -195,-267 -279,-408l1810 485 299 5893c2530,315 1545,763 5793,470 -202,-1922 -155,-773 -1118,-1265 -798,-408 -761,-339 -1828,-1242 -492,-6806 636,-2996 4362,-6122 -2198,237 -1940,550 -4397,592 75,-3961 1038,-3794 -1413,-6447l-996 410c297,4066 1356,4887 -2552,5595l40 1631c-2488,180 -2679,123 -4120,1243 -2447,-1415 -562,-1253 -3190,-1863 -797,1699 -405,5181 284,7810l1534 -777zm40115 -1350l-1521 -203c626,-2841 1012,-1581 -149,-3964 -1519,-2359 -4343,-961 -6226,20 -3621,-2923 -3203,-956 -3264,-932l836 5229c1432,-652 609,-64 1539,-1192 411,-498 272,-638 947,-1464 869,-1065 1600,-1512 3126,-1856 981,2899 1243,2485 451,5591 3474,239 7586,1284 7104,-2401 -1696,528 -524,381 -2843,1172zm-23074 358c-1470,-2820 -649,-2660 2112,-3225 -397,4206 -2014,3016 -2112,3225zm-28961 -3342c-2107,7146 4117,5070 9476,4412 -398,-2297 -404,-4483 -786,-6799 -4451,314 -614,5379 -5437,6415 -679,-3108 -818,-3496 -108,-6852 -1654,633 -2539,769 -3145,2824zm-2548 -39315c1876,849 873,-912 1573,1554 139,492 -1149,12804 -6116,10413l-160 1175c1981,406 1903,575 4167,-430 1867,-1298 3680,-5234 4362,-7851 826,-3172 1027,-7707 3798,-8653 -339,-1559 444,-890 -1009,-1470 -3041,1447 -840,1912 -4575,3193 -1256,-2232 -1171,-3224 -3831,-3002 -536,2828 104,4067 1791,5071zm-10739 -22566l4324 5826c1032,3536 -5914,19318 872,19057 3909,-150 1876,-506 2208,-1141 -2210,-165 -2530,-1249 -2350,-3865 86,-1245 806,-3904 953,-5172 462,-3964 1352,-7936 1215,-11754 -2028,-2218 -2975,-5106 -7151,-5054l-71 2103zm-41539 25714c-951,-1140 -334,-11289 -625,-15677 -243,-3665 -919,-2477 1839,-3591 74,126 192,171 208,386 15,218 153,313 170,412 371,2190 34,-1617 143,977l-912 15262c-303,3908 333,1018 -823,2231zm-3467 3090l1643 -442c2663,-833 4423,-340 7072,76 4268,670 4019,-769 6144,-758 -565,-3397 -964,-210 -8066,-1563 -441,-4700 -132,-6622 323,-11188 257,-2578 665,-8530 312,-10742l-2232 105c-1139,1073 489,125 -1268,664l-5252 240c-952,-80 -1959,-289 -2862,-668 -2497,-1048 263,-528 -3060,-1422 466,4792 2527,3593 7509,4530 242,3764 1660,15860 834,18559 -72,235 -324,250 -421,328l-2035 1767c589,693 -59,266 1359,514zm34432 27154c-383,-476 -407,348 -1036,-1714 -42,-138 -236,-1559 -236,-1680 -12,-1517 348,-1993 903,-2805 1171,765 1010,855 2131,1652l-1762 4547zm-15470 -6875c-668,2132 -1193,3183 -1312,6135 -85,2106 436,3939 376,7069 745,458 -340,-446 684,648 637,679 72,257 1031,1177l-765 444c-1421,1175 -1225,-487 -1332,1985 1653,1359 4363,1049 6013,136 1126,-3290 -2101,-5006 -2250,-9210 -123,-3441 945,-8588 2703,-10339 3879,1610 4292,4323 5877,8060 2804,6621 995,6921 1194,13479 3649,-1954 4626,-647 5679,-2151 1842,-2631 -4838,-14660 6432,-17891 1029,4407 1957,3724 1640,8836 -312,5039 -1508,5580 -2413,9534l3998 902 2572 -1237c-144,-170 -329,-302 -370,-197 -40,108 -275,-59 -333,-67 -1162,-147 -2224,61 -3748,-1069 1915,-5601 6008,-6214 4913,-15177 -2028,-3219 -2838,-4696 -6836,-4559 -1483,1570 -4057,3147 -5412,4094l-1072 -1963c-162,-121 -563,-526 -658,-591 -1277,-877 990,154 -1183,-593l-2387 3261c-2219,-1213 -727,-946 -2612,-2499 -5454,-4490 -7821,1051 -10429,1783z"/>
  <path class="fil1" d="M260271 182038c865,1076 1637,1768 2560,2907 4802,6167 7397,13961 11991,20440 1524,2149 3002,4123 2964,6843 -6261,-3781 -2527,-3381 -10324,-3018 -1924,89 -1237,-195 -2895,-2250 -1060,-1314 -2124,-602 -4118,-635 -2832,-48 -1142,-926 -3238,-2236 -829,-519 -3553,109 -4630,-1978 -1414,-2740 -3459,149 -4864,-6248 -874,-3983 1113,-3788 1955,-6102 1122,-3088 2623,-4347 5595,-5781 1604,-774 3323,-1357 5004,-1942zm66814 43986c2283,531 1686,-1747 544,-2060 -388,-106 -4497,-612 -4200,124 220,544 -444,265 939,849 691,291 2034,911 2717,1087zm-18810 -3255c2161,-70 2937,-339 4864,-1278 -360,-1457 318,-1097 -1876,-1722 -1112,-310 -4706,597 -5761,1034 -3323,1376 -103,-229 1704,1552 488,481 294,355 1069,414zm13729 34547l378 -1380c-2135,1760 -2092,273 -2125,242 -2876,-2748 -1772,-4696 -4732,-6270 185,4207 -819,3162 -2159,5780l157 -4288c-2570,2557 -436,2896 -3589,5014 -629,-1411 315,-1412 -699,-2724l-916 2548c-1641,-514 -1299,417 -1582,-1649 -429,666 -900,1453 -1278,2235 -1954,-816 -1159,773 -1856,-2183 -131,111 -261,289 -354,377l-2753 1926 917 -3294c-1698,599 -1585,1333 -2070,1454 -1813,447 7,307 -1008,-150l-1074 -997c-238,2378 270,1541 -1168,2731 -84,-127 -124,-347 -164,-427l-358 -754c-1000,-1473 -1032,-811 -1615,-1087l-2216 -488c-93,-4 -284,13 -383,3l-1676 -424c-116,-39 -284,-124 -397,-164l-1779 -538c-74,-33 -244,-96 -315,-136l-1381 -1306c-71,-60 -211,-182 -284,-236l-2553 -1274c-82,-36 -257,-103 -337,-135l-976 -310c-1234,-628 -663,-901 -2844,-2759 -1996,-1699 -3787,-6457 -3783,-7417 -1466,2079 156,1353 -186,4045 1054,1080 4874,7900 5095,8441 517,140 8152,4941 8942,5591 -351,260 -305,282 -1300,635 -43,15 -768,223 -945,267 -13746,3413 -3460,551 -12882,5705 -941,906 -2776,2463 -3872,3597 -714,738 -1005,1243 -1704,2020 -1251,1387 661,716 -1422,1071 -752,2614 -1704,2294 -1164,4581 2002,1170 458,657 2768,793 -2826,-2914 -1254,-5382 1581,-6483 -798,1782 -1670,5435 859,7149 2317,1569 1410,-111 1676,-830 -813,-420 -574,165 -1076,-1186 -496,-1331 -308,-3315 692,-4347 2638,-2725 1221,-52 1276,28 1767,1873 1194,1798 4580,2494 -116,-134 -285,-286 -370,-380l-1005 -1109c-348,-465 -660,-905 -774,-1488 -248,-1269 144,-1743 805,-2810 3149,-5082 7274,-4793 8399,-1516 998,2908 -168,2906 -1817,3326 778,1065 -1425,1054 1974,628 -18,-1264 1654,-3113 1605,-7285 591,-937 -260,-110 1165,-898 7,-4 1154,-509 1241,-541 1075,-389 1721,-480 2892,-732 4564,-946 7067,-33 11291,-301 4202,-266 6352,-1200 10966,-374 973,-596 -1355,-553 1688,-468 2417,481 6702,4610 8064,6676 746,1133 -2460,4384 -2899,6397 -146,668 -335,3365 -159,3836 58,156 670,745 991,1723 613,1867 2681,1663 4526,3374 1256,1164 4205,905 5753,-8 1397,-825 2532,-1614 4110,-2173 1509,-536 2672,-482 3118,-2287 -598,200 -413,413 -1244,15 -2073,2454 -3404,673 -6914,3170 -3795,-2207 -6320,-4313 -8361,-8294 743,-917 1268,-1478 2128,-2283 -16,265 -168,2923 -156,2956 131,312 2008,1732 2367,2428 507,985 2381,3843 3626,3707 2256,-244 6845,-2708 7434,-4795 131,-460 585,-3131 267,-3263 -1488,-615 -1174,-993 -1057,1011 115,1951 256,2406 -1197,3823 -1522,-1360 -987,-1270 -1374,-3579 -260,1094 -261,3247 -1341,3778 -86,42 -3354,275 -3446,242 -572,-204 -640,-1194 -2538,-1515 -698,-118 -825,-436 -303,-1042 857,-996 3615,967 2959,-1112 -89,-277 -758,-1091 -918,-1162 -1050,-470 -2882,1098 -1885,-2182 400,-1320 2238,-3579 -192,-1974 -351,232 -2420,4150 -1991,1239 55,-367 1123,-544 1274,-3157 100,-1728 -1864,-3203 -2429,-5621 -510,-2178 -706,1037 -873,1121 -1407,717 -988,161 -1195,-1431l-151 -1161zm3341 -35121c2371,183 3224,413 5723,177 -292,970 -345,1527 -1127,2145 -223,177 -744,2609 1472,1934 1009,-308 345,-32 972,-1291 924,-1856 1805,-2627 2342,-4798 -2987,-44 -4842,727 -7653,1020 -1592,165 -752,-420 -1689,-222 -901,190 -663,-434 -757,148 -132,815 -391,665 717,887zm24177 3188c970,-937 358,635 505,-1133 -4534,-1777 -11188,-91 -15044,2744 -548,402 -962,642 -155,1030 7,3 2067,420 1921,-180 -6,-25 3278,-660 3690,-763 3198,-806 5711,-1763 9083,-1698zm7240 -856c10214,3611 14875,-3514 17056,-4784 3553,-2069 4119,38 5915,-680l-1559 -684c-920,-244 -615,-162 -1491,-259 -2750,-306 -4264,875 -8457,2692 -1699,735 -2696,2147 -5019,2758 -2533,667 -3383,-129 -5157,192 -1702,308 -616,120 -1288,765zm-56342 16878c3087,1277 7658,3930 10808,3765 -2466,3207 -5827,1794 -9461,1010 -1365,2212 -3268,3266 -6238,2021 -5192,-2176 1855,-1421 -6113,-1982l-402 -1537 -6236 -7512c-158,-3271 1388,-6922 4192,-8757 2550,4225 4074,4714 6980,8231 2277,2756 3136,3312 6470,4761zm14904 6037c1532,-1426 1057,-1277 3230,-2131 783,-1102 2363,-2195 3437,-3399 1256,-1406 1918,-2613 3126,-4324l547 -1886c-1064,1185 -3834,4465 -5850,4508 -1894,40 -5676,-1782 -5886,-4227 -172,-4798 2979,-3421 6593,-2829 2723,418 4517,623 7107,-562 973,-445 1160,-951 1626,-1950 928,-1994 218,-1231 -1655,-840 -4735,991 -4464,-410 -9098,-750 -2902,-212 -3633,-213 -5415,-2705 5379,-4402 4916,-393 9044,-712 -1498,-3524 -4027,-3397 -7438,-2408 -2799,812 -4877,2393 -7775,3262 -1151,300 -2186,192 -1477,1068 1190,1469 4152,1810 5814,2326 -3901,1558 -5161,-678 -8326,-620 -694,13 704,1615 2793,1938 2462,381 5936,136 8082,1389 -5923,1854 -3570,1419 -9659,55 -680,-153 -3884,-233 -1260,544 2184,647 5559,1492 7802,1683 1635,5729 5087,3526 9072,6673 -3434,1914 -1617,1406 -4302,1742 -3799,475 -894,-1020 -4228,1883 -402,-1199 759,-610 -2621,-2784 -4823,-3126 -4380,-2847 -9901,-4606 -3982,-1269 -3602,-3074 -6728,-5855 -1912,-1701 -2614,-2299 -2511,-4962 1990,-1040 2912,-1301 5172,-971 1146,168 704,52 1518,1178 1420,1962 2501,3829 5044,4180 -988,-3121 -1681,-687 -2327,-3381 4587,447 2303,707 1291,-2232 -501,-1454 -1655,-379 -1025,-3782 162,-876 29,-4047 -1191,-1837 -72,130 332,806 -1214,2096 -3443,2876 -9065,859 -12515,5052 -651,952 -2766,7073 -2963,8799 -633,5575 2679,8567 5528,11124 96,87 223,215 319,303 1703,1540 1079,1300 3427,2028 9745,3025 6695,-357 13687,278l4274 -724c1198,-562 2086,-1509 3641,-1841 4422,-943 473,1868 3191,209zm21785 -17686c-38,44 -874,843 -916,881 -584,530 -961,817 -1626,1406 -1692,1307 -850,1507 -2985,1482 -4060,7924 -4799,2682 -4576,7956 4545,-334 2985,1005 5300,-839 2997,-3411 -1138,-1764 3189,-4589l2489 -2093 4527 61 -156 4021c-2104,6450 -361,8045 -3535,9431 816,-2004 1983,-4410 642,-6896 -733,2532 89,3126 -815,5149 -828,1852 -3099,2518 -3021,3031l-44 -5111c-1176,943 -1129,-1618 -827,2128 299,2427 -1664,4312 -3406,5823l440 -3138c-718,897 -1086,1925 -1950,2511 -1333,905 -690,-295 -1944,-932l-1445 2904c-484,-482 -460,-529 -864,-936 -776,-779 -208,-291 -1250,-1149l413 3390c1136,2619 2231,4210 3199,6924 427,1199 897,4288 1541,1603 349,-1457 -1461,-4988 -1923,-6814l4027 -1285c1417,7717 -1658,3509 5878,8381 1803,1166 2758,502 4942,-33 4007,-3395 3720,767 8189,-4074 667,-721 182,-418 1031,-1016 120,-1327 616,-2546 -290,-3933 -1693,2473 687,4104 -3671,5771 134,-2231 1156,-3396 656,-4794 -805,1750 -435,3625 -3031,4578 231,-2430 1090,-3348 -25,-5206 -674,1513 370,1581 -634,4260 -4202,1793 -3294,716 -6122,-1104 1179,-1975 1886,-1615 2216,-2977 -3438,1006 -3035,3435 -5816,2178 -1957,-4003 3284,-5645 5408,-7397 6613,-5453 2420,-7113 7254,-8589 2041,-624 3405,-1017 5495,-730 2302,315 3868,2021 4538,3588 3146,1999 -913,4346 -545,7522 261,2260 3161,5760 4195,6531 4031,-744 908,-2156 4050,-1955 2001,-540 903,493 1725,-754 -2606,-886 -5110,-1238 -4372,-8624l1954 2009c1054,1492 3976,4774 5766,5327 -546,-2130 168,-310 -2239,-3462 -967,-1266 -1198,-1751 -2511,-2799l575 -1757c4,-996 -23,-251 -679,-1605l3502 421c1361,2993 -862,2279 911,3085l367 -4388c-931,-94 -1876,-166 -2701,-306l-2000 -510c-1654,-550 -938,-827 -2441,-546l-1962 913c-572,-859 -1437,-2844 -1706,-3246l-4801 -4482c-751,-382 -2555,-477 -2943,-667 -5334,167 -5699,-3087 -11293,-3885l-525 -2026c-13,-166 -68,-240 -166,-429 -709,293 -1790,479 -2126,1192 -64,135 -438,508 -537,619zm85176 14117c2089,1264 2893,1333 5174,2059 314,100 -63,97 317,748 1216,-10 2428,-33 3645,-58 -545,-1607 -21,-1052 -2448,-2140 -2612,-1170 -4045,-1706 -6389,-3339 -2086,-1451 -7671,-3225 -9987,-2194 -2893,1289 720,497 2628,1500 2155,1132 593,897 3130,1580 1597,431 2539,979 3930,1844zm-19939 -2222c3190,288 4943,56 7620,-1756 -2662,831 -3033,908 -6188,446 -6680,-979 -6694,-4493 -10466,-5312 1559,2506 -329,2942 2825,4806 1878,1110 3660,1636 6209,1816zm-15389 -8132c2393,1187 3284,2587 5645,1909 -599,-1457 -994,-1851 -2721,-2704 -1532,-757 -3081,-1186 -4673,-1841 1189,2495 929,686 1749,2636zm74409 -6851c-487,2689 235,978 -2012,2659 -6384,4773 -9305,3356 -16954,3225 -3980,-69 -3623,-578 -6366,-2204 -2970,-1513 -4430,-879 -7446,-1754 -10737,-3112 -10326,-2615 -20780,1701 -1354,-1486 -853,-2509 -1969,-3020 -460,4204 211,1760 -2068,4761 1568,-357 4993,-931 6225,-1663 3605,-2141 8624,-1670 12658,-1250 3663,382 2614,1736 6549,2439 2805,501 3072,400 5583,1623 1046,508 1603,593 2750,740 1439,122 4661,254 5490,69 4839,318 7486,1146 12410,-1261l3637 -1784c1555,-2794 2467,-1405 4767,-4567l-2474 286zm-45669 -7208c-4623,820 -4251,2523 -7662,3382 -1643,413 -8282,286 -9433,-196 -4385,-840 -9126,-102 -13883,-110 -8454,-14 -14147,6847 -22238,5923 -2396,-274 -8674,-2481 -9319,-4016l-2182 -293c446,1643 762,2110 1204,2799 3247,356 6227,742 8269,2509 4745,1363 11059,799 15103,-775 1959,-762 3936,-1901 5821,-2677 4147,-1706 3651,-633 7000,-1348 2580,-341 5795,-949 8387,-603 1524,204 7253,899 7555,1140 5995,-22 8907,-1440 13553,-3437 6530,-2808 7815,-857 13182,36l27 -1666 -4448 -845 -2487 -2326 -8449 2503zm-20496 7495c572,553 459,378 919,796 1773,1612 3308,2546 5998,3198 -1507,-1276 -4532,-2393 -5706,-4239l6736 1332c-1832,-2600 -6906,-2659 -7947,-1087zm30049 -60358c5401,-83 18943,3396 24150,5391 3276,1255 8180,5983 8494,9613 2382,973 1756,818 2134,-991 183,-876 -352,-432 -1059,-1604 -865,-1433 -4833,-5489 -6046,-6436 -2589,-2020 -3991,-2234 -6949,-3198 -743,-242 -657,-854 -990,-1024 -47,-25 -1903,-181 -2282,-291 -2124,-613 -3264,-1371 -5821,-1954 -1095,-249 -2287,-452 -3333,-855l-8246 -1980c331,2561 294,873 -52,3329zm33977 19708l333 582 -616 2486c720,1486 -961,371 1370,568 -60,-1194 -441,-1542 55,-2609 54,-116 613,-845 754,-1080 274,-458 -271,-3635 -37,-4167l-1859 4220zm-40794 -26465l-6979 -559c2337,2516 5898,1736 9305,3075 1958,770 966,877 2741,1251 -1643,-2785 -3275,-1989 -5067,-3767zm-96493 38721c396,-977 -715,-216 969,-1361 2773,-1886 11646,5428 11844,5640 3029,3479 1259,4364 1428,8860 82,2149 495,3475 -99,5702 -192,719 471,1531 803,2128 2710,-1591 1768,-3587 1826,-6500 52,-2703 776,-5456 90,-8126 -1856,-4026 -6490,-6049 -8881,-9072 -4844,-1312 -2047,-1260 -7219,184 -3570,997 -4734,1758 -4357,3991l3596 -1446zm34771 -36889c-1472,2807 -6420,6054 -9173,8063 -607,443 -662,559 -867,774 -773,187 -5727,2914 -6823,3651 -1120,752 -1750,1528 -3033,2460 -1041,756 -1694,1189 -2498,2545 -1864,1466 -4615,3488 -6592,5341 -1194,1119 -1447,1682 -3072,3031 -1179,981 -1942,1639 -3551,2760 -2676,1387 -5618,10071 -8064,11499 38,2753 -749,4334 611,6384 1331,1826 2237,2607 4506,2889 -3381,-5361 -3353,-260 -1370,-9406 686,-3301 -859,-1799 1642,-5199 2949,-4009 3748,-6020 7772,-8247 238,-1805 66,-1378 4735,-4740 3316,-2685 6758,-5256 9832,-8218 241,-233 465,-435 718,-654 2748,-2272 3983,-1036 5187,-4096 3279,-723 11891,-7469 14714,-10005l1111 -1016c-2922,744 -2867,1665 -5785,2184zm8743 -4474l-1458 45 157 1002c4950,-158 2155,1493 7249,1308l16561 351c-2230,-1232 -19789,-2160 -22509,-2706zm19544 4732c-6255,-199 -6286,-878 -5672,1760 38,167 204,691 248,884 190,814 179,1285 418,2075 831,2739 674,266 2246,4983 947,2841 -267,1986 1794,3272 1629,515 -117,-2061 5119,-2848 2673,-2438 5859,-870 10320,-557 4992,351 10447,1704 12035,691 -3678,-721 -6432,-1119 -7882,-3520 706,-2102 842,-2078 2918,-3076 3475,-1669 12510,-1385 14626,108 3619,106 1520,420 2413,-675 -2315,-1564 -9531,-2924 -13021,-3695l-88 -2052c-3188,559 -11097,152 -16003,369 -2911,129 -2711,159 -3990,1376l6460 300c-770,418 -25,176 -1379,401l-10562 204zm-57498 27620c-389,691 -399,872 -871,1437 1210,1576 387,356 2047,1557 118,85 271,184 385,269 776,588 583,379 1103,961 3681,-143 3510,701 5926,3733 769,965 1704,3502 2502,4818 2053,3380 2074,4231 2135,8353 220,5364 1385,1717 -813,5302 -930,1517 -539,1677 1165,2333 879,338 1462,422 2391,484 906,19 1828,-180 2396,-139 2868,205 -612,162 2288,720 3129,-4815 -315,-3686 5007,-8205 1398,-1187 347,395 1651,-1740 -5688,-931 -4628,-7797 -1211,-10803 2519,-2218 4456,-3611 7903,-3503 957,29 1089,43 1963,-350 -3691,-1667 -6672,-1620 -7055,-6581 -748,-9705 19081,-10940 23240,-8286l3311 -370 -1355 -2018c-4503,-4944 442,-6198 -4532,-7918 2686,-2054 -399,-716 -593,-7427 -41,-1431 -6694,-2107 -8628,-1800 -4507,717 -75,375 -5902,3733 -2492,1591 -16689,10346 -17647,11577 -1391,1790 -800,1539 -3164,3129 -5375,3615 -4985,2801 -9239,7566 -1472,1649 -2375,2272 -4403,3168zm-44023 29236c-1126,-2334 -6342,-13604 -7354,-14824 -3275,-3946 -5101,-10404 -8307,-15161 -2158,-3203 -4633,-6226 -7545,-8772 -4992,1496 -9064,5113 -12408,9004 -3919,4559 -3571,10482 1682,13729 1573,973 4783,2010 5721,3100 2097,2437 4398,1156 6693,2535 3521,2115 2963,2022 7444,2777 3227,543 5985,888 8429,3240 793,875 549,2348 547,3502l-4782 -1276c-5582,-1114 2984,1854 -5323,-1337 -1824,-683 -3352,-1501 -5122,-2125 -2704,-953 -3169,-1260 -5418,-2691 -1573,-1000 -4194,-1440 -6389,-2743 -6418,-3811 -10137,-7755 -7474,-15693 1762,-5250 5449,-7502 10099,-10182 1748,-1006 3533,-1939 5318,-2878 -1431,-3068 -11182,-7243 -16103,-10247 -5959,-3638 -10054,-5954 -16506,-8755 -999,-435 -1447,-395 -66,-948 3400,-1365 8717,1909 12164,2456 555,88 406,28 1207,-317 1861,-800 -4083,-312 -5949,-2606 -530,-652 -6233,-1310 -7493,-1582 -4154,-894 -6026,-671 -10185,-2534 -2345,-1050 -6022,-809 -8645,-956 -5389,-317 -8972,-715 -14252,-2018 -4541,-1120 -7179,-86 -11740,-1041 -508,2501 -1153,2605 -3624,2527 -341,1703 -1692,2098 -3318,3204 -816,555 -1861,760 -958,1896 441,552 616,-873 1574,765 618,1055 221,583 1202,-877 3080,-4585 12920,-5681 17827,-4357 3622,977 9108,1414 13122,2220 1565,314 3060,673 4603,1078 5505,1487 17702,5062 21600,9064 2362,2424 3174,1269 5305,3503 2536,-240 6332,2733 8901,4205 2712,1555 6412,3307 8582,4673 -1130,758 -3582,1835 -5106,2771 -3001,1842 -1763,2466 -3924,3343 -1616,2855 -964,1363 -3045,3482 -2607,2654 -3438,7559 -2825,11078 81,464 1379,5452 1502,5569 1242,1193 2557,1414 3361,2768 463,781 649,457 1759,864 3336,1222 4787,3427 5577,3721 3149,1170 5961,2543 9177,3738 4690,1742 9380,3484 14070,5226 938,349 1876,697 2814,1046 -282,1792 -234,1508 -2067,3762 -1002,1232 -1838,1991 -2503,3519l-1496 6813c448,2943 -936,1308 1249,1822 -946,-3423 212,-6515 1998,-8661 676,-811 6679,-8613 7802,-8569 3551,141 4471,-2591 8044,-2379 1226,74 4028,-293 5272,-1161 618,-431 3083,389 4261,223 3957,-558 5075,-1732 8471,304 4906,2887 4846,2116 9735,3606 886,270 1892,-21 1724,-127 -930,-584 1288,-1131 -1283,-842 -1210,137 -3885,-693 -4670,-1744 -215,-287 -2259,-700 -4117,-3240 -705,-963 -195,-656 -1765,-396 -2920,484 -5987,1172 -8921,457 -2462,-784 -3484,1095 -4554,160 -631,-552 575,834 16,-277 -1341,-2669 -1644,-1774 -3389,-3713 -4476,-1310 -5248,-6329 -1560,-8920 1218,-857 1352,-333 -1292,-1227 -2573,-871 -609,-533 -2561,-1379 -2788,-1207 -3966,-2797 -5152,-5520 -715,-1641 286,-1055 403,-2734 90,-1286 -119,-809 1474,-1607 924,-462 1299,-251 862,-1766 -230,-797 -2215,608 -3259,915 -2515,738 -2770,4794 -1893,5383 2167,1456 2678,3920 6669,5594 3061,1284 1504,-70 2595,1839 -5241,1916 -2899,4995 -114,8137 380,417 4887,5107 4088,5254 -1000,185 -4996,2326 -6575,2763 -1031,285 -2748,360 -3911,547zm-28930 -49846c-948,-491 -3738,-940 -5861,-1304 -2758,-474 -2853,-1366 -4582,-2754 -137,-1930 498,-2166 -225,-3721 -4352,-150 -2313,-600 -3436,1245 2589,2181 -279,2904 5233,5035 1808,574 7143,1928 8871,1499zm82642 -32594c-1816,-344 -1278,-739 -1424,1996 -212,3974 -771,6488 -2150,10244 2183,-1832 3781,-7159 3837,-9945 12,-674 370,-1869 -263,-2295zm-39756 28704c-658,517 28,1069 -2286,1472 -3301,576 -3074,-420 -6669,1117 -2753,1178 -5119,58 -6229,980 -749,622 -4361,-438 -5452,956 -201,257 123,1802 -1335,1982 -3676,453 -12122,-426 -15795,-1383 -2720,-824 -3406,40 -3827,441 2857,425 7630,832 10651,1187 -725,1201 -1070,807 -1460,2058 -885,4811 7350,9216 10939,10914 6221,2942 -4107,-3671 -4475,-3962 -1514,-1196 -2179,-1990 -2954,-3748 2269,-799 5325,-2343 7598,-2606 1390,-163 6483,-2220 8276,-2769 3975,-1218 7551,-1313 11754,-2722 6039,-2041 10524,-3630 16830,-5026 508,-112 4369,-858 4387,-1111 34,-474 93,112 394,-70 61,-36 1042,-1185 1230,-1347 2341,-2018 8622,-4819 9499,-5815 1495,-1698 2689,-1629 3879,-3870 757,-1425 1881,-248 640,-2568 -1593,605 -3255,4043 -6554,5869 -1488,824 -2704,1872 -4386,2805 -3918,2173 -7922,4373 -12398,5091 -3832,614 -3855,2331 -8774,2059 -1080,-60 -2489,-418 -3483,66z"/>
  <path class="fil0" d="M308701 352296c309,466 -552,377 0,0zm-125695 -47605c-1515,1571 -13480,6664 -16238,6078l-1818 -567c-1275,536 -1167,-1433 -942,1575 1932,26 2772,498 4626,450 2473,-66 1803,-845 4834,-629 2155,-2386 3697,-1925 8373,-4030 1301,-578 3362,-1278 4412,-2138 1174,-962 2246,-2466 3356,-3551 542,-531 739,26 1399,-562 1293,-1154 2822,-1651 4441,-2165 1201,1362 3470,4166 5232,4573 961,182 2584,-453 3583,-680 1749,-397 3401,-484 5192,-444 -546,-2450 534,-1389 -3807,-1457 -2073,-32 -2610,239 -4309,-741 -1969,-1136 -2716,-2811 -5561,-4026 -340,104 -3034,906 -3082,955 -567,575 -800,818 -1481,1331 -753,567 -3179,2112 -3619,2631 -982,1157 -901,1996 -2555,2672 -663,271 -1360,488 -2036,725zm11239 53724c967,-561 402,-222 1058,-913 16,-17 866,-976 876,-988 1263,-1664 937,-142 705,-2434 -2469,180 -2868,1590 -2639,4335zm-74426 -38698l-1434 -385c-568,850 -1293,1592 -346,3958 1135,2836 -814,-609 1029,916l751 -4489zm67057 1343l1076 743 1559 -3552 -275 -2151c-2446,892 -740,-681 -1497,2286 -287,1124 -406,1510 -863,2674zm6221 -11146c-1519,3419 -1531,5205 -2606,8718l-708 2313c2021,-76 1999,-1 2385,-1750 119,-540 -57,-1050 276,-2195 660,-2266 179,-728 652,-797 171,-3348 939,-4377 1840,-7509 -2181,919 -546,-569 -1839,1220zm-7934 33948l5290 -846c1030,841 1123,425 1818,625 1955,-743 2662,-228 4075,-1541 -5091,93 -5730,-1399 -9603,-2231 -770,2712 84,2127 -3113,2563l1300 1171c35,-84 154,172 233,259zm-50527 70704c-1414,2019 -2418,3025 -4241,4966l-4297 4979 2320 -122c1150,-2089 -227,-748 1964,-1938l381 1306c2188,-1001 264,-138 2015,-1298l2267 -1961c1406,-2048 -349,-1186 2828,-2677l-1734 4306c-690,2349 274,1419 -1368,3407 684,1317 -323,564 1036,1536 2497,-999 111,241 1879,-2106 1269,-1685 956,-1308 2392,-2150 -365,2982 -881,2137 -1564,4500l1540 476 1768 -2409c1226,-1058 1090,59 1878,1091 1217,-1285 464,-1143 2173,-1337l125 2564c19,91 69,294 130,431 3544,-1269 1253,-2056 4508,-1305 2211,509 4187,945 6424,616l9540 551c2417,371 20590,1462 24078,-657 -4898,-307 -12139,22 -17229,94 -2386,35 -14733,-575 -16492,-996l-234 -2486 1548 1884c2279,-2137 1386,-1186 7893,-3244 132,78 265,142 308,340 40,188 233,268 289,324 70,69 -577,1466 4204,973 2849,-293 2981,-1060 5866,-1572l13212 -2017c-3306,-1734 -5515,228 -7141,-1589 -2586,118 -4898,-720 -6266,-521 -1129,163 -3215,1615 -4469,2080 -2023,751 -7354,-807 -10256,-1347l-2796 248 -5613 3510c574,4508 324,-569 1087,2342 220,838 469,474 -568,1025 -1863,-1051 -1251,-1222 -1673,-3625 -128,154 -232,380 -304,516l-519 977c-62,131 -135,322 -187,440 -397,912 -81,640 -353,1100 -618,-1296 -61,-2348 -1283,-3774l-2967 -2196c-2786,2045 25,930 -2353,2717 506,-1335 2593,-4456 -17,-4167 -2655,295 -143,1658 -3640,3328 295,-2735 1449,-2365 1758,-6013l-3034 -1051c-3688,2165 -5216,5714 -9067,7816 4424,-6430 9622,-9197 9901,-11806 -2841,-603 -3082,3779 -5647,3921zm45807 -77849c-1629,-1420 -172,-521 -2374,-1424 974,4810 1644,857 1710,7045 -151,-106 -334,-281 -437,-339 -95,-55 -313,-230 -421,-283 -2342,-1159 -610,-400 -1547,-216l-828 1938 2365 -23 2873 464c-552,-1817 -484,-1318 -710,-2728 999,589 636,467 2085,866 -208,-9691 2435,-6913 -428,-8487l-997 4977c-28,-32 -676,-755 -680,-761 -543,-723 -321,-481 -611,-1029zm8570 15429l-305 681c-44,76 -135,256 -188,339 -1426,2249 -1495,791 -2924,4269 1899,-350 1572,773 2665,-2210 631,931 342,280 834,1901 16,52 -118,158 141,1004 1846,-870 1210,-1211 3710,-4264 -992,2340 -980,684 -778,3615 1724,-1349 3241,-3226 2100,-5143 -53,-89 -158,-251 -215,-345l-1782 -2273 -3258 2426zm-2299 41778c-1576,1715 61,20 -1998,1492 -1477,1057 -597,196 -1852,1721 5215,-854 2113,-105 5244,-67 923,-2795 1104,-3774 2949,-6021 847,1791 -420,2076 -548,4721 2893,-1301 176,-1280 3303,-2816 564,-10955 1283,-4575 2370,-9151 -1336,208 -418,-79 -1467,1002 -317,326 -893,981 -1147,1308 -5199,6674 -958,721 -3733,3489 -1269,1266 -1900,3404 -3121,4322zm-55855 -61160l208 1274c370,2076 936,2826 1595,4492 -1209,2767 -593,-128 -1656,2460l5734 -188 2631 104c-1018,-1407 -1993,-1108 -3367,-1585 277,-3430 1233,-2734 3182,-7194l-915 547c-101,61 -282,193 -383,252l-1120 456c-916,-2930 494,-3448 -961,-5698 -669,836 -338,-104 -692,1325 -615,2477 955,5801 -1988,7079l-425 -3471 -1843 147zm28874 5296l439 3664c-2020,-1333 -530,-1304 -2849,-887 647,2850 1649,1306 1434,5116 -1686,-1230 -2319,449 -2527,628l9025 470c861,-592 1139,888 621,-632l-2800 -1677c-486,-4351 3149,-8133 361,-8619l-968 3757c-2705,-2378 -946,-4011 -1121,-6672 -212,-3234 -35,-1010 -649,-1933 -1108,2039 -739,4387 -966,6785zm-45179 2339c839,-615 3951,185 5705,-297 2166,-593 539,-570 3412,-713 2436,-122 1663,589 3720,-777l-6760 -213c-217,-2756 299,-4818 1181,-7087 -3493,839 -1794,2590 -3005,5292 -305,-699 -1499,-6380 642,-7044l119 -3900c-1985,1266 -1249,781 -2126,3217 -1663,-994 -705,-1131 -1978,-1596 182,2452 1329,2842 768,5681 -3089,-1430 -76,-1334 -3462,-2344 944,2498 2527,4463 3438,7445l-1311 865c-129,79 -293,170 -419,244 -699,419 -849,406 -1511,1070l1587 157zm79116 76263l-464 2521c3203,-65 1290,-713 1885,912l2318 -1752c2039,-2049 -183,-794 2879,-2351l1286 -599c2135,-931 2275,-626 3594,-3267 1241,1889 357,1125 991,3001 135,-59 352,-312 396,-198 41,107 309,-163 361,-208l2149 -4435c164,-1451 -101,-1299 384,-3008l-1012 -347c-3250,1463 -7123,3248 -7885,6945 -982,-1244 -233,-1089 -1858,-1363l-5024 4149zm1671 -99606l-2421 4951c-76,118 -214,311 -311,472 2733,691 2995,2239 4698,4670 811,1286 493,1030 1080,2870 876,2748 -156,1848 1540,2359l414 -3419c-320,-1425 288,-4301 1176,-5470 157,-5452 900,-6246 874,-7541 -3163,2210 -1961,5120 -3028,7305 -1526,3125 250,1252 -2085,1260l1707 -5881c619,-2139 1604,-3169 2431,-4854 -587,-1060 1361,-1309 -996,-755 -1107,2068 -2264,5905 -4319,6795 317,-2395 636,-3268 1737,-4737 1207,-1612 2108,-2091 1112,-4371 -2166,4067 626,333 -3609,6346zm2138 64635l-509 4638c2616,-1378 3345,-5322 4795,-7327 -709,3129 -1370,6074 -2865,8785 -3257,5914 -631,-3368 -5050,5570 43,2099 -598,809 850,1050l1649 -3149c915,-1316 333,-486 942,-1175 -456,4559 -1814,4787 -2378,8322 1439,-1267 4594,-6552 5187,-8221 1041,-2936 2890,-7907 3217,-10225 1014,1129 1688,37 571,4379 1668,-920 5659,-10687 6005,-11954 -1371,511 -1766,780 -2616,1902l-1811 3408c747,-3321 450,-3064 -445,-4121 -1886,1538 -73,1376 -3119,2350 -95,31 -288,50 -384,88 -592,236 -895,-152 -2457,2855 -195,375 -423,887 -613,1239 -989,1829 104,281 -969,1586zm26591 -29753c-317,365 -34,152 -814,765 -2677,2104 -5720,2458 -6702,4143 -4459,1394 -6736,3322 -11580,5503 -1660,747 -3584,1867 -5031,2838 -1567,1050 -2815,1957 -5728,2144 -1608,815 -4962,3172 -5803,3917 -417,370 -8578,12160 -13523,14590 -491,1474 -39,901 -1661,2387 -6793,6224 -18025,8100 -19204,8732 -114,611 -772,329 607,692l2157 -284c6514,-1435 12383,-3479 16806,-6823 1254,-1121 1848,-1402 2752,-2219 1074,-970 1370,-1326 2530,-2355 1697,-1506 3577,-3653 5091,-5118 1411,-1336 3070,-2564 4268,-3710 800,-764 1103,-1339 1841,-2408 1643,-2378 100,-1258 2435,-2356 170,-110 1237,-347 1995,-618 4086,-1462 5913,-5856 9970,-7559 1705,-717 3398,-1341 5090,-2028l13286 -7487c1829,-1366 2307,-1908 5034,-2575l727 -1543 -1233 -141 -3310 1513zm-90606 47214c-1349,1166 -2016,1196 -3357,3031 -3599,4930 -9598,9284 -14065,13240 -889,788 -1919,1524 -3100,2407l-3328 1884 155 1421c8169,-3365 15143,-10225 17021,-11181 -2509,5625 -9447,6651 -12217,13180 2004,-236 12201,-9517 12800,-10182 -661,1500 -1183,1518 -2210,2429l-7410 8829c-91,109 -245,288 -355,440 4812,-767 5359,-5473 10911,-8783 -682,2610 -2572,4425 -4003,6055 -1545,1761 -1085,-257 -1085,2071 2358,-818 1574,-512 3407,-2204 91,-85 218,-211 311,-294l1634 -1382c1791,-1736 2473,-3767 4686,-4875 1790,-4505 4615,-3930 4695,-7131 -3560,-470 -3392,3590 -7587,5822 2660,-5576 2751,-3074 5880,-6780l-2593 -4121c1808,-3217 1965,-3281 6492,-3471 3037,-127 6459,-119 9706,29l2690 -1237c-1975,-1185 -2814,-385 -4997,48 -4877,968 -8078,-662 -12306,267 -143,32 -333,87 -460,118 -124,30 -349,95 -448,120l-867 250zm99717 90344c1605,1499 94,1154 2033,1902 204,-945 708,-1061 52,-2585 -1302,-3023 -175,-880 -2076,-1420l-9 2103zm2249 -21018c-569,2980 -1735,4325 -1521,7830 207,3384 -501,5820 363,9289l722 817c1213,1557 1245,2237 2526,2546 -696,-1808 -2248,-4167 -1534,-5517l1650 3641c224,-199 431,-378 462,-1315 21,-637 -105,-1319 -204,-1991l2032 -607c-848,-7048 1166,-410 -453,-7580l1256 2244c773,1339 135,518 1191,1758 193,-2568 -821,-5234 -1991,-7004l-530 2780 -1709 -6162c1452,-106 806,852 1904,-20l-920 -2596c-295,-2020 -162,-800 -1020,-1477l-2224 3364zm-54739 -12938c-513,2277 -2069,6129 -3414,7999 -1090,-1847 -770,-1814 -1210,-4374 -19,-108 -79,-224 -93,-457 -13,-225 -36,-303 -96,-441 -2649,4124 1571,8579 608,10709 -1186,-3116 18,-3318 -4305,-4206 116,116 288,252 366,328l993 989c578,723 295,229 695,1103l2173 8673c-2261,-2853 778,-2950 -3917,-4090l593 1077c1086,2235 1446,4634 1481,7270 -2799,208 -2416,-220 -4567,1047 3499,494 8797,-48 12181,-30 4159,22 8771,-548 13732,-298 935,-244 626,266 802,-934 -4754,7 -14468,969 -17750,-1591 -1320,-5782 3664,-6314 4059,-11118 -840,1150 -864,1548 -1756,2519 -1938,2109 124,829 -2489,1586 914,-4732 -691,-5133 1127,-9588 1095,-2683 2600,-4466 2413,-6684 -673,49 -538,51 -1002,183 -50,14 -279,252 -317,148 -38,-106 -205,121 -307,180zm63075 -75353c-1681,5271 1027,655 -513,5089 -1105,3181 -1704,2190 -1739,6213 592,219 346,-382 77,900 -674,3225 -3379,5927 -3949,7456 -315,845 -170,791 -289,1630 -411,2897 -1363,2459 -1712,4195 -781,3885 1496,-713 -255,2792l-4008 5006c147,-6382 1800,-7703 -1100,-13184 -65,-122 -142,-281 -206,-406l-3254 -5331c-729,-1303 -549,213 -667,-2169 -2100,558 -4290,2934 -4588,5214 -490,3758 340,5987 -2248,7725 1072,4238 -1359,3977 -1938,7068 -729,3902 -207,1973 564,2816 1882,-3053 4781,-12199 5849,-14193 694,-1295 158,-517 1036,-1437 -183,3383 -684,2414 -1445,6093l-144 739c-29,94 -91,262 -125,356l-3668 11450c213,2416 -590,1037 756,2174 2856,-1324 2544,-5850 3056,-8795 801,-4615 2035,-5904 3172,-8939 817,3095 -648,-159 -243,2689 18,126 447,1058 570,1198l1221 742c-822,4096 -2081,9665 -3265,13303 322,-4659 3521,-12392 1381,-13122l-1477 3480c-558,5283 -2139,6867 -1042,10418 675,2185 258,-1987 520,1972 17,246 -120,1534 -45,2416 937,104 683,506 2275,-1132 -606,4412 -2679,7370 -3645,11309 -146,596 -283,1417 -441,1846 -495,1354 -63,773 -683,1085 285,1647 -424,1092 331,1840 3805,-296 257,27 3430,-2137l-1252 3541 3121 -641c1059,7472 -1269,11932 -5902,18535 -2935,4184 -1919,4966 -3333,9981 -624,2212 -2902,9037 -2994,9954 3032,-1700 3680,-7286 5010,-11083l-2028 11111c213,1533 -388,734 787,1452 938,-3896 1812,-7981 3298,-11355 1148,3481 -2254,6330 -536,14759 326,1596 -297,2476 -527,4433 2254,1693 1657,1005 2476,3752 536,531 1029,-829 899,2322l-86 4413c1140,-1207 -13,233 917,-1402 758,-1333 -318,-190 853,-1631 -422,-4123 227,-4907 774,-8840 490,-3521 -73,-6537 -121,-10150 -39,-2961 -943,-5297 -1378,-8514 -539,-3993 -1731,-4291 -3834,-6530 4433,-8219 5030,-6792 8255,-16530l466 -2872c505,-2777 1274,-8122 881,-10854 -203,-1405 -372,-3902 -806,-5417 -1113,-3879 -1986,-396 -1293,-5141 -146,-56 -394,-260 -453,-120l-1641 -487 1158 -6238c567,-1920 -677,-752 980,-1561l-521 5803c3577,-1055 2237,-3808 7498,-8402 -185,-2566 -50,582 1656,-2425 553,-973 718,-2254 1428,-3500 1591,-2794 1137,253 3301,-6483 783,-2070 1446,-3592 2054,-5173 558,-1453 1348,-4625 1571,-5193l2318 -13108c1297,-3040 1310,-1843 3402,-4175 1037,-1156 2237,-2800 2870,-3320 1003,-2208 2029,-2703 2330,-5012l-329 472c-181,193 -995,1136 -1551,1998 -4588,7124 -4656,4755 -7441,8432 -1180,1559 -2510,2961 -2720,4974 -119,1141 130,1401 215,3114 -179,-256 -1032,-821 -1321,-1258zm-4137 -21623c1888,-2954 175,-1448 0,-1742 -796,1257 -626,-1563 -420,775 111,1261 -359,351 420,967zm11154 -14034c2240,-287 1293,223 1382,-1398 -797,230 -1277,-111 -1382,1398zm89656 98968c252,-1324 528,-2675 731,-4004 -740,523 -983,799 -1617,1435 -410,410 -315,319 -278,-250 35,-539 75,-410 -65,-944 -257,-984 364,-1755 -1191,-363 -481,431 -667,826 -1009,1377 -197,319 -393,651 -600,963 214,58 1777,562 1954,480 179,-83 159,-437 789,-693 88,858 56,1250 29,2066 -7,236 252,-140 818,-19l209 66 165 6 65 -120zm54863 34378l142 -780c-216,-2696 559,-3048 -1678,-2289l192 3052 1344 17zm-101714 -97949c275,2322 1060,1680 1291,1836 448,-1496 604,-2784 -607,-4089 -582,835 -891,499 -684,2253zm-91892 -47982l2306 -78 -340 -3304c-1906,998 -1200,642 -1966,3382zm-622 59020c2439,-980 3698,-3643 2733,-6044l-2733 6044zm183274 65999l535 -1718c-551,-1975 -540,-1592 -10,-3499 -2168,-20 -2341,211 -1979,1733 334,1403 735,2509 1454,3484zm-15008 16661c479,-1523 506,-1540 304,-3811l-1498 -604c-900,2311 -1442,3566 1194,4415zm-5294 -1379l255 2034c2241,-59 2144,-1129 2408,-3252 -923,-1260 321,-395 -2005,-753l-658 1971zm-119408 -102049l-878 -2893c-2083,1229 -1812,2855 -2226,5654l3104 -2761zm133234 95419l-431 -49c-218,838 -995,3559 -1031,4485 -85,2108 690,2197 1647,2758 702,-1180 373,-5382 -185,-7194l981 200 822 -7609c-1762,679 -1969,-264 -2101,3210 -56,1461 251,2597 298,4199zm-38547 -18264c-510,2979 -810,1337 931,2641l1717 644c-1079,-6769 -314,-1213 -407,-6570 -1942,1412 -1479,1016 -2241,3285zm47646 9213l777 490c572,203 198,367 920,9l-678 -4854c-462,-2716 411,-1899 -2261,-2463 -201,2683 870,4421 1242,6818zm-4437 13563l805 3017 1621 -571c-378,-2989 -842,-3278 -583,-5964 190,-1983 346,-3207 400,-4928 -2045,1541 -1880,1401 -1721,4496 121,2377 529,2156 -522,3950zm-12511 3896c2869,-667 1682,1092 2396,-6332 323,-3356 77,-1232 -722,-2002 -1937,1373 -1936,5958 -1674,8334zm-84252 -78560c714,-833 1325,-11212 1095,-12294 -2623,973 -1979,2979 -1777,5892 135,1962 5,5124 682,6402zm103297 77989c290,575 543,1464 746,2091l994 2324c2062,-1339 1226,-785 1690,-3368l-1083 -4576c-1803,1585 -488,2539 -2622,1386l275 2143zm-173188 -67994l55 4672c2958,-2181 -1254,-746 3055,-5343l709 -748c18,-504 328,-2257 318,-2356 -255,-2539 664,-932 -1029,-1668 -2543,2026 -1380,5676 -3108,5443zm146561 63144c-272,1669 -946,2446 777,2446 92,-2036 1154,-3733 1928,-5669 373,-936 802,-1696 1118,-2644 1528,-4587 -173,-2821 -953,-3234l-2870 9101zm-151440 -62328c-620,3457 -1840,4301 -737,7788 2103,-1063 585,542 1192,-2196 45,-204 451,-1544 511,-1687l734 -1388c71,-119 221,-300 340,-443l-137 -1717c1966,-841 1295,-250 2156,-2257 -2591,-1513 -1061,291 -4059,1900zm91153 5863c-161,1211 -259,2359 -408,3535 -117,924 -813,931 367,2429 1215,-2148 398,-3031 1550,-4461 716,-8743 2192,-10145 -419,-11289 -1227,4944 1138,10039 -1090,9786zm-96241 -80271l4787 431c532,-1438 986,-1723 1200,-2794 530,-2654 -575,-2996 -807,-3317 -2541,1804 -995,1647 -1730,5011l-2156 -649c132,-1841 1068,-1973 243,-3326 -1385,1452 -1903,2672 -1537,4644zm181910 142496c753,-4309 1579,-3668 632,-8189l-2404 42c-110,1582 -179,5940 -158,7380l1930 767zm-147214 -110371c-175,2760 -1257,6242 -1994,9221 4297,-1067 1557,-5290 5593,-9594l-2758 -433c-77,109 -787,611 -841,806zm57221 39039l-84 9451c725,-826 750,-141 1272,-1724 165,-499 114,-1480 81,-2237 -144,-3381 -211,-9846 2129,-12426l-97 -2532c-2938,245 -1648,780 -2022,4631 -198,2045 -456,3363 -1279,4837zm2371 -37042c412,1509 1053,6007 1334,7888 416,2791 -293,5553 1498,8193l-144 -3331c-46,-4016 -883,-4044 -762,-8495 42,-1528 306,-2816 273,-4299 -83,-3842 -92,-2549 -1656,-3064l-543 3108zm-25837 21579c1170,3482 322,9840 2300,12144 364,-591 1063,1268 595,-2580 -193,-1586 -1470,-3600 -930,-8843 -705,-701 -398,434 -855,-1668 -456,-2100 362,-3203 -1238,-5798 -983,1570 -439,3753 128,6745zm26638 23963c-128,-895 -139,-6195 -5,-7265 312,-2513 1324,-2841 1413,-6095 -828,-651 921,-764 -1065,-494 -734,2372 -1693,7179 -1682,9607 15,3678 -1755,5972 73,9396 1408,-1346 1269,-2726 1266,-5149zm79446 44929c545,3452 1050,1822 314,5083 -404,1794 -521,3223 -967,5071l613 746c-1372,2690 -823,2 -1126,2037 -312,2089 1199,2175 1204,2179 555,-973 85,-206 540,-1266 660,-1534 -302,508 394,-960l518 -911c-921,-3573 -298,-4432 423,-7665 358,-1606 294,-1293 243,-3265 -94,-3639 -293,-2200 -980,-2462 -1374,-31 -1771,262 -1176,1413zm-175078 -66801c1646,-806 665,131 1747,-1517 2394,-3644 1852,-4075 2691,-7586 926,-3875 2694,-5953 4134,-9678l-2541 243c-922,4069 -1146,6335 -2662,9555 -890,1892 -3301,7134 -3369,8983zm80796 7870c12,6976 -2426,9893 820,16046 90,-152 205,-345 250,-468l664 -3543c61,-1426 -162,-2564 -252,-4078 -274,-4637 445,-5970 -1482,-7957zm88498 75248c1673,139 878,-1229 1101,-3435 120,-1185 297,-2785 487,-4382 115,-1334 705,-3131 -16,-4691 -2982,210 -3164,2034 -2532,4750 633,2722 -18,4452 283,7275l677 483zm-71070 -94038c408,387 185,1178 1343,2140 -56,-3567 -710,-3654 -524,-11851l-43 -11881c-1739,33 -774,-661 -1778,351l1002 21241zm-6698 -7116c-1171,1913 -619,3053 -834,5378 -266,2879 -243,3888 1715,5090 407,-3459 -1297,-2829 -1,-6574 2012,3080 406,3085 1960,5073 930,-1836 800,-12000 -1122,-14029l-277 6942c-961,-2115 260,-1167 -1441,-1880zm8041 -15031c-233,2703 763,22410 2085,26431 549,-583 1400,1118 635,-2921 -1108,-5860 -1576,-21444 -656,-26327l930 3355c37,1328 -208,2157 -309,3419 -282,3523 897,19298 2106,21789 2219,-139 180,-10106 179,-12094 -4,-5324 -45,-8628 -815,-13710l603 1021c1111,2565 1959,8398 1923,11480 -35,2917 -645,10327 1475,12565 968,-1987 -656,-2975 1215,-4888 1808,3388 -519,2577 2189,4120 84,-2506 538,-6541 -368,-8365 -3669,915 471,1126 -2802,2332l99 -7695c4834,2180 1060,2751 7468,8464 -1649,1645 -732,-642 -2736,900 429,4836 5157,4215 6912,10342 1378,4806 1204,11031 5420,12133 1651,2940 3570,2432 4170,6502 475,3222 -747,1339 1752,4629l260 346 1111 1468c1176,3218 807,1659 2776,3775 1523,1636 1270,1489 3194,2848 2327,1645 4690,3774 5820,5617 2477,1913 3151,3568 5093,5335 1340,1218 5573,2895 7603,3279 4407,1426 13657,5000 18067,407 -2175,-132 -5238,339 -6799,23 -2922,-590 -1814,-1436 -3825,-2246 -1642,-662 -3373,-249 -5457,-686 -1576,-330 -3227,-1143 -4571,-1582l1686 -357c2303,-11 3608,1203 6279,-380 -2547,-1532 -5072,-901 -7939,-3643l722 -451c652,-436 1093,-699 1379,-841 107,-149 237,-324 396,-529 -4837,-1624 -7792,-3601 -11697,-5261 2143,431 4044,1617 6127,403 -1703,-1044 -2937,-1600 -4798,-2918 -9822,-6954 -8894,-6295 -7990,-13907l255 6353c901,-41 1834,-238 2055,-970 68,-230 210,-290 327,-426 564,711 339,-541 1214,2030l2547 -1531c2460,-779 888,551 2918,-1261 783,-1944 -413,-6632 1321,-9896 1069,3043 -674,4400 -193,7955 517,314 -594,946 2079,372 1475,-1871 607,476 2695,-979l91 -6054 122 -547 1170 5742c878,-116 1384,1113 1081,-3531l1171 2170c1126,1479 -401,575 1599,1356 803,-5034 -1272,-12027 1512,-16683 681,4332 -1638,11669 102,15441 1911,-664 933,-1485 870,-4012l1272 -16153c211,1395 629,4028 767,5464 369,3832 -573,2192 -1033,4800 -331,1879 477,3333 390,5932 -78,2344 -960,2689 1159,3369 366,-2939 707,-3320 213,-6335 -683,-4162 -580,-1608 541,-4910 1222,-3599 -197,-8230 794,-11939l-302 -436 -359 -449 -2085 2281 -571 -3227c-1605,344 -2038,442 -3774,661 627,-1878 1469,-2396 -1081,-2364 -82,155 -111,377 -139,509l-223 1058c-1773,10709 3100,10411 -689,22397 -145,-238 -208,1 -340,-1156l228 -11405c-264,-7121 822,-10576 -1709,-11791 -1559,2527 -264,4402 -1090,5752 -362,593 -531,-1312 -536,-1411 -36,-743 20,-1412 57,-2146 18,-322 -190,36 -421,219 -697,550 -1216,661 -2053,876 -436,112 -170,-340 -89,-674 112,-562 208,-1130 312,-1695l-1486 -161 -184 518 -976 4652c-117,-161 -208,-388 -256,-541 -818,-2546 -302,-1286 -180,-3751 143,-2920 684,-1524 -1082,-2447l-1277 5558c-503,-2861 -1602,-1144 -1928,-2124 -71,-214 -333,-79 -495,-135 151,-76 367,-140 465,-201 2206,-1395 2740,-2296 815,-4013l-2346 36c-1792,2370 -1181,2178 -3733,4178 675,2325 1103,5003 239,7707l-962 1477 440 -4398c-2248,2250 -1890,4975 -1814,7039 -628,-872 -1257,-1744 -1885,-2616 -566,-785 -1131,-1570 -1697,-2355 -1789,-2483 -3617,-4971 -5381,-7468 -366,-517 -499,-654 91,-132 2782,2461 3763,6399 7555,8132l162 74c-441,-2665 -2574,-4817 -4353,-11013l3489 2762c1129,761 818,946 1309,1837 738,1341 81,1072 1437,1722 -30,-1382 -584,-2487 -1379,-3584l-879 -999c-2583,-2639 -3655,-4406 -5316,-7696 -165,-330 -47,-249 3,-619 86,-638 -361,-548 800,-645 398,-34 345,207 508,615 792,1986 3066,4393 4544,5973 1348,1442 1275,1253 2831,1830 -1070,-1748 -762,-955 -1892,-2102 -1093,-1447 -2193,-2890 -3280,-4340 -967,-1566 -525,-1234 -2141,-1923 -300,-128 -229,-115 -304,-544 -119,-681 -161,-1467 -273,-2191 -48,-308 -82,-569 -113,-878 998,542 666,489 1415,1093 1209,976 1960,-291 1873,-1494 -266,-2176 -2962,-5613 -4280,-7430l-150 -215c-53,-76 -101,-152 -152,-230 -1477,-2388 43,-3153 46,-3156 719,2398 1117,3605 2754,5305 2504,2599 2820,2038 4104,3136 2316,1980 -738,1594 2627,2010 -2347,-6340 -6062,-6804 -6425,-11115 1427,1485 1773,3242 3260,4172l4773 2494c-741,-5232 -1372,-4464 -5070,-6973 2013,-1020 5992,2258 6996,4464 501,1101 1535,5429 6802,5764 -261,-1560 -124,-1295 -1137,-2665l2413 -861c-427,-2588 -1484,-2915 -2453,-4999 1943,1164 2838,2360 3100,3706 2375,-117 996,839 1883,-528 -349,-769 -1524,-3956 -1629,-4567 4011,1728 6145,1554 11309,1372l2849 111c123,25 327,118 420,143l720 380c2444,635 3539,964 6306,137l8114 -2258c-26,-2 -1270,18 -1301,19 -5299,253 -7211,2491 -9940,846 -1902,66 -5179,-1468 -6717,-2377 -3512,489 -8904,-1397 -10878,-3394 -2136,-2160 -3344,-7455 -4059,-11052 -1969,-2668 41,-3889 -3270,-4884 1103,5205 3524,10665 4830,15356 -3749,-2026 -3606,-8725 -5552,-12660l-720 -1084c-35,-198 -177,-231 -287,-325 -476,2193 1553,5673 1998,9039 355,2681 -171,2145 -512,2544l-1295 -3771c-1157,799 -479,8 -1196,1891 -23,61 -81,443 -96,363 -15,-81 -33,253 -87,366 -4867,-357 -5432,-780 -11524,-3806 -5915,-2937 -3782,-4054 -6955,-7065 4058,1283 258,4370 5969,5252 -492,-1423 -1038,-1968 -1775,-3041 130,-53 330,-68 413,-80l414 -73 2135 -197c-772,-3805 -1497,-2961 -2531,-5415 -4059,83 -3174,1455 -7236,1798 221,2247 1031,666 -76,2595 -4413,-3734 -3200,150 -11145,-7735 650,-442 -626,75 1306,-652l3413 -857c2945,-996 5907,-3659 13625,-5021 1278,-2206 3927,-923 5205,-3766 -1699,120 -3417,1094 -5144,1836 -1840,789 -4228,1136 -6733,1526l-7022 2261c-4849,1788 -7003,2810 -9635,-1132 -4773,-7147 -1523,-2219 -5832,-7514 -3900,-4794 -7250,-11125 -9579,-18249 -300,-1012 -1596,-3462 -2468,-4320 -1715,-1687 321,-187 -2493,-1140 -973,-330 -2089,-27 -1835,-1183 -1796,360 -874,-720 -3166,2846l-6079 8654c-1115,2581 -4137,6084 -6620,9625l-7983 8187 -11614 9833c-5086,3425 -15471,-437 -17195,-2585l-6284 -3777c-4157,-2255 -2512,-700 -5464,-4213 -2085,-2481 -3664,-1577 -4759,-4997 -329,-760 -2849,-6668 -2972,-6786 -189,-181 -1988,-435 -2325,-415 -462,28 -470,61 -974,34 -176,-9 -725,567 -791,709 -190,409 -21,596 -275,1038 461,28 632,-184 1103,338 293,325 1517,2583 1833,3135 404,707 809,1413 1214,2120 1448,1433 776,1076 1536,2593 1015,1875 944,1096 2798,3344 2168,2630 1249,1282 3665,2561 3675,1519 6667,5076 11514,6620 5326,1695 5936,4067 13124,2729 -96,163 -248,345 -340,455 -7221,8687 -14263,3151 -16790,2768 -3854,-583 -2715,456 -6016,-1916l-4159 -2131c-146,-59 -293,-127 -454,-173l-3773 -100c-467,2034 -1651,6669 21,8348 2071,-3792 1034,-5245 2013,-7507l963 3488c115,1810 -119,2750 -367,4499 2459,-1920 777,-2806 2993,-4665 136,1442 -60,2367 5,3303l657 2311c330,-734 1285,-3972 2193,-4495l115 5732c1629,-1891 1142,-3125 1915,-4814 323,-705 276,-822 229,-830 72,-40 277,-188 780,-657 -63,2408 -596,3087 -766,4792 -186,1886 68,2132 998,3096l827 -1201c795,-1676 627,-4326 1801,-5686l-223 7163c-6173,2060 -1362,3369 -14614,5993 -5821,1151 -10596,3496 -16324,4902l-2511 1214c4524,131 18227,-4038 23404,-5785 2520,-851 5182,-2098 7349,-2708 965,-1904 3679,-2802 6359,-3568 581,-978 11983,-7760 14117,-8995 1083,-627 2734,-1530 3758,-2309l9195 -7105c-1815,4808 -17601,21187 -21501,24535 -1650,1416 -2675,1176 -3808,2792 3127,-520 2380,-200 4574,-1997 1526,-1250 1868,-1738 3611,-2296 1601,-2580 6625,-7277 8746,-9041 1670,-1389 2833,-2392 4751,-4367 1899,-1957 1494,-2563 3917,-4537 2010,-4920 3756,-3973 6291,-7710 2906,-4285 3000,-6427 5375,-8263 185,-384 3207,-4895 4013,-5998 2150,-2940 2291,-3317 5796,-4756 -45,-3358 1089,-7212 3990,-9301 2364,540 4493,2718 4673,4866 2113,2279 1359,3892 1037,6420 -964,7571 2024,9281 2959,12425 729,2458 1407,4348 2006,6764l398 24c1313,3483 1330,3313 3353,6200 2152,3071 14,8703 4084,19963 1196,434 279,230 1039,65l3321 7769c-259,100 -434,190 -548,268 -99,-148 -315,-353 -735,-623 -108,-70 -758,-852 -960,-977l-5 3079 -2319 83 255 2734zm-10309 55524c2240,-1573 2081,-4232 1155,-7270 117,-3850 2018,-6211 1228,-10603 -484,-2691 -148,-7292 -1525,-9418 -1766,1366 100,8804 -315,13353 -761,8355 -2110,3232 -543,13938zm37539 28002c2648,-3 2330,-3321 2870,-5407l521 -1367c773,2094 -591,4342 -517,5636 99,1736 -200,670 659,1706 809,-1393 1416,-2044 1828,-4253 78,688 153,1380 236,2067 780,-97 1554,-190 2332,-302 195,-1294 337,-2661 499,-3965l19 -159c-3708,-1339 -982,-385 -2486,-2773 -1412,-2241 -588,-684 -2215,-1559 393,-2078 814,-2932 -1340,-3025 -474,4189 -2168,7644 -2406,13401zm-50678 -44379c456,2852 270,14314 2461,19448 1210,-1774 563,-19723 455,-21026 -198,-2379 -997,-4215 -458,-6341l-2549 -407 91 8326zm144231 70736c-451,498 -346,1250 -438,1518 943,1085 763,688 1856,1821 -98,84 -271,83 -294,253 -224,1668 -760,-2299 -538,1308 169,2748 1892,3643 4573,4415l1218 -1437 4129 -1188 -204 -1659c-1027,-359 -1813,-1250 -2798,-2230 -1908,-1900 -1501,-634 -1968,-2702l-4824 -1908c464,1888 765,1577 542,3123 -246,-1945 213,-308 -1254,-1314zm-121163 -48872l-359 2154c2876,-799 1326,195 2782,-2677l-768 4129c4302,-1852 3788,-3170 3347,4863 2214,197 2744,-368 4474,-975l12 -1629c-1007,-1157 -417,-593 -845,-1784 -9,-24 -298,-892 -351,-1042 -39,-111 -106,-280 -148,-396 -1510,-4156 -8,-1283 -2424,-3545l-3070 -5263c-24,-107 16,-2000 87,-2626l-1810 -373c33,1308 -68,9129 -927,9164zm-22545 2422c-735,-8833 -2627,-14223 -1648,-23679 241,-2274 763,-4766 -568,-6437 -983,1136 -135,-629 -510,1144l-638 6520c-89,2858 -151,6065 -451,8865 -724,-2310 151,-2973 -2269,-3825 -408,3413 329,8281 1134,11631 712,2956 -308,1810 1424,2926l-102 -4917 3628 7772zm-22821 -60362c49,-175 98,-370 144,-587 1158,-1228 2124,-2621 2927,-3494l1185 -2775c542,-1074 777,-1648 1178,-3115 2326,-8517 2229,-5837 4688,-12318 765,-2017 1092,-4314 1809,-5992 48,-3571 53,-5840 1047,-8729 383,-1113 930,-2094 1206,-3122 693,-2574 1139,-2295 -458,-3652 -1452,3686 -7408,10715 -8664,12768 -392,640 -371,928 -802,1682 -2404,1584 -1488,3554 -1357,6201 -1662,-2555 -352,-1802 -2407,-2002 -1593,2016 -2337,3268 -4679,4973 -3082,2244 -3162,4721 -201,5664l807 -3912c492,3263 880,3071 1771,3574l1182 -3541c48,142 260,822 328,1008l2020 -4564c410,929 146,0 365,1604 566,4135 -1595,3301 813,4581 1061,-1390 1062,-10416 1909,-12379l-429 12404c-407,2150 -1433,2764 -1838,5777 -471,3503 -518,3810 -1567,6626 -628,-391 -881,-446 -977,-465l0 3785zm60408 64011c-740,6347 -2959,6228 -1250,9232 2233,-621 1452,-1549 2334,-2369 -745,3532 -829,4979 3053,7055l418 -2309c1850,1205 196,722 2322,1903l2897 -5663c-386,3747 -1843,4790 -1101,6928 2449,-679 2958,-5436 4055,-10371 -1519,-464 -1761,1038 -1992,583 -77,-150 -316,202 -480,292 631,-3977 666,-2992 -434,-5202 -675,-1375 -676,-1643 -1020,-3047 -62,-252 -133,-502 -202,-752 -150,-16 -1348,-272 -1158,227 86,228 -413,-193 -433,-219 -337,-445 -453,-2514 -437,-3176 43,-1706 246,-2092 -1046,-3456l-5526 10344zm31205 28601c-1037,3336 -3097,3900 -4672,6265 -3139,4713 -4100,4624 -3759,6828 5327,-1643 7881,-12508 12374,-14687 -2436,5817 -6498,8412 -5225,11426 1288,-879 2800,-2818 3627,-3737 -632,2259 -1747,3631 -591,5689 2830,-1889 4777,-9357 6678,-11896 666,1059 935,-1991 398,2285 -339,2695 -5176,7217 -5949,11505 5067,-734 4824,-3548 7803,-8739 -86,2001 -890,5413 -1405,7270 -865,3127 -1893,3593 -1789,5380 113,1958 -640,-111 554,1331 315,-904 325,-1157 865,-2105l1130 -1500c48,-220 216,-238 332,-349 869,-4545 3088,-5167 3633,-11294 555,-6248 -3860,-3300 -900,-10990l706 -1854c1038,-484 404,-182 1540,-1221 -674,-2094 766,-974 -989,-1689 -4945,5083 -4185,11208 -9102,11959 1074,-2357 75,110 997,-1583l1532 -4413c1079,-2856 2760,-3172 1392,-5960 -2967,1070 -5424,10048 -9180,12079zm-122612 -91850c-2384,2174 -4162,3793 -7992,5567l-888 8283 -1972 2458c-380,-2954 299,-2021 1000,-4819 363,-1449 656,-3586 39,-5015 -1179,894 -856,899 -1796,2793 -3267,6585 -4289,10298 -6934,14895 -943,1638 -2602,4476 -1592,6071 4436,-7134 4108,-8089 6611,-13823 -7,4201 -613,4051 -1566,7698 7887,-2324 4555,-4836 7705,-10562 588,439 369,12 941,855 988,1458 719,2179 986,3190l502 1417c2994,-2471 270,-3987 3816,-8715l-612 -3204c-255,-900 -28,-516 -512,-1243 -352,2384 -563,7417 -2938,7999 1129,-3505 1750,-6161 3242,-9411 1589,1580 -142,1623 1662,650l806 3534c3294,-3228 328,-4841 5716,-4545 -79,-186 -398,-936 -399,-1058 -40,-3544 -1057,1760 -21,-858 434,-1096 -439,-283 1441,-1009 -561,1429 -756,2627 -1336,3795 -1449,2924 -3554,6565 -2365,10440 102,-104 254,-420 294,-325 286,668 2054,-4526 3439,-5929l383 4509c2054,515 1797,-2482 2008,-4389 304,-2762 812,-4354 1129,-7322 708,-1361 642,-1139 -141,-2375l-1904 2635c-251,-3617 810,-5562 2927,-6903l815 -3013c-3782,235 885,-185 -4170,2349 -1450,726 -693,-1210 -1933,1594 -157,355 -371,1903 -502,2515 -2151,-2270 719,-1248 -2563,-1772 -918,1168 -2119,2662 -3326,3043zm58114 -39972c-183,994 -357,2836 -497,3422 -611,2547 -178,-684 -623,2144l-1194 12041c-785,1663 -1334,5310 -2031,7722 -971,3357 -264,5926 -757,9279 -1783,3166 -4564,4775 -5421,8133 -927,3630 -531,7306 -2145,10694 15,2623 528,4985 1656,6805 760,1227 857,950 1727,2482 717,1260 705,1500 1564,2850 1750,137 99,-583 1722,1894l1297 -1458c56,-68 177,-232 271,-343l-21 -5222c254,1866 237,3494 1948,4994 676,-4171 -139,-6624 -1033,-10125 1652,449 1307,1359 2513,2410 -50,-4401 -581,-6261 340,-11082 3496,-18316 5,-12157 130,-19302 41,-2360 643,-2059 595,-5500 -19,-1405 -651,-4294 760,-4231l345 -5736c964,-5213 -216,-4992 393,-7014 -169,-2135 -725,-2766 605,-3524 -263,-810 -421,-1389 -730,-2130 -726,-1739 -247,-603 -734,-1409 -1044,990 -1098,-1899 -680,2206zm102948 132526c92,66 205,102 228,251l784 1332c1210,2184 -550,1165 1483,1754l-341 -5172c1839,2762 1062,2823 4245,4063 -265,-2208 -700,-2148 -1160,-4246 -357,-1629 -486,-3407 -786,-5165 160,81 391,48 459,279 66,223 350,210 434,281 1766,1495 1054,1275 1386,2699 292,1250 1066,3254 2107,4161 971,-1344 -76,-3524 -90,-6488 4809,4313 3980,4090 6555,2509 -490,935 -905,457 -362,2193l1050 1309c60,58 249,144 345,247 4248,676 7217,509 10911,2257 -387,2741 -935,1630 -1607,5217 -845,-1524 54,-1558 -2675,-1085 -1514,263 -2530,1617 -3535,2271 -921,-1805 74,-644 -2088,-1113l-787 2717c-1015,-2111 218,-1197 -1645,-1977 -3068,2169 -1291,2417 -3650,5593 -567,764 -2620,1738 -2212,6813l896 4259 1470 -2058 1602 2428c3949,-55 148,-345 2863,-863l1113 1395c2816,122 887,104 1531,-1130 -1952,-747 -2818,-5022 -3207,-7900 2903,2242 2713,5241 4085,7021 1268,1645 626,1025 2395,1629 -1166,-2622 -3678,-6924 -3567,-8731 94,-1510 -271,-182 340,-1210 1222,3264 1359,2661 2991,4420l1321 1782 127 -4422c821,1226 2407,4696 3702,5165 387,141 1142,106 1539,-5 39,-589 357,-1564 683,-2057 893,1556 1176,2413 2844,3377 211,122 417,225 636,332 636,-800 421,-806 997,-2302 -916,-803 -1905,-2403 -1499,-3340 1894,2466 -370,1354 2779,2899l-320 -2948c-15,-159 -30,-334 -42,-486 -11,-147 -6,-328 -16,-467l-259 -1799c-20,-38 -1038,-1081 -1199,-1283 704,-651 986,1260 2055,-983 683,-1435 409,-1782 176,-3263l-606 -3280c-1956,-1355 -753,-847 -2059,-2677 -1172,-1644 -1306,-1444 -2261,-3151 -177,-97 -872,-437 -1016,-485 -910,-303 -700,-237 -1867,-459 -3372,-642 -8045,-2725 -9716,-4315 -2737,-658 -1271,-198 -1827,-1220 -1066,-732 154,791 -1396,-1493 -413,-608 -474,-823 -844,-1573 -588,-1195 -1151,-2340 -1698,-3489l-449 -547c-2284,-3207 -59,-2052 -3183,-4522 -124,-98 -979,-804 -1010,-828 -3247,-2439 -14731,-1766 -14852,-1715l2200 981c7478,3165 11317,-821 13057,3876 -3414,3551 -844,-2898 -5367,6636 -13,27 -532,1062 -659,1249 -1854,2718 -1025,63 -2047,2229 -1010,2139 388,1665 515,4623zm-128979 -60834l-610 7346c-3904,3181 -2989,8652 -6411,13563 -2202,3160 -705,1692 -1285,5155 -1141,2372 -1631,4261 -715,7186 298,948 922,2375 1204,3217 826,2464 1350,2291 -406,3339 378,3226 928,9429 -2661,10314 -635,1341 -211,906 -1579,1508 -2341,2495 -787,2551 -2188,5878 -1302,3090 390,657 -2027,2312 -1345,920 -1570,1123 -2631,1928 536,6473 3812,9636 4130,12107 1882,-722 632,-87 606,-1631l-222 -1695c-4,-108 15,-345 14,-433 -1,-87 -3,-292 35,-432 820,2811 2062,5391 4257,7241 1851,818 287,228 659,-449 -2071,-1714 -4986,-7805 -4359,-11494 481,1685 1693,4208 2731,5355 3845,4251 1253,3002 3396,4163l-450 -2878c-1913,-9806 -1031,-3374 -1366,-11000 -71,-1629 -743,-1909 -973,-6795 2532,2042 285,-926 2246,5728 532,1808 1039,4378 1693,6060 769,-914 1534,998 -86,-6344 -499,-2260 -1078,-4659 -497,-6470l978 1686c118,301 420,1526 519,1915 349,1372 744,2629 1233,3559 1140,-2362 -1345,-7824 -1018,-11348l1522 514c1470,3199 406,5093 2761,5972l-689 -9853c1557,2427 871,4656 3771,5632l-1173 -3842c-639,-2773 395,-1815 -158,-4228 -273,-1191 -1118,-3004 -1498,-4730 2823,2603 1017,3693 3366,4636 98,-3793 -2273,-6248 -2278,-10855 1142,1519 442,1935 1843,2472 846,-2643 448,-2654 -3,-5212l2246 -607 -284 -5545c1861,3124 -593,2390 4629,4149 134,45 359,100 525,181 -350,659 -726,1581 -852,1826 -67,130 -151,289 -221,420l-2458 4208c-1440,2475 -2535,3022 -2323,5026 328,3091 -53,869 803,2013l1502 -524c610,-97 -38,1398 1095,-518l236 -1779c10,-1767 -607,-914 96,-2592l952 3192c59,138 145,363 262,518 1906,-1057 1338,10 1097,-3339 1891,1669 64,1222 2195,999 172,-4745 368,-445 997,-2953 253,-1014 -142,-1863 172,-3788 1768,1675 401,782 2643,1930 -1299,-8028 -427,-2131 1339,-5853 -339,-3015 -378,-8155 -1243,-10185 -1631,-3825 -4341,-393 -2762,-8505 845,1585 438,1375 843,2554l1608 2212c92,-2089 -2220,-8061 -1381,-15795 -1625,-2486 -1777,-7370 -1251,-10679l-7560 5533c-6629,6250 -259,6739 -4586,8804zm81134 -26532c-406,-1315 -929,-3008 -2633,-2784 -840,110 -581,-33 152,967 701,957 792,1138 1904,1692 175,79 397,210 577,236l0 -111zm8162 -5492c-563,-1813 -1483,-3529 -3085,-4434 -1316,2867 930,3814 3085,4434zm63631 25979c285,2172 -115,1863 1833,2281 -524,-1071 347,49 -546,-1111 -1438,-1871 -396,-546 -1287,-1170 -390,-2244 -1702,-6535 -2425,-9096 -240,-850 -892,-3409 -1283,-4212 -452,-918 -570,-1331 -1563,-1713 -704,-270 -1178,-664 -1775,-1102 -987,446 24,-120 -616,630 -241,283 -416,443 -601,769 -68,120 -579,177 -798,-1 -322,-262 -1328,-1795 -1730,-2282 -1618,-1963 -3512,-3569 -5867,-4570 487,1407 573,1884 1724,2910 649,578 792,917 1158,1678 -3285,-701 -961,-357 -2370,-1391 -1083,-796 -1166,143 -1318,-276 -67,-188 -275,-472 -386,-721 -378,-848 -676,-1839 -987,-2723 -443,617 -1426,1870 -1703,2490 -667,1810 -1152,2796 -2278,4359 2538,2625 2500,-853 3405,4911l-1681 -3077c-2155,555 -65,-415 -1159,760 -32,33 -613,1120 -748,1316 -623,-943 -590,-782 -1500,-1507l577 1806c-787,923 -396,-58 -964,1665 -249,757 -198,1165 -226,1894 -74,1879 18,1756 -306,3719 268,921 -2875,15845 3335,18635 -65,-1084 -424,-1943 -442,-2594 -121,-4260 1574,1836 -281,-6825l2593 4809c804,-909 573,56 556,-1527 -3,-273 -227,-1515 -274,-1977 2341,781 1824,246 2329,-151 -749,-1245 -628,-1934 -1204,-3580 1240,1305 1100,1362 1839,3585 1483,-1055 -100,248 787,-953l1073 -1541 1695 931 566 -1735c2383,1444 -210,1448 3664,412l227 -2402 -6913 -11234c46,-2888 -374,-2655 -2015,-4011 2563,95 1217,399 3169,2535 4470,4891 -859,1394 3801,7083 1042,1272 1727,2632 2485,3888 4,-7 1768,-831 -524,-3992 -1744,-2407 -950,-317 -1770,-3776 -1806,-7627 -3007,-3611 -2836,-7423 2398,892 3028,4922 4390,7181 3098,5138 2842,7005 4630,8323 -638,-2504 -842,-1518 -1013,-4389 114,119 257,160 302,390 45,226 229,300 290,389l2102 2674c142,129 348,263 470,367 126,107 325,251 495,367 -405,-2489 -1677,-4714 -2637,-7304 -464,-1257 -1884,-5104 -1467,-6263 958,2470 1841,5121 2719,7632 502,1431 1001,2862 1507,4291 54,153 108,306 163,460 1443,2717 5,893 1609,1489zm54696 7700c-665,-1983 -220,-1763 -2153,-2125 -173,1993 122,2018 2153,2125zm-32165 -10696l469 -670 -189 -1982c-2135,-1272 -93,-1054 -2189,-544 -644,2266 126,2359 1909,3196zm8422 -2538c242,1169 303,2210 817,2974 1205,1790 347,694 1906,944l-2340 -5418c-607,736 -1193,215 -383,1500zm-7156 -251c1625,2436 997,3240 2714,4889l-946 -4643c-547,-2336 -231,-1257 -1209,-2002 -575,781 -570,-936 -559,1756zm-19622 -2312c585,822 1532,2058 2186,3003 177,255 745,1334 1068,1492 1871,912 165,1227 1248,-718 -1699,-1112 -1890,-3064 -2542,-4220 -882,-1565 -404,-722 -1208,-1419 -452,770 -272,-621 -752,1862zm68209 14558c196,-3528 -1722,-5007 -5301,-4082 -206,4218 1922,3116 5301,4082zm-10202 -1209l-183 1046c-2300,-276 -5868,-998 -6398,13 -1554,2965 2825,1691 2826,1691 1469,33 405,-86 2467,699 613,-584 62,-329 1065,-863 24,-13 1328,-479 1407,-501 1105,-311 1913,-348 2967,-838l-4151 -1247zm-35993 -10791c1008,-383 2619,4142 2671,5637 3571,594 950,419 1848,-777l-522 -4520c-113,-168 -728,-1100 -995,-1518l-808 -1420c-2808,-152 -2155,160 -2194,2598zm-63773 19937c671,-4933 -766,-8129 -212,-13257 433,-4020 765,-2507 -384,-4548 -1594,2233 -667,1214 -742,5156l26 9767c-173,2885 -651,2501 1312,2882zm40693 -14910c3947,502 1221,453 2081,-774 -1567,-2064 -2147,-1982 -2824,-4636l-2207 -7237 -2328 176c358,2043 1286,5357 2051,7041 1544,3402 732,3629 3227,5430zm72251 -11790c-980,384 -5993,682 -7674,896 -5049,644 -3746,-714 -7748,-1106l-1040 3101 9173 -54c120,-78 304,-402 363,-294l1458 -1391c8411,1231 5701,-2309 12332,-686 -559,-1478 -47,-892 -761,-1820l-6103 1354zm-116795 26195c2911,-2906 28,-6674 328,-9669 159,-1573 3174,-9157 -109,-10105 -813,1574 -516,2738 -423,4591 198,3977 196,2254 -933,5395 -918,2555 -137,8455 1137,9788zm5620 1559l1888 75c699,-110 2514,-625 2572,-625 813,-4 -142,-116 844,271 23,10 698,373 834,402l2622 -216c-490,-1236 -348,-786 -745,-1486l-3507 -4231c-10,-467 53,-1475 -46,-1871 -708,-2815 521,-965 -1363,-1856 -2178,3370 1227,4041 -1130,7314 -520,-2508 -881,-4504 -688,-7234 195,-2758 968,-5316 -2268,-5846 826,3988 1260,1428 902,7061 -215,3369 949,4324 85,8242zm20426 -49111c1632,1278 4881,3157 7245,4148l6279 2834c141,64 305,120 442,189l1625 1053c1989,-253 6077,525 7764,1812 1663,126 2423,700 2423,-724 -1970,-1219 -2112,-1345 -4654,-2041 -1673,-457 -3337,-672 -4454,-1665 -2362,-870 -9288,-4171 -11359,-6110 -811,-760 -524,-324 -783,-1134 -2033,-983 -5172,-2964 -7148,-2876l-6330 867c-86,31 -270,106 -394,180l5982 168c1505,2333 633,2068 3362,3299zm9600 28353c-2454,-1951 -3140,-4699 -3752,-7616 -55,-257 131,-53 298,73 2032,1545 2858,4931 3506,7295l54 195 -5 103 -101 -50zm87988 -5921c-467,5004 1084,1199 -1699,6003 -481,832 -499,1354 -894,2274l-2805 -658c-1613,3856 -1267,2531 -4527,3945 414,2792 3519,5559 6381,5250 -9,-225 -267,-1413 -254,-1547 207,-2074 -336,-712 599,-1815 2066,1950 1600,2739 4088,3157 1605,-2298 -25,-447 768,-2416 741,434 3385,2816 3395,2824l2070 -2515c2300,1103 1509,1448 3723,2165 -333,-2580 -2574,-4518 -3578,-6830 3539,1007 910,545 2897,2571 1818,1852 1339,-6 3069,2869l489 -1617c9,-41 37,-220 43,-253 7,-31 1,-167 35,-241 1368,1105 1878,1232 4040,926 -2328,-2683 -4933,-2243 -5548,-5811 -1943,-672 -1920,-1558 -4049,-3150 -1987,-1485 -2262,-845 -2715,-3619 -1758,-1119 -1330,-616 -2284,-2611 -1881,172 -2017,356 -3244,1099zm-61564 -13977c-126,71 -316,122 -408,149l-4217 882c-2899,649 -2517,241 -2988,1762l1009 -393c1983,225 3637,-123 5857,-659l12363 -759c2870,279 5210,-698 6342,858 396,2916 -112,6733 -459,9943 -574,5305 -4017,4890 -4861,5456l510 5561c1919,1486 1635,1045 2408,3268 1396,-351 1221,-575 1579,-762 142,-74 318,-173 464,-250l1252 -676 837 2134c26,66 96,229 138,347l1491 -293 -2136 -6756c722,1398 3513,5678 5146,6761 -503,-4104 -3445,-9470 -4991,-13640 102,126 223,180 263,410 10,63 2420,4974 4522,6006 1942,953 4202,892 5397,-1174l918 -2223 4825 896c735,-1761 737,-732 -380,-2015 3976,711 3362,812 3683,-2750 -2615,-286 -4644,-2130 -7492,-3382 -2372,-1043 -5067,-2420 -5497,-4168 -4060,-1783 -4473,-1895 -6752,-5314 -3332,-1109 -1145,-787 -4276,-520 -1787,153 -3485,100 -5339,323 -3456,417 -5074,1814 -9208,978zm-46160 -40385l-725 -401c-1089,880 -1371,29 -172,2083l897 -1682zm-15120 6274c15,1838 -673,1045 1443,1246 -685,-2071 160,-1196 -1015,-1414l-232 -62 -167 30 -29 200zm19897 -8574c328,102 805,235 822,-342 11,-390 -364,-1502 -860,-1481 -521,21 -399,377 -409,844 -9,361 -71,917 -147,1252 15,-135 203,-323 365,-323l229 50zm32719 -7945c1467,1106 -355,488 2349,628 -2422,-2315 1164,-1142 -2375,-2215l26 1587zm-36217 10794l1007 -164c370,-1534 480,-939 -2,-2621 -378,-1319 -267,-581 -766,-654l-179 -50 -30 -14c-933,2149 -576,1600 -30,3503zm13187 -6303c667,-2173 637,-3547 -1013,-4881 -1182,1467 -588,1927 -229,2865 166,437 1012,1690 1242,2016zm-3143 2055l1263 151 -180 -1968c-1967,-2007 837,-1194 -1990,-2495 -577,1810 52,2540 907,4312zm-65227 7249c742,4416 776,3580 2392,4450l333 -1248c23,-102 23,-301 48,-405l663 -1694c22,-175 124,-233 159,-359 -4583,361 894,-135 -3595,-744zm61892 -11099c-1912,1184 -2472,2786 -533,4358 544,441 1077,657 1747,833 991,-1916 595,-3712 -1214,-5191zm-26429 9448l-1345 306c-607,3103 402,4855 2960,6522 220,-2737 -196,-4500 -1615,-6828zm-1318 5335c-1003,-1627 -1544,-5211 -1249,-7237l-1755 -8c-289,2903 1149,6580 1976,9205 1416,-788 1266,1445 1028,-1960zm-4085 3497l1470 129 -29 -1805c-450,-2340 -1033,-5922 -2395,-7129 -2092,2831 1257,5086 954,8805zm53896 -21346c3125,1138 362,1302 3694,1176l512 -556c-469,-1430 -862,-2977 -1348,-4023 -536,-934 -1087,-1784 -1599,-2743 -358,-668 -520,-416 -1199,-96 -678,321 -1100,577 -1648,1090 -162,150 -156,-56 -224,-311 -262,-975 -278,-1804 -653,-2729 -52,-93 -106,-184 -160,-275 -116,-180 -238,-352 -362,-526 -322,-430 -158,-458 -675,30 -1315,2116 -277,2762 196,4940 210,962 370,1940 552,2908l32 161c177,830 394,1675 854,2400 546,-662 394,58 681,-1261 101,-1135 -71,-1625 -102,-2668 -66,-2213 1052,-225 1257,684l37 163c101,542 129,1087 155,1636zm-12086 -4851c-458,834 -387,586 -748,1030 -339,417 -125,6 -881,1024 1037,2975 525,5943 2685,7221 609,-1954 -558,-3005 -723,-5872 1120,1781 550,2583 1891,4585 1961,-249 1671,-461 4188,-390 822,-138 946,-408 1437,-687 -680,-3424 17,-9598 -2649,-11810 -917,1392 -843,1417 -93,3896 458,1511 623,2149 933,3926 -459,-559 -409,-347 -866,-1321 -85,-180 -287,-757 -352,-955 -617,-1900 -215,-2966 -2050,-5350 -647,714 -1266,-977 -486,4672 -2024,-1157 -1818,-389 -2286,31zm-51380 19051l-555 1913c-955,-1288 442,-125 -1141,-1213 -2434,3530 -17,2623 230,6387 1825,1908 1795,7268 4618,9128 1252,-2149 -2335,-6089 -2235,-10107 29,-1154 117,-924 392,-1480 425,2344 1537,7718 3669,8717 14,-2403 -111,-2785 -846,-4624 -1468,-3676 -763,-3313 -118,-4319 254,1343 695,2815 1131,3971l1650 2729c693,-1421 315,-2369 -269,-4137 -389,-1175 -770,-2292 -1269,-3090 2191,1363 287,3652 3800,3861 -542,-2744 -1938,-5898 -2583,-9012l-1134 1864c-586,1441 750,-331 -367,1557 -1994,-5977 783,-4816 -4597,-4144l-376 1999zm33556 -26311c-1909,2172 -4401,3053 -7237,5154 -1725,1277 -2170,1008 -3995,2107 -2575,1551 -1678,760 -3997,1645l-10928 393c-3572,59 -6868,-500 -10346,-221 -3423,275 -4975,1179 -7687,1553l-4573 2371 4549 -371c118,-86 327,-319 392,-199l4413 -1153c5844,-707 15525,2278 16294,515 3015,-686 9275,-1279 11730,-2333 399,-173 3745,-2385 4021,-2591 2195,-1645 1531,-2310 4466,-2140 1528,-1776 539,-374 2189,-1576 869,-632 1494,-1309 2238,-1906 1019,-361 3160,-1246 3774,-1750 2248,-1845 482,-1163 1971,-3551 1293,-2072 3685,-3194 6579,-2562 2840,621 5019,1673 7696,2832 3797,1644 5041,811 9118,1292 1225,3330 -451,3128 216,5229 392,1235 2539,4804 3556,5713l182 143 1759 580c2041,623 1113,-101 1826,820 1209,1127 2311,2899 4225,2563 2205,-387 252,-1567 -572,-3196 5390,1245 332,3445 6502,3737l-181 -2200c2705,557 2444,659 3987,2115 6756,-3583 2334,823 6669,-1182l2214 -1614c-1536,-225 -1530,-109 -2845,-875 -3351,-1953 -16,-1640 -4795,-2097 -1704,-164 -2213,-86 -3468,-1045 -2007,-661 -4398,-1256 -6386,-2184 -1047,-491 -2499,-1212 -3267,-1683 -236,-145 -1148,-835 -1313,-1011 -968,-1028 -224,92 -568,-953 -2684,-871 -2477,585 -3984,-1697 -2202,-2033 -2114,-2081 -5439,-2451 -3135,-348 -3401,-745 -5860,-2157 -2509,-1441 -8090,-3336 -9645,-5612 -3395,2293 -3858,2281 -6659,5272 -3487,3722 -3853,5783 -6821,6276zm-29617 79640c25,-110 42,720 4,202 -5,-66 -9,-136 -4,-202zm-28084 -4623c-559,-600 -391,-621 -734,-1335 384,24 1725,7 1999,245 311,271 446,1790 491,2189 -309,-85 -460,-179 -733,-84 -31,11 -948,-939 -1023,-1015zm-103644 -43477c-58,33 -29,-4 0,0zm118804 18468c-3071,-1729 -2588,-871 -4224,-3747 4605,765 2484,1351 4387,-119l-3268 -2157c506,-380 -447,-1214 3963,-848 706,1953 839,3908 2243,4964l-1527 2568 2346 3428c-2905,-1004 -753,-2306 -3920,-4089zm1867 46689c-64,-603 -567,-550 446,-2277 7964,-1025 3381,-1640 7889,-696l-740 2384 -968 -2039c-128,157 -674,639 -834,733 -2488,1450 -1436,-370 -2430,1290 -1595,-219 -776,463 -1617,-947l-1746 1552z"/>
  <path class="fil1" d="M247474 358708l18 -6050c1271,814 2616,1997 3292,3619 -1160,1870 -772,1960 -3310,2431zm9387 -162c-20,322 -41,643 -61,964 -1743,-995 -2229,-1864 -3288,-3493 -403,-622 -134,-860 201,-1509 694,-1346 1761,-2255 3279,-2494 398,-63 289,-165 252,436 -122,2033 -253,4065 -383,6096zm-10230 -9741c-2400,5219 -376,5089 -987,8690l-96 4246c1858,293 5220,-2779 6223,-3748l3584 3209c1409,1631 293,3 1229,1725l329 -472c1338,-1184 1857,-1293 2278,-2791l0 -3786c-169,-33 149,45 -211,-1394 -2,-13 -50,-1681 -48,-1784 16,-1492 156,-2481 167,-4032 -2922,918 -3217,919 -4794,3244 -940,1386 -1402,1251 -2800,2545 -1768,-2644 -1922,-3910 -4874,-5652z"/>
 </g>
</svg>
