<?xml version="1.0" encoding="UTF-8"?>
<!DOCTYPE svg PUBLIC "-//W3C//DTD SVG 1.1//EN" "http://www.w3.org/Graphics/SVG/1.1/DTD/svg11.dtd">
<!-- Creator: CorelDRAW X7 -->
<svg xmlns="http://www.w3.org/2000/svg" xml:space="preserve" width="594mm" height="841mm" version="1.1" style="shape-rendering:geometricPrecision; text-rendering:geometricPrecision; image-rendering:optimizeQuality; fill-rule:evenodd; clip-rule:evenodd"
viewBox="0 0 594000 841000"
 xmlns:xlink="http://www.w3.org/1999/xlink">
 <defs>
  <style type="text/css">
   <![CDATA[
    .fil0 {fill:#2B2A29}
   ]]>
  </style>
 </defs>
 <g id="Слой_x0020_1">
  <metadata id="CorelCorpID_0Corel-Layer"/>
  <path class="fil0" d="M258513 395424c1748,2293 4533,7767 3328,10579 -1202,2804 -2409,-3702 -2486,-4429 -289,-2707 -1,-4020 -1194,-6550l352 400zm17306 -214485c-1485,2711 -3144,16285 -2902,19531 56,754 736,910 1418,1528 -842,4919 -816,9495 -1805,14717 -692,3661 -1388,7104 -1430,10850 184,-128 454,-567 528,-413 2548,-2532 2663,-2907 2891,-6938 104,-1838 54,-3681 -67,-5517 1735,678 1543,-113 1681,2914 609,15064 660,29437 1773,44570 91,1250 1202,13361 -370,13036 -2339,-482 -1528,-703 -1597,-3567 -181,-7644 -1531,-14177 -1316,-21989 87,-3187 230,-5943 -537,-9073 -544,-1863 -1056,-3758 -1582,-5629 -1815,8806 -1286,8726 -964,17376 41,1126 -543,9322 -231,9562 378,291 1162,328 1731,738 -3557,5080 48,5993 -1807,11857 -825,2611 -580,967 -940,-1236 -1662,-10144 -2262,-22492 -1059,-32703 428,-2893 -1207,-10867 1036,-12024 -682,-9813 2875,-17178 2606,-25882 -4847,9735 2887,8326 -11024,17332l-3595 2326c-6641,4199 -12307,11674 -16708,18221 -3211,4951 -4189,6425 -3137,11975 1323,6983 -2285,13363 -4047,19931 -1718,6403 -2934,11990 -8625,16060 -4343,2850 -3646,5184 -20,2605 1769,-1389 4705,-4751 7109,-3723 1750,748 176,-3689 2465,-3684 766,1 1713,842 2255,1325 -2543,3277 -2223,752 -2442,4897 -152,2867 -2458,3224 -1181,6373 -106,199 -3509,682 -4412,1964 -700,993 -1554,4826 -2467,4105 -959,-757 2185,-9164 -5050,-1099 -3558,3965 4498,-5681 1382,-6485 -1401,-362 -3414,1870 -4223,2817 -359,-166 2188,-4829 -1436,-4101l-1595 539c-3891,1846 -2664,5181 -4089,7721l-304 -67c-214,-189 -2751,-1856 -2937,-1881 -2530,-334 2281,-124 2830,-145 418,-839 3252,-5852 2940,-6375 -439,-739 -3767,263 -2110,-2236 443,-667 896,-94 2318,167 2411,96 941,-791 3548,-2455 4305,-2748 1864,-720 4685,-4517 2705,-3638 1583,-2113 -69,-5300l-3 -570c874,-2030 822,-844 -2261,-1312 -870,-131 -516,-81 -133,1320 1032,3705 953,3201 -2177,5714 -1920,1568 -2948,1941 -5343,2488 815,-4165 2728,-4720 6070,-6698 -1622,-757 -728,-201 -2890,649 -1609,634 -967,517 -587,-2342 529,-3968 879,-7966 1339,-11945 475,-4008 2916,-10429 2774,-12630 -1690,-26306 11042,-117152 14451,-146694 1221,-11080 1096,-21760 2501,-33027 976,-7822 2552,-20018 -129,-27433 -2220,6150 -4164,8862 -5420,16010 -437,2488 393,297 855,-669 929,-1937 2709,-6834 4092,-8124 756,695 646,9106 464,10657 -475,4050 -738,6925 -988,10989 -44,717 -233,4597 -1538,2312 -686,-1201 -73,-3492 -570,-5376 -1980,-7509 -1405,-4884 -1618,533 -532,13493 -2847,29106 -4638,42595 -838,6314 -1723,12639 -2480,18963l-79 667 -964 7004 49 446c636,6710 -389,9344 -1547,17223 -468,3188 -948,3896 -1273,6815 -299,2696 -480,5318 -638,6851 -901,8768 -8607,66619 -8307,74012 131,3216 1157,5507 1260,7006 206,2953 -797,1721 -1456,5792l-2810 19950c-4830,-6865 -3051,-6342 -2577,-14999 613,-11216 -2892,1028 1990,-15985 1368,-5022 2367,-13889 3115,-19173 6028,-42589 11213,-85976 15917,-128739 797,-7237 4122,-38235 3006,-35017 -1509,4347 -3438,23416 -4043,28591 -5157,44197 -9200,88918 -15232,132952 -788,5748 -2278,17988 -4144,23280 -4295,11627 431,16271 -4477,35596 -4429,-246 -5553,-2502 -7433,996 -828,1543 -261,1915 -1340,3552l-2504 2494c-142,127 -418,302 -581,499l-855 7191c-1021,845 -411,-14 -1430,1322 1383,3205 1318,3392 1046,7204 -2894,2355 -2035,2624 -1443,6226 729,4586 65,2591 69,6306 6,7292 3291,5258 5820,9130 -174,97 -5581,3233 -3964,2648 1830,-663 2986,-1458 1517,945 -1241,1660 -3544,2991 -2113,4958 1803,2477 -1015,925 1470,4216 1091,1446 1596,579 211,3084 -563,1018 -1522,-1079 -2026,-1838 -4832,-7276 358,-11626 -4336,-7147 -1976,1885 -3549,3919 -4236,6621 -53,206 314,-95 962,13 855,-2969 423,-4127 3585,-4467 -3983,7844 -2816,3885 -8169,9582 -2628,2797 -2448,1994 281,4002 1198,881 -882,4366 -4334,-521 -615,-871 -830,-523 -1392,742 -290,650 1317,2221 1713,2785 1533,2179 1307,2074 -843,3444 -1231,784 -652,3262 -3289,2068 -373,-169 -289,-3113 -476,-4082 -395,-2054 1142,-2444 687,-4307 -2626,2663 -4092,2215 -6460,5734 -95,141 -195,1692 358,871 214,-318 2035,-3392 2225,-3365 892,124 1605,2792 1542,3894 -36,630 -368,3936 -1103,3947 -352,5 -1911,-1105 -1243,-1526 13,-8 -1052,-854 -1198,184 -318,2268 455,1502 -902,2782 -2033,-1646 -1585,-1085 -1912,-3777 -3124,7941 71,-288 -4047,15 -2092,155 168,975 -1748,2117 -1647,983 -2098,3423 -2060,5173 -840,5313 -6255,9223 -9801,13370 -4119,4815 -7498,9682 -7014,16283 5643,-683 10051,-6510 13724,-10520 7000,-7644 3571,-764 2694,-152 -1351,943 -901,959 71,3337 627,1534 224,1998 -1235,3381 -2381,2255 -4934,404 -5413,7335 -141,2061 608,3396 1496,5192 27,-369 800,-13528 2342,-8379 1642,5484 -2232,7230 -2831,10869 0,2602 -266,3013 2037,1785 5216,-3343 5024,-11266 8919,-16781 1426,-2018 1448,-2350 2551,-4474 479,-920 1623,605 1744,1143 359,1584 -6,5245 -105,7039 -29,4875 449,12259 1491,17042 5448,-1268 5742,-7952 7826,-11862 2199,-4129 2677,-383 3488,-6888 459,-3687 305,-4966 2352,-7661l4298 -5874c1398,-4810 -556,-5986 2482,-11252 971,-1683 1413,-8221 3117,-7968 2006,296 967,197 1670,-1553 366,-912 1909,-779 2387,1215 308,1282 381,2621 684,3984l1202 6582c867,4058 5511,3382 4560,8126 -185,-98 -438,-511 -510,-366l-3153 -3461c1306,4755 3600,7799 5369,11869 5026,665 1727,717 2546,-1333 -2148,-1290 -3860,-2293 -4935,-6806 4096,1472 2119,1848 4374,3659l3971 -403c4977,2832 1442,2348 5566,7416 -10,-13 -614,253 -1527,249 -5677,-32 -800,131 -4101,3297 -1190,1142 486,3579 1034,4697 1134,2311 4504,10172 5842,11464 1437,1387 6080,2964 1545,-678 -2078,-1669 -2849,-4485 -3673,-6961 -592,-1775 2422,1196 2856,1872 2637,4111 4198,2744 8294,5145 2622,1536 618,1241 -849,2164 429,3338 -1065,5278 1710,8804 1866,2373 4984,1652 7601,1522 1882,7193 -830,11187 7326,16214l1119 633c-933,9696 -359,14758 -2831,24467 -2829,11114 -5965,10915 -10137,18462 4327,-2225 9850,-7463 10901,-11725l661 -2716c1838,-4102 -19,-1183 2253,-2653 141,7768 -197,11579 -832,19328 -1023,12460 -807,17096 5603,26787 1338,2023 3135,3475 5114,5995 4710,5997 960,12012 3513,17471 5681,-13459 6424,-14714 -3110,-24707 -5588,-5856 -7366,-16930 -3579,-24738l2268 -3440c6052,1332 1921,3593 5835,8329 2562,3100 10068,12699 9978,16918 -73,3433 -3256,4178 -5545,5951l-922 793c12435,568 9928,-12885 4997,-20220 -6861,-10227 -8356,-13583 -5785,-26087 393,-1915 336,-1408 2770,-2384 7221,-2897 8586,277 13614,5067 1884,1796 3768,3591 5652,5385 9369,7487 13005,21427 14401,23897 1508,2664 3800,4632 4964,7843l2721 10952c1831,-22510 -7988,-16051 -5475,-26183 4015,1347 9758,9779 12207,13427 5115,7620 1665,15385 6141,20943 1230,-1835 -567,-18792 -1249,-20630 -2173,-5852 -6204,-10698 -9030,-15694 -3242,-5729 -4572,-11160 -6665,-18002 -1462,-4780 -4123,-6973 -6759,-10541 -1411,-1911 -1313,-869 -2609,-1367 -536,-3596 -2685,-5843 -2719,-9398 -2054,360 -1620,-517 -2714,1278 1200,-3508 1792,-1486 -354,-5687 -469,-917 -951,-2001 -1268,-2829 -1136,-2969 -2736,-6358 -4136,-10621 2989,2495 7324,12264 9128,16427 1833,4230 3397,5144 4862,7898 2089,3933 879,5610 4405,9251 3196,3299 4960,3767 7526,8697l1194 2236c3973,7551 2423,17818 10451,22841 -856,-3603 -2407,-4478 -3324,-7922 -1155,-4337 417,-7032 588,-10893 16058,12313 16269,37458 26587,41784 -1557,-3195 -3824,-3974 -5237,-7575 -3798,-9659 113,-13255 -11761,-28304 -11482,-14556 -9900,-16186 -15462,-23733 -1834,-2293 -4827,-4851 -4223,-8065 10074,-2002 15955,3461 22494,10191 2039,2105 3162,5656 5155,7448 -583,-11270 -9690,-9102 -9943,-21411 4296,368 3535,2196 7146,4824 1706,1243 5266,3777 7226,4290 -975,-4033 -2267,-2380 -4027,-5934 9810,2285 8052,3631 14587,8525 6269,4693 9614,2932 12267,11485 2051,-2344 841,-3338 -454,-6737 4853,4173 3627,7937 6845,11990 84,-221 167,-803 184,-685 18,116 140,-522 159,-687 620,-5438 -2502,-8367 -4903,-13087 4563,2469 6803,4377 12510,6920 6965,3100 6295,3480 10244,8453 4076,5133 12897,15767 20260,17195 -3712,-5509 -8965,-6790 -12362,-12311 -4863,-7894 -2655,-8454 -9559,-15164 -4157,-4043 -9571,-7142 -13968,-10727 -3006,-2450 -4403,-4523 -6547,-6205 -3287,-2579 -5266,-2289 -6303,-6436 3472,2561 8205,4005 12797,5997 -2665,-7611 -13569,-1673 -11168,-14847 2736,153 3158,2251 4474,5244 2099,4772 1639,1950 5405,5706 4329,4322 5208,9042 9920,12807 -1119,-3131 -2197,-2920 -3328,-7661 1624,1405 12392,18513 17712,21619 5861,3424 -1508,-2249 3566,689 2966,1717 6044,5399 9754,6075 -2466,-4481 -8450,-6899 -11996,-10645 -3708,-3917 -6797,-8639 -10570,-13102l1080 -340c2056,-379 1486,527 4023,-566 -4033,-4235 -5940,-3320 -9922,-8888 -2977,-4412 -4553,-9329 -4466,-14667 3098,1898 1777,2065 5850,3057 -2305,-4048 -6118,-6839 -7692,-10117 9296,686 14117,1421 23699,675 8921,-696 16782,1097 25572,899l-7716 -2199c29707,-7070 21584,-1412 35024,1598 -1539,-7397 -12271,-8830 -18622,-10497 -5804,-1825 -12734,-8730 -13826,-14821 2394,587 1742,999 4886,1623 2867,569 4003,1430 6575,2416 -4887,-7236 -11788,-4461 -18659,-14594 -2304,-3397 -3738,-6085 -6532,-9265 3466,-461 3568,409 975,-2099 -4964,-4801 -5187,-8954 -7566,-14998 -3736,-9102 -8174,-17344 -11290,-26788 6340,3855 11025,18736 18325,24596 1110,891 -141,-3090 -571,-3763 -1898,-2972 -3867,-4414 -5948,-8128 -2622,-4682 -3985,-8016 -1333,-13048 5132,2198 7292,8863 7682,9032 25,11 1175,17 1256,27 -2823,-8576 -7037,-8701 -8774,-13681 -856,-2453 -897,-5219 -716,-7781 104,-1486 -137,-1731 1844,-2366 2865,-917 4021,4815 4521,5157 1665,1144 3194,1912 5008,3258 3977,2953 5158,3627 10305,3382 -11171,-6613 -11901,-6389 -19858,-17641 -1832,-2590 -2502,-3834 -3103,-6979 5714,2788 3279,6708 9812,10132 5248,2751 6476,2409 10788,7027 1215,1301 1719,1762 3261,2674 -5027,-10360 -11125,-7544 -14130,-15370 -1057,-2755 -1234,-2391 1526,-1218 8695,3694 8233,9872 18768,12444 -149,-173 -406,-633 -490,-476l-2019 -1649c-3301,-2220 -4903,-2617 -4791,-6865 5124,-886 11797,2983 16685,4520 9120,2368 7991,6378 15652,6496 -6786,-3663 -5112,-3194 -8852,-6642 -4797,-4421 -4459,794 -6114,-4414 3110,-3284 3811,-1090 6523,630 2471,1565 4913,1635 7791,2457 6490,1853 4683,7001 11531,10330 -1263,-2532 -7362,-11834 -8995,-13613 -6927,-159 -6252,1135 -10213,-3573 -2627,-3118 236,-1436 -4257,-2513 -2836,-602 -3478,-78 -4665,-2764 3677,-2944 5583,-436 9162,1327l785 386c2121,905 3964,947 5898,1824 1956,888 3213,2115 5124,3005 -1034,-1894 -1960,-2174 -3247,-3272 -9135,-7787 -7837,851 -10463,-9819 -2805,361 -12541,1880 -11370,-3448 311,-1411 837,-1578 2169,-2036 4539,-1557 9098,2605 13354,3544 -2107,-4720 -6302,-4436 -12312,-6207 -5691,-1972 -6981,-3386 -13439,-4424 -1241,-199 -1967,-1796 -2984,-2935 -2492,-2792 -2997,-3227 -4224,-6890 4601,940 7727,1652 10189,5928 499,-1032 994,-2067 1490,-3100 61,-159 126,-474 232,-691 5951,2618 5553,2837 12414,2440 -2065,-1641 -6679,-1368 -11093,-3378 -13777,-6273 -25720,-2924 -24351,-18221l3546 -4163 468 -515 489 -553 508 -587 519 -599c-7862,1429 -2823,2001 -7031,5382 -4175,562 -6309,141 -7896,-4013 4715,-3225 4375,280 10148,-6111 1420,-1571 1142,-788 3518,-1624 2778,-975 1442,-612 -514,-671 -7139,-216 -6651,2943 -8367,3084 -1917,157 -2038,-97 -1776,-1960 906,-6439 9843,-7251 11582,-11655 1875,-4752 -456,-231 -2070,974 -4473,3338 -6558,129 -12171,7452 -5814,-859 -3258,-313 -6751,-3021 -1578,-1223 -2384,-2607 -3396,-4264 -3242,1201 -2320,-118 -6256,-1373 -2901,-924 -6300,-1461 -9315,-2218 1875,-2222 2803,-987 4805,-2433 492,-354 -1414,-364 -1740,-410 -1985,-347 -5595,2242 -7706,2973 1486,-4286 3144,-3408 3640,-4410 160,-324 -2389,-3274 -786,-2886 603,146 1556,-339 2840,694 2091,1682 1480,1718 4896,1101 -6976,-2998 -6026,-3371 -9923,-9953 -990,-1673 -1983,-3346 -2974,-5020 -3399,-10221 -6313,-20954 -7927,-31604 -315,-2077 -735,-3796 -1599,-5722 -695,-1551 -20,-1561 -206,-3585 -611,-4236 -4591,-15011 -8267,-17282 -1610,-994 -9281,-11941 -10899,-12847 -2597,-1456 -5586,-2900 -8262,-4289 -10236,-2744 -23184,3348 -26491,9383 -4443,4570 -11695,16830 -11866,26742zm-14647 191956c2827,1497 2018,-1956 3113,4513l1815 6644c911,3661 328,2379 3192,2322l-1201 2052c-1035,4144 1990,6385 2786,10309 817,4023 1974,11776 3861,15143 333,595 1155,2967 1463,3769 152,2413 70,1389 -578,2558 -1271,-5491 -1189,-4372 -4241,-9723 -4191,-7348 -2232,-4361 -3361,-11633 -679,-4360 -1380,-2486 -2379,-6649 -1538,-6402 -2982,-12884 -4470,-19305zm88286 31758c138,776 2317,4625 167,4244 -2359,-418 -3066,-7290 -7052,-6353 -377,-2669 1825,-2976 -864,-5777 -3103,-3233 481,-2638 -1208,-4622 -1117,-1312 -5101,396 -4872,-697 258,-1224 859,-1727 1102,-3791 121,-1022 479,-6075 1673,-6345 157,952 93,2647 300,4025 1080,7177 2074,3894 4672,7792 3213,4817 4894,5509 6082,11524zm-7227 -2008c-1128,946 -1295,-1226 0,0zm-7872 36460c-93,57 -191,113 -291,170 111,-116 208,-162 291,-170zm331 -203c101,743 -6,176 -331,203 116,-68 226,-136 331,-203zm191 -29866l310 440c-48,-2185 -604,-9742 101,-11293 594,-1078 1474,-1736 2391,-2529 15,2432 3,4860 -7,7293 2418,-246 927,447 3460,158 1166,-134 2591,4006 2578,4171 -1228,513 -3009,-3535 -4410,-3566 -867,-18 -1749,514 -2244,1151 1089,1402 2811,4494 -113,4838 -1978,233 -1657,-195 -892,1633 1414,-525 2825,-1056 4244,-1569 1654,1443 -638,1073 -1085,4129 -98,678 -189,1358 -281,2038 -169,1648 227,599 -512,2346 -809,1912 -1780,1820 -2882,5202l-150 489 -157 526c-748,2627 -272,-398 -608,2478l2094 449c99,-227 473,252 694,401 -414,1435 -1908,6646 -1910,6845 -6,611 3003,1796 -812,4236 -42,-298 -116,-809 -224,-1657 -247,-1945 -1737,-3572 -775,-5579 -175,199 -648,501 -1897,1095 -41,-259 0,-397 72,-463 -167,-53 -406,-146 -738,-298 -5256,-2399 -4667,-5150 -3678,-10830 607,-3484 -1183,-6661 -2464,-7330l283 2441 -88 398c-205,2183 777,2380 652,4239 -3286,-1216 -3525,-1175 -4118,-4504 -235,-1322 -218,-3886 -189,-4630 234,-3448 1711,-4373 1795,-6077 1,-1342 -241,-859 58,-2706 -2847,68 -6070,-76 -7049,3073 -1165,-917 575,2911 -2886,-3089 -1362,-2949 -1444,-4560 361,-7417 847,-1339 1631,-666 2644,85 2744,-2279 2029,-1879 3834,1160 254,394 2072,1400 2489,152 595,-4696 -3013,-4254 -4421,-8394 -497,-1464 1438,-2460 -1684,-3542 -1004,-348 -1807,-265 -2775,112 132,1649 1216,5376 -1060,1388 -215,-378 -2241,-4559 -2175,-4651 639,-886 1785,-70 272,-2031 -509,-660 -1021,-3083 1615,-1167 4734,3442 7099,6705 10587,11133 1496,1902 2755,3061 4587,4637 2406,2014 3315,5524 4260,8387 820,2574 1333,3961 2903,6199zm69535 1700c-366,51 -661,-148 0,0zm-96819 -23189c210,402 -96,-600 837,-460 7828,1184 3834,8281 1140,7305 -1627,-590 -8077,-5063 -6710,-7119 2182,-3280 1740,1201 4913,2071 630,-590 -500,-2670 -180,-1797zm-20879 -54662c-136,170 -565,-66 0,0zm-13355 -21398c-57,318 -439,-348 0,0zm6870 -32177c-550,577 -380,-84 0,0zm1812 3328l-1078 -2180c-252,-828 -524,-1101 -734,-1148 163,-170 388,-450 690,-889l2820 258c8057,6360 1120,7500 14123,22122 3210,4315 6086,8319 9604,12428 1197,1468 1192,1827 1490,3653 -3020,245 -2773,-714 -4621,-3217 -1953,-2507 -4359,-5399 -5721,-8252 -542,-1346 -14,-1090 -2260,-123 -879,379 -197,58 -378,-1344 -254,-1962 -1124,-2435 -2375,-3869 -5131,-6096 -6207,-13592 -11560,-17439zm-346 16l-129 -341c162,105 321,212 475,325l131 265c-163,-84 -322,-166 -477,-249zm47585 62863c2017,1359 -719,2217 -2932,1574 -5182,-1749 -10517,-3390 -15039,-6528 -1908,-1325 -2367,-1551 -4591,-1831 3010,-47 674,-3677 1545,-6872 1463,102 909,2325 2840,4441 1730,1898 4292,3297 6334,5424 1669,1737 464,384 1462,-598 1121,-1102 6479,1680 6633,5035 46,1013 605,-116 1455,-1076 745,-750 1549,-41 2293,431zm2623 20707l-3828 -3811c-646,-464 208,-220 -1557,-690 -6400,-4410 -12527,-8173 -18342,-13381 -3139,-2812 -4771,-3964 -8870,-5076 -3244,-878 -1255,-3889 -6181,-4634 -2248,-340 -3316,1833 -2340,4003 1552,3451 1417,5600 2694,8976l460 1065 1041 2140c1513,3032 353,2483 2173,4325 3810,4521 6949,9551 10773,14267 2349,2896 -976,2291 1607,4097 702,490 -843,1899 -3511,-2102 -1973,-2958 -1453,-2733 -4195,-4991 -1681,-1384 -4525,-5882 -5890,-7879l-1093 -1545c-2266,-3276 -1194,-2544 -2749,-5859 -1197,-2551 -2192,-2562 -3341,-4938 -1281,-4676 54,-6437 -1402,-10437 -480,-1316 575,-749 280,-2010 -10,-28 1284,-3968 42,-4529 -1572,-710 -1839,-581 -913,-2514 998,-2084 828,521 -322,-3345 -1276,-4283 -486,-4338 -3200,-8827 -639,-979 -5714,-14805 -6594,-17112l-678 -1774c-84,-180 -217,-480 -365,-696 -283,504 -323,394 -525,1914l-350 4877c636,2180 120,4256 -467,6673 -458,-521 -736,-795 -901,-924 24,-138 -11,-459 -199,-1121 -323,-1143 -129,-1831 -218,-2399 -124,-794 -90,-596 -416,-1440l-2333 -14247 -316 -1327c-1471,-4382 -1645,-4148 -4838,-6849 -1300,-1100 -547,-1838 484,-3226 1369,-1844 3143,619 3952,1649 338,485 490,1311 563,1485 2069,4415 19297,42006 20172,42243 3571,970 1590,-1921 975,-3668 -1402,-3983 -2621,-8216 -4061,-12308 -841,-2388 -1681,-4771 -2494,-7170 -300,-891 -599,-1782 -899,-2672 -822,-1839 -1634,-4383 -2535,-6671l-4686 -9468 -111 -399 -108 -1142c-59,-86 -110,-161 -155,-229 -67,42 -220,30 -516,-87l-403 -118 -1020 -373c-1320,-524 -2098,-939 -3611,-1411 1336,-1329 -1942,-222 1879,-1146 895,-217 2132,-55 3044,187 2350,624 3777,1793 6186,3074l5642 14928c799,7200 3949,14906 5794,22044 1247,4951 1364,5467 5669,8525 491,348 1709,790 645,1486 -263,171 -2086,421 -43,2020 2264,1770 5496,1964 5052,5754 -7269,-3157 -6378,-5913 -11358,-9794 -1083,-842 -1985,-842 -3293,-783 -562,86 -94,1601 -91,1608 2931,3042 1290,101 2844,5200 583,1916 2326,1788 4375,3236 3225,2280 4733,4675 8568,7100 5274,3335 9964,6646 15078,10161 4423,3002 8852,5994 13271,9004l790 539c2223,1551 2913,2454 4815,3951 1885,-804 803,250 2243,-1515 -1333,1920 -1144,1721 317,4206 1178,-2511 1501,-1939 485,-3172 5153,2892 5357,5514 2243,-3205l-303 -846 -163 -420 -1021 -2360c-1939,-3640 -1708,-3344 -4636,-5654 -1819,-1436 -369,-2392 -2704,-4078 -1259,-910 -3156,-4460 -5329,-6413 -4331,-3713 -7802,-6512 -11934,-10576 -1087,-1068 -2302,-2078 -3434,-3108 1079,-4047 -1101,-747 -1550,-4003 -541,-3922 115,622 -2728,-3475 -526,-756 -3458,-6212 -489,-4992 1066,437 9184,12595 12570,15420 2906,2426 4965,4983 7692,7522 1531,1285 2790,2119 4530,3090 2339,1229 1261,1831 4591,2470 936,180 1247,1836 1739,2935 1256,2808 2345,3643 3556,6837 277,734 544,1470 824,2203l229 663 594 1858 288 514 350 447 385 393 1283 944c0,2416 885,3198 1608,5628 1662,5587 -363,6845 2797,12233 728,1241 1090,4289 1779,6226 620,1743 837,2329 697,4213 2320,-653 907,320 450,2930 -639,3632 -1852,2719 -5028,1638 -938,-5459 -1528,2628 -6339,-5783 -144,-252 -3982,-7101 -2612,-6588 6758,2531 1133,5369 6543,2383 -227,2132 1160,637 824,2536 -200,1124 -2496,1490 -244,1654 1794,131 1015,-766 934,-2369 103,-49 579,437 1404,361 1057,-99 337,1376 1449,1033l189 -35c597,-65 -2,-1311 -185,-2312 -764,-4163 -2293,-5310 -5280,-8348 -3821,-3885 -5908,-3074 -10010,-7614 -2175,-2406 -3923,-2941 -6154,-4880zm39511 22485c968,-1140 -439,-318 -2174,-3127 -1434,-2323 -2549,-4922 -3561,-7453 5308,1697 3401,4109 7251,8317 1202,1141 1175,2349 -1,3456 -466,439 -300,317 -1123,-484 -345,-336 -519,-366 -392,-709zm1195 3143c105,-1570 187,-1590 2022,-1625 -6,1300 -124,2000 -1709,1956l-256 -63 -57 -268zm3560 511c859,838 585,1937 436,3047 -2281,-458 -1836,-3177 -1692,-3258 311,-173 972,96 1256,211zm14279 32334c1106,9 1350,966 2170,2067 -6489,-915 -10759,-701 -16017,-4669 -5244,-3957 -7636,-6026 -13625,-9013 -1044,-518 -5994,-3261 -6521,-4009 831,324 1297,300 2179,242 -1176,-3866 -858,-2561 2568,-3216 319,-60 3205,341 3355,446 1163,806 1114,3461 424,4441 -460,654 3116,2430 3878,2934 3949,2608 6454,5185 10855,7641 3542,1888 6704,2969 10734,3136zm-16930 -48772c266,-1770 -348,-5249 458,-5534 332,-118 1235,-111 1578,-118 50,1947 -39,4115 1646,5493 753,617 2999,104 2596,-2577 -219,-1460 -379,-1904 1092,-1193 1218,591 414,530 928,2373 1653,4635 6827,7854 10228,11704 1513,1735 13041,16270 13229,17186 79,381 -411,621 60,1924 -723,344 -954,-559 69,1230 544,951 1036,3881 1177,5054 -3622,-819 -933,-1104 -3591,-3405 -913,-792 30,1053 287,2185 647,2837 4181,4391 500,2961 -2353,-913 -4027,-3397 -4691,-5719 -1715,-6010 -977,-18 -3717,-3537 -2640,-3391 356,-1053 1273,-2522 -742,-516 -846,446 -2415,-1366 -1589,-1833 -3018,-1887 -3722,-4366 3003,952 3817,3028 7378,3203 55,-241 -230,-381 140,-154 684,-431 -6373,-8321 -6947,-9006 -1327,-1586 -5887,-7162 -7351,-8151 -1614,-523 -2225,2548 -1166,3462 1482,1277 465,1339 -1687,-1255 -2573,-3100 1027,3475 1262,3943 373,743 2631,6804 2564,7046 -134,484 -659,1135 -1083,1408 -4454,-5892 -3786,-7117 -6605,-13094 -1098,-2327 -3395,-4534 -3490,-7175zm25611 32938c817,536 -110,1442 -72,247l72 -247zm-7904 13065c-391,-135 -641,-387 0,0zm10825 -7063c2933,1136 4410,1825 7053,3564 -5285,4013 -4347,-361 -8565,624 -1018,239 -1135,-265 43,2076 1693,3367 820,2651 4969,2513 2449,-29 1817,-668 1991,2892 50,1016 110,858 -1272,215 -1652,-771 -833,-2 -3446,539 -1145,-3714 -459,-471 -2085,-501 -3528,-45 -4163,127 -7546,935 1192,-3200 773,-2474 2929,-4573 621,-605 -4322,441 -5083,-1986 -825,-2635 514,90 -4080,-1060 -1515,-380 -3684,-603 -4602,-1974 -1792,-2675 -1047,-1071 776,-1833 1183,-495 -1122,-789 99,-3261 509,-1030 3400,-454 4395,-424 1281,38 2530,42 3811,29 -1623,-2920 -5886,-10639 -9418,-10916 -2328,-183 -2376,-431 -2543,-3019 3618,207 4658,-68 6146,3392 5276,-2221 1546,-835 1779,-92 234,748 3113,6241 3852,5829 1497,-836 501,-6134 4353,-14 2160,3434 916,5864 2814,2349 1032,-1912 -171,2946 755,3586 324,224 2480,964 2875,1110zm-186316 -103923c-1927,-292 -3858,-133 -3694,-3161 5900,-2203 3133,-197 3318,-4399 47,-1070 -171,-1600 -511,-2602 4407,-2504 3600,-1125 2285,3564 -243,867 -488,1645 -812,2487 -59,-60 -502,3487 -586,4111zm3210 -12450c-97,2442 -793,1889 0,0zm16704 -223034c111,-428 78,-82 0,0zm-38187 255561c-244,1978 -278,3953 -2814,3867 -233,-1098 -404,-2101 -570,-3210 1017,-705 2007,-1403 3314,-1126l70 469zm-49628 69853c-1111,2324 497,-3034 0,0zm31781 -44367c4097,1963 3964,2920 8962,3936 -646,-2486 -1195,-4900 -1960,-7362 2356,1152 3039,2669 2926,5384 -64,1543 -580,3148 -1028,4620 -2843,-1174 -3775,-1207 -6563,-2078 -2022,-631 -3478,-2395 -3125,-4614l788 114zm45562 62361c1498,2266 -339,2332 3157,1732 1901,-326 2811,2357 3663,3919 1031,1893 -390,-968 -3651,216 -1008,367 -4260,1369 -5048,526 -999,-1065 -3157,-4088 -3155,-5457 0,-416 -59,-3991 827,-3705 49,16 3874,2537 4207,2769zm144285 -173884c1829,646 2671,1287 2552,3280 -3954,455 -3662,-1982 -4747,-1443 -769,382 -3465,132 -3864,-1112 -490,-1527 -637,88 -3325,339 -2914,225 -3484,308 -6267,1250 4012,-3475 5576,-4121 10893,-3573 1698,264 3141,716 4758,1259zm10133 8311c-3830,3214 -2018,1149 -4848,553 -60,273 -3782,704 -4317,-92 -930,-1378 -806,-1242 703,-2490 2507,-2078 1395,-283 1150,-1665 -668,-3754 10269,521 7312,3694zm-138225 -64c-340,-4915 67,-120 -632,-2949 -842,-3403 -1141,-3750 1016,-6077l1211 -1081 659 -549c-206,4169 -4924,9539 -54,8772 4237,-668 -1442,-6633 4194,-13031l5700 -5425c-660,5706 -313,2147 -1276,4563 -1225,3067 -4676,10267 -4045,13610 627,3316 2292,9492 1773,12752 -419,2627 372,1176 -1238,2786 2124,-878 771,-771 425,2387 -380,3466 -2439,5518 -2050,9029 89,798 -294,512 -1133,283 -9,3763 95,4621 -1363,8191 -2917,-1822 -1856,-3692 -1228,-6875 810,-4103 1530,-5390 3595,-8926 -3463,936 -2687,511 -3728,4340 -898,3304 -877,1872 -2196,3564 -231,295 332,-48 608,24 -532,2528 -858,4148 -3078,5678 -1602,-4235 1645,-4696 2283,-6900 1232,-4251 -2,-3240 2790,-7085 -2092,-1971 -3827,-2508 -3957,938 -1069,-644 -1427,-940 -2373,-1769 2099,-1175 1811,-1468 2482,-4261 5167,1278 958,447 1363,-5578 172,-2560 374,-3660 252,-6411zm-3010 31632c-144,529 -258,427 0,0zm17277 143571c40,1629 124,10375 2427,11308 124,50 458,1035 491,1120 -4402,310 -3276,1154 -4071,-3281 -262,-1467 -526,-2933 -788,-4400 -281,-1543 -1004,-5222 -421,-7193 108,-368 329,1236 576,-1555 66,-2780 -708,-3786 -3223,-4880 2440,-52 1183,-3254 1882,-198 327,1429 733,1679 1761,2482 -311,-3436 -437,-7883 1295,-10965 -1838,-1127 -996,-587 -2030,-2002 3688,-2229 -230,-1777 1245,-7263 294,-1095 462,-1583 970,-148 1371,3877 1194,14357 596,17890 -434,2576 -529,6369 -710,9085zm13213 -4433l1617 3670c-1689,-2067 -1931,-3133 -1617,-3670zm3026 -3179l4200 7753 1431 1670 220 426c1429,2200 2356,1452 2980,6512 -265,4 -617,56 -795,19 -2261,-487 -1777,-330 -2758,-2298l-6153 -11332c-1,1 -1686,-367 -2151,429 -415,-942 -1855,-2857 -554,-3704 534,-348 -901,-499 -1650,-2610 -372,-1049 -1697,-4433 -2504,-5051 -641,-492 -3114,-985 -3201,-1521 -5,-31 242,-983 159,-1542 -181,-1204 299,-1688 986,-2670 1299,1341 5717,6214 6151,7263 -1136,-363 1505,3686 2396,4551 664,646 881,1263 1243,2105zm33371 -38732c269,-6 202,25 0,0zm-8478 -1780c-356,-656 434,776 0,0zm292 285c257,80 111,87 0,0zm-12437 -8567c144,-207 425,-761 463,-596 6,23 1142,-650 330,-2007 -123,134 -391,111 -452,304l-927 295c-1308,23 -426,-70 -947,-149l-873 -241 -490 -90c-758,-242 -2033,-328 -2687,-1787 -369,-823 -326,-2110 756,-3023l1120 90c225,-2035 -104,-12 -61,-1260 96,-2942 -279,-2364 1558,-4072 1279,1624 510,432 701,1557l2318 1154 510 -2965c1422,1717 1578,976 2408,2597 914,1784 -1074,-127 1799,3765 3665,5005 7804,7546 12260,11860 341,330 3093,3097 3163,3332 372,1260 -1438,2228 -2666,1030 -1828,-1780 -1774,-749 -4353,-872 -1770,-85 -1082,-958 -2394,-2693 -1072,-1418 -2869,-3033 -3690,-4478 -698,-1229 -949,-993 -2668,-1197 -260,-32 -518,-60 -778,-92 201,208 504,208 600,626 5,17 978,1465 1010,1525 690,1308 2254,4581 3501,5253 627,-357 702,1595 877,2539 414,2230 -835,208 -1541,-652 -1683,-2050 -5129,-5103 -5507,-7726 -257,-1786 -1510,-1650 -3340,-2027zm90352 -17551c302,12 308,330 1531,317 610,-6 -408,686 378,2628 2002,4780 2711,6278 3928,11432 348,1473 891,1787 -693,1837 -1479,47 -2032,-2319 -2188,-3402 -362,-2523 -923,-4390 -1234,-7158 -168,-1469 -1832,-4074 -1722,-5654zm-121548 31850l-461 -26786c-324,-3438 -551,-7079 1352,-10099 2025,935 1183,984 1090,4402 -107,4003 390,8137 690,12192 830,5361 -1838,4184 1343,6411l-2290 2079c-3072,4084 1589,4342 -46,8513l-1678 3288zm1994 -60616c-51,-4 -133,-315 0,0zm1316 3686c-66,-507 -103,-867 -117,-1112 -29,-91 -59,-190 -91,-292 -716,-2350 -131,-465 -810,-1484 -150,-423 -242,-665 -298,-798 33,3 51,-133 -21,-690l-687 -6107c1499,954 2504,805 2936,4909 176,1666 -393,411 95,1907l1933 2920c187,222 -102,330 1131,631 2075,243 977,-755 2310,2612 741,1873 4827,11270 4640,12510 -342,2272 489,-1215 1881,-1768 1870,-743 1850,-47 3111,1707 396,552 1559,2186 1299,2917 -518,1452 -475,1215 671,2629 -60,-1357 1729,-2098 2749,-2471 -1459,7743 1014,3664 500,7079 -405,2696 -1608,1734 -189,5126 -4804,-922 -4042,-1550 -3441,2036 311,1854 639,3707 960,5559 -4976,-3026 -3575,-7745 -5378,-11027 -2222,-4047 -1217,-1891 -450,-3012 75,-112 117,-1353 -92,-1872 -1112,-2766 -819,-2341 -2665,-5504 -792,-1358 -3598,-6380 -4793,-7234 -903,-647 -2481,-1412 -3471,-1935 1672,3413 16,2016 214,5563 82,1478 133,1826 -324,690 -1514,-3760 -239,-5866 -957,-9837 -222,-1235 -467,-2403 -646,-3652zm9416 -17788c200,16 81,305 0,0zm-1885 -4319l-1515 -6978c-760,-3543 -1136,-3184 -2947,-4219 -454,-5838 -2614,-4025 -766,-11516 9502,1398 2015,-756 2508,5559l743 3855 1647 5692 72 619 73 2040 43 461c720,266 1143,750 2033,-757 -823,2882 -992,1617 -117,4482 -877,4026 382,669 129,3186 -114,1151 -76,1675 -18,1895 -178,-15 -608,186 -1542,1207 -36,-2953 322,-2709 -343,-5526zm78597 25819c767,2674 -1718,1110 3558,2880 1418,512 224,2242 600,2636 640,673 -1636,-15 -1431,1188 342,2008 -915,2194 1884,1430 3181,-867 3152,-2306 4648,-2691 77,-20 10078,-2625 7637,-929 -2981,2072 -3630,3715 -7626,6025 -1829,1056 -2220,2308 -3207,4077 6335,1398 3713,1905 9119,-2882 1448,-1282 1020,-1256 2980,-2096 -304,4975 -356,2071 -3989,6485 -4584,5571 -3988,6729 -11523,2852 599,-5253 -107,-1890 -2793,-5022 -407,-475 -1957,645 -1243,-598 798,-1388 -1358,-1780 339,-2050 324,-52 -38,-654 -480,-666 -3223,-81 -6,-675 310,-4370 64,-764 66,-1094 -1147,-880 -3688,652 -4247,-110 -7639,-1630 -3646,-1419 -5681,-1759 -7459,-5473 3750,897 13463,4314 16710,2699 84,-1594 -3887,-2162 -5351,-2938 -3014,-1597 -4669,-3118 -8090,-4613 -5418,-2104 -4594,-1754 -9270,-5080 -533,-380 -6206,-3483 -3977,-4471 2330,-1034 9201,7375 14992,7428 4414,-551 1109,-2750 6337,2164 1577,1483 5163,4702 6111,6525zm598 -11414c4257,1717 6408,4972 9247,-1217 990,-2155 -5945,-1187 -8146,-2270 -888,-460 -1479,-889 -2241,-1527 2488,-2529 1268,209 5851,-216 1007,-188 2149,-688 3100,-1071 -1191,-2987 -1166,-2239 847,-5047 -154,1569 -352,3108 -354,4686 3825,-1602 2752,-2261 5227,262 -2099,1303 -3171,2169 -3816,4709 1245,1288 6113,-2130 6070,-985 -124,3356 -7244,8900 -9824,8930 -5725,-490 -14202,-8800 -17426,-13487 -1551,-2255 1727,-2889 2337,-1508 713,1611 3008,3518 4262,4972 1825,2115 2262,2573 4866,3769zm-37597 -37353c-3548,-2473 -2408,-3589 -4231,-3662 -403,-16 -605,594 -1965,-191 -246,-142 -2293,-1898 -3173,-2639 7009,-182 7008,1812 12559,6152 2569,2007 4452,3266 6885,5431 1820,1621 3275,1962 5051,3748 2504,2517 19918,14263 23428,16115 644,301 662,1204 847,1942 -3685,-1002 -5471,-2543 -8763,-3330 -687,-164 -7760,-5130 -9309,-6086 -7044,-4353 -8754,-6691 -14554,-12025 -2215,-2037 -4337,-3692 -6775,-5455zm-11125 29932c77,-1044 257,-1977 463,-2999 2024,1078 818,699 1263,3781 803,4139 963,3300 2746,6370 715,2511 -122,3238 -2772,2969 -473,-50 -835,-106 -1256,-305 -51,-150 -37,-921 -37,-1051 11,-846 463,-917 1215,-1401 -2089,-2698 -1862,-4030 -1622,-7364zm15697 -14901l-3340 -4655c-3424,-6256 -6041,-5139 -3946,-8755 3510,3775 6265,9802 9937,12589 2109,1599 988,2165 1495,3445 118,299 637,-107 1596,632 2713,2348 4439,5353 7021,7962 1581,1222 2174,1603 2921,3694 224,627 -556,2583 -1342,1716 -1411,-1450 -243,228 -1417,-1912 -2771,-5048 -6021,-843 -4058,-2958 1537,-1658 -1368,-1474 -1526,-3100 849,-257 592,-194 -506,-1300 -987,-997 -4152,-4564 -5660,-4389 848,-487 -857,-2565 -1175,-2969zm-18149 -16712c-3078,-2919 -1180,-1480 -2330,-4060 4959,276 2412,1994 5721,2239 97,7 1964,-235 2969,-174l-3567 1048c1734,4390 5184,4573 6518,9506 -2133,-992 -5742,-5175 -9311,-8559zm21665 -1273c-5969,-3949 -7444,-3820 -10008,-6759 3579,-888 3876,-530 6064,1389 2104,1847 -580,550 5082,3275 4034,2148 4489,2637 9042,4276 1028,370 660,495 1033,1648 -5158,-604 -6756,-1139 -11213,-3829zm-4058 -7375c2362,-126 3530,110 6202,1751 2592,1595 2922,1968 4989,4176 -5465,-1861 -6522,-3551 -11191,-5927zm75666 90908c4068,5924 3918,9618 5050,16412 -3813,-3308 -3605,-6937 -4671,-11600 -365,-1468 -1023,-3794 -876,-5276l497 464zm-149126 -64663c-2581,2259 -247,-4104 867,-2228 428,721 -412,1736 -867,2228zm-18067 10067c1020,-1351 1921,-2354 2847,-3815 1172,1157 1215,2666 406,4045 -10,1 -1017,-284 -2248,-97 -644,166 -619,698 -1315,591l310 -724zm35595 15909c-3589,-1193 -1481,-318 -3018,-2304 -1019,-1318 -375,-947 -1641,-2447 371,-194 -728,-1735 1893,-138 61,37 197,291 257,331 1443,969 355,1183 1738,-271 1444,3250 1846,1292 771,4829zm-14134 -33817c-2513,1438 1444,-5312 3252,-3730 808,708 4289,5881 1594,4046 -2033,-1384 -3139,-2489 -4846,-316zm-15389 88385c2021,2832 -176,542 -164,-97l164 97zm-7584 -24143c1898,1208 4704,4441 1400,5844 -1193,507 -3502,-4121 -1909,-6009l509 165zm13890 33269c-1513,-2107 -2355,-2733 -3706,-5216 -633,-1167 -1793,-461 -1497,-1699 380,-1590 -477,-1259 -1256,-2869 -1558,-3218 -916,-247 -1730,-1013 -734,-1359 1823,-3027 -662,-2291 -1475,436 -846,1683 -1922,1128 -318,-214 -156,1123 -402,289 -1931,-4796 -3741,505 -597,-6180 874,-1860 -2795,-2472 -283,-3635 4833,-2236 -1231,-1070 129,-5218 126,-386 1063,-1605 1266,-1676 300,-106 1649,181 2067,753 1188,1624 4839,6669 5383,8121 619,1654 476,4834 -1760,2645 -4622,-4530 -2913,-4033 -5563,-887 -880,1044 -1373,1027 -147,2036 1284,-1125 2651,-991 3429,591 1090,2214 6815,10373 8576,11634 1900,762 5421,-5529 3501,-1136 -1901,4351 -130,3637 -1061,6747 -296,992 -2442,1662 -3279,-980 -161,-508 -239,-670 -486,-1144zm-12499 -2137c2581,-1069 2441,359 3964,2795 2458,3771 4175,6098 6078,10296 -566,-1511 -1036,2022 -2986,-2037l-366 -760c-2108,-3467 -4528,-6818 -6690,-10294zm9430 -38913c-788,-1626 -3290,-5607 -1454,-7149 3054,5398 5788,9794 7772,15761 -3950,-2113 -2671,-2584 -5071,-6551l-1247 -2061zm6373 22716c-3760,-3598 -5538,-8878 -8625,-13291 -2473,-3536 -4108,-6922 -6532,-10394 3382,1554 3574,3735 6190,6565 2814,3046 10182,13625 9518,17410l-551 -290zm-19427 -56021c459,6111 -145,1942 -1979,4841l-1720 -2302 3699 -2539zm-12352 -26519c-1050,1610 -2684,3256 -6784,1703l554 -2593c28,-8 1412,-1942 6230,890zm-91 37459c-718,171 -7319,1754 -7438,1741 -1097,-113 -3762,-2009 -4421,-3203 -737,-1336 -588,-5640 116,-5369 2215,848 2005,-1389 1401,2571 -196,1284 -26,2120 193,3383 1998,624 3987,1197 5998,1777 242,-1134 471,-2268 702,-3404 329,-2001 350,-2275 1017,-3780l1548 -1969c563,4776 -1896,4241 -664,6761l1104 1181 444 311zm-30892 63222c-37,-115 -201,341 -311,507 -932,-10833 -159,-5167 2484,-11951 1599,864 1212,777 722,2961 -534,2377 -1835,6235 -2895,8483zm-14816 -5395c1388,-390 1260,-260 526,1830 -987,2813 -4627,4827 -2039,-553 424,-882 600,-1145 1513,-1277zm51868 -18824c2432,-696 1271,-2492 1708,-2866 184,-159 1474,1391 1790,1534 1242,-1503 1069,-1264 2914,-1080 -2438,4543 519,1031 1649,3833 265,659 292,1378 262,2078 -2163,596 -4336,1030 -6506,1595 168,-1476 174,-2191 1176,-3281 887,-967 -2757,-1070 -3401,-1651l408 -162zm-21863 -19401c610,2299 279,3268 1694,5551 -3074,865 -2850,-240 -3059,-3227 -36,-541 -34,-3425 1258,-2481l107 157zm16759 33630c-1138,-4387 298,-6500 -3404,-9402 -1969,1350 -78,-607 -2033,1906 -603,774 -477,912 -1197,1800 -376,-3282 -521,-9089 4665,-7173 4439,1641 4337,5126 3781,9173 -245,1780 -556,2460 -1812,3696zm60282 50207l2582 72c705,7565 4890,22078 8545,28780 3547,6503 6954,10016 10864,15712 661,964 1132,1766 1661,2806l-588 -510 -567 -486c-4856,-4354 -6453,-7108 -10306,-12133 -1536,-2003 -2494,-5085 -4053,-6146 -1524,-1039 -1855,366 -1539,-2164 244,-1953 -1073,-2654 -1829,-4757 -2120,-5899 -2677,-13279 -4098,-19299 -178,-753 -282,-1211 -672,-1875zm80964 31727c-3496,-304 -3009,-1456 -4202,-3912 3701,469 4288,-13 4202,3912zm295 1901c2415,-2800 182,-705 2671,-1686 1464,2643 2986,4123 4119,7456 -1818,-534 -2634,-979 -3988,-1988 -2144,-1601 -2200,-1606 -2802,-3782zm24146 -125891c-1364,-1158 -1450,-493 -1916,-2407 -1537,2602 -473,2452 -3681,1414 524,-4751 464,-3978 5068,-5227 -1684,3581 2086,401 1244,5342l-715 878zm18856 -10820c936,-1011 1284,-983 2573,-345 -1216,1223 -1789,1877 -2924,3179 -4,-822 -116,-2162 351,-2834zm-24523 -53c-3545,4049 7,394 -823,3830 -4967,4111 -12556,1770 -9927,431 3492,-1777 6915,-3388 10750,-4261zm28689 -21081c481,-1328 714,-1715 2000,-2357 1635,3159 664,3402 1098,4328 527,1122 3952,2353 2872,-1344 -279,-952 832,-2290 1610,1618 300,1508 998,2138 153,3450 -5413,-3149 -2898,-179 -7773,-81 -2619,52 -322,-4530 40,-5614zm18534 3193c1010,2157 -1157,1896 0,0zm4149 5336c-1755,-282 -554,1289 -1268,-2888 -311,-1820 -933,-2708 -2101,-4062 -1473,2069 -596,245 -2620,62 -1332,-120 -174,6166 -4040,1925 -962,-1055 -2151,-6180 -2793,-8064 -1472,-4322 -414,-2453 -503,-3623 -51,-652 -502,-341 1380,-154 4019,400 2800,2248 6804,3152 2838,640 -609,810 1415,4020 1727,2738 2527,3339 4467,5521 1847,2079 182,3195 -98,4338l-643 -227zm1014 -15799c1189,-44 2302,22 3486,94 711,1653 898,1983 76,3628 -1084,-905 -3175,-2405 -3787,-3622l225 -100zm-79644 -25294c-2,1 -873,1243 1131,870 1199,-27 -1155,1589 2814,4322 1483,1019 1991,1442 2206,3282 -9176,-4119 -4995,-1708 -10269,-10035 -1942,-2942 -1464,-5309 -655,-3777 506,958 661,-1359 1429,1280 475,1629 -355,2718 2381,3521 629,184 878,-543 1022,633 35,281 -24,-9 -59,-96zm35096 8283c-477,20 -155,-106 0,0zm5562 13895c1884,2647 174,6819 -254,4168 -224,-1382 -541,-3071 -443,-4457l220 -26 477 315zm-489 5277c778,-279 174,694 0,0zm-26137 -10846c-2569,-8980 -1727,-8329 -459,-17084 359,-2484 948,-8951 -846,-10865 -246,-264 -2100,-1255 -489,-2365 2002,-1380 3794,3245 4031,4786 937,6078 -3396,12887 -1058,22088l523 1720c652,1799 1266,2662 2527,4063 4270,2219 3027,209 6625,4599 -299,-3589 -2029,-15779 -898,-18372 1782,2234 -484,13575 2786,19395 812,1445 518,896 1067,-935 1717,-5725 2221,-10388 6777,-14765 1379,-1211 85,-149 1982,-907 1139,-456 672,-534 809,-2412 698,-9563 -929,-13440 -9493,-18077 -1892,-981 -5580,-2866 -570,-1939 1590,295 2789,636 4266,1270 2780,1599 4016,4506 5189,7329 1064,2730 1905,5459 3094,8140 1769,-4187 -463,-3746 -871,-7304 -161,-1400 -678,-2544 -1144,-3858 2106,908 1182,953 2257,3533 4732,11650 2576,13803 -2217,24777 -1196,3395 -2488,6248 1461,7801 1679,660 -2861,1767 -3751,1590 -1118,-223 -1983,-1076 -2786,-1821 1671,-1434 773,-727 665,-3074 -72,-1538 1901,103 2654,-3396 659,-3055 1931,-4294 2847,-7258 804,-3113 706,-1731 1216,-2754 177,-355 266,-1088 326,-1464 94,-716 -27,-3839 -531,-4376 -1128,1744 -1323,2499 -2809,3686 -5,-15 -1004,2125 -1312,2632 -4091,6973 -6119,13701 -7438,21617 -385,2006 -628,2232 -2615,2637 287,-1374 583,-2741 891,-4110 -1739,-1738 -1770,-328 -2549,-3778 -250,-1112 -965,-4226 -2499,-3767 -5651,825 -12318,-8736 -14195,-13621 -675,-1756 4244,4314 4376,4464 741,851 1334,1413 2161,2175zm39736 -20302l-80 -94c2166,796 2046,-323 3205,6937 -2223,-972 -2070,-988 -3525,-2767 -777,-949 -438,-497 -100,-1943 167,-710 333,-1422 500,-2133zm-7543 26691c-99,-931 127,-1118 718,-1814 -166,3021 -167,1248 1796,-1262 3591,-4590 -1298,-143 -4829,-695 -399,-3201 4308,-399 1855,-3951 -454,-659 -2285,-4063 -145,-3218 3154,1245 4442,3752 7536,5428 2805,1493 3671,1769 5886,4187 -4889,1657 -3061,-1353 -3843,3600 -424,2684 -2705,3601 -3553,8233 -200,1094 -274,2077 -1757,1775 -1440,-438 -2026,-2886 -1496,-4416 204,-589 498,-1252 739,-1831 -2838,2378 -1307,2537 -3444,4499 -2017,1855 -1677,120 -3264,-1900 -708,-902 808,-1805 1749,-2530 513,-395 909,-561 1520,-756 -368,-2297 824,-1128 617,-4122l-85 -1227zm-47627 -6191c1114,-1162 823,-627 0,0zm-3817 2206c531,-344 -131,1051 -606,818 103,-326 361,-587 606,-818zm-13973 -5077c6014,-431 11851,461 17530,2463 142,1705 -1255,1274 -925,2771 424,1927 579,2208 32,4167 -214,-314 -2216,-3269 -2219,-3290 -273,-1671 3311,-3420 337,-2782 -3787,811 -5583,669 -9354,181 2236,2910 2701,2236 4418,4065 1289,1374 -883,1214 -1041,1110 -343,-227 -5320,-4825 -6207,-5583 -821,-701 -2780,-2095 -3239,-2933l668 -169zm29546 -21353c2431,4564 1513,3939 840,9462 -1300,10685 -866,-3449 -2758,-6676 -1265,-2158 -4039,-4041 -6276,-5256 -1339,823 -1617,-408 -2170,-525 -1077,-230 -1420,1343 -5032,-562 -1442,-761 -327,-300 2025,-1584 505,-277 5963,-3297 3596,-710 -2362,2581 6251,-1661 9226,4683l549 1168zm19903 3294c95,-1862 193,-2321 1277,-3884 1888,6342 1894,13245 -3098,18183 2293,-6283 1984,-5400 1922,-12017 -4887,5752 -1971,5168 -4703,-2848 -3302,-8560 -9580,-6973 -10884,-10926 4256,-1927 13072,2634 13367,7983 150,2704 2808,1891 1612,3089 -702,703 -2599,-958 -1298,1600 1217,2036 1578,132 1805,-1180zm3479 -18688c302,1346 -443,924 -2307,1651 -1713,668 -1284,934 -2268,-21 -803,-780 1357,-1532 -1564,-1433 -4310,637 -3182,-1437 -862,-1826 1134,-189 2427,-169 3576,-105 1168,213 2913,560 3425,1734zm-92364 -45382c-438,518 -506,-194 0,0zm43619 6873c-2610,601 -5496,-3676 -6290,-6140 -756,-2350 -211,-4532 -565,-6861 -449,-2940 -3488,-8255 -5192,-10415 -5528,-7336 -92,-3036 -8787,-8659 -194,-125 -1889,-2740 -2417,-3310 -1543,1604 -2351,2946 -4314,4240 -811,534 -2380,3355 -2844,4120 -1453,2434 -6110,9331 -6380,12221 -283,3017 -1427,4539 -727,7435 1008,4178 -3670,3672 48,4323 2055,359 1188,856 1007,3426 -636,11317 428,15472 2252,26297 1008,7098 -1004,9610 -1964,16297 -706,4921 -602,1649 2556,5944 1778,2417 -145,1435 1100,3951 1982,4004 -436,7477 -2093,11093 -2480,59 -3788,553 -2008,-2573 2127,-3736 4933,-885 350,-8621 -3364,-5678 -4579,-1756 -2287,-10568 2503,-9626 4674,-6957 46,-16685 -473,-980 -764,-1711 -1137,-2730l-288 -890c-1513,-8447 4636,-7914 -1438,-18240 -3498,-5946 567,-7757 -1860,-10058 -677,-642 -42,-1605 356,-2617 1927,-4888 4849,-8441 7815,-12821 2372,-3503 6301,-8696 8171,-12313l95 -183c318,-827 1636,-10392 1784,-11917 -3749,2551 -10646,16243 -13211,20868 -535,955 -770,1308 -1206,1857l-469 -2646c33,-486 444,-1895 703,-2523 2250,-4057 4307,-8261 7077,-11984 848,-1140 1228,-1995 1793,-3294 -1826,1059 -3613,2162 -5413,3263 71,-160 196,-584 232,-470 1871,-2727 3529,-4217 4954,-7187 125,-262 4698,-7772 4697,-7810 -805,-141 -1615,1077 532,-1583 1341,2864 428,1170 3373,1102 -1864,2982 -321,2960 1259,4574 -1419,2400 -1477,1157 -2592,3823 2080,-1370 2005,-1969 4593,-1292 1801,472 -1678,971 -1926,2184 -509,2482 2246,4703 185,5124 -3398,695 -3749,1985 -4418,5039 2405,-1480 1948,-2269 4293,-4305 2821,1137 1815,51 1949,2874 246,5167 -2010,1627 2417,5547 2893,2561 1176,-1395 3758,1610 2305,2682 1763,7544 5250,9288 403,-1294 -147,-1146 464,-2009 845,-4815 -2976,-13491 -2807,-18632 4168,3748 1215,3300 3412,7935 2964,6248 3246,5140 2469,12405 -657,5398 -3416,12877 780,17395 1867,-567 2948,-734 3829,-3189l127 -367c-75,-876 -766,-7865 -434,-7961 1679,-482 893,-887 1732,1762 2055,6488 2377,20947 -94,27326 -729,1883 -1227,1341 -1642,-269 -383,-1755 1439,-2100 313,-7178 -524,-2357 -580,-2789 -423,-5293 -101,-6 -234,134 -265,144l-280 126zm7073 -26279c1035,3208 3948,11511 4133,14377 131,2030 158,2558 1298,4315 412,-4232 833,-4943 2,-9209 -127,-646 -481,-4562 -588,-4665 -2788,-3182 -4809,-10882 -6007,-15173 -2045,-7324 256,-2739 4799,539 -1276,-5544 -3450,-9569 -6102,-14489 -153,-282 -1437,-2357 -768,-2665 522,1486 55,-1786 39,-1864 -138,-660 287,-179 887,256 1701,1233 2088,2411 3165,4334 -2425,-2462 -860,499 -218,2227 1631,4384 3158,8325 4562,12818 -2215,1878 -2447,511 -839,4984 692,1925 1518,2924 2185,5082 1267,4546 2978,16209 2424,20812 -1605,-1154 -3624,-2273 -4321,-2445 -965,6360 -432,9209 -580,15126 -296,6826 -2955,14799 -4796,21505 -686,2495 -1472,4788 -2354,7215 -1466,-633 -1025,-411 -342,-3068 1433,-5574 6084,-19599 5985,-24412 -243,-2819 -655,-1768 -321,-5564 370,-4212 559,-8478 14,-12682 -611,-3347 -1750,-5413 -2116,-9249 -1779,-12747 -8834,-18011 -14386,-28320 -646,-1201 -1058,-3038 -1353,-4386 2960,712 2568,1447 4722,3963 4580,5349 5451,7038 8225,13641 977,2326 1836,4611 2651,6997zm-18373 82029c-2244,-1055 -3049,205 -5099,1759 -4712,3574 -2660,3477 -3509,4367 -738,774 -4135,1966 -5021,2309 2331,-5747 1998,-3386 6175,-6733 1653,-1325 1907,-3215 3846,-4971 1376,-1245 1873,-6258 2058,-3963 152,1886 -2591,3836 733,2371 802,-353 612,-270 1514,289 264,-3651 1456,-6290 2921,-9538 1286,-2853 -357,-2767 2539,-1938 -286,3778 -115,-999 -944,2811 -756,3474 -823,1752 936,3189 -4807,-478 -292,530 -3695,4455 -2112,2435 -2592,948 -2454,5593zm6115 -34079c2350,-2916 2075,-865 1539,-5332 -146,-1216 896,-509 1934,-2179 2868,1977 960,1415 -457,6049 -651,2127 -737,3174 -975,5322 4200,3427 -1386,-1198 -1449,3220 -19,1344 2532,-826 1621,442 -35,49 -809,3040 -969,3435 -1341,3326 -1089,2236 -1507,-1073 -250,-1976 -601,-8280 263,-9884zm24494 -29568c-473,-6069 -862,-12291 -1432,-18333 -660,-5268 -3034,-10726 -5022,-15638 2835,3604 1813,3418 3787,6984 1240,2237 2084,3168 2939,5725 611,2276 894,2507 1332,5206 347,2140 1438,9009 969,10673l-408 1453 -1155 5047c-269,1064 -241,678 -424,1405l-460 3688c-18,4106 2466,4382 -2285,4808 1552,-2699 166,-3977 2159,-11018zm-84770 47828c-347,1610 38,648 -1211,1614 -2167,-3053 -196,-818 -2258,-8332l-255 -4351c223,263 523,241 681,780l2519 3183c-14,-3399 403,-7326 3867,-9815 585,2521 518,3098 -555,5250l-2796 4147 -381 526c378,2379 344,2752 368,5075 11,982 184,1169 21,1923zm-112841 136883c1653,1446 469,2549 -1117,3161 -2575,995 -3202,3467 -2601,1857 473,-1268 1764,-5653 3718,-5018zm12908 -12078c1134,3984 -1685,1501 -4933,2725 -2326,877 -1507,2985 -1386,4940 -363,245 -7140,4069 -5158,1518 2569,-3308 5106,-5721 8225,-8462 1546,-1360 789,-1438 2494,-1843l758 1122zm62440 31201c1562,-2378 2605,948 1872,1202 -146,50 -2338,-262 -1872,-1202zm70076 39467c1799,4348 2360,3069 3707,5143 489,754 378,1373 354,2229 -4699,-4629 -4796,-4234 -7970,-10059 -1218,-2236 -951,-1620 1003,-354 276,178 1302,1062 1545,1096l378 -38 485 530 498 1453zm77927 5918c-5226,-4187 -7142,-7657 -8735,-14157 3583,3282 6617,8722 8735,14157zm20719 -112168c-1925,376 -2085,972 -2250,-1944 -69,-1209 469,-1020 1572,-512 811,374 1351,1492 1255,2263l-577 193zm37536 -17638c-942,-3679 -649,-3581 3069,-4891l-1071 2902c-944,1560 -782,1017 -1998,1989zm-76676 -20878c999,-827 -962,-1928 2641,-746 1331,437 718,492 1512,1518 -1194,2459 -9780,1142 -12174,363 -4038,-1312 -8093,-4129 -11946,-6129 -747,-386 -356,-1040 -247,-2037 2647,608 4224,2250 6303,2379 978,61 -1024,-1059 1315,128 1292,656 1992,2251 4870,2295 5479,81 5009,4515 7491,2427l235 -198zm-85373 161449c-1307,492 -2393,847 -3739,1220 418,-1377 780,-2434 1335,-3766 1765,-39 1419,-578 2858,977 218,235 345,1053 151,1256l-605 313zm32129 -17888c1972,561 2143,802 4028,-192 395,3005 555,3251 -1518,5405 -1853,-983 -3359,-2978 -3040,-5199l530 -14zm7305 4716c1682,1873 1978,2107 2911,4547 -1695,182 -3382,351 -5078,512 403,-1347 1072,-4299 1741,-5346l426 287zm4844 -25943c435,-958 400,-478 1803,-1146 1183,4790 1537,1635 3125,5431 1621,3873 660,3415 2735,6218 540,732 799,2756 298,2323 -806,-697 -1202,1564 -3922,-907 -331,-300 709,-4811 -1899,-8567 -725,-1042 -2162,-2019 -2140,-3352zm-1498 16814c3382,114 1039,433 2340,2508 324,517 2113,680 2769,825 61,1143 92,2235 106,3378 -1117,247 -881,-245 -1400,1732 -284,1089 -417,-1262 -1980,-635 -1508,606 -1031,609 -414,-1696 384,-1434 -124,761 -2004,-274 -945,-520 -186,-2238 242,-2946 863,-1429 -2756,860 -2160,-389 682,-1428 -1406,-1275 1649,-2380 391,-142 423,-114 852,-123zm-61078 14670c-159,-132 208,-287 0,0zm9031 -8771c2678,4924 230,1243 -400,3164 -670,2043 -3770,3803 -3751,5254 15,1132 -795,3322 -1990,3594 -703,160 120,1327 -812,-99 -467,-715 -24,866 -659,-724 -946,-2372 -3221,-997 -1460,-2384 10,-8 2207,-95 2341,-266 131,-169 221,-1392 831,-2292 2232,-3289 2043,-2508 3528,-6159 523,-1284 1615,-986 2372,-88zm113631 -143269c1718,2266 725,3687 3298,6869 -933,1307 -3455,506 1077,1339 -133,316 -1346,2928 -1212,2990 2258,1035 1632,57 1579,3302 -39,2408 1366,1257 406,3838 -3601,-1792 -1949,-6706 -3060,-4819 -1374,2334 -3619,-4166 -3741,-5088 -307,-2283 348,-6649 1283,-8676l370 245zm-46878 -39137c-2733,1697 -5186,2955 -6657,5857 -623,1228 -1450,1493 -2670,2059 3172,-6432 5669,-10111 13304,-10786 -1872,2158 12,601 -3977,2870zm23444 -21668c741,-943 1681,-529 2846,-399 -1740,4021 135,3356 -3078,2102 -300,557 -307,2811 -1904,5087 -960,1369 -1850,2005 -3232,2888 -1676,-3927 -470,-2213 1723,-4716 1503,-1716 2583,-2911 3645,-4962zm-1069 -9935c781,1075 -1749,2591 -2377,4216 -723,1874 -841,3784 -3361,4662 -2355,819 405,-4257 772,-5091 241,-547 2624,-6305 3558,-5376 461,458 977,1086 1408,1589zm-95924 196226c2836,3532 837,8020 493,12352 -96,1209 -1141,10586 -860,10936 1184,1483 1165,1053 -1551,1754 214,-5040 -248,-10205 1017,-15136l901 -9906zm-71754 -55517c-1340,-879 -1866,-1947 -1875,-3542 1574,509 2704,1985 2271,3594l-396 -52zm73661 104914c3607,3716 1547,3056 -1397,3042l1397 -3042zm-2235 -17358c-4013,-183 -1659,-367 -2253,2033 -151,612 -957,1288 -1384,1709 69,-2859 -28,-2590 992,-5204 1608,30 1997,-264 2991,1369l-346 93zm175153 -152264c1566,447 2403,433 3210,1919 1412,2599 -3065,1670 -3696,-1004 -177,-751 -354,-516 -109,-1028l595 113zm-76444 -69751c-302,151 -146,-68 0,0zm-149 1286c348,-1392 -198,-1211 1196,-2071 1329,-818 1575,2218 2837,1490 282,-163 525,-4658 586,-5301 1924,527 2649,400 1640,3413 -280,838 -1599,3615 -2565,3901 -553,165 -3541,-358 -3694,-1432z"/>
 </g>
</svg>
