<?xml version="1.0" encoding="UTF-8"?>
<!DOCTYPE svg PUBLIC "-//W3C//DTD SVG 1.1//EN" "http://www.w3.org/Graphics/SVG/1.1/DTD/svg11.dtd">
<!-- Creator: CorelDRAW X7 -->
<svg xmlns="http://www.w3.org/2000/svg" xml:space="preserve" width="594mm" height="841mm" version="1.1" style="shape-rendering:geometricPrecision; text-rendering:geometricPrecision; image-rendering:optimizeQuality; fill-rule:evenodd; clip-rule:evenodd"
viewBox="0 0 594000 841000"
 xmlns:xlink="http://www.w3.org/1999/xlink">
 <defs>
  <style type="text/css">
   <![CDATA[
    .fil0 {fill:#2B2A29}
   ]]>
  </style>
 </defs>
 <g id="Слой_x0020_1">
  <metadata id="CorelCorpID_0Corel-Layer"/>
  <path class="fil0" d="M279156 301530c-4301,-43846 -10740,-35255 -22052,-67495 -3894,-11098 -5975,-11012 -2004,-23311 6731,-20846 8577,-15358 -8118,-42139 -3840,-6161 -9159,-12436 -11944,-17884 -3794,-7426 -1144,-18649 -11614,-17484 3586,-4500 2817,-454 5580,-6033 -2548,-4445 -4217,-5729 -7428,-8708 -5110,-4740 -3861,-2788 -9729,-6285 -828,-8141 -2422,-5405 -3366,-9750l-836 -11357 3986 -1726 15450 -13455 20946 -8225c1543,-6881 4340,-4387 4808,-11810 -14514,801 -2931,7485 -24220,7014 -36138,-800 -42903,17813 -52259,26299 -4057,3679 -5408,4158 -7626,10422l-988 -1419 -2292 3833 -19486 9437 -23 -71c-4,-10 -7,-20 -11,-30 -52,-151 -107,-267 -164,-355 -2912,2849 657,576 -4692,2908 -1600,698 -3448,1094 -4908,1556 3538,13546 15662,9139 27549,13289 717,8809 -715,12742 -4035,20726 -8180,19682 2144,9878 -5146,17607 -9231,9790 -7259,3305 -14123,5913 -4412,1676 -2815,3335 -9583,2235 -4175,-680 -6384,-1533 -7884,-3889 -422,-11219 -1721,-23828 -2450,-35583 -340,-5491 -1208,-12108 -1348,-17562 -229,-8886 3085,-6465 2841,-16652 -7980,-10500 4666,-6998 -11179,-19084 -2919,-2228 -6132,-7628 -7599,-601 -1477,7071 2780,11682 4530,15929l-6024 3374c284,18746 3929,-4062 7204,31666 999,10912 1389,24139 2709,34725l40 6645c-3720,3736 -3005,956 -6231,5698 1957,5511 3907,6467 5720,12016 6490,19879 7474,19757 8487,43248 906,20956 2474,41448 6358,61436l6687 62379c22,7778 -6297,7109 -13475,19234 -2447,4132 -3007,7518 -5976,11166 -1874,2304 -6283,6625 -10138,8163 1359,32171 2966,10028 13978,27410l381908 0 -5978 -15895c-8113,204 -11751,2146 -16754,-3850 -7786,-9327 -2418,-4449 -14054,-8380 2570,-7313 2859,-866 4012,-8917 -5106,-4476 -8209,-2091 -13479,-7602 -4717,-4934 -3578,-8993 -9809,-13025 -8896,-2522 -18523,4120 -28640,2794 565,-2351 30,-1342 1370,-3329 6293,-5985 2371,-6509 -683,-11320 -2821,-4444 -4502,-6574 -4466,-11932 -1989,-2344 1295,-2221 -231,-5930 -1787,-4343 -1789,-11052 -15426,-6546l-2216 -3672c-6770,-4775 -3619,-3426 -6305,-12723 10832,2950 5730,10033 18894,8816l-3606 -6265c-4100,-7040 -9774,-15311 -13520,-23297 16000,-21768 6607,-10987 12534,-23163 2594,-5331 2801,-611 3993,-9607 -2937,-8047 -4502,-3822 -7751,-15806 -1264,-4661 -5143,-12277 -9730,-13632 -3247,-6685 -1238,-2097 -7076,-6761l-779 -638 -705 -700 -10652 -9237c-5241,-4124 409,-1657 -8046,-4516 11627,-21859 -40743,-37793 -33529,-5698l-2390 1432 4177 12966 559 850 629 831c3823,5725 870,-3948 3214,5284 -1455,6535 150,7754 -84,12720 -298,6347 -2787,3629 -2058,11314 -10504,513 -15131,3458 -19838,-4828 -2716,-4780 -5070,-15242 -6258,-20616l-1193 -6753c-6176,-5269 -11973,-6369 -11870,5314 1230,3374 1257,6387 2472,10357 1023,3342 3394,7594 4049,10441 1814,7898 -5877,11204 3427,20592 4426,4466 4675,1430 7374,6839 1171,2344 2371,9354 3091,12654 1744,7988 5087,16789 4737,24953l20678 58030c-209,134 -2790,3025 -2824,3051 -3677,2781 -316,1874 -5916,2710 -2888,-3315 -8120,-2394 -12451,-1363 -16733,3992 -11436,1429 -13509,-85 2250,-3433 -417,-2212 6012,-2910 7374,-548 9387,-4545 12607,-8913 -4368,-5860 -5957,-5988 -8238,-12390l-976 -1002 -1503 -1381 -910 -811c-445,-4638 -3184,-6748 -5981,-10325 -2749,-3519 -3539,-7600 -6640,-9742 -1689,-4316 -13613,-19373 -17585,-21808zm-116316 10668c-7215,26270 -4223,44667 -8563,52493 -5972,-2475 -6403,-3683 -14361,-3786 647,-17892 -10253,-103559 -9410,-127365 -89,-1396 -496,-3949 -334,-5248 647,-5175 -404,-1925 1760,-4417l4854 21522c8128,-207 14810,-4308 20291,-8079l2911 -2243 175 4823 4784 16913c-2100,12133 7189,21549 -2107,55387zm182447 54944c-2814,-13173 -10272,-34024 -15224,-46500 -4808,-12110 -10406,-36739 -11816,-49853 7230,-698 14140,-829 19112,1705 -1482,7827 1604,12370 1627,21408 52,19419 4120,22754 5356,38451 993,12600 -388,16070 7290,13241 1846,8845 6963,15093 6501,25692 -4768,-3709 -6701,-4380 -12846,-4144zm27958 3715l-850 -5459 -4073 -22875c32638,-3418 23475,-1304 28837,15039 1773,5405 3170,6707 4154,12502 -6927,-230 -4368,1855 -12115,-222 -4338,-1162 -5511,-2763 -8737,-668l-2568 -252c-1822,1664 2977,1423 -4648,1935z"/>
 </g>
</svg>
