<?xml version="1.0" encoding="UTF-8"?>
<!DOCTYPE svg PUBLIC "-//W3C//DTD SVG 1.1//EN" "http://www.w3.org/Graphics/SVG/1.1/DTD/svg11.dtd">
<!-- Creator: CorelDRAW X7 -->
<svg xmlns="http://www.w3.org/2000/svg" xml:space="preserve" width="594mm" height="841mm" version="1.1" style="shape-rendering:geometricPrecision; text-rendering:geometricPrecision; image-rendering:optimizeQuality; fill-rule:evenodd; clip-rule:evenodd"
viewBox="0 0 594000 841000"
 xmlns:xlink="http://www.w3.org/1999/xlink">
 <defs>
  <style type="text/css">
   <![CDATA[
    .fil0 {fill:#2B2A29}
   ]]>
  </style>
 </defs>
 <g id="Слой_x0020_1">
  <metadata id="CorelCorpID_0Corel-Layer"/>
  <path class="fil0" d="M398681 219636c-4789,5431 -5092,12372 -15997,9640 -929,-5003 1051,-6311 5479,-8024 3281,-1270 7007,-1832 10518,-1616zm-8255 -69206c2965,2424 3172,3446 6750,2507 4011,-1050 2395,-1047 3677,-1921 -3697,-1042 -5824,-1637 -10427,-586zm-106541 -4512c4958,3446 9653,2678 14278,-1563 -5430,-2218 -10362,-4518 -14278,1563zm-39113 7173l-6255 1728c1383,602 402,1350 3031,528 6544,-2050 1086,-138 3224,-2256 3199,-288 -564,1016 3452,-420 2420,-866 2814,-1257 2984,-1584 6564,-1054 21905,-7767 26894,-10683 10642,-6218 3072,-2437 13456,-2312 6114,72 10471,-3170 16632,-2263 536,5616 -3308,-809 -643,4687 7115,-2269 26974,-3242 33800,-1777 9136,1962 8807,84 16731,428 8390,366 1205,427 8126,2610 2746,864 6958,924 9944,1056 -7487,10635 -13720,10321 -24525,17281 13449,1287 25584,-13195 28713,-14547 5740,-2479 28100,5652 36357,6803l108 -658c2523,-5634 2556,2327 3155,-7381 -8942,-3408 -21620,-6052 -31186,-6389 5238,-8264 18311,-12500 24099,-15738l4495 -3533c-29157,5282 -33277,29262 -48656,20592 1134,-9769 22255,-16995 30209,-21595l5252 -4136c-13577,2542 -24978,10115 -34223,16284 -9006,6009 -33112,-3992 -40692,349 -7745,1814 4363,-1659 -4945,4477 -3648,2406 -5842,1675 -9777,349 1556,-2792 3609,-4573 5398,-6261 -16897,-838 -2793,7396 -29982,6540 3528,-4891 4377,-3442 9023,-6402 -10378,-1737 -8785,6623 -15377,2512 6244,-2191 13393,-3897 14652,-10753 -13190,-6355 -28633,270 -36207,7986 698,395 -2359,2434 3191,865 4017,-1135 -1134,1863 1536,-1910 4683,-6619 19584,-9469 25688,-5350 -2762,7126 -31665,15680 -41379,16037 1462,-4591 292,-1456 2024,-4169l2617 -3314c-2722,396 -27726,3891 -28072,4174 -1612,3084 -2002,3639 -4566,6235 -2638,2671 -1611,2034 -5505,2787 -1286,244 -2475,423 -3776,566 760,-8077 3977,-6398 10247,-9297 -3203,121 -12151,259 -12879,4368 -28,159 -249,5116 -706,4105 -442,-978 -652,-514 -1207,-1588 -738,-1430 -2577,-3266 -4165,-3425 -3080,-308 -6770,2352 -10046,3155 -904,223 -591,167 99,-1085 3001,-5441 8210,-11676 12450,-16276 5292,-5715 7376,-6227 12215,-10382 2904,-2494 2140,-1531 4268,-4179 -7109,1274 -16538,12238 -22990,18713 -6141,6252 -8733,11198 -13217,18348 -1160,1851 -2779,4421 -4719,5506l-239 133 -2451 -726 2790 -6185c-5487,1093 -4252,1246 -5254,4850 -10212,2868 1612,-4422 -13397,2931 8033,-19793 10537,-19131 18374,-31331l1206 -2559c-9215,5628 -19485,23434 -23151,36135l-5667 -2791c3182,-13287 7492,-17269 10591,-25124 -3127,1376 -5719,7800 -7386,11332 -1169,2483 -1848,4952 -3226,7902 -1613,3454 -1342,5925 -3779,1622 -2358,690 -1539,923 -1539,-1813 -20002,-29579 62625,-46948 84276,-50265 7202,-1104 13901,-2070 21347,-2621 3738,-276 7345,-610 11069,-951 1259,-116 3841,-272 4902,-437l5809 -1649c-37321,-744 -149037,17285 -130701,56112 3659,7749 13815,14372 20763,17763 51395,25093 146832,26785 202875,18636 18781,-2730 101782,-18370 89729,-51678l-4490 -5534c812,3542 9868,18664 -6979,27625 -15672,8337 -50770,19598 -68241,16378 -40056,-7379 -83017,-7887 -123388,-4240 -12778,1154 -25565,4168 -37403,5256 -8584,788 -29792,-4408 -36371,-8046 1841,-8076 9443,-21471 18725,-22081 1153,-75 1866,44 2920,500 -900,5083 -2579,4475 -6386,7113l-626 432c6177,14 6153,-3267 9687,-3635 1620,-168 1593,459 3025,936 3146,1047 6829,-1074 9485,-2509 1904,-1018 4729,-628 6889,-739 4597,-236 8263,-1753 12614,-3132 2030,-638 4030,-1107 6108,-1550 -182,1567 -1163,2419 -1957,3748 -1857,3105 -2134,1669 -4902,3644 -1079,769 -1825,1764 -2629,2795 -2554,-427 -4975,-1075 -7505,-1496 1398,3420 1594,2223 -1685,3450 -505,189 -201,-504 -220,-1183l-14 -472c-3453,810 -2921,6 -3792,3529 6742,2410 13396,-2548 18044,-6963 1414,-1341 2759,-1869 4555,-2583 2976,-1138 6030,-2113 9057,-3106 5348,-1761 10725,-3342 16196,-4674 2781,-671 5898,-1357 8749,-1586 -3256,8791 -21452,11558 -28451,16917 -1450,40 -113,-633 -3144,462 -5548,2007 -1981,1032 -3187,2052zm3050 -20184c-5446,6471 -8444,5686 -15748,8184 -2097,734 -2339,1050 -3932,-569 3974,-6468 6730,-6358 13734,-7381 1712,-253 4261,-706 5925,-770l277 105 -256 431zm80733 2363c4100,-6196 9161,-4275 17854,-3901 -5735,4792 -11657,8067 -17854,3901zm17449 1330c2602,-4505 3911,-4203 9456,-4056 8224,218 7433,981 9474,3164 -4185,2102 -12730,4129 -18930,892zm37272 5172c4971,-2734 15309,-4526 18793,1484 -3281,4015 -3942,2956 -9743,1849 -11574,-2206 -7411,-1912 -9050,-3333zm19758 5628c4580,-4712 6729,-6504 12973,-1482 -1234,2496 -806,3982 -5586,3625 -934,-71 -6482,-1890 -7387,-2143zm-222639 7584l2109 -1236c2292,2610 -2274,7031 -4071,8257 -1056,-1854 -1083,-2287 -2190,-5572l4152 -1449zm9502 1649c4833,-1544 1321,937 3303,-3138 -4106,1181 -2287,-2245 -3303,3138zm-24838 1582c1283,-4751 624,-3758 5690,-5147l2073 3914c-2539,755 -4041,1828 -7763,1233zm7763 -1233l321 -3429c1579,1003 1979,337 3330,1407l-3651 2022zm256723 -47462c3043,3300 9731,5578 13973,7318l-5632 -4163c-2894,-1591 -4656,-2303 -8341,-3155 -43619,-19612 -98649,-19595 -151963,-19298 1945,1277 -55,1094 4611,1846 533,86 4635,119 5377,104l32013 -252c12857,343 25963,1701 38822,3162 23935,2718 69839,14345 71140,14438zm25789 16259c-342,-731 -1678,-3681 -2508,-3566 -1278,175 -1465,-330 -563,734 426,500 2667,2763 3137,3028l-66 -196zm-3972 -3673c-877,-1772 1040,-2133 -5760,-4443l5760 4443zm-216975 53605c27038,-3615 115063,-9413 136353,794 -30235,3366 -109723,9024 -136353,-794zm-61349 -2434c6570,2229 13907,5377 20805,5987 1085,96 2563,930 3685,1306 5765,1928 13947,3289 19994,4308 10065,1696 20441,3183 30588,4377 44632,5224 107147,2872 151915,-6778 6045,-1303 21895,-4595 25996,-7254l8142 -2116c-2694,-165 -144,-1084 -4728,224 -5093,1454 -2429,1205 -3414,1892 -2009,151 -37853,8513 -53310,10556 -52836,6936 -102626,6205 -155009,-2866 -6316,-1095 -12945,-2487 -19262,-3335 -450,-60 -3803,-338 -3872,-363 -253,-93 -1863,-1179 -2467,-1475 -2347,-1149 -5479,-1493 -8044,-2212l-475 -133c-4547,-1316 -5713,-2505 -10544,-2118zm265408 -1767l6035 -2905c3031,-528 -248,1052 3412,-775 2554,-1275 1685,-1151 2295,-1758 2552,-415 -984,1571 3102,-824 1817,-1064 1827,-1507 2206,-1973 7319,-1353 23086,-13731 19104,-28776 -1252,-4726 -3119,-4700 -3188,-4757l-585 -4675c1614,3439 5420,5871 8351,11575 2371,4616 4050,9060 5311,14479 3449,14819 4167,22087 -3137,31171 -2809,2359 -1827,1642 -3894,4422 -4375,5884 -1352,2984 -6185,4686 -1878,1153 -2713,1892 -4667,3014 -1157,665 -2745,1258 -3583,1858 -2384,1708 -1138,460 -2396,2816l-5597 2275c-12388,3754 -10253,7450 -15135,7348 -11042,-231 -15244,3129 -27887,5746 -13040,2701 -48527,7889 -57875,12414 -242,-198 -204,-618 -619,-706 -3544,-756 800,168 -1329,-1297 -3482,-2396 -4994,-1934 -11366,-373 -9573,2344 -8368,-913 -16679,486 -4988,838 -10405,3896 -14864,3139 -3690,-625 -2221,-1672 -7073,-2518 -3396,-593 -6815,31 -10481,-90 1380,-2872 9838,-11470 12633,-13544 4607,-3420 12720,-6690 16245,-9764 -24772,2534 -34307,27827 -45474,31136l-512 4056c-6417,10910 -21871,15521 -36255,21261 13175,-80 25337,-6317 33232,-12934 10668,-8939 19837,-23908 27722,-17439 1121,1902 1087,-641 584,2467 -467,2872 -3336,4427 -6077,6884 16357,703 18430,-14688 34980,-9137 -2470,6733 -5353,4380 -10392,7931 10197,5940 13521,-14039 29207,-9492 -2110,7316 -3652,5768 -10731,8249 7192,5500 18273,-11807 32746,-10046 -2370,8653 -16769,10355 -24716,16301l20320 -4515c-9232,16050 -34796,18762 -45779,24739l10868 -796c5413,-4691 33256,-9036 41330,-24440 -310,-218 -761,-428 -1003,-533 -236,-104 -712,-376 -997,-490l-1973 -705c-49,-15 -2334,-358 -2771,-437 3403,-1677 6112,-3546 8733,-6274 2528,-2632 3732,-5070 8223,-5646 -2290,2849 -4949,4544 -5280,9982 10410,1432 11104,-2435 20145,-2698 10116,-295 9399,-1841 17736,-5278 -8994,18419 -28062,25686 -37760,32973 10129,-2162 26930,-14068 32206,-19361 2971,-2982 8642,-10304 11480,-15250 3660,-6376 3586,-10671 13814,-11629 -1162,15402 -24596,35881 -37215,41410l168 1300c14845,-6617 20816,-11731 30078,-21475 8777,-9235 10589,-22722 24583,-27553 247,9853 -3141,5402 -5826,11527 5798,-693 5381,-2262 8384,-7367l6249 -9837 2467 -41c-1117,10216 -2131,5246 -5940,12684 6045,-1453 1722,2410 5795,-3710 630,-948 2542,-4908 3161,-6295l2266 -4375 998 4009c58,4782 -1382,1712 939,4699l3435 -9131c3141,-2767 2345,-1404 3842,-5469l-844 6368 2242 631c14,-321 41,-761 78,-959l2286 -15207c5251,3976 3363,3166 1132,16941l2482 -7565c1887,-4364 -523,-3012 1547,-3783 408,-151 277,-632 447,-932 473,15492 -7013,31060 -17551,40938 -2868,2687 -2349,2053 -5113,3432 -24313,21879 -93728,30115 -132784,33019 -53263,3114 -129211,-1989 -177289,-25017 -22746,-10896 -24780,-20931 -31682,-34975l-674 -3860c4380,-5035 4242,-3862 2019,-10849 -2921,2887 -809,-184 -2134,3894 -1015,3127 488,384 -328,2217 -2200,-2762 -1538,-2929 -1401,-7081l-105 -6502c4629,4413 2295,6188 9300,7697 -2069,-4845 -3341,-5777 -7088,-9209 -1252,-1312 -1343,-3110 -1714,-4817 -1233,-5676 679,-247 3312,-1025 1888,-558 1448,-3574 -47,-4965 -1404,-1310 -412,-137 -2094,-1217 -2723,-1748 -2223,-3088 -1886,-5971 333,-2860 764,-5773 1249,-8612 114,-657 235,-1313 359,-1968l45 -238c1801,-8555 5232,-14540 9737,-21915 374,7277 -1411,12182 2337,18466 3005,5037 5831,8078 11203,11128 -731,-2612 153,-1101 -1660,-3341 -6935,-8571 -11649,-7740 -7301,-27473 11318,-11027 12734,-13147 29564,-19989 60056,-24415 160093,-25947 223297,-14602 23241,4202 45532,10046 66210,21673 2017,1134 5582,3342 7747,3926 1813,5122 656,2614 3916,5829 848,836 1175,1300 1955,2014 2267,2075 550,995 3053,2182 -338,15045 5955,15765 -12779,30152l-3155 3270c-2518,69 -577,-812 -3339,828 -2265,1343 -1187,945 -1990,1983 -2632,-109 -1025,-592 -3465,663 -1945,1000 -1491,1234 -2203,1967 -1772,99 -459,-826 -3281,451 -2856,1291 -1893,1319 -2754,2454zm-309376 26610l10185 1852c5623,-494 6400,-3030 11014,-4978 5378,-2270 9844,-671 15194,125 -1817,-2165 -3408,-3612 -7596,-4678 -15841,-4034 -16036,9925 -27352,6056 -2550,1906 93,-1672 -1445,1623zm6875 4938c-2537,203 -2106,-492 -1517,1918 10783,5507 13755,-1021 23780,4222 -939,-3773 -3047,-4725 -8271,-5379 -4672,-587 -8873,-40 -13992,-761zm90925 29178l6138 440c2665,-1691 2570,101 -554,-1611 -14039,-3613 -21262,-13473 -36603,-11467 7005,2577 8571,1638 14501,6219 5015,3876 7988,6248 16518,6419zm5584 -2361c5022,1308 5074,2210 9969,-266 -21549,-2062 -511,-23269 -32934,-24451l3863 2992c4974,3295 5609,2545 7637,9697 1918,6761 4359,11006 11465,12028zm133574 -12047l12781 -1637c-522,-770 -931,-3880 -4694,-4037 -3534,-148 215,-255 -2001,590 -1208,459 -4695,2191 -6086,5084zm-92804 18538l8 -482c-5996,-1033 -9463,-419 -12921,-4780 2702,-4721 2261,-3150 7268,-4131 394,-77 803,-73 1160,-153l1773 -611c154,-54 464,-274 686,-428 -2904,-1759 -16819,-3551 -15277,8997 7723,4555 9570,1156 17303,1588zm1046 -20407l-8166 3166c4045,2523 8493,3136 12997,0 -1616,-1203 -2634,-1450 -4831,-3166zm137274 7271c-3802,1985 -6817,4126 -10824,2697 -3303,-8072 11192,-10086 18895,-11305 -2179,5990 -1913,5391 -8071,8608zm-129288 47308c42270,1911 91235,-1423 130745,-11208 39833,-9865 72277,-21635 80383,-63447 3817,-19685 2109,-44512 -6707,-61395 -8442,-16166 -20870,-23171 -40089,-31769 -29240,-13079 -85253,-20964 -121684,-21857 -46243,-1134 -89544,1132 -132163,11492 -37471,9110 -72951,20752 -80277,63880 -3069,18408 -1912,44003 6778,60817 8137,15528 21940,23670 40280,31639 35016,15215 80917,19958 122734,21848z"/>
 </g>
</svg>
