<?xml version="1.0" encoding="UTF-8"?>
<!DOCTYPE svg PUBLIC "-//W3C//DTD SVG 1.1//EN" "http://www.w3.org/Graphics/SVG/1.1/DTD/svg11.dtd">
<!-- Creator: CorelDRAW X7 -->
<svg xmlns="http://www.w3.org/2000/svg" xml:space="preserve" width="594mm" height="841mm" version="1.1" style="shape-rendering:geometricPrecision; text-rendering:geometricPrecision; image-rendering:optimizeQuality; fill-rule:evenodd; clip-rule:evenodd"
viewBox="0 0 594000 841000"
 xmlns:xlink="http://www.w3.org/1999/xlink">
 <defs>
  <style type="text/css">
   <![CDATA[
    .fil0 {fill:#2B2A29}
   ]]>
  </style>
 </defs>
 <g id="Слой_x0020_1">
  <metadata id="CorelCorpID_0Corel-Layer"/>
  <path class="fil0" d="M103480 182817c-713,210 -1379,623 -2062,975 -763,394 -1548,712 -2333,1030 411,-1633 821,-3267 1248,-4878 459,-1735 937,-3444 1085,-5312 64,-802 67,-1633 489,-2276 187,-287 458,-536 759,-705 949,-531 2206,-268 3256,109 1212,434 2147,1020 3527,1300 699,143 1513,206 1791,651 237,380 83,1037 -55,1626 -223,948 -405,1714 -325,2601 45,496 171,1029 54,1464 -178,661 -920,1097 -1519,1626 -571,503 -1013,1090 -1628,1355 -477,205 -1058,217 -1628,217 -926,0 -1825,-30 -2659,217zm421203 -43302c-453,-308 -878,-675 -1368,-835 -3661,-825 -7384,8291 -4703,-5519 446,-2300 1048,-4571 1628,-6840 722,-2840 1450,-5890 2043,-8921 572,-2918 1017,-5820 2027,-8572 215,-586 455,-1165 801,-1695 543,-831 1345,-1541 1697,-2402 517,-1262 65,-2848 28,-4315 -13,-525 27,-1035 94,-1542 219,-1674 722,-3322 1216,-4952 759,-2505 1498,-4971 2011,-7569 243,-1231 435,-2491 1076,-3551 229,-378 515,-732 898,-975 773,-494 1939,-541 2460,-1067 648,-655 295,-2054 46,-3338 -467,-2413 -568,-4423 -1185,-6157 -329,-924 -805,-1769 -1041,-3176 -209,-1252 -227,-2950 -722,-2887 -310,39 -805,767 -1243,1386 -675,954 -1213,1649 -1388,2512 -162,804 -10,1753 25,2673 71,1835 -323,3551 -618,5299 -168,999 -304,2007 -457,3013 -337,2223 -947,3354 -1424,5541 -469,2150 -1026,4436 -1472,6616 -519,841 -289,3175 -1157,4737 -331,596 -903,2458 -1468,2863 -429,308 -946,525 -1451,540 -758,23 -1488,-412 -2163,-853 -971,-633 -1829,-1279 -2704,-1961 -279,-218 -561,-439 -740,-768 -87,-158 -150,-342 -140,-495 36,-564 1052,-726 1497,-1151 570,-543 205,-1514 0,-2415 -520,-2286 -16,-4123 303,-6117 169,-1052 287,-2148 718,-3152 306,-714 772,-1382 785,-2163 16,-899 -567,-1946 -214,-2640 203,-400 719,-682 1214,-928 866,-429 1670,-747 2582,-683 717,50 1501,337 2091,-222 268,-255 496,-684 356,-889 -106,-153 -419,-179 -668,-266 -785,-276 -933,-1165 -1290,-1867 -632,-1245 -1922,-1903 -2802,-2888 -1005,-1124 -1474,-2674 -2091,-4088 -1033,-2367 -2476,-4352 -3847,-6655 -540,-906 -1068,-1861 -1906,-2346 -493,-286 -1094,-409 -1684,-576 -1269,-358 -2485,-921 -3501,-1549 -814,-503 -1498,-1049 -2171,-2169 -520,-865 -1033,-2073 -1285,-1992 -236,76 -244,1284 -177,2213 80,1138 270,1860 576,2656 368,962 904,2033 1728,2789 756,693 1754,1122 2317,1919 743,1052 827,2946 841,4202 4,373 4,765 -192,1043 -122,173 -320,302 -468,467 -179,199 -285,452 -412,686 -870,1608 -2711,2393 -4303,3406 -1223,779 -2299,1692 -3404,2485 -429,308 -863,597 -1222,1090 -211,290 -397,650 -305,915 89,256 438,422 742,567 508,242 889,423 1464,548 549,119 1275,186 1385,562 67,227 -91,566 -260,865 -430,762 -929,1258 -1472,1773 -467,443 -966,900 -1602,1168 -441,186 -947,281 -1256,563 -453,413 -477,1229 -692,1903 -435,1359 -1649,2138 -2598,3157 -661,709 -1194,1534 -1511,2411 -526,1458 -456,3060 -756,4669 -269,1449 -837,2904 0,4257 375,605 1031,1190 825,1716 -63,163 -210,321 -343,481 -313,376 -549,764 -757,1167 -1109,2159 -1380,4737 -1899,7209 -741,3541 -1989,6867 -3478,10096 -2058,4467 -4576,8751 -7716,12594 -2693,3294 -5843,6265 -9203,8699 -845,612 -2415,1706 -3465,1765 -765,43 -1385,-429 -2514,-407 -544,10 -1205,134 -1223,-68 -13,-135 261,-415 543,-611 619,-430 1276,-455 1563,-882 179,-267 214,-691 272,-1086 111,-763 309,-1422 475,-2104 346,-1426 552,-2954 593,-4466 41,-1475 -75,-2933 -135,-4394 -77,-1820 -69,-3644 -136,-5476 -64,-1765 -198,-3537 0,-5273 337,-2957 1698,-6005 715,-8967 -293,-881 -851,-1885 -85,-2694 288,-304 711,-473 970,-758 434,-478 405,-1284 421,-2021 16,-696 73,-1330 253,-1936 168,-566 442,-1107 708,-1677 280,-598 552,-1227 525,-1835 -31,-737 -499,-1445 -971,-2098 -465,-645 -934,-1236 -1548,-1678 -899,-646 -2110,-969 -3229,-865 -805,75 -1563,371 -2283,760 -1367,738 -2319,1665 -2546,3251 -110,764 -22,1702 -551,2334 -363,432 -992,631 -1328,1096 -260,357 -346,874 -261,1300 57,285 190,529 417,781 148,164 335,332 338,468 5,206 -413,338 -755,442 -476,145 -803,235 -1172,339 -712,200 -1581,453 -2096,1069 -347,415 -534,994 -414,1528 76,336 272,653 290,950 32,552 -554,1033 -1034,1528 -1021,1053 -1560,2169 -1984,3387 -268,768 -490,1578 -455,2436 25,607 178,1238 -10,1755 -163,448 -585,810 -902,1229 -662,874 -868,1999 -821,3073 48,1088 354,2124 369,3197 16,1112 -282,2265 -966,3193 -410,557 -959,1034 -1587,1220 -690,204 -1476,58 -2199,0 -1339,-107 -2464,92 -3990,813 -1078,511 -2356,1282 -1994,2074 120,263 420,528 733,610 568,150 1180,-302 1709,-284 651,22 1176,754 1588,1423 372,605 652,1157 896,1708 386,874 681,1743 1221,2806 284,559 635,1171 448,1545 -195,390 -976,520 -1629,407 -1228,-214 -2003,-1291 -2931,-1180 -461,56 -961,406 -1465,570 -1110,360 -2246,-183 -3382,-724 -916,-419 -972,-580 -745,-1547 333,-1420 463,-2637 631,-3895 294,-2206 706,-4535 1491,-6759 464,-1317 1060,-2597 1089,-3952 19,-880 -201,-1792 -401,-2635 -303,-1276 -559,-2393 -1327,-3815 -326,-602 -742,-1259 -455,-1648 129,-176 403,-298 626,-455 834,-589 940,-1677 1312,-2592 389,-956 1069,-1722 1751,-2482 1114,-1243 2232,-2468 3161,-3835 1856,-2729 2879,-5850 3525,-9059 263,-1304 467,-2624 900,-3877 466,-1348 1195,-2617 1696,-3931 461,-1207 729,-2452 1849,-3470 795,-723 2018,-1331 1737,-2183 -91,-278 -344,-583 -616,-671 -376,-123 -789,165 -1177,447 -1674,1219 -2870,2317 -3970,3719 -703,895 -1367,1914 -1730,3011 -87,260 -61,125 -118,393l-9971 10768c-159,-711 -232,-1187 -326,-1915 -334,-2588 -294,-5470 -177,-8054 102,-2268 264,-4307 -92,-7071 -66,-514 -150,-1054 138,-1309 247,-218 767,-228 1035,-448 384,-315 248,-1064 -34,-1619 -503,-989 -1468,-1359 -1847,-2219 -124,-281 -185,-614 -172,-927 42,-979 813,-1766 1306,-2643 557,-991 758,-2096 962,-3191 151,-815 304,-1625 332,-2458 37,-1144 -163,-2333 -753,-3316 -679,-1132 -1875,-1991 -3217,-2223 -892,-154 -1848,-31 -2568,376 -865,491 -1388,1394 -1949,2436 -141,262 -284,533 -533,575 -443,76 -1220,-574 -1300,-511 -64,52 325,564 512,1001 308,719 73,1235 -6,1849 -59,455 -31,965 -373,1318 -261,270 -739,448 -981,372 -354,-112 -202,-768 -203,-1521 0,-1281 -438,-2842 -744,-2501 -300,334 -473,2493 -880,2400 -282,-65 -676,-1214 -913,-1521 -405,-523 -354,1401 -305,3008 31,1026 61,1922 -135,1926 -214,4 -696,-1054 -1049,-1825 -650,-1420 -861,-1868 -1417,-3607 -423,-1319 -1043,-3379 -1222,-2673 -101,394 -63,1649 -443,1578 -348,-64 -1047,-1243 -1053,-1073 -3,61 83,292 161,510 488,1363 679,2192 963,3206 252,903 577,1953 776,2876 250,1153 304,2106 1066,3567 173,330 381,686 267,798 -103,100 -464,5 -746,-107 -720,-284 -926,-675 -1386,-1330 -541,-771 -1432,-1908 -1652,-1544 -93,154 -65,578 0,958 281,1626 1258,2447 2025,3567 446,651 821,1402 959,2182 152,855 18,1744 -159,2608 -352,1714 -877,3333 -1390,4991 -828,2672 -1628,5445 -1607,8196 16,2153 536,4294 1256,6417 530,1563 1168,3116 1106,4683 -38,965 -341,1935 -632,2894 -332,1095 -648,2175 -784,3288 -123,1005 -100,2036 -197,3047 -95,981 -303,1944 -525,2917 -183,802 -376,1612 -754,2326 -780,1471 -2259,2450 -3418,3602 -693,690 -1345,1504 -1634,2368 -292,872 -213,1795 -266,2897 -29,602 -97,1257 348,1551 170,113 416,173 592,143 568,-95 409,-1117 429,-1918 23,-905 272,-1530 572,-2143 259,-530 555,-1051 1205,-1490 386,-260 896,-491 1083,-346 191,147 44,687 -51,1160 -210,1038 -175,1759 -361,2520 -192,788 -621,1618 -926,2468 -675,1877 -743,3845 -1078,5728 -269,1519 -711,2983 -922,4609 -52,400 -90,810 -257,1127 -394,751 -1507,983 -2512,1076 -1433,132 -2645,-19 -3897,0 -1689,26 -3450,361 -5211,697 -804,183 -1607,365 -2057,-48 -627,-575 -670,-2352 -718,-3153 -72,-1210 -230,-2487 -478,-3632 -246,-1130 -579,-2131 -683,-3549 -30,-402 -41,-838 187,-1008 257,-192 819,-45 1140,206 490,383 419,1009 336,1736 -39,347 -80,716 57,841 170,155 618,-71 1014,-276 1193,-617 1921,-1043 2753,-1564 1282,-805 2812,-1837 3893,-2940 1452,-1484 2090,-3095 3380,-5620 307,-600 651,-1253 503,-1476 -191,-289 -1196,133 -1981,324 -740,182 -1283,159 -1892,89 -596,-68 -1255,-181 -1803,-443 -733,-351 -1266,-969 -1981,-1506 -401,-302 -860,-578 -984,-993 -84,-281 -15,-626 -141,-937 -238,-586 -1170,-1052 -1595,-797 -206,123 -293,414 -423,750 -137,355 -322,760 -516,750 -171,-10 -350,-345 -469,-656 -330,-863 -203,-1539 -375,-2203 -292,-1126 -1439,-2218 -1639,-3414 -154,-927 259,-1917 468,-2895 204,-960 210,-1909 420,-2849 103,-459 255,-916 141,-1400 -180,-760 -1014,-1588 -736,-2084 139,-248 556,-412 927,-602 452,-231 836,-498 1021,-880 241,-500 144,-1195 -93,-1761 -213,-508 -537,-912 -835,-1343 -414,-600 -776,-1251 -1020,-1946 -216,-613 -341,-1259 -557,-1854 -189,-518 -447,-996 -464,-1621 -9,-333 50,-708 290,-851 238,-142 654,-54 874,-184 267,-157 247,-633 230,-1057 -36,-902 -58,-1569 -45,-2299 19,-1172 127,-2508 -277,-3678 -546,-1583 -2027,-2865 -3728,-3311 -1364,-357 -2868,-176 -3958,552 -1187,793 -1883,2235 -2394,3632 -481,1315 -799,2591 -1059,3954 -177,931 -327,1902 -832,2667 -628,950 -1635,1425 -2467,2144 -916,791 -1561,1882 -2101,3011 -740,1549 -1279,3172 -1690,4745 -532,2040 -847,3998 -997,6453 -78,1281 -111,2698 -997,3259 -369,234 -885,320 -1360,408 -1237,230 -2192,478 -3651,611 -606,55 -1299,90 -1439,539 -72,228 0,565 180,763 103,114 241,182 359,270 369,272 551,735 765,1168 485,980 1138,1812 2024,2426 648,449 1421,782 1844,1393 539,778 507,2007 128,2944 -131,324 -304,613 -492,892 -606,901 -1372,1695 -2142,2496 -856,892 -1718,1792 -2499,2675 -841,952 -1587,1884 -2856,2720 -416,274 -889,538 -938,891 -40,297 217,657 358,1026 277,731 92,1496 491,2095 388,584 1331,1010 1918,847 776,-215 930,-1458 1295,-2452 439,-1197 1185,-2033 1874,-2764 567,-601 1095,-1132 1919,-1961 411,-413 895,-900 1072,-848 216,65 -27,937 -176,1662 -282,1370 -233,2218 -397,3129 -214,1180 -787,2467 -1412,3834 -429,937 -881,1912 -618,2732 139,433 477,823 662,1322 232,629 222,1431 -176,1851 -285,300 -767,405 -1236,485 -1466,250 -2805,262 -4147,44 -986,-160 -1974,-444 -2961,-728 -736,-302 -1472,-604 -2093,-1115 -391,-321 -736,-725 -907,-1184 -162,-434 -169,-919 -209,-1394 -113,-1321 -488,-2572 -728,-3848 -246,-1315 -349,-2656 -472,-4009 -69,-768 -145,-1539 -276,-2273 -214,-1207 -576,-2313 -551,-3720 14,-814 158,-1728 -414,-2135 -171,-122 -406,-198 -552,-345 -195,-196 -231,-517 -276,-826 -114,-790 -286,-1495 -344,-2204 -97,-1164 110,-2342 -292,-3647 -176,-571 -469,-1167 -215,-1587 261,-431 867,-512 1159,-858 206,-243 245,-626 301,-986 118,-753 314,-1409 472,-2102 156,-683 274,-1402 516,-2059 190,-518 457,-997 644,-1544 350,-1024 9,-1238 -601,-2016 -561,-715 -882,-1529 -1503,-2102 -677,-623 -1709,-962 -2663,-901 -1658,107 -3310,1494 -3993,2960 -368,787 -498,1655 -773,2531 -216,684 -520,1374 -1055,1781 -451,342 -1065,485 -1500,885 -198,183 -359,419 -409,681 -34,181 -16,374 -68,545 -56,182 -192,340 -341,476 -695,638 -1657,799 -2454,1226 -783,420 -1407,1097 -1976,1838 -663,862 -1251,1810 -1296,2860 -25,592 124,1216 0,1770 -129,583 -558,1089 -749,1702 -201,642 -141,1402 227,1934 434,627 1298,938 1691,1554 337,528 328,1280 203,1959 -184,995 -618,1834 -1015,2703 -1196,2614 -2067,5533 -4265,7518 -746,673 -1655,1256 -2612,1220 -704,-26 -1434,-388 -2106,-252 -467,94 -906,428 -1179,883 -298,495 -398,1133 -127,1599 255,438 839,725 1348,673 383,-38 724,-269 1095,-294 271,-19 558,71 801,210 533,306 856,848 1305,1262 664,612 1606,943 1938,1852 136,372 170,841 -84,1094 -49,48 -109,89 -169,126 -1245,766 -2832,6 -4338,-337 -1546,-351 -3006,-263 -4465,-174 -415,-7 -831,-15 -1098,-244 -284,-243 -618,-1100 -692,-1463 -88,-433 -48,-893 -203,-1341 -113,-327 -331,-647 -326,-935 8,-444 543,-811 1017,-1138 846,-582 1499,-1037 2043,-1796 288,-402 544,-887 938,-1088 410,-210 970,-110 1495,-102 646,10 1240,-119 1814,-338 985,-377 1810,-974 2379,-1876 578,-917 630,-1644 -63,-2502 -570,-709 -1379,-1137 -2191,-1501 -1111,-499 -2229,-878 -3400,-1288 -805,-281 -1637,-577 -2237,-1117 -740,-665 -1129,-1699 -1429,-2731 -471,-1618 -722,-3228 -1057,-4717 -271,-1212 -598,-2343 -1249,-3728 -190,-403 -406,-828 -232,-1121 92,-154 292,-271 426,-425 177,-204 240,-472 309,-735 215,-814 492,-1580 735,-2357 256,-816 475,-1643 890,-2435 195,-371 432,-735 465,-1121 26,-315 -83,-645 -194,-967 -212,-616 -431,-1203 -735,-1739 -444,-786 -1068,-1467 -1857,-2049 -580,-428 -1249,-802 -1896,-734 -366,38 -726,218 -1084,386 -523,246 -1046,467 -1470,812 -509,413 -878,1004 -1239,1585 -849,1365 -1569,2587 -1586,4252 -7,663 106,1362 -232,1894 -151,237 -392,441 -658,541 -373,139 -795,73 -1193,36 -385,-35 -747,-42 -1152,-77 -338,-28 -706,-76 -960,77 -280,169 -422,584 -461,959 -42,406 36,766 0,1151 -38,410 -205,849 39,1227 137,214 406,408 384,575 -19,146 -256,272 -461,384 -284,155 -509,282 -691,461 -410,401 -601,1062 -883,1649 -426,884 -1060,1598 -1459,2416 -336,687 -507,1446 -807,2228 -125,324 -271,653 -239,955 37,344 307,653 502,1003 213,380 338,808 239,1194 -58,228 -194,441 -263,669 -114,376 -46,793 88,1184 160,469 414,901 847,1148 295,168 674,250 846,483 162,218 142,568 121,906 -94,1545 -205,2830 -302,4169 -180,2489 -313,5166 -726,7733 -269,1675 -658,3302 -726,5015 -22,559 -10,1128 -192,1644 -184,519 -563,984 -1017,1317 -373,272 -795,455 -1206,639 -643,289 -1259,580 -1920,941 -384,209 -782,441 -1168,414 -583,-42 -1135,-676 -1695,-790 -453,-92 -910,156 -1367,492 -453,218 -710,44 -1120,-182 -1242,-683 -2476,-1056 -3710,-1429 -302,-58 -604,-116 -784,-262 -439,-353 -167,-1224 0,-2003 332,-1553 246,-2738 367,-3978 213,-2181 1066,-4529 1911,-6766 426,-1126 849,-2224 1026,-3386 130,-851 127,-1737 0,-2592 -243,-1642 -944,-3173 -1471,-4754 -631,-1891 -1013,-3853 -1635,-5726 -802,-2419 -2002,-4690 -2844,-7146 -459,-1340 -811,-2736 -606,-4154 58,-400 161,-803 376,-1126 378,-566 1102,-884 1449,-1501 188,-334 266,-755 107,-1125 -223,-522 -916,-940 -818,-1368 52,-224 318,-449 589,-587 548,-282 1112,-202 1657,-321 542,-118 1065,-431 1444,-854 458,-514 701,-1190 802,-1870 252,-1718 -424,-3577 -856,-5233 -305,-1171 -541,-2367 -1069,-3472 -393,-820 -947,-1590 -1230,-2403 -289,-832 -294,-1709 -106,-2761 91,-506 227,-1053 0,-1330 -151,-185 -462,-250 -745,-479 -236,-190 -453,-495 -373,-638 71,-128 377,-127 639,-160 842,-106 1250,-602 1491,-1383 340,-1099 71,-2264 373,-3351 184,-663 585,-1264 799,-1915 179,-544 229,-1124 320,-1703 106,-679 270,-1359 213,-2021 -44,-501 -213,-992 -373,-1490 -258,-800 -493,-1615 -994,-2257 -490,-629 -1233,-1093 -2016,-1325 -1225,-364 -2669,-165 -3714,582 -814,583 -1367,1498 -1751,2438 -450,1103 -773,2629 -1697,3445 -291,256 -635,425 -1008,636 -506,285 -1065,646 -1539,477 -265,-95 -502,-355 -637,-636 -159,-336 -172,-702 -159,-1060 23,-643 128,-1257 265,-1908 72,-340 153,-690 0,-1007 -79,-165 -221,-321 -371,-371 -290,-96 -606,210 -902,477 -675,611 -1243,1019 -1751,1537 -942,962 -1676,2300 -2228,3710 -647,1652 -1046,3403 -2228,4557 -343,335 -751,619 -1195,859 -825,445 -1771,734 -2369,1367 -443,468 -696,1125 -948,1788 -300,790 -599,1590 -474,2366 74,456 293,904 369,1367 65,396 24,804 0,1210 -12,195 -19,390 -53,579 -75,422 -282,814 -474,1209 -910,1875 -1480,3795 -2017,5832 -367,1392 -719,2838 -1017,4093 -132,558 -254,1077 -164,1867 36,310 104,662 263,687 131,22 325,-181 492,-360 329,-354 547,-618 786,-916 542,-676 1081,-1375 1509,-2129 273,-483 461,-812 1016,-426 186,130 339,301 360,491 18,157 -54,326 -98,491 -111,419 -43,807 -76,1270 -25,343 -105,726 52,939 150,203 513,252 836,313 657,125 1150,302 1776,366 333,34 703,36 941,208 379,276 422,985 261,1514 -76,249 -198,459 -366,626 -295,294 -735,458 -1044,731 -324,284 -507,689 -889,991 -269,214 -639,377 -888,313 -315,-81 -438,-524 -574,-1044 -158,-600 -333,-1302 -575,-1252 -171,35 -375,444 -575,783 -288,489 -567,832 -627,1252 -55,394 82,855 157,1305 106,627 91,1234 157,1826 104,939 411,1841 1045,2714 696,958 1787,1881 1596,2766 -102,475 -571,938 -985,1397 -815,906 -1414,1797 -2098,2636 -1159,1421 -2563,2693 -3913,4153 -1499,1622 -2932,3476 -3633,5192 -450,1100 -598,2143 -1211,3880 -397,1124 -988,2539 -555,2571 246,19 824,-411 1261,-806 553,-500 880,-945 1262,-1412 763,-932 1744,-1951 2573,-2772 641,-634 1192,-1150 2019,-2117 544,-637 1209,-1469 1412,-1310 161,125 36,863 -101,1512 -440,2096 -1004,3253 -1715,4587 -670,1258 -1472,2672 -2236,4040 -929,1661 -1804,3253 -2671,4928 -357,690 -713,1393 -1545,1712 -498,191 -1168,244 -1247,592 -43,186 84,457 187,716 174,439 279,845 561,1121 255,250 655,393 904,686 211,247 314,601 562,778 313,226 858,167 1216,-62 439,-282 595,-822 873,-1215 325,-460 817,-719 1372,-1090 453,-303 947,-682 1341,-498 188,88 354,305 436,529 155,420 21,863 -124,1277 -190,541 -400,1031 -531,1589 -831,3930 -2534,2012 -6332,2638 -1107,183 -12726,3604 -11860,1387 428,-1094 441,-800 705,-2059 79,-356 210,-758 475,-949 312,-225 809,-156 1221,-271 421,-118 752,-429 1086,-678 343,-256 690,-445 1086,-745 658,-500 1454,-1310 1900,-1085 326,164 465,882 950,1288 339,284 846,415 1086,271 333,-201 145,-935 0,-1559 -252,-1079 -376,-1825 -543,-2644 -253,-1236 -605,-2637 -1086,-3931 -505,-1357 -1152,-2595 -1709,-3920 -237,-562 -457,-1140 -549,-1730 -169,-1073 85,-2188 211,-3293 124,-1089 123,-2169 127,-3250 6,-1622 23,-3246 58,-4880 22,-1032 52,-2067 -387,-3056 -214,-483 -541,-955 -501,-1419 29,-345 262,-685 501,-1001 461,-607 948,-1122 1253,-1752 226,-466 353,-995 628,-1463 390,-664 1077,-1208 1223,-1897 101,-480 -60,-1030 -182,-1559 -219,-941 -317,-1815 -599,-2729 -573,-1864 -1394,-2186 -3277,-2312 -815,-54 -1625,-67 -2238,312 -404,250 -722,670 -1014,1091 -397,573 -743,1146 -1041,1741 -322,645 -586,1315 -1065,1923 -270,344 -414,334 -829,233 -661,-160 -1247,-313 -1866,-284 -777,35 -1607,355 -2202,880 -708,623 -1086,1535 -1426,2433 -362,955 -681,1894 -758,2903 -45,576 -10,1176 -207,1702 -214,572 -795,1210 -1265,1599 -272,225 -562,414 -774,747 -126,198 -224,446 -439,465 -136,11 -319,-69 -362,-181 -39,-104 43,-235 104,-361 134,-278 167,-534 206,-799 59,-392 131,-802 155,-1212 34,-593 -33,-1187 -169,-1756 -251,-1051 -736,-2018 -1117,-3061 -190,-521 -354,-1061 -329,-1593 25,-533 239,-1059 329,-1594 113,-673 29,-1360 -51,-2049 -60,-523 -119,-1048 -203,-1545 -113,-670 -274,-1291 -320,-2079 -23,-390 -18,-821 198,-1022 221,-206 662,-171 997,-374 282,-169 488,-506 449,-772 -42,-289 -374,-495 -723,-647 -683,-299 -1433,-394 -1635,-962 -271,-761 575,-1035 544,-1483 -11,-165 -146,-349 -297,-470 -582,-466 -1365,51 -1583,-123 -110,-88 -77,-348 -74,-569 6,-504 -144,-803 49,-1309 220,-578 596,-990 -297,-519 -547,288 -880,498 -1286,642 -644,229 -1467,294 -2252,346 -754,50 -1474,89 -2177,222 -1411,269 -2758,920 -4119,1513 -1945,847 -3916,1575 -5656,2707 -1269,826 -2415,1867 -3672,2730 -648,446 -1325,844 -1809,1515 -164,226 -305,483 -539,586 -262,116 -640,38 -880,-146 -276,-211 -372,-561 -563,-855 -638,-983 -1618,-635 -2592,-562 -791,59 -1572,-67 -2201,269 -329,175 -616,476 -832,806 -238,363 -390,761 -679,1081 -259,286 -505,392 -890,347 -699,-81 -1255,-625 -1895,-888 -827,-341 -1794,-211 -2707,-39 -992,187 -1919,425 -2862,696 -900,258 -1814,546 -2668,888 -1197,479 -2274,1065 -3674,1429 -682,178 -1440,303 -1740,811 -157,266 -189,636 -271,966 -90,364 -241,679 -232,1082 10,422 196,940 -39,1159 -233,217 -808,132 -1121,154 -219,16 -442,78 -657,155 -767,271 -1437,718 -2094,1177 -1455,1015 -2852,2093 -4201,3246 -1186,1013 -2335,2083 -3301,3297 -2109,2650 -3243,5816 -4811,8772 -434,819 -906,1628 -1123,2531 -210,876 -178,1842 -573,2625 -183,363 -457,687 -703,1028 -273,380 -510,782 -687,1208 -519,1252 -516,2718 -281,4073 85,484 199,955 302,1428 205,948 367,1909 491,2878 100,787 176,1579 187,2360 9,598 -20,1190 -225,1798 -174,516 -474,1045 -1125,1049 -318,2 -719,-122 -750,-38 -27,74 235,310 450,487 291,239 497,371 750,487 400,184 918,328 1388,262 965,-134 1727,-1152 1980,-2121 144,-551 123,-1087 223,-1635 98,-536 311,-1085 707,-1450 712,-655 2015,-718 2501,-1462 239,-366 280,-897 259,-1402 -26,-587 -137,-1138 -37,-1659 96,-504 388,-978 627,-1476 411,-850 669,-1764 924,-2582 184,-591 366,-1132 516,-1917 112,-581 205,-1295 296,-1439 181,-288 351,1707 704,2853 200,651 460,1028 733,1500 259,449 530,984 512,1501 -13,408 -207,803 -377,1194 -469,1072 -768,2103 -1047,3274 -123,514 -242,1056 -582,1394 -276,275 -699,416 -1047,639 -996,638 -1383,1949 -1570,3137 -269,1712 -122,3169 0,5055 57,884 109,1862 -465,2323 -228,183 -554,285 -873,349 -1224,244 -2349,-71 -3548,-639 -1131,-536 -2329,-1296 -3257,-988 -853,284 -1478,1471 -2326,2092 -1283,939 -3076,586 -4663,809 -1495,210 -2806,933 -4165,1595 -1613,787 -3293,1490 -5035,1648 -1614,147 -3280,-172 -4906,67 -1388,204 -2747,816 -3844,1670 -1252,977 -2162,2270 -3150,3606 -903,1222 -1871,2481 -3185,3005 -768,306 -1655,362 -2512,495 -1755,271 -3389,864 -5061,1343 -1932,553 -3913,954 -5895,1355 -410,132 -821,264 -969,161 -232,-162 180,-904 323,-1506 139,-589 21,-1044 54,-1506 58,-804 577,-1627 1023,-2420 464,-827 847,-1621 915,-2582 35,-499 -15,-1044 269,-1398 205,-254 582,-410 927,-434 407,-28 771,128 1176,267 450,155 951,288 1336,107 447,-212 787,-889 961,-1334 331,-845 474,-1763 695,-2669 363,-1492 934,-2949 1817,-4163 726,-1001 1664,-1837 2600,-2693 670,-613 1340,-1237 2018,-1767 595,-464 1197,-856 1923,-1357 297,-205 615,-428 729,-629 342,-601 -1139,-1000 -2287,-1755 -1443,-949 -2358,-2460 -2233,-2855 203,-637 3111,1626 4913,3166 981,838 1635,1462 2429,2057 534,400 1131,787 1815,1133 702,355 1435,655 2104,84 572,-488 708,-1289 1010,-2018 226,-543 544,-1046 1010,-1345 498,-319 1165,-406 1768,-336 875,102 1615,534 2524,672 974,149 2142,-39 2609,-1008 214,-444 281,-1052 505,-1177 278,-156 798,428 1347,840 1040,781 2186,945 2946,589 936,-439 1282,-1669 2356,-2858 1017,-1127 2688,-2217 2441,-2522 -197,-244 -1612,12 -2778,336 -1383,385 -2415,867 -3282,504 -762,-319 -1396,-1292 -1935,-2186 -527,-871 -964,-1667 -1600,-2353 -2603,-2814 -6935,-2691 -10352,-3783 -2497,-799 -4713,-2261 -6819,-3852 -2163,-1634 -4211,-3404 -5847,-5528 -1329,-1725 -2386,-3684 -3132,-5736 -682,-1873 -1104,-3825 -1710,-5714 -612,-1908 -1411,-3754 -1690,-5781 -65,-469 -102,-949 154,-1386 228,-389 688,-746 1097,-580 319,129 607,575 774,580 199,5 226,-614 226,-1128 0,-1194 -148,-1820 -807,-2546 -470,-519 -1201,-1088 -968,-1644 76,-180 254,-359 484,-386 277,-33 630,153 742,64 106,-83 1,-409 -77,-695 -189,-690 -219,-1153 -257,-1663 -75,-1005 -183,-2190 -352,-3294 -280,-1828 -730,-3435 -1713,-5209 -1219,-2200 -3260,-4658 -5244,-4332 -1083,178 -2149,1184 -2975,2217 -1681,2098 -2374,4307 -2722,7029 -125,984 -206,2035 -691,2635 -573,710 -1712,790 -2543,1976 -478,683 -854,1732 -1037,1537 -97,-103 -139,-558 -157,-972 -55,-1280 120,-2168 368,-3025 401,-1386 991,-2691 551,-4898 -248,-1245 -824,-2776 -1401,-2400 -206,134 -411,507 -501,850 -222,845 257,1501 401,2399 132,830 -22,1867 -651,2149 -514,232 -1347,-40 -1801,350 -328,281 -460,905 -801,1050 -499,212 -1446,-602 -1852,-550 -430,56 -250,1090 -102,2049 80,510 150,1000 -49,1091 -293,133 -1167,-595 -1490,-595 -375,-1 -9,976 298,1835 1261,3525 1547,5067 1688,7440 54,903 86,1925 -16,2902 -246,2359 -1277,4453 -2171,6662 -956,2364 -1719,4765 -880,7278 466,1398 1365,2563 2184,3886 753,1217 1439,2568 1222,3913 -245,1529 -1655,3051 -1364,4454 111,538 473,1059 836,1580 -4485,3403 -8969,6806 -13274,10422 -4667,3921 -9123,8091 -13580,12262 5493,-3108 10986,-6215 16419,-9426 3159,-1867 6298,-3769 9437,-5671 -236,1248 -472,2496 -614,3755 -158,1406 -197,2825 -537,4215 -414,1698 -1276,3350 -1458,4982 -120,1080 58,2151 205,3430 62,541 118,1120 -286,1426 -297,225 -842,303 -904,571 -41,173 121,425 190,665 85,297 27,575 0,856 -71,734 67,1485 143,2234 274,2701 -256,5375 -588,8052 -181,1462 -303,2924 -425,4387 -6583,2821 -7886,3080 -13327,7976 -2902,2612 -6094,1429 -10590,4152 -3196,2262 1653,1633 3789,2004 2050,-421 2703,-2167 5999,-2590 3988,-511 7333,-4996 10874,-5474 3756,-507 5207,198 9485,-680 1956,-401 3154,-456 5021,-958 2329,-627 9856,-2551 11730,-2062 1269,332 8190,2061 8965,1513 2409,-1705 7254,-1587 10621,-3433 2835,-1554 6899,-1214 10136,-3039 3910,-2204 8421,-2697 12784,-2724 3387,-20 4697,-961 7317,-2702 2447,-1626 10016,-1479 13007,-661 1756,481 5792,452 8016,741 6264,815 9232,2173 16106,967 3503,-615 9690,-452 13165,1237 3840,1867 1736,2515 7612,524 1246,-422 9372,-3847 8145,-2954 1849,-351 2146,-1434 6059,-1803 5127,-484 11607,818 16238,-692 2445,-797 6728,-959 8892,-2403 1312,-875 257,413 1328,-1470 1201,-2111 4266,-2944 6521,-2996 207,-5 6292,-1229 6888,-1499 1981,-899 12858,-642 13682,-283 2488,1087 6108,862 8753,757 2723,-107 5184,-1265 7772,-1265 6818,0 13637,0 20455,1 -12,12 3372,-510 4272,-510 5562,0 3029,-68 6926,499 1851,269 2106,45 4370,813 1567,532 2933,300 4687,975 333,129 6332,1156 7225,1303 2602,431 5141,1374 7769,1546 1453,96 2664,831 4847,981 1844,127 1329,499 4429,498 1744,-1 16055,-107 16476,104 1,31 2979,-2084 3813,-2349 1254,-399 2159,-1596 4514,-2061 843,-167 944,-348 2306,-549 6941,-1285 8213,-1979 14272,-4491 3134,-1299 4768,-1074 7871,-2406 4404,-1889 17405,492 21530,-1410 2612,-1205 2013,-1324 5366,-1434 3282,-109 7284,41 10705,15 3871,-28 7082,469 10949,379 1080,-25 5331,-112 6100,476 -330,307 -778,-174 1352,-471 3878,-542 5914,330 10278,-984 475,-143 1649,-497 2083,-239 -508,910 -92,-65 2272,-625 4375,-1037 2798,-1045 8218,-949 2555,45 10787,384 12815,-621 3937,-1950 4135,-2298 8689,-2492 1425,-38 1948,-713 4181,-585 65,4 5246,-3137 5960,-3444 1315,-567 739,-903 1904,-2168 980,-1065 1652,-1883 2766,-3013 70,-71 -406,-3145 -3054,-2822 -3203,391 -6667,124 -9478,-1598zm-132924 -11485c-274,-747 -549,-1495 -831,-2166 -359,-850 -730,-1577 -1194,-2690 -279,-669 -591,-1477 -306,-1743 270,-251 1077,-14 1653,276 576,290 921,634 1316,1039 1188,1221 1315,1686 520,3210 -388,743 -773,1409 -1158,2074zm8637 -1030c-318,-336 -637,-673 -711,-1182 -54,-373 23,-837 218,-985 339,-259 1037,442 1282,1202 146,455 130,930 -118,1045 -160,73 -415,-4 -671,-80zm-3039 1696c-290,-421 -580,-842 -631,-1518 -44,-577 86,-1340 473,-1321 144,8 323,123 454,257 304,309 352,716 395,1143 82,822 0,992 -691,1439zm-81176 18890c-126,-164 -84,-553 25,-877 184,-547 558,-911 1033,-1058 366,-113 792,-98 1137,51 399,173 690,525 982,878 -529,182 -1058,365 -1783,696 -540,247 -1190,577 -1394,310zm36597 -4697c310,-694 272,-1332 700,-1880 390,-498 1164,-923 1664,-744 386,139 609,638 832,1138 725,609 1452,1218 1182,1661 -287,471 -1424,633 -1927,875 -448,216 -816,606 -1400,743 -596,139 -1415,15 -1577,-350 -153,-347 288,-911 526,-1443zm63140 -4731c619,-2299 1238,-4598 2084,-6756 693,-1766 1538,-3438 2124,-5381 209,-695 386,-1425 723,-1939 803,-1227 2516,-1228 4609,-1766 1664,-427 3567,-1193 3915,-252 118,318 58,830 0,1324 -272,2310 -519,4221 -947,6119 -383,1699 -912,3387 -1149,5425 -73,635 -119,1305 -509,1652 -323,289 -884,356 -1399,318 -740,-54 -1384,-322 -2037,-318 -764,6 -1538,387 -2291,763 -873,437 -1717,869 -2354,1526 -439,453 -780,1013 -1400,1334 -307,160 -682,260 -936,201 -608,-141 -520,-1196 -433,-2250zm-35203 6932c-114,-496 608,-1320 1350,-1686 778,-384 1579,-264 2265,48 792,360 1433,975 2074,1589 -954,340 -1907,680 -3279,723 -1023,32 -2278,-100 -2410,-674zm53848 -42411c-214,-601 -674,-2515 -841,-3069l9832 -10668 -655 3380c-206,2017 -512,3047 -1180,4980 -386,1117 -858,2225 -1451,3178 -684,1098 -1528,1991 -2847,2843 -724,468 -1591,923 -2121,614 -350,-205 -553,-742 -737,-1258zm77084 32871c135,-2503 685,-4951 1405,-7485 558,-1961 1217,-3974 1796,-5614 826,-2343 1488,-3929 3206,-7783 913,-2049 2125,-4739 2311,-3832 47,229 29,688 0,1130 -221,3426 -1050,5897 -1869,8547 -1036,3355 -2056,6998 -2629,10757 -716,5032 -622,7212 -3905,11121 -233,-2379 -403,-4440 -315,-6841zm-398476 31754c-497,1355 -1064,2516 -1632,3676 -306,-1127 -612,-2253 -833,-3260 -289,-1320 -431,-2434 -1249,-4230 -515,-1130 -1298,-2529 -868,-2636 259,-64 961,344 1492,763 1156,911 1508,1876 2361,2774 364,384 819,755 972,1214 169,507 -31,1121 -243,1699zm126585 -10825c-210,391 -981,317 -1603,308 -564,-9 -1006,35 -1479,30 -426,-4 -876,-48 -1326,-92 91,-443 183,-887 277,-1447 83,-483 168,-1053 494,-1170 216,-77 538,44 832,123 648,175 1161,145 1849,123 360,-11 767,-21 956,154 247,229 120,772 92,1263 -15,277 0,537 -92,708zm40331 -5039c-1878,160 -3485,620 -5091,1080 141,-339 283,-678 383,-1115 79,-348 132,-758 0,-940 -228,-313 -1005,55 -1604,244 -538,170 -932,195 -1429,279 -358,59 -770,149 -1047,-36 -182,-121 -306,-360 -348,-592 -84,-453 145,-877 243,-1323 112,-503 57,-1035 245,-1498 135,-332 394,-629 697,-836 488,-332 1089,-430 1674,-522 838,-133 1645,-256 2476,-418 755,-148 1530,-327 2162,-732 437,-279 805,-666 1151,-1080 243,-291 476,-595 592,-940 152,-450 106,-971 244,-1428 171,-564 623,-1032 1116,-1393 578,-424 1215,-701 1848,-976 308,-133 616,-265 977,-278 549,-20 1222,236 1395,662 152,376 -87,884 -140,1358 -60,537 119,1029 209,1533 194,1080 -19,2215 -209,3309 -175,1009 -331,1982 -627,2995 -168,573 -381,1158 -733,1567 -879,1023 -2625,948 -4184,1080zm-81263 11193c-133,263 -172,602 -323,805 -331,445 -1201,238 -1898,107 -470,-89 -862,-143 -1271,-179 -646,-57 -1335,-68 -2025,-79 -435,-726 -870,-1452 -1223,-2217 -940,-2040 -1315,-4430 -951,-6651 179,-1090 537,-2136 861,-3213 300,-996 570,-2018 543,-3031 -12,-476 -91,-951 46,-1448 86,-314 258,-638 498,-769 372,-203 907,58 1404,226 690,233 1309,286 1948,317 924,44 1892,42 2853,90 824,42 1642,121 2446,-45 811,-166 1608,-581 2356,-724 456,-87 894,-74 1449,-407 321,-193 681,-501 770,-407 70,74 -28,397 -90,679 -132,595 -104,1002 -46,1447 102,783 297,1683 227,2534 -109,1339 -859,2539 -1132,3846 -189,901 -158,1859 -227,2760 -74,955 -262,1845 -498,2895 -176,782 -380,1653 -906,1991 -645,415 -1775,33 -2673,181 -442,73 -829,275 -1223,498 -361,204 -730,426 -915,794zm-9950 1389c-232,245 -616,271 -979,308 -778,78 -1463,203 -2183,251 -604,40 -1232,26 -1820,-279 -560,-291 -1083,-847 -1595,-727 -475,111 -848,716 -1288,950 -461,245 -1079,168 -1651,56 -816,-159 -1538,-386 -2296,-531 -689,-132 -1408,-195 -2127,-259 -114,-824 -228,-1648 -357,-2496 -313,-2062 -348,-2892 934,-4608 870,-1164 1890,-2152 2992,-3041 629,-508 1285,-983 1882,-1548 542,-513 1035,-1100 1466,-1658 339,-438 640,-859 941,-1465 331,-667 612,-1480 1411,-773 580,513 647,1286 996,1906 224,398 565,733 747,1162 129,301 179,649 111,967 -72,336 -275,638 -360,967 -74,291 -55,604 -27,912 109,1203 387,2610 909,3705 333,698 789,1330 1059,2061 217,584 310,1216 536,1791 160,409 387,789 616,1175 218,369 435,806 83,1174zm24139 -3665c-587,84 -1210,-62 -1803,0 -548,58 -1070,293 -1608,438 -602,163 -1224,214 -1846,264 -101,-1165 -202,-2330 0,-3442 197,-1079 680,-2109 1023,-3180 345,-1078 548,-2198 905,-3237 333,-969 799,-1868 1393,-2807 657,-1037 1090,-1448 2346,-1171 580,128 1114,353 1671,322 510,-28 1041,-272 1554,-147 264,65 523,228 674,440 279,394 183,959 88,1493 -180,1011 -354,1914 -528,2782 -115,571 -229,1127 -616,1757 -215,351 -514,725 -762,703 -258,-23 -460,-473 -762,-761 -240,-229 -543,-357 -792,-323 -482,67 -760,742 -1114,1230 -553,763 -1295,1071 -1759,1904 -243,436 -410,1017 -176,1347 154,216 481,324 792,410 608,168 1158,251 1726,224 728,-35 1486,-253 2149,-588 536,-272 1010,-621 1618,-794 471,-134 1023,-163 1325,-441 337,-310 365,-930 412,-1499 91,-1101 255,-2013 471,-2969 273,-1214 629,-2498 1030,-3675 269,-790 559,-1531 899,-2401 199,-510 416,-1065 295,-1475 -185,-630 -1164,-918 -1891,-1328 -862,-486 -1368,-1144 -2142,-1709 -226,-165 -475,-323 -595,-535 -197,-349 -49,-848 89,-1309 284,-946 526,-1736 834,-2557 419,-1122 959,-2303 1063,-3516 104,-1215 -229,-2461 -144,-3677 56,-792 289,-1571 526,-2340 301,-973 607,-1929 861,-2913 269,-1046 478,-2124 1052,-3056 911,-1484 2626,-2435 4328,-1717 423,178 813,457 1056,815 479,705 388,1719 672,2541 499,1443 2072,2220 2832,3499 683,1153 657,2703 720,4027 65,1374 225,2506 487,4216 70,454 147,949 386,1058 398,184 1274,-716 1590,-673 239,33 86,666 -48,1203 -350,1394 -578,2132 -771,3032 -251,1164 -443,2601 -576,4006 -177,1876 -247,3696 -510,5381 -214,1369 -556,2649 -731,4333 -124,1191 -165,2585 -926,2969 -501,253 -1314,69 -2047,49 -919,-25 -1714,208 -2535,389 -1384,306 -2843,465 -4240,828 -1211,315 -2374,784 -3558,1168 -1052,342 -2121,618 -3168,1023 -403,155 -802,330 -1219,389z"/>
 </g>
</svg>
