<?xml version="1.0" encoding="UTF-8"?>
<!DOCTYPE svg PUBLIC "-//W3C//DTD SVG 1.1//EN" "http://www.w3.org/Graphics/SVG/1.1/DTD/svg11.dtd">
<!-- Creator: CorelDRAW X7 -->
<svg xmlns="http://www.w3.org/2000/svg" xml:space="preserve" width="594mm" height="841mm" version="1.1" style="shape-rendering:geometricPrecision; text-rendering:geometricPrecision; image-rendering:optimizeQuality; fill-rule:evenodd; clip-rule:evenodd"
viewBox="0 0 594000 841000"
 xmlns:xlink="http://www.w3.org/1999/xlink">
 <defs>
  <style type="text/css">
   <![CDATA[
    .fil0 {fill:#2B2A29}
   ]]>
  </style>
 </defs>
 <g id="Слой_x0020_1">
  <metadata id="CorelCorpID_0Corel-Layer"/>
  <path class="fil0" d="M334319 296310c-11425,-2119 -9194,-12363 -8741,-21159 354,-6875 -1226,-4074 -2050,-4765 -896,-2943 -1880,-4209 -2767,-7184 -942,-3169 -614,-4767 -1281,-7698 -2732,-11986 -17590,-5840 -6476,-39855 -19399,11282 -34127,37488 -19775,67552 12737,26683 33527,22985 49258,49189l765 751c-4569,-18737 -14197,-24306 -22253,-38281 -8069,-14004 -11367,-31199 -11256,-50252 14664,11868 5378,16793 13785,25778 727,13528 -4402,19203 7856,27544l2935 -1620zm-159313 -173878c6105,-2525 16632,-11360 17051,-19222 -3573,-1157 -6160,-2478 -11936,5965 -2556,3735 -4991,7861 -5115,13257zm57282 -35280c-15942,7922 -9566,24343 3757,18134 12985,-6053 9876,-24908 -3757,-18134zm93644 4176c-3802,13128 14318,17717 19295,4857 3566,-9211 -15537,-17835 -19295,-4857zm-4797 32990c-24329,-4333 -51969,-4032 -76046,1370 -16619,3727 -30029,9265 -44689,16494 -9043,4458 -7692,2819 -7554,13770 1371,108090 19,223166 19,332271 0,23662 2834,59921 -4254,80535 9210,6952 22405,21939 30173,32057 32383,42178 46740,68093 64957,116953l2519 5418 532 841 18295 -44383c6965,-14952 14666,-28770 22496,-41165 17381,-27510 36686,-51679 56914,-70034 -2700,-10142 -4203,-8107 -4113,-21670l31 -187111c0,-70403 -1457,-142368 81,-212567 -10309,-9356 -43241,-19907 -59361,-22779zm-34343 3207c29259,52 68437,9233 87301,22693 1879,33024 148,71450 148,105073l0 210021c0,24594 -2915,81672 2660,101626 -30878,26340 -64530,80843 -81819,119225 -2450,5440 -5368,14568 -8290,19264 -3188,-3648 -6541,-14843 -8836,-19936 -17432,-38660 -34771,-64913 -61126,-96752 -2573,-3109 -3126,-4803 -6272,-7754 -5813,-5455 -9149,-9991 -14160,-13566 2200,-10735 2740,-12112 2707,-24463l-4 -288938c0,-33675 -1473,-70806 196,-104054 24461,-13781 54483,-22496 87495,-22439zm-100318 15659c23130,-16963 64875,-28019 100318,-28015 28572,3 54538,5433 79771,17090 6462,2987 16125,9231 21155,10559 -3616,30046 -1012,76451 -1012,108655l-26 297907c-5,12263 2562,11451 5543,20423 -17239,13834 -35612,38074 -48913,56407 -40506,55828 -50032,106392 -56518,117407 -3397,-4484 -7189,-19592 -9371,-25773 -8945,-25348 -20370,-48023 -33724,-70699 -12047,-20453 -42414,-61997 -62825,-76994 4019,-11105 5870,-8539 5785,-23368l-23 -296584c0,-34886 1332,-72461 -160,-107015zm50496 -33174c-16333,6955 -28443,8402 -24798,-13098 948,-731 13616,-16567 30248,-18465l9494 1699 1454 778 1360 703c6174,17593 -4150,22586 -17758,28383zm70479 -10058c-413,-297 -1138,-707 35,-75l-35 75zm-76 163l76 -163c247,180 382,318 -76,163zm-34860 5858l-8716 481 -4742 158 2743 -20604c154,-3561 344,-9260 -50,-12803 -765,-6889 -2612,-6195 -3614,-9451l17780 -2291 -2592 17095c4972,-1024 13658,-3508 18656,-3678 8762,-299 8892,2392 14067,6037 1711,8357 2001,12391 -4464,16241 309,273 771,509 1042,661l2868 1509c996,446 1573,683 1882,787l-2511 5409 -27933 -659c6248,-4849 19548,-10853 15643,-20636 -9416,-10270 -19102,5173 -19862,15327l-197 6417zm58905 2808c-25442,-2224 -21746,-23971 -10879,-28492 7165,-2981 15662,-469 23525,776l6302 1959 3954 1652c2129,448 3140,222 5203,205 -1673,11535 -2384,13252 -2646,26157l1730 5021 -4263 -2291c-10015,-1229 -5211,-3439 -22926,-4987zm35090 9041c5460,-29351 -985,-18386 -1241,-28751 7988,3665 8205,1415 15253,6314 7280,5059 34340,8149 32775,27513 -260,3232 -267,2718 -1728,5096l-3136 3829 7235 3452 -4133 4173c-7397,-2278 -16406,-11246 -25818,-12085 2627,-3069 2499,-2192 6332,-3642l5645 -3867c2531,-1099 401,3554 2257,-2389 3212,-10286 -16201,-16685 -15154,-11007 -6832,4201 -5851,7661 -4778,17044l-13509 -5680zm-156603 -1048c-7916,6474 -14941,8062 -26468,8346l-8264 1949c-1104,6988 3900,7011 -12427,13765 307,-4609 809,-9633 971,-14200 260,-7364 -219,-7446 -4697,-9941 -199,-110 -643,-233 -927,-417 9319,-5539 7374,-7692 16655,-10784 8161,-2720 18945,-18890 31628,-11323 245,13989 -8499,14061 -9599,20506l13128 2099zm-25559 26164c1693,33850 -13,72958 -13,107261l39 299185c-16,12748 -2935,11046 -5928,20301 3027,3671 6194,5917 9849,9401 19209,18306 40876,48343 54675,71313 8779,14613 17617,31214 24487,48077 5473,13436 15792,39601 18849,53979l603 1168c2480,-13153 14365,-44296 19448,-56183 7690,-17985 15782,-32359 24571,-47999 8673,-15429 19979,-30508 29719,-42823 17911,-22642 21727,-22464 34201,-36933 -3244,-9260 -5941,-8925 -5900,-21587l25 -189706c0,-71254 1914,-145186 -4,-216403 856,441 1651,894 2264,1250 5387,3129 10413,6849 16449,8708l7570 2333 22668 -22882 -11762 -5611 177 -1837c1260,-15597 -8324,-26127 -21527,-32501 -3679,-1775 -7470,-3196 -11296,-4606 -1575,-580 -4239,-1436 -5650,-2281 -3447,-2399 -6796,-4236 -11013,-5373 -1200,-324 -2180,-568 -3156,-868l963 -6641 -15236 121 -406 8 -7336 -3367 32 1303 -4664 -1451 -935 -147c-10627,-1683 -19963,-4357 -30594,66 -966,402 -1897,861 -2792,1374 -1551,-1215 -2947,-2596 -4642,-3745 -5093,-3449 -10522,-4240 -16548,-4033l-2467 165 2381 -15700 -50375 6491 3954 12861 -2188 -391 -1902 217c-12563,1433 -22504,7672 -31349,15700 -10350,-4430 -20598,-1300 -29836,5201 -2340,1645 -7029,5756 -9343,6807 -4397,1458 -8256,3288 -11976,6439 -2565,2169 -4031,3656 -7021,5433l-18146 10784 17347 11198c-188,4318 -630,8638 -916,12951l-1397 20999 19446 -8045c5889,-2436 12529,-5081 16601,-9981zm47416 213234c-8129,-26340 -7316,-59256 2585,-84637 6033,-15473 11817,-23772 21163,-33537 5112,-5343 6418,-10736 10422,-17557 4377,-7455 9151,-10728 12291,-16343 -19153,3103 -29874,18281 -36570,23092 -493,3237 -9074,13938 -14844,27993 -9396,22878 -10308,52429 -5206,76821 2902,13882 5520,17502 9950,28228 551,1336 855,1984 1020,2327l-811 -6387zm24016 1360c-8523,-43672 -9500,-24832 -2269,-71893 932,-6074 -692,-13607 -532,-20168 171,-6936 1502,-12600 1958,-18899 -17019,15538 -22631,52598 -17956,81352 2440,15018 7303,25610 8919,42243 1221,12553 2671,38567 -2640,48334 2096,7148 818,23720 2442,33046 1779,10213 5578,17251 6501,27772 1428,16250 311,16272 4640,31175 2620,9023 3581,21078 669,29922 1358,2826 -888,4283 2075,-246l1393 -3769c7172,-24169 -4665,-34774 -6022,-62156 -1584,-31996 -2622,-45530 1815,-77448 1761,-12685 1464,-26677 -993,-39265zm40252 53035c1695,-18103 1523,-46718 536,-64910 -2096,-3720 219,-995 -3453,-3782l-11544 -6882c-540,25330 4121,47290 2729,73056 -668,12419 -3430,21020 -4501,32174 -1317,13734 39,22311 1834,35266 5619,10847 9649,43035 11390,57346 2508,20619 1211,31990 2694,49572 409,4847 426,10789 2792,14639 221,-11649 -433,-22400 200,-34040 967,-17768 1961,-48732 -2247,-65521 -12755,-50891 -4970,-38470 -430,-86918zm15976 51162c-13554,-58841 23086,-107108 -9071,-115291 1236,23507 1213,43897 -1640,67237 -2511,20544 -9897,39895 -2436,59999 20021,53937 2469,88861 18093,118729 -1072,-11313 -2697,-20419 -2589,-32901 278,-32366 6975,-57258 -2357,-97773zm20950 -135220c-17010,-20335 -43974,-21792 -48608,-59833 -2211,-18153 3692,-30711 11573,-41714 7642,-10668 17671,-13721 32719,-20586 -13802,-12133 -39717,5052 -45104,11996 -27704,35707 -24318,84925 26058,101403 8687,2841 16071,6141 23362,8734zm-49970 -128525l30487 -11312c-11998,-4343 -18142,-4184 -31766,-2462 -14798,6330 -25510,10184 -31740,22283 3357,-392 9764,-4023 14337,-5444 7358,-2283 11042,-2223 18682,-3065zm41625 -26320c-5786,-2198 -12274,-2770 -18717,-2733 -11249,63 -27266,3342 -34033,9787l16210 577c9941,304 18748,663 28023,3420 11021,3274 12568,8809 22696,2324 -191,-5382 797,-109 -1235,-5420 -237,-113 -592,-599 -677,-395 -147,348 -5943,-5160 -12267,-7560zm14322 25037c-4409,4549 -3990,1614 -5545,7963l8127 487 4660 -13505c-5144,1777 -3870,1579 -7242,5055zm12775 -15585l1331 2920c-3054,2925 -9469,17827 -5841,27330 1677,4392 3576,8087 5509,12336 3575,7853 332,8419 235,16435l-479 732 -1651 4599c-431,1552 -988,3464 -1305,4999 -2395,11549 2000,23170 3361,33940l-2414 2769c-1578,2740 -641,990 -1215,3861 -2205,1834 549,-2511 -2568,2561 -1707,2775 -30,-407 -922,2993l3490 -5554c902,-895 3,1501 2426,-2708 1541,-2681 644,-1098 1203,-3922l-72 -9786c-4615,-20718 942,-25184 146,-34484l2544 -6571c740,-3491 1232,-4599 133,-7604 -1400,-3830 -4146,-8666 -6038,-13047 -5886,-13650 1845,-16405 3458,-28879 1021,-851 946,265 927,-2500 -10,-1562 -945,-2752 -993,-2824 -4423,1923 -3055,-258 -5580,3736 1137,-385 3360,-839 4315,-1332zm-16010 11604c-21056,-6360 -40477,2123 -52593,13038 -11191,10083 -20795,23273 -24813,43901 -8249,42341 12555,79932 42023,91556 10409,4083 13921,5326 18520,14444 10630,21073 1084,37999 -1637,53591 -8504,48708 12175,64717 8359,116419 -757,10279 -3391,18518 -4454,27721 8709,-9104 13817,-32674 15703,-48109 5760,-47162 -11732,-48209 4169,-115629 11566,-49049 3566,-27806 1119,-51693 -4228,-2278 -6422,-4992 -11623,-7995 -13375,-7725 -24963,-7770 -38435,-16231 -13211,-8292 -28179,-20943 -29098,-43213 -916,-22148 5781,-42974 16935,-55246 6135,-6749 11196,-11734 21416,-15565 13319,-4995 18021,-1549 30412,68 1847,-3472 2442,-2546 3694,-5747 2695,-1965 3698,-2989 6227,-4802 1068,-766 2413,-1334 3010,-2037 2599,-3059 1288,1006 1707,-4218 -4291,4604 -7133,5765 -10641,9747zm-61894 324458c1979,34424 3812,14400 2330,58082 167,-6344 11062,-29588 3970,-70088 -1257,-7172 -4584,-14342 -4393,-20699 -1054,-1458 -330,68 -1460,-2801 -3996,-10134 -2789,-37040 -1066,-46517 3449,-18993 4772,-29665 4264,-50084 -455,-18355 -4796,-30435 -3016,-50918 876,-10044 -3169,-9924 -7581,-16893 -3284,-5182 -5689,-12828 -9336,-17592 -12717,27438 16762,50835 7849,110923 -3211,21656 -8845,31097 -3681,55584 1778,8417 5073,16159 7105,24766 2029,8598 3238,17328 5015,26237zm52206 -263252c5892,-1033 7087,-2629 11755,-1240l-371 -17840c85,-4936 2396,-9964 3287,-16015 2509,2678 1413,2396 4058,2655 3591,-19896 -20857,-16347 -28372,-1842 -3574,3625 -5133,14131 -3101,19106 1111,4725 2118,6550 4894,9390l7850 5786 -3179 555c30,3964 543,8352 2672,11637 2222,3430 522,1403 3535,3325 512,-4734 456,-7149 -1315,-11792l-1713 -3725zm14434 -20252c-207,4815 2208,5485 2352,5636l1289 -5581c-90,-1288 -1012,-3969 -1323,-5039 -1244,1474 -2185,1850 -2318,4984zm5264 -5210c620,4732 1319,3677 4725,4012 1905,-4823 -812,-6449 -2140,-10710 -1248,1427 -1043,199 -2028,2732 -214,552 -644,3296 -557,3966zm-1356 51311l5283 2723c142,-2105 -2928,-11742 -3333,-18293 -474,-7663 590,-14220 448,-21862 -1610,3499 -1392,8063 -1482,12919 -3546,-6278 -42,-8072 -4139,-12875 -1656,4671 2937,28520 3223,37388zm-3646 12606c1733,-17884 3822,459 -2134,-30726l-3768 -2135c-2756,-3319 1147,-1317 -3335,-4039 -1866,18129 3764,5594 28,20333 -2988,2548 -1887,383 -2577,4293l5304 -1842c3192,7080 118,11362 6027,16174 877,-1511 212,454 455,-2058zm-9365 126c2656,-5172 173,-5883 879,-7332l-4552 -2920c-80,4057 552,5357 2514,8702 107,180 487,966 567,774 79,-197 398,514 592,776z"/>
 </g>
</svg>
