<?xml version="1.0" encoding="UTF-8"?>
<!DOCTYPE svg PUBLIC "-//W3C//DTD SVG 1.1//EN" "http://www.w3.org/Graphics/SVG/1.1/DTD/svg11.dtd">
<!-- Creator: CorelDRAW X7 -->
<svg xmlns="http://www.w3.org/2000/svg" xml:space="preserve" width="594mm" height="841mm" version="1.1" style="shape-rendering:geometricPrecision; text-rendering:geometricPrecision; image-rendering:optimizeQuality; fill-rule:evenodd; clip-rule:evenodd"
viewBox="0 0 594000 841000"
 xmlns:xlink="http://www.w3.org/1999/xlink">
 <defs>
  <style type="text/css">
   <![CDATA[
    .fil0 {fill:#2B2A29}
   ]]>
  </style>
 </defs>
 <g id="Слой_x0020_1">
  <metadata id="CorelCorpID_0Corel-Layer"/>
  <path class="fil0" d="M193732 278180c6596,-3219 7783,-7257 19023,-7682 8554,-323 16256,1321 24124,-1533 -459,6323 -2334,12048 -2766,18818 -529,8298 -2359,8715 -9609,10907 -11477,3471 -21296,4643 -27530,12762 -2437,-8192 -4097,-24317 -3242,-33272zm134008 -186887c3039,-1186 1843,-367 2421,-2417 -2725,455 -1880,-365 -2421,2417zm139331 366538c-2632,-4085 -2916,-889 -2974,-858l749 1151c2705,1738 2069,-206 2225,-293zm38257 -96999c-1596,-2195 1458,-1524 -2879,-1407 79,715 -359,1343 453,1817 4061,2369 1395,143 2426,-410zm-46283 66947c3636,-626 2101,616 2907,-2876 -3869,618 -2481,-790 -2907,2876zm-248823 -304587c1799,-1460 2406,-515 858,-3473 -1429,670 -896,-1075 -1504,1080 -1055,3734 357,1930 646,2393zm129578 189002c3460,-691 5209,-990 3474,-5108l-3474 5108zm-56083 -206308c1634,1817 2407,2232 5023,859 -113,-142 -758,-1324 -1638,-1619 -4689,-1577 -3022,497 -3385,760zm-134442 120342c3252,-2005 1826,-3769 0,-5344 -772,1210 -966,-1551 -805,2587 82,2125 446,1893 805,2757zm326407 -149527c2611,2786 1002,-253 3526,808 185,78 1493,1120 1736,1272l-430 -3882c-4087,-597 -4333,1195 -4832,1802zm-200248 27599c2593,737 3202,1226 6082,-130 -1954,-3668 -5751,-1980 -6082,130zm93169 -19874c2055,1358 -2125,1052 2128,967 1741,-34 1402,-380 2263,-1077 -773,-3591 -3431,-4433 -4391,110zm-199585 16545c3128,-1149 2267,-1155 2947,-5555 -3311,932 -4862,2100 -2947,5555zm129589 -4391c2847,722 2437,819 5143,-738 -494,-794 -317,-2102 -2858,-2382 -1944,-215 -2137,1178 -2285,3120zm-150331 87118c719,-848 1654,-682 1415,-3137 -384,-3942 -603,-1964 -2539,-2798 -648,3237 -1299,4283 1124,5935zm46565 -57210c934,577 775,1499 3223,817 3802,-1058 1611,-1057 2038,-2534 -2406,-1395 -4569,-1086 -5261,1717zm-24964 172638l1697 -2612c-1607,-2053 -1366,-1935 -4405,-2568 -131,3798 -182,3764 2708,5180zm37344 -188324c2006,1282 3039,1293 5402,-624 -1194,-2316 268,-1627 -3260,-2247 -2178,1179 -1853,11 -2142,2871zm-9913 4268c1256,2409 1470,2885 4591,2386l757 -4572 -5348 2186zm40151 -7467c434,330 -1216,1906 3615,1065 2611,-455 2254,-1303 2757,-1923 -199,-114 -474,-543 -590,-350 -121,199 -465,-270 -637,-310 -2383,-565 -4722,-875 -5145,1518zm-96768 55228l783 -1305c1601,-6174 -1073,-4988 -1641,-5297 -449,797 -1353,773 -959,3685 356,2626 1193,2338 1817,2917zm82055 -53511c1159,598 1563,1773 4162,380 1269,-680 1630,-1920 1589,-3182 -2934,-435 -4839,-50 -5751,2802zm123525 221192l-47 -9325 -4029 208c1222,3295 2959,4018 4076,9117zm-180637 -162821c2870,3460 5265,2359 5992,-1925 -2043,-35 -1062,-423 -3358,208 -2052,564 -1911,633 -2634,1717zm36377 -41203c99,67 -162,2218 3820,1009 2026,-614 1778,-1321 1852,-3431 -6835,505 -4611,720 -5672,2422zm-54453 110637c1678,-4133 508,-5463 -2802,-6551 -287,3569 -366,5218 2802,6551zm128757 -169867c535,479 1806,1978 4169,1518 2161,-421 2178,-1215 2628,-3119 -1539,-87 -2455,-295 -4078,37 -2456,503 -1834,296 -2719,1564zm66786 20900c2750,797 2972,849 5101,-1157 -950,-2312 -563,-2223 -4276,-2567 -687,1178 -1106,422 -985,3179 5,103 104,364 160,545zm-134891 16870c65,48 -172,2299 3502,933 1768,-657 1804,-1840 2322,-3832 -3000,339 -5385,109 -5824,2899zm6424 1633c1507,3139 5346,4451 5874,-775 -2774,-1409 -3767,-573 -5874,775zm15865 -775c18,13 2416,3838 6807,-948 -1094,-1340 -170,-1371 -2598,-1221 -3398,208 -3032,441 -4209,2169zm-40783 8584c2765,2762 5064,2047 5541,-2232 -3298,-748 -4555,-1075 -5541,2232zm141581 -29152c3441,-407 4113,-388 5724,-2609l-2331 -2929c-2094,1648 -2616,2182 -3393,5538zm-101741 24860c942,1231 -672,1816 2729,1567 2819,-207 2486,-1298 3208,-2425 -1023,-770 2012,-1652 -2952,-1306 -3599,250 -2247,1477 -2985,2164zm107517 -31609c2797,-646 5738,-1767 6745,-4115 -5255,-1276 -6074,-750 -6745,4115zm-46866 26459c3200,1367 3914,1561 7189,576 -1187,-3358 -6103,-4802 -7189,-576zm48370 -21361c3840,-325 3979,104 6174,-1816 -1645,-3911 -5122,-3931 -6174,1816zm-116031 32170c3516,-150 5162,-719 5344,-3599 -4315,-1625 -6279,-1134 -5344,3599zm-16957 -508c2294,2448 6111,4575 6176,-1680 -1175,-140 -2170,-797 -4598,349 -1620,764 -892,549 -1578,1331zm-7488 -4159c4335,1033 5590,-109 6308,-4595 -3395,687 -5479,1064 -6308,4595zm147214 -33095c3328,1274 2851,1335 6142,-40 -375,-5698 -5588,-3349 -6142,40zm-12972 11295l7532 -155c-980,-3923 772,-925 -2610,-3700 -2979,780 -3798,962 -4922,3855zm-131776 31109c1663,2358 2909,3029 6203,858l-152 -2599c-2388,-392 -5825,-548 -6051,1741zm39256 -15661c3473,282 5079,54 7529,-1507 -2,-3 -667,-2394 -4480,-1969 -2748,306 -3035,1232 -3049,3476zm43233 -2365c3332,1805 3647,1002 7022,153 -801,-2776 -726,-2034 -2600,-3768 -2262,1025 -3164,1068 -4422,3615zm7380 -3843c3278,1163 3560,1278 6558,-449 -785,-2628 18,-534 -1275,-3070 -3300,-84 -5044,878 -5283,3519zm-76259 21936c1865,-366 2634,-303 4228,-1445 4541,-3254 -1051,-4326 -2597,-3498 -1872,1003 -1256,1943 -1631,4943zm135100 -37837c2825,1719 4202,1388 6844,304l-315 -2212c-6,-1 -6895,-3098 -6529,1908zm-159181 37770c1490,1274 2214,2487 6294,858l7 -3869c-3512,243 -4695,136 -6301,3011zm23948 -8584c654,2403 -166,2517 3041,2758 4333,326 3557,-1687 3676,-3985 -2042,-333 -4749,-171 -6717,1227zm70252 -43778c2449,1930 5906,2380 8360,0 -118,-184 -103,-2336 -4339,-2292 -2568,28 -3052,1015 -4021,2292zm-48572 -10914c1731,238 2383,360 4210,59 579,-95 1267,-227 1883,-510 2284,-1048 1145,-708 1853,-1512 -2900,-3116 -8408,-2258 -7946,1963zm-77007 210448c1179,-915 651,-26 1537,-1397 748,-1158 611,-1445 924,-2422 -1721,-1618 -3139,-2320 -5974,-2790 286,3624 441,4638 3513,6609zm56590 -125909c39,255 -44,2478 -4,2745 611,4056 2759,3339 4714,886 -802,-2453 113,-606 -3008,-2575 2,-3 1502,-592 938,-2451l-4880 -1277 2240 2672zm242230 235229c3539,-1330 5295,-8233 3338,-11638 -2070,2477 -4178,7543 -3338,11638zm4866 28437c5010,-1300 7720,-7153 6954,-13670 -1559,2236 -1798,4511 -3242,6932 -1346,2256 -2997,3350 -3712,6738zm-143214 -359610c2788,2310 7132,4038 11068,1717 -1189,-2674 -2863,-3312 -7641,-2758 -339,40 -1337,193 -1622,262 -2485,603 -1197,444 -1805,779zm132487 318681c2827,-714 2325,159 3645,-2394l2342 -7836c494,-3187 -755,-2563 -1334,-3132l-4653 13362zm5219 91635l1843 1298c236,137 1032,387 1250,525 2294,1460 644,-80 1740,1996 -508,-275 -2376,-1346 -2742,-1398 -6762,-968 -497,-673 -2869,1013 3156,3965 7382,2974 10570,532l-3885 -978 -1069 -3771 -4838 783zm-176277 -189707c-503,3996 -393,5922 3426,7118l2226 -9397c-2759,319 -3638,671 -5652,2279zm51521 58283c9050,1422 5134,1877 8560,7590 2151,-456 2269,173 2444,-2261 75,-1044 -1055,-3928 -1467,-4481 -999,-1341 -2081,-1914 -4375,-2121 -766,-69 -1911,-57 -2665,81 -3958,729 -2102,847 -2497,1192 -8931,-215 -3637,13683 5116,7814l263 -4301c-2823,-1984 -2756,-1613 -5591,-1076 -120,3762 -796,1334 1046,3686 1095,-1427 218,607 772,-1435 39,-144 40,-919 86,-1201 2926,647 2523,367 1933,3782 -6495,1144 -8323,-1487 -3625,-7269zm157996 -11227c406,-3627 -238,-4508 -1224,-7457 -4451,-22 -4792,1351 -8995,-631 3205,4654 4892,5778 10219,8088zm-107688 -1056c-194,-232 -472,-875 -593,-688l-5328 -4746c-2199,-1936 -3865,-3177 -7898,-2288 940,4699 7604,7369 13819,7722zm117494 37560c-1711,-5667 -5978,-7298 -11973,-8908 1857,8449 4934,6325 11973,8908zm-8904 -26478c423,-7122 -3330,-9761 -8720,-11568 1281,6427 3700,9637 8720,11568zm-99030 -12785c-11093,-6410 -8397,-9535 -16328,-8258 926,2035 550,1563 2882,3369 969,751 2126,1705 3457,2536 3197,1993 5640,2697 9989,2353zm103602 31663c27,-5187 -5867,-11214 -10390,-11405 2241,11972 3295,5829 10390,11405zm-1595 -7615c1047,-5397 -535,-6409 -3669,-8539 -3099,-2107 -4237,-3864 -6879,-5432 -7,7250 3043,6604 10548,13971zm-17608 -34182c2184,-678 648,1667 2446,-2449 1540,-3525 2472,-10678 -3072,-13039 226,5029 -1677,12345 626,15488zm-93607 -243c2135,4256 11005,10133 17857,7284 -4446,-2608 -4679,-242 -11887,-7566l-5970 282zm88377 -1349l1322 -4650c1234,-7228 1715,-11200 -4926,-12524 2882,10886 -1317,13562 3604,17174zm-80853 -1117c1200,2314 -203,325 1212,1783 340,351 1606,1297 1938,1561 1795,1424 1727,1732 4189,2666 3204,1216 7776,1551 11472,813 -11540,-4944 -14925,-9800 -18811,-6823zm8567 -3325c-458,1909 -663,1548 2027,3479 6122,4397 10126,4720 17123,3436 -3140,-1355 -7200,-1538 -9985,-3686 -2828,-2181 -3888,-6156 -9165,-3229zm53976 899c-3987,-3556 -2516,-16802 -12250,-14899 249,2055 3170,5646 4652,8341 1886,3428 3197,6045 7598,6558zm-47334 -5301c2843,6321 11182,9652 18240,8705 -10986,-4525 -10870,-12364 -18240,-8705zm60920 7227c-737,-12924 314,-16357 -7491,-17186 3465,13239 2339,15839 7491,17186zm-6689 -1203c-3262,-13289 -2140,-16353 -10525,-16422 1551,3924 2993,5399 4283,9475 1399,4418 1707,6389 6242,6947zm-46115 -9197l6903 7757c2756,2216 6663,3330 10947,3093 -13809,-10249 -7362,-14690 -17850,-10850zm33603 8706c-1860,-2409 -4229,-5561 -6132,-8658 -2637,-4292 -2285,-6452 -9492,-5139l5830 8827c2269,3395 4357,4924 9794,4970zm36812 -7862c-1513,1688 -6769,18651 546,16284 2124,-687 4230,-4727 3488,-8174 -657,-3052 -2663,-6654 -4034,-8110zm-165597 40127c387,4420 2698,10563 5065,13146l6082 -4102c-3174,-3761 -5031,-3747 -4355,-10665l-6792 1621zm104585 -43881c525,1564 5414,7884 6248,8779 2360,2529 6107,4006 10617,4049 -9801,-9554 -4490,-6247 -8201,-10759 -1080,-1313 -1838,-1676 -3189,-3348l-5475 1279zm-199953 -183526c-4536,-392 -4236,-2493 -7770,1069 2018,4104 2870,2351 6911,754 1850,1991 350,1912 2799,2542 2102,542 2799,-183 3822,-686 -656,-3890 -223,-646 -3392,-3609l5853 516c192,637 -69,286 361,1347 3883,-67 6287,854 8363,-1722 -2432,-2499 -10383,-3402 -14592,-3460 -1,1 -767,1186 -924,1407l-1431 1842zm107126 125382l2114 1648c3142,1880 4819,2476 8345,2660 4900,255 9421,583 14645,770 -2635,-7329 -17467,-7712 -25104,-5078zm37706 76532l8899 -1885c1305,-3185 1586,-7931 1261,-11352l-8474 11c-1739,4169 -2026,8646 -1686,13226zm123031 48225c1568,1077 2235,1300 4377,2288 3554,1638 2388,1698 4488,3211 3562,2566 8287,143 6605,7456 -12226,107 -3047,-5373 -12549,-8450 1903,4392 9229,10497 6863,16598 4805,569 4399,-2409 6037,-6245 621,-1454 9535,-8635 -10892,-14939 -3124,-964 -3683,-718 -4929,81zm-281630 -174370c-2462,-1178 -11335,3828 -17972,4163 -11041,557 -9860,-2819 -18743,4304 6375,-771 15037,174 21966,-501 5008,-488 8231,-2086 11407,-5348l3342 -2618c-4205,13578 -31002,10909 -42171,10535 2029,-4292 5241,-5395 9131,-8413 1726,-1338 2985,-2619 4761,-3872 2436,-1718 3482,-1616 5551,-3108 -1990,3607 -2076,4078 -5357,6397 4020,-1390 4732,-1949 6858,-4776 2159,-2871 4125,-4472 5120,-7829 -3969,875 -27336,12122 -30123,14611 -2811,2511 -4808,11800 69,12618l18724 -261c8982,252 12583,400 19744,2099l7975 -9201c2882,-3046 4177,-7351 7574,-10104 -733,5068 -5355,8875 -8393,12734 -2544,3231 -6338,8209 -8420,13116 -1790,-3488 -893,-4079 -5075,-5455 1249,12395 -4937,23283 -12727,27255 3654,6424 4525,6021 2028,15643 -2122,8173 -4383,7703 -6627,12673 4849,3822 4834,9283 4479,15463 -182,3155 -1008,6215 -1240,8822 -311,3499 701,5104 606,9153 -2772,-6272 -3040,-14398 -4937,-21591 -4029,-15271 -6019,-30347 -9132,-45864 -734,-3658 -1371,-7549 -2037,-11515 -928,-5526 -152,-8611 -4419,-9616 -95,185 -191,290 -205,589 -14,295 -157,464 -169,591l19570 98271c2168,6703 6519,26660 6541,33692 -1409,-1922 -2477,-4674 -3870,-7162l-9015 -14156c-1174,-1588 -1271,-2047 -2471,-3469 -2046,-2424 -1126,-1791 -3887,-2866 -922,3736 1799,5239 3798,8037 9227,12917 18139,28779 18562,45473 276,10849 -1715,12850 -3479,21030 -362,-13243 3000,-37046 -7327,-47796 56,21404 -2349,2516 1792,27438 1442,8681 599,18857 -3355,26143 -10811,19926 -36155,8917 -26164,-10734 6898,-13566 23742,-19449 25589,-36241 1182,-10752 -1477,-17149 -6553,-23524 -1560,-1960 -5967,-7019 -7552,-7870 -3612,-1941 -9999,-2723 -13506,-794 5767,4383 10550,1696 17176,10844 5094,7033 6496,12887 3407,22921 -4912,15956 -17914,18983 -25104,33306 -8247,16431 5683,34290 24753,28100 33484,-10870 23768,-59848 18497,-86127 -2998,-14951 -4634,-38203 -3019,-53599 3238,-30867 13897,-59197 35650,-81193 21646,-21888 42232,-34422 73968,-42001 31814,-7597 72466,-3335 100031,8784 6954,3058 13674,6086 19699,9466 33315,18687 47370,51662 60258,85724 4754,12566 2400,2992 6446,21062 945,4222 1455,8679 1895,12742 719,6636 896,9851 2520,12444 1591,-2295 1033,-5846 500,-8588 -2097,-10782 -1126,-14594 2209,-23672 -8198,-5305 -8655,-5038 -8211,-17168 -181,-159 -477,-610 -567,-445 -717,1298 -886,-706 -1083,-880 -1795,-1591 -3004,-3149 -3740,-5898 -1159,-4329 -162,-8096 -485,-12520 -9003,-4028 -8758,-7987 -9464,-17987 -6036,-848 -6691,-1271 -8885,-6359 -2416,-5602 -2699,-7176 -2611,-13833 -13821,-5 -11503,-12968 -14781,-15901 -4826,-1820 -8814,30 -13454,-4663 -2710,-2742 -4439,-7443 -6304,-11480 -12660,-134 -21354,-1185 -25955,-10196 -4443,990 -6363,1220 -11197,-160 -4274,-1221 -4828,-3719 -6706,-7043 -16063,387 -36274,93 -43379,-14065 -2362,-4709 -761,-4485 -5983,-6064l-15320 -2711c-559,-62 -1714,-162 -2237,-121l-2554 707c2469,4961 6844,-2080 5067,3278l-746 1634 5308 1859c2817,1927 5543,6971 6740,10238 72,199 142,434 212,634l600 1904c903,2577 -654,26 690,1740 -11629,2329 -17765,1111 -29088,128 -9543,8451 -12737,9614 -25752,8082 -4221,6560 -2944,6301 -10913,10214 -6781,3329 -10710,3651 -18769,3702 1667,9945 -4550,13102 -14565,17921 -4375,2105 -7488,1723 -7767,1660l3835 -1630c-3184,-3767 -7050,-754 -6954,2726 94,3441 467,-122 283,2074 -209,2500 -486,1250 -2009,2422l-1860 1427c-112,83 -353,277 -543,395zm-58969 -18889c5789,-3706 -1312,-8857 16161,-27418 4412,-4686 5260,-4473 6117,-8738 -9434,2993 -23347,21910 -22278,36156zm24658 13821c2618,-484 28699,-12220 31457,-18650 -14719,2065 -6616,-1268 -24411,12718 -3207,2520 -4888,3094 -7046,5932zm315767 -67915c-2231,-1822 -5631,-1041 -7857,-4026 -2516,-3375 -1638,-3991 -5849,-7044 -6755,-4898 -9373,-4580 -18125,-7188 4176,5898 8983,2798 15105,11932 3434,5125 2554,2663 5363,4111 3169,1634 1728,6807 11363,2215zm-38873 5698c1678,2934 -234,650 2112,2113 1913,1193 6105,1678 8476,1937 8410,919 31573,5446 35969,3128l-32834 -7493c-5984,562 -7513,790 -13723,315zm-135283 146290l3581 1268c-2375,-409 -5074,-903 -8165,-1607l-2506 7925c10116,3283 17160,4824 28471,4075 -3116,-7632 -6866,-8531 -15060,-9927 2203,-2392 11024,-12766 11410,-13691 -4908,-3747 -6214,-3436 -10946,631 -2874,2470 -6412,6243 -6785,11326zm-21084 19957l-490 5713c9859,-622 19119,-7636 22199,-13703l-7415 -1994c-8915,9087 240,3059 -14294,9984zm-94849 126764c8000,-4585 21820,-44313 17249,-52377 -4319,1687 -1510,4425 -3553,13583 -974,4363 -2476,9058 -3582,13633 -2543,10525 -8295,19787 -10114,25161zm163895 -276503c-1807,-641 -9883,-3531 -11567,-4505 -2666,-1542 -5306,-6410 -7278,-9675 -2404,-348 -9030,-621 -11576,-732 -258,7776 14934,12961 20981,14422 3069,742 7383,2497 9440,490zm-88466 163276c548,2910 3191,6550 5320,12804 1635,4803 268,6308 3881,9923 1749,1749 818,1334 2643,1969 2133,-10435 -1335,-20829 -6502,-26768l-5342 2072zm-59641 -209842c2092,339 17537,1152 18282,946l10114 -5403c915,-504 950,-480 1711,-1022 1094,-779 885,-590 1622,-1388 -11517,-2569 -25225,245 -31729,6867zm293274 30329c1399,731 1148,756 3485,753l434 -2757c-148,-24 -451,-97 -643,-121l-4210 -222c-1375,-11599 -10800,-14196 -17850,-13227 -4764,655 -6148,1311 -6290,5657 6770,1562 11014,-1452 15598,2316 5977,4913 -1176,6360 8405,7390l1071 211c-2559,1075 -5888,3423 -8750,1140 -2630,-2098 751,828 -1507,-2777l-7668 1584c-171,-622 -492,-1593 -593,-1765 -764,-1306 -516,-905 -1181,-1644 -8683,4610 -10758,-2510 -11160,-2987 -5031,2341 -5321,722 -6422,49 -2118,-1295 1624,57 -2162,-1552 -10424,4881 -5409,2115 -16225,3024 -2745,231 -5611,916 -8204,1971 -2517,1023 -5049,2157 -6719,4203 6712,-1408 11582,-3788 18361,-2929 8407,1064 12261,-194 21062,2021l27779 6049c5628,563 7683,30 9065,-4181l-6835 2064c1013,-3023 655,-1760 1159,-4270zm-348467 148689c1251,-2177 951,-638 -846,-6084 -3778,-11454 8966,-34120 -1179,-52968 -1210,-2247 -885,-1663 -2267,-2799 -7553,8120 6141,2715 3065,29407 -1283,11125 -5955,23941 1227,32444zm127043 34389c169,-138 389,-611 449,-475 1046,2364 6759,-19820 6620,-29378l-6346 478c-1651,4938 -1489,9941 -2708,15083 -1658,6999 -2414,9213 1985,14292zm83027 -11084c8228,672 8329,2808 10858,-5036 1546,-4796 3721,-9263 3075,-14898l-9059 -197c-83,10968 -3620,12442 -4874,20131zm-25644 -24576c3016,10556 11619,5366 16687,-5547 3690,-7946 -1115,-10191 -8463,-10744 2837,9737 -647,13656 -8224,16291zm-66597 44904l-2002 -5982c-6971,1100 -16630,13566 -8843,21755 2713,2853 12138,4968 6897,-3413 -3920,-6269 695,-9041 3948,-12360zm143215 149362c2340,3414 9448,6221 15227,5098 5086,-988 7166,-5757 8190,-10615 -3851,-319 -11928,-1877 -14336,-885l-7523 4606c-1645,1270 -654,-46 -1558,1796zm-172766 -388856c2182,1200 -722,367 5255,1001 8624,917 8927,3168 15636,1822 9235,-1852 15007,-657 23699,-1424 -1785,-5579 -25506,-6221 -33883,-4563 -1745,345 -3828,799 -5737,1259 -335,80 -1981,474 -2603,708l-1788 858c-132,67 -398,207 -579,339zm109295 198802c7813,584 11706,-1268 18722,-1560 13462,-559 7721,3798 15336,5808 2297,-15032 -17389,-12579 -26737,-10991 -4734,804 -6654,2697 -7321,6743zm110685 198674c157,2550 -987,377 337,2913 1367,2618 300,-174 3404,751 91,27 314,165 403,199l2035 736c2401,525 -616,-1231 1619,968 2379,2341 -2267,613 1089,917 689,-4880 -3937,-23173 -21250,-21109l-4230 10308c3000,-1342 6187,-2353 10520,-1918 5239,526 5772,1354 6073,6235zm-96 -386317c140,154 366,181 431,452l3121 2634c12637,-8157 11110,-440 18985,1987 3174,979 6110,-18 9776,292 -1589,1936 -802,559 -1932,3260 1887,1221 485,796 2886,221 -3211,2872 -1968,1036 -1502,2213 1942,-757 6073,-4529 6976,-6767 -4862,-3716 -13833,-2971 -20638,-7803 -6898,-4898 -14972,-3160 -18103,3511zm-150216 244489c2992,237 4433,-363 6956,-1561 -1668,-3827 -6538,-6319 -2151,-13234 3435,-5412 18037,-4532 10090,7228 -10771,1139 -7680,-5435 -4349,-4559 2656,699 593,1315 2962,1762 130,-6489 -8370,-5117 -7448,3009 4473,3439 9526,4667 13206,-707 4115,-6009 2289,-10965 -4083,-13072 -11459,-3789 -21600,10180 -15183,21134zm50456 -6223c-5184,-8022 -7469,-6923 -8558,-10668 -1636,-5629 1845,-10488 5254,-12204 6588,-3316 19142,2101 21412,-6270 1539,-5674 -2325,-5674 -3326,-5882 -3095,5298 4513,7965 -10302,6840 -20466,-1555 -26971,25974 -4480,28184zm15885 -39175c3007,2764 7753,6561 3916,12774 -3418,5532 -5996,1135 -6310,11836 16209,194 23327,-29049 4155,-31160l-1761 6550zm-225272 -12176c-466,-3625 -3611,-7300 -4360,-12441 -1994,-13705 9256,-36423 -2381,-44298 -6327,7188 -2247,9975 -1467,12862 3275,12124 -5744,18862 3782,39248 1356,2901 1324,4077 4426,4629zm192439 -186057c2092,1934 7945,5373 6077,9508 -3276,7253 -32403,9312 -39647,12796 7517,485 21282,-2262 28479,-4205 8471,-2287 20204,-4219 17071,-14617l18190 1952c-1442,-2019 -2374,-2712 -5784,-4111 -6466,-2653 -19030,-5223 -24386,-1323zm30796 177509c-2027,-13203 -23771,-21170 -41745,-18376 1263,7865 13423,4356 21322,8159 13927,6704 6962,12015 20423,10217zm-83146 7957c-157,4491 -1169,2803 -2542,6125 -510,1233 -1428,5322 -1624,6643 9343,-652 10342,-8766 13662,-16139 1920,-4265 4823,-4804 7411,-8033 1863,-2324 6175,-6411 6873,-8278 -11130,-1338 -20395,4491 -22522,15028l-1258 4654c-230,-4048 2685,-10270 -10339,-8552l-12060 5255c-139,135 -368,394 -480,508 -113,116 -312,356 -478,523 846,-5830 4346,-7181 7458,-10109 -108,2302 -555,1285 405,2847 3673,-1021 3227,-1047 4356,-5027 721,-2542 2152,-5200 2388,-7623 -11133,-792 -30133,19008 -19620,42015 2708,-373 2915,-772 5060,-1804 -943,-9108 -2441,-9962 -779,-20233l455 1435c195,1305 206,689 231,2386 18,1194 -243,3001 -235,4528 15609,-4882 2061,-2651 20118,-5027l3520 -1122zm124084 -167023c-1586,-3893 -1453,-3148 -4153,-5378 -1881,-1554 -2690,-2639 -4231,-5223 -1314,-2203 -2142,-3857 -3446,-5961 -5168,-8340 -15049,-19560 -28148,-19175 3551,5521 2435,-84 10273,7846 4235,4285 5850,3090 8326,10513 2039,6112 2436,9377 6762,12174 4214,2725 8294,5007 14617,5204zm-277500 130360c1854,-31303 12784,-20639 14098,-60023 -2893,1493 -4316,3031 -5877,4724 -5786,6275 2187,2126 -5591,22747 -2740,7266 -5727,14312 -4981,23690 214,2702 826,6791 2351,8862zm99336 120517c-590,16937 691,16048 -5105,30263 1140,370 -605,155 1110,-502 2283,-875 -445,-1142 1320,-357 -762,6083 -3686,8300 -4170,11813 4705,-631 10469,-11965 12497,-16437 4113,-9068 4684,-14888 3323,-25936l-8975 1156zm-77567 -62548c-3030,-13017 3587,-31117 -6764,-39310 -3591,7510 -1286,7542 1194,13458 3522,8399 -3979,22627 4896,32912 2485,2879 2431,1462 4980,4434 2320,2705 1694,3310 5302,3862 -870,-3883 -5170,-3205 -6632,-12035 -1195,-7216 -130,-12562 -179,-19555 -43,-6217 -2853,-26241 -8843,-31052 -854,2609 3739,11954 5972,20983 1593,6442 705,19189 74,26303zm250570 -218789c5034,4443 7713,3072 11166,9836 6293,12327 11572,14686 23549,20157 5000,2285 5017,1039 9183,2001 3639,841 2912,3095 6763,3816 -2158,-9144 -19943,-12267 -24977,-19068 -5447,-7359 -2318,-3926 -10347,-11991 -2415,-2426 -11188,-6815 -15337,-4751zm-40528 44471c3136,723 6276,-349 10013,-95 7549,512 25254,9011 46749,688 4475,-1732 13412,-3231 16617,-5578 -8227,-4273 -19953,5584 -28414,6523 -14330,1591 -20472,-2005 -32862,-3583 1071,-895 318,-565 2046,-1249 3777,-1497 16513,-606 21580,-875 6442,-343 15605,-2051 20534,-5108 -11,-10 21,-2652 -6440,-1429 -5923,1121 -8213,3797 -21785,3807 -9646,6 -23016,280 -28038,6899zm-83589 217684l420 -5779c-3453,-24247 11620,-43621 39102,-42165 9374,496 16149,4752 22283,8518 3229,-1161 4768,-2635 7279,-4288 3583,-2358 4958,-1440 5660,-5609 -8411,2034 -9600,1949 -17887,276 1896,3068 6286,3090 8216,6440 -3486,-302 -7167,-3017 -10514,-4567 -4297,-1990 -8171,-2624 -13310,-3223 -27534,-3211 -47662,15278 -44083,44090 483,3883 918,5165 2834,6307zm164813 112881c3206,-626 5426,-2232 6553,-5460 1808,-5180 198,-3648 3118,-8822 2966,-5257 4513,-12382 4294,-19475 -191,151 -420,370 -541,492l-1434 1516c-8104,9889 -3760,6310 -6861,14721 -3696,-91 -4494,-988 -8461,60l-795 4349c2668,-740 4048,-2025 7674,-1088 561,2208 -1073,11075 -1815,12919 -1039,-909 -388,-210 -1139,-1453 -2239,-3701 -1759,-7731 -7595,-8120 -1407,11539 -2113,17740 -8006,28053 -3105,5435 -4467,789 -5571,5607 8623,3583 10679,-5433 13589,-11326 8559,-17338 2833,-10153 2724,-19511 3859,3259 2083,3239 4266,7538zm-129793 -185330c3164,5984 10572,15624 17452,18815 4573,2122 10652,1781 16222,1673 7240,-140 10575,-335 10139,-8329 -8516,-45 -17108,4561 -25477,-1162 -6328,-4326 -7235,-14355 -13883,-16843 -2103,2226 -2599,2540 -4453,5846zm-70200 78119c6709,-567 26097,-4028 30628,-6871 -1770,-4811 -6829,-11348 -10831,-14669 -1682,-1395 -546,-1085 -2875,-1789 -4037,6212 3879,4477 1744,13883 -3124,2271 -8600,2905 -12671,2769 -9592,-11240 862,-24393 -7726,-28586 -3544,6182 -96,28132 1731,35263zm159180 17716c-3795,-7147 -23761,-7745 -25190,-33398 -8484,519 -11878,235 -9688,9008 1297,5196 3927,9089 6439,13268 3425,5697 18171,12522 28439,11122zm-243426 -247949c17716,-3659 8598,-10149 27402,-24888 8620,-6757 22611,-10773 33997,-12204l5708 -1359c-11442,-5354 -34247,5056 -42244,9297 -9598,5091 -23306,17593 -24863,29154zm166946 -27538c22980,-6808 48671,8771 57124,5397 -522,-5479 -5821,-4050 -19070,-7434 -3423,-875 -6799,-1859 -10281,-2537 -3544,-690 -9150,-759 -11818,-1714 13364,-1414 21713,2393 34013,2546 -2082,-5211 -5822,-3909 -12196,-4877 -10608,-1612 -19170,-3461 -29414,394 -3585,1349 -7754,4732 -8358,8225zm-76705 229144c2386,-1109 2751,-1844 4486,-3996 -836,-4015 -1222,-1130 -1889,-5140 3017,-1756 5030,-4141 9278,-6163 6057,-2882 5695,-2562 6483,-9796 -10546,2099 -14370,7293 -18286,8367 -971,-18340 3696,-9356 1580,-23815 -11059,6018 -12729,32101 -1652,40543zm211041 -213502c-1335,-1560 -8455,-3728 -13710,-9286 -2895,-3062 -2431,-4904 -4465,-7557 -1933,-2523 -3942,-3049 -5975,-6256 2720,463 10034,6991 19923,1695 -2645,-1982 -25679,-5773 -26507,-6060 -18969,-6584 -14899,-10117 -20445,-11686 -653,6825 3943,11587 7522,14328 8511,6521 2983,5319 15569,7499 7874,1364 3956,2850 12260,10142 2721,2389 10617,7255 15828,7181zm-295929 48087c3796,449 28851,2126 29478,1756l-5293 -3127c7147,-222 14979,2569 18072,7285 723,4622 -589,-1376 -579,2769l240 1430c655,2710 -887,3406 -4918,5586 -3465,1874 -4011,2257 -7010,45 -5069,9322 -15246,10688 -20381,21728 4567,-2304 5266,-3575 8957,-5922 8444,-5368 23197,-8124 25498,-21021 2816,-15779 -19713,-14884 -29574,-15328 -9438,-424 -6187,-2547 -11397,-4525 -349,612 -2977,8494 -3093,9324zm339825 -51206c-3456,-236 -9091,1731 -7980,-2949 930,-781 -10,-2560 4252,-1389 2667,733 7723,4542 7228,8318 -464,3531 -3090,1493 -6890,1545 -3314,45 -6439,187 -9885,-391 1875,230 10305,-1313 15072,-1468l-1797 -3666zm-36108 24c-1441,1132 -1681,988 -2862,2683 10390,1537 6990,1533 9792,4327 6762,-3785 4007,-1211 7726,1679 7886,-5256 9590,701 10301,1400 4722,-4072 6003,-2409 9442,1310l3216 -775c3503,-47 876,1836 2566,-178 3964,-5928 981,-12336 -3205,-15921 -5203,-4456 -12892,-1640 -14193,3475 2771,3895 4142,1693 5448,4757 -7688,1747 -21903,-286 -24622,-1121 -2319,-712 -887,64 -2137,-1060 3803,-2234 10826,-3178 13065,-5890 -9112,1921 -6264,2378 -11899,-1810 -1689,2336 -1413,2931 -5185,3194 -2922,204 -5806,-232 -7916,-1287 -1615,-807 -1329,-777 -2621,-1746l-8818 -3257c239,2981 5359,6780 7987,8462 4444,2845 8603,2863 13915,1758zm-319887 76559c9407,2028 23328,-3478 25760,-11177 -4094,240 -9674,2961 -12999,1294 13726,-9464 28100,3080 31469,-7729 -4075,-3435 -25773,-6598 -29524,-3115 -1671,1552 -7859,12150 -11297,15343 -1814,1685 -3430,2460 -3409,5384zm179174 224457c3364,2117 7882,3211 12372,2892 1806,-4163 419,-16452 1167,-22076 853,-6409 4111,-14002 -2745,-16533 -10783,-3980 -10224,4199 -10554,11647 -266,5993 -1076,18707 -240,24070zm123248 -284542c-2614,-7163 -13833,-2853 -31331,-17694 -4260,-3613 -2280,-2711 -5254,-6756 -1525,-2074 -4416,-4337 -6364,-6508 -3911,-4359 -9765,-8078 -18395,-7338 3712,4052 8702,3785 12557,13186 9474,23104 26320,20340 34032,23470 1987,807 2618,1896 4436,2276 3389,708 1098,-55 1979,-171l1006 -180c4523,-201 1873,1411 7334,-285zm-224047 -42278c15731,-1570 24143,-6769 42451,-3901 15420,2416 12706,8976 34860,-4758 158,-98 444,-254 641,-415 -29450,-2633 -45036,-9038 -74143,6232l-3809 2842zm-100069 131992l418 -1197c20,-135 111,-455 128,-624 842,-8709 -3244,-11648 13508,-26211l13767 -15431c5121,-7277 12609,-23729 13061,-32268 -17506,3704 -3301,7550 -25353,35441 -6750,8539 -23254,24372 -17359,37831 898,2052 626,1338 1830,2459zm61423 -111182c6124,-2034 9277,-7731 24655,-9528 25705,-3005 38943,10032 59869,8323 7916,-646 19385,-8965 20443,-13571 -9558,2821 -12211,7171 -25623,7220 -14530,54 -26133,-14060 -57632,-5875 -8283,2153 -17722,5483 -21712,13431zm84989 169679c14561,327 7757,-1103 15681,-8884 8671,-8515 24825,-4054 34541,5236 2859,2734 2475,4007 5752,6353 4601,3296 4961,963 7127,-2860l-12457 -14195c-15769,-14293 -46423,-11141 -50644,14350zm-112816 167977c10008,1502 13424,-6189 16939,-12020 5213,-8648 21597,-49133 17296,-53873 -1458,-1606 -9343,439 -11373,1380 -1523,3918 -453,14316 -2054,20336 -7848,29501 -19514,39232 -20808,44177zm14421 -324487c7530,-2806 14789,-6961 24925,-6011 8110,760 16620,5189 22833,8194 18196,8803 34027,7344 51827,504 -3986,-2584 -11308,4069 -27982,-2048 -21599,-7923 -31222,-14739 -50907,-12417 -7855,927 -19453,5401 -20696,11778zm220330 340627c51,-130 210,428 333,631 6658,-1604 11394,-5113 8900,-11746 -2692,-7158 -3969,-9941 -8176,-14212 -7793,-7912 -16127,-14648 -30768,-14015 -5575,18215 8529,15582 15390,19080 11121,5671 10732,12437 13999,19637 67,148 272,753 322,625zm-50427 -27317l-135 -13600c-7509,-4289 -16339,-666 -25495,-9448 -5547,-5321 -776,-6273 -8138,-9881 -2250,-1103 -3992,-1784 -5741,-2833 -2648,-1589 -3059,-2890 -5549,-3498 -1738,26831 25124,39751 45058,39260zm-36235 -61672c1067,2942 5914,7824 8298,8944 5347,-542 6543,-7155 19504,-5711 8080,900 10936,6134 13259,13508l12408 301c1561,-8992 -4765,-23548 -18654,-26705 -12944,-2942 -29927,1594 -34815,9663zm-33331 -253229c7640,3527 18657,-3801 23406,-6791 4582,-2884 3997,-3540 7209,-8232 1789,-2614 6201,-7193 6836,-8547 -2099,4251 -5091,11416 -8050,15909 -5357,8132 -10008,5330 -15247,9378 3962,2236 12765,-1084 16949,-3383 7317,-4020 12018,-17407 16614,-22018 5484,-5501 11802,-8260 22841,-8211 7204,32 21491,4008 26941,3078 -11072,-6084 -11396,-6738 -26620,-8424 -12264,-1358 -21145,-1554 -30636,4366 -3978,2481 -6817,5439 -9279,8754l-7883 10153c-4401,5048 -9119,8874 -16153,11307 -3057,1058 -5317,641 -6928,2661zm4525 -25690c10426,206 11867,-3900 18888,-5367 -2519,5584 -5153,7610 -8677,11300 -3700,3873 -4398,5842 -11419,8348 -16863,6018 -25585,-814 -35891,-601 948,1556 5472,4876 6496,5587 -7824,-1760 -6239,-6442 -24078,-3347 216,176 559,110 697,463 78,200 24105,9408 29033,9698 19084,1126 36299,-6636 46746,-21438 6010,-8515 10527,-15283 21712,-18603 2737,-812 6087,-929 8346,-2638 -9965,-773 -21302,990 -29508,4613 -4999,2207 -6236,4337 -10501,6691 -3587,1979 -8674,3137 -11844,5294zm110539 366167c806,-5482 -2426,-11930 -7380,-12917 -6828,-1362 -10154,-339 -15060,-4566 -10790,-9298 -3940,-19855 -4445,-32617l-13772 -593c-4722,13156 -3558,31282 3840,39871 8867,10295 23539,12980 36817,10822zm-150109 -99197c2006,-2431 -493,-10839 -1220,-18074 -1147,-11415 -363,-26972 1717,-38100 1289,-6895 2985,-9427 5448,-15209 14090,-33082 49000,-44504 83005,-38285 11577,2117 20556,7690 28058,13191 12514,9175 29556,29506 29761,52829l4920 -1315c1145,-16235 -17301,-44253 -31786,-54420 -19889,-13960 -44160,-19308 -68507,-13235 -37750,9416 -54712,38125 -56430,73905 -318,6627 -520,14609 347,21135 434,3265 949,6433 1360,9555 1082,8226 853,7152 3327,8023zm148638 -239357c-8943,1424 -13968,3363 -21820,5537l-28449 6820c-10932,3179 2941,1784 -15755,667 -8003,-478 -16702,-1931 -23449,-4353 16512,-1050 23627,4527 41864,196 4446,-1056 32826,-7485 36659,-11068 -4503,-1067 -7129,-502 -12017,-2626 -6629,-2881 -4143,-2592 -10496,-396 -9379,3243 -37856,10992 -48217,10435 -10239,-551 -18384,-1094 -26352,3383 2129,1495 21558,3203 26904,4349 4784,1026 6938,2577 12536,2997 2595,194 4979,-235 7540,55 4411,501 2892,1312 5980,2580 5914,-5931 21468,-6910 31296,-9774 5560,-1621 9959,-3948 16000,-4738 6067,-793 10202,-214 14554,-642l4591 -1053c-1274,-1733 241,-208 -1498,-1346l-6953 -3410c-3158,-1954 -4938,-5155 -8268,-5627 -5245,-745 -5779,793 -12346,-1283 -3801,-1201 -6975,-2911 -10932,-3075 1675,4454 7282,6239 12626,7373 7210,1531 8658,-701 13036,2437 1652,1184 1505,947 2966,2562zm-90747 225896c496,-5332 -3231,-22409 12331,-26237 5800,-1426 11903,-119 16119,3080 5248,3984 4053,8276 6094,14231 1672,771 312,579 2724,539 1187,-19 2256,-430 3457,-737 -467,-3159 -2014,-6135 -2030,-10098 -18,-4447 1408,-7446 1994,-11326 -11841,-9538 -30835,-14052 -45108,-2168 -10601,8826 -11522,33351 -8351,35356 2069,1308 10429,-1690 12770,-2640zm37223 120829c-9357,-2781 -18566,-9433 -24052,-17131 -15286,-21448 -22562,-83451 -30717,-90704l-505 1442c-1078,5512 -16,-4079 -221,1475l1367 6322c6430,24006 17511,80809 34922,91211 2925,1748 3825,2760 6078,4215 9352,6039 34499,12143 46690,16055 10026,3217 22666,5661 33499,8506 11397,2992 22434,5156 33895,8187 14726,3895 19174,1944 32856,8693 1161,-9327 -674,-21544 -3978,-28981 -5272,-11871 -7405,-4271 -11206,-21433 -197,134 -1841,-830 -2186,5399 -126,2284 517,3975 1378,5667 1625,3196 4357,6710 6167,9323 4405,6360 6479,14872 5822,24284l-66531 -14999c-10146,-2983 -21921,-5709 -32144,-8323 -10603,-2710 -20633,-6087 -31134,-9208zm-206706 -277309c7030,-6621 -1222,-6723 9827,-27142 5142,-9503 10722,-13131 19560,-18243 8375,-4844 17156,-7139 26644,-11131l24673 -13106c-1872,-1921 -2175,-2742 -5753,-3644 -2074,-524 -7483,-1177 -9725,-916 -2389,278 -10808,5107 -14322,6579 -13457,5639 -10775,1931 -28448,11859 -15533,8726 -25337,37693 -23789,52075l1333 3669zm135361 173831c-588,13328 1206,26537 -4652,43395 -11344,32646 -73810,39716 -103478,39251 -1208,2460 -2652,3408 -3351,6060 28371,1638 84351,-6837 103644,-26951 5402,-5631 8555,-6194 10512,-16034 2755,-13861 7294,-32418 4849,-47480l-7524 1759zm-21561 4279c3225,36530 -19782,47900 -21517,57436 11692,-14 14841,-10323 20448,-12510 -3196,9283 -15048,14840 -23355,19026l-4419 2743c14656,-293 32459,-12912 38251,-21265 6361,-9176 12214,-34850 9529,-48999l-18937 3569zm101009 37815c16845,474 60021,753 57900,22457 -624,6387 -3493,4185 661,10067 1911,2704 3460,5499 4867,8776 8612,-5344 15175,-37989 -10573,-49436 -9161,-4073 -20809,-5171 -31617,-6113 -25468,-2218 -21970,-2468 -21238,14249zm76925 64815c3899,-1209 5393,-3826 7850,-6136 7242,-6809 7036,-18085 13657,-20781 6228,-2536 -1006,330 5233,1035 1245,-3976 -269,-4854 2457,-7835 541,-591 1272,-1055 2198,-2098 1405,-1584 3554,-4950 3717,-7412l-668 -3534c-747,3770 -1583,5816 -3813,8454 -1861,2203 -3866,4467 -8107,4656 -904,-6823 2983,-9143 5306,-13445 2223,-4118 5029,-10321 3004,-14666 -2437,5742 -1740,13371 -8432,14812 -1005,-12387 6859,-21257 4797,-27479 -2440,5818 -1470,10986 -7383,13222 -4970,-11144 6426,-20942 2625,-25402 -2164,6162 -2918,12184 -8951,12927 -2718,-9532 4940,-14843 5431,-25078l-9017 19103c-10011,-5516 -2763,-12648 -7,-14053 -1270,3788 -2984,5073 -2110,9507 4259,-1854 6865,-9596 8032,-14016 -11640,5432 -8837,6210 -22573,5547 -22260,-1073 -34424,903 -44897,-13621 -4377,-6070 -6499,-13494 -7041,-22140l-8010 -469c-1187,55949 46148,42265 66577,49166 14994,5065 19520,23718 17600,38625 -3573,27736 -16240,38220 -17475,41111zm-192163 -108432l6955 -1401c1249,-12782 -10894,-34321 6489,-76926 4127,-10115 12651,-18848 19245,-24457 7689,-6540 16308,-12386 29605,-14979 25755,-5024 54638,-1136 70713,13191 7036,6272 15971,15736 21081,23618 5978,9220 9041,20129 12942,31496l5638 -1782c1005,-6902 -9653,-29794 -12884,-35417 -3886,-6763 -5670,-8658 -10034,-14029 -20907,-25730 -53517,-34473 -89642,-26226 -15280,3488 -29591,11823 -38837,22130 -6052,6748 -8418,6465 -15681,21220 -11271,22898 -12847,59294 -5590,83562zm174857 31029c138,151 323,365 474,527 144,154 321,334 469,487 635,651 1170,1124 1800,1702 9261,8497 15023,18391 13806,32423 -737,8497 -1866,14341 -5699,20950 -13723,23663 -39229,18553 -54799,7902 -25082,-17156 -3321,-19876 -29613,-22902l-1779 2673c-1329,1132 -395,295 -2272,1106 -3021,1307 -1709,309 -4343,3083 830,7950 4424,5255 4957,11328 -4684,-2078 -9231,-6453 -8959,-12335 330,-7109 -3257,-11350 -10113,-9377 181,177 466,340 616,441 147,99 429,308 607,424l3942 2695c-482,5699 -4381,4930 158,11256 6310,8793 15724,17036 28306,18881 -2447,-3946 -7086,-7124 -7769,-13842 3594,3504 4508,8318 15800,15313 12198,7557 33814,14555 48780,11490 6172,-1264 17116,-7707 20115,-10764 6879,-7011 8251,-9250 12082,-18762 2571,-6381 4652,-18893 4377,-26392 -954,-25989 -12373,-29390 -31903,-29436l960 1129zm-138797 -342626l2016 1574c1233,874 4635,2867 4736,5430 -2051,7946 -8095,4420 -13469,1578 -4710,-2491 -12415,-4681 -18259,-4344 1939,2143 3563,2186 6061,4483 -402,14550 -23388,-1013 -35117,5150 4338,2865 7959,1241 7570,7758 -7454,3075 -23202,-284 -33668,2298 207,174 560,79 704,408 592,1364 8862,423 8915,4987 70,6070 -19366,5223 -31675,10958l1270 544c3925,961 9145,-178 6949,5093 -2825,6783 -27601,9188 -31259,14950 4254,-73 7195,-1269 10132,1226 2799,4739 -7360,8192 -11380,9894 -5980,2532 -11221,5103 -14073,9521 2886,-717 11866,-4846 8776,3008 -2887,7342 -16734,11669 -18597,20303 3863,-1127 4366,-2737 9435,-2417 2001,11226 -12522,15117 -14174,24439 433,-162 9017,-7729 9024,294 2,3652 -4770,7020 -7087,18400l2651 -1459c1334,-276 646,-1194 1831,602 2312,3502 -2247,14569 -3345,18555l1239 482c2529,1203 4320,953 4762,10739 255,5634 -990,10520 -2547,15389 161,109 482,-45 559,166 771,2122 -127,1 1105,262 1445,306 3232,-725 3902,5529 1219,11392 1018,10605 761,21512 177,91 491,-88 573,131 438,1163 4028,-2629 6541,9595 1090,5307 1461,10440 1516,16026 897,118 2643,-5074 4665,6142 924,5128 393,9383 951,14572 1520,-1274 1468,-2367 3459,-3452 1269,3629 2757,6077 3907,9814 1430,4648 778,6842 6033,6893 814,-6032 -5580,-16178 -7829,-22315l-15190 -48377c-2082,-7450 -3295,-19262 -4423,-27657 2245,-1273 2479,562 4544,-3433 -678,-1982 -967,-2955 -3292,-3838l-2013 -454c-4615,-28288 2345,-65507 20409,-88061 5897,-7362 9254,-13600 16905,-20000 4150,-3471 8872,-7072 13537,-10529 21401,-15859 60391,-31049 89381,-33263 15549,-1187 31165,-1179 46310,1005 12436,1793 19004,1806 32247,4558 8877,1844 5242,386 6251,4524 5904,239 3234,-43 4465,-2163 4822,-376 46614,9095 60449,10616 -3518,-8487 -6383,-5308 -12378,-10053 -3532,-2796 -7545,-7114 -12534,-8189 772,4407 4875,3422 2233,8252 -4201,1882 -12007,-3924 -14595,-6061 -5287,-4365 -5184,-7533 -13462,-9221 1841,1421 4736,4726 2305,8357 -8882,4238 -19877,-13986 -29882,-15397 2351,2522 10789,12022 -145,11338 -9611,-600 -11309,-13012 -23158,-15100 1686,3358 7504,6536 1785,10784 -9519,4516 -12464,-12158 -23974,-12970 1667,2392 5622,4424 3637,8750 -1680,3661 -6113,3132 -8916,1464 -5415,-3221 -8446,-10160 -18060,-9600zm-87654 249149c-698,-7112 586,-14872 1948,-21490 1710,-8309 3091,-9025 11960,-10399 12876,-1994 13047,4575 40056,1249 -348,3456 -4626,10945 -6122,15700 -4688,14901 -17623,6110 -32839,8437 -6016,920 -10665,4350 -15003,6503zm224291 -13810c-2162,-8381 -8401,-9886 -5906,-19450 6730,-25792 24659,-20760 31593,-44021l1627 -4332c3591,3279 8936,14251 11422,19589 7542,16199 -9444,25557 -22867,34192 -3194,2055 -6260,3664 -9130,6312 -3153,2910 -4069,4346 -6739,7710zm-219476 -21298c1831,-8902 3576,-14502 6596,-22343 3604,-9360 5082,-12455 17643,-8469 11773,3735 17450,13007 41909,13983 -471,2107 -547,1112 -2229,2847 -3701,3819 -9808,12836 -14190,14080 -18064,5129 -29287,-5042 -49729,-98zm14293 -36955c1356,-4661 3730,-7381 6341,-9976 7448,-7402 10672,-15070 18231,-14053 14817,1993 15824,18433 35809,27768 3693,1725 8600,2310 11466,3868l-16177 8181c-5409,974 -16969,-1083 -21905,-2626 -15213,-4755 -14761,-11805 -33765,-13162zm194807 36796c-2042,-1071 -11992,-12374 -12229,-15467 -1508,-19654 28695,-26805 25134,-55831 3515,1071 7290,3909 9244,6141 11674,13330 12571,13013 3443,29869 -9990,18445 -19097,8755 -25592,35288zm-169951 -65242c4312,-4377 12407,-10336 18359,-14158 5404,-3471 5079,-4107 11262,-953 3770,1923 6916,3357 9826,6469 8021,8575 6980,23148 17274,31653 3721,3074 7329,3936 10142,6175 -2780,1514 -7298,2131 -10573,3224 -4746,1583 -5367,943 -10010,-665l-13482 -6267 -10629 -9097c-2021,-2402 -2936,-4634 -5488,-7405 -8017,-8703 -10161,-5346 -16681,-8976zm31564 -20573c8334,-2835 14575,-5948 24217,-8541 12276,-3301 12442,-2663 18721,7767 5621,9339 3042,16310 4886,26827 2306,13146 4892,14071 10577,20839 -8827,1425 -15910,3210 -22591,-1066 -13829,-8853 -13666,-21270 -21431,-33517 -5809,-9163 -11136,-9107 -14379,-12309zm108545 59973c-1209,-17619 354,-17899 8230,-30032 5874,-9048 7441,-20966 4177,-32685 4609,935 18844,7502 20906,9464 4937,4698 3588,17329 1450,23951 -1781,5517 -9630,14247 -12859,17231 -4739,4381 -8909,11090 -8996,20132 -2321,-1154 -339,-133 -1850,-1174l-11058 -6887zm8571 -45849c-2104,14627 -17476,23542 -13213,43415 -3381,-972 -5177,-2218 -8395,-3560 -3958,-1652 -5289,-1337 -7282,-4758 -8593,-14746 -1567,-30925 -923,-39935 848,-11845 -248,-11508 -2771,-20744 8382,866 17414,2576 25266,4755 4837,1342 5640,2420 6775,7852 790,3783 1099,9108 543,12975zm-54856 31011c-13067,-11761 -7415,-22224 -11674,-39903 -2090,-8681 -5644,-11405 -8837,-17577 10205,-810 24376,-1975 34570,-268 6759,9824 7179,17773 4288,30571 -3739,16549 -1002,20318 2806,32089 -3712,-437 -7437,-1517 -11272,-1967 -5763,-678 -6232,339 -9881,-2945zm-132180 153647c11379,858 95181,-20343 102958,-19719 4936,14848 4248,19103 13611,29300 4968,5410 15973,15996 26525,16607l506 -15150c-5786,-4262 -10666,-4877 -17684,-12525 -3221,-3510 -8789,-15138 -8793,-21351 3178,-1896 28155,-7739 33051,-8331l-303 13033 14764 600 1649 -18176c-6490,-4874 -9457,-2158 -17524,-284 -6823,1585 -13508,3037 -20364,4542 -13435,2950 -26934,6674 -40401,9384 -18089,3641 -68326,16500 -81492,17433 -2544,-4669 -3475,-11372 -4392,-17276 -1715,-11047 -5503,-16749 16600,-23039 2826,-805 5517,-1095 8244,-2019 2988,-1012 5067,-2300 7901,-3206l3581 28856c1560,9221 1321,6879 4119,6932 1654,-2458 -1702,-16723 -2228,-20655 -3576,-26770 748,-59331 18493,-79682 8512,-9763 3314,-4808 12954,-12805 5307,-4403 7588,-6828 14937,-9970 34202,-14620 70545,-13516 97851,6988 7462,5603 19073,18767 23525,27118 2739,5138 5449,11536 7666,17212 1052,2691 5578,18206 6208,19114l2808 -1404c-1942,-11168 -10074,-18420 11503,-31907 12492,-7807 20314,-11230 27902,-22668 3154,3981 9130,22011 10726,28394 1318,5271 2542,10806 3696,16009 1222,5506 878,12792 5159,14431 4838,-14330 -19008,-77646 -30824,-94318 -4962,-7002 -12052,-17593 -19245,-23697 -41071,-34856 -107135,-47442 -164387,-22450 -23768,10376 -32590,18626 -48603,36373 -22744,25205 -33924,58465 -32908,94824 724,25919 8443,49033 12211,73482z"/>
 </g>
</svg>
